<?xml version="1.0" encoding="UTF-8"?>
<svg width="150px" height="150px" viewBox="0 0 150 150" version="1.1" xmlns="http://www.w3.org/2000/svg" xmlns:xlink="http://www.w3.org/1999/xlink">
    <title>single-story-all</title>
    <g id="single-story-all" stroke="none" stroke-width="1" fill="none" fill-rule="evenodd">
        <g id="noun-height-2395974-95968E" transform="translate(6.000000, 0.000000)" fill-rule="nonzero">
            <path d="M114.285453,12.193715 L114.285453,137.806285 L129.616847,122.474891 C131.011372,121.079809 133.272553,121.079809 134.667121,122.474891 C136.062203,123.869417 136.062203,126.130597 134.667121,127.525166 L113.238598,148.953688 C111.844073,150.348771 109.582892,150.348771 108.188324,148.953688 L86.7598017,127.525166 C85.3647192,126.13064 85.3647192,123.86946 86.7598017,122.474891 C88.1543271,121.079809 90.4155076,121.079809 91.8100759,122.474891 L107.141469,137.806285 L107.141469,12.193715 L91.8100759,27.5251085 C90.4155505,28.920191 88.1543699,28.920191 86.7598017,27.5251085 C85.3647192,26.1305831 85.3647192,23.8694026 86.7598017,22.4748343 L108.188324,1.04631189 C109.58285,-0.348770631 111.84403,-0.348770631 113.238598,1.04631189 L134.667121,22.4748343 C136.062203,23.8693597 136.062203,26.1305403 134.667121,27.5251085 C133.272595,28.920191 131.011415,28.920191 129.616847,27.5251085 L114.285453,12.193715 Z" id="Shape" fill="#F2B380"></path>
            <path d="M3.57142041,21.4286939 C1.59871063,21.4286939 0,19.8299832 0,17.8572735 C0,15.8845637 1.59871063,14.2858531 3.57142041,14.2858531 L60.7141469,14.2858531 C62.6868567,14.2858531 64.2855673,15.8845637 64.2855673,17.8572735 C64.2855673,19.8299832 62.6868567,21.4286939 60.7141469,21.4286939 L3.57142041,21.4286939 Z M3.57142041,42.8572163 C1.59871063,42.8572163 0,41.2585057 0,39.2857959 C0,37.3130861 1.59871063,35.7143755 3.57142041,35.7143755 L53.5713061,35.7143755 C55.5440159,35.7143755 57.1427265,37.3130861 57.1427265,39.2857959 C57.1427265,41.2585057 55.5440159,42.8572163 53.5713061,42.8572163 L3.57142041,42.8572163 Z M3.57142041,64.2857388 C1.59871063,64.2857388 0,62.6870281 0,60.7143184 C0,58.7416086 1.59871063,57.142898 3.57142041,57.142898 L60.7141469,57.142898 C62.6868567,57.142898 64.2855673,58.7416086 64.2855673,60.7143184 C64.2855673,62.6870281 62.6868567,64.2857388 60.7141469,64.2857388 L3.57142041,64.2857388 Z M3.57142041,85.7142612 C1.59871063,85.7142612 0,84.1155506 0,82.1428408 C0,80.170131 1.59871063,78.5714204 3.57142041,78.5714204 L53.5713061,78.5714204 C55.5440159,78.5714204 57.1427265,80.170131 57.1427265,82.1428408 C57.1427265,84.1155506 55.5440159,85.7142612 53.5713061,85.7142612 L3.57142041,85.7142612 Z M3.57142041,107.142784 C1.59871063,107.142784 0,105.544073 0,103.571363 C0,101.598653 1.59871063,99.9999429 3.57142041,99.9999429 L60.7141469,99.9999429 C62.6868567,99.9999429 64.2855673,101.598653 64.2855673,103.571363 C64.2855673,105.544073 62.6868567,107.142784 60.7141469,107.142784 L3.57142041,107.142784 Z M3.57142041,128.571306 C1.59871063,128.571306 0,126.972595 0,124.999886 C0,123.027176 1.59871063,121.428465 3.57142041,121.428465 L53.5713061,121.428465 C55.5440159,121.428465 57.1427265,123.027176 57.1427265,124.999886 C57.1427265,126.972595 55.5440159,128.571306 53.5713061,128.571306 L3.57142041,128.571306 Z" id="Shape" fill="#95958E"></path>
        </g>
    </g>
</svg>