<?xml version="1.0" encoding="UTF-8"?>
<svg width="150px" height="150px" viewBox="0 0 150 150" version="1.1" xmlns="http://www.w3.org/2000/svg" xmlns:xlink="http://www.w3.org/1999/xlink">
    <title>content-view-feed</title>
    <g id="content-view-feed" stroke="none" stroke-width="1" fill="none" fill-rule="evenodd">
        <path d="M141.09597,117.790607 C141.09597,121.894939 136.703867,125.232938 131.30343,125.232938 L18.6965702,125.232938 C13.296133,125.232938 8.9040296,121.894939 8.9040296,117.790607 L8.9040296,32.2104585 C8.9040296,28.1061261 13.296133,24.7668495 18.6965702,24.7668495 L131.30343,24.7668495 C136.703867,24.7668495 141.09597,28.1061261 141.09597,32.2104585 L141.09597,117.790607 Z" id="Shape" fill="#FFFFFF"></path>
        <g id="noun-blog-layout-273584-95968E" transform="translate(0.000000, 18.000000)" fill="#95958E">
            <path d="M131.30343,0 L18.6965702,0 C8.38774023,0 0,6.37484864 0,14.2095261 L0,99.7904739 C0,107.626003 8.38788037,114 18.6965702,114 L131.30343,114 C141.61226,114 150,107.625577 150,99.7904739 L150,14.2095261 C150,6.37474213 141.61212,0 131.30343,0 L131.30343,0 Z M141.097092,99.7904739 C141.097092,103.894845 136.703867,107.233726 131.30343,107.233726 L18.6965702,107.233726 C13.2966935,107.233726 8.90346902,103.894845 8.90346902,99.7904739 L8.90346902,14.2095261 C8.90346902,10.1055815 13.2966935,6.76669968 18.6965702,6.76669968 L131.30343,6.76669968 C136.703867,6.76669968 141.097092,10.1055815 141.097092,14.2095261 L141.097092,99.7904739 Z M75.748087,33.4079901 L111.800052,33.4079901 L111.800052,26.6412905 L75.748087,26.6412905 L75.748087,33.4079901 Z M75.748087,50.6999215 L121.046733,50.6999215 L121.046733,43.9332218 L75.748087,43.9332218 L75.748087,50.6999215 Z M75.748087,67.9918529 L100.540908,67.9918529 L100.540908,61.2255793 L75.748087,61.2255793 L75.748087,67.9918529 Z M75.748087,85.2848494 L115.20134,85.2848494 L115.20134,78.5181497 L75.748087,78.5181497 L75.748087,85.2848494 Z M28.4650061,50.6999215 L62.9487635,50.6999215 L62.9487635,26.641397 L28.4650061,26.641397 L28.4650061,50.6999215 Z M28.4650061,85.2848494 L62.9487635,85.2848494 L62.9487635,61.2263248 L28.4650061,61.2263248 L28.4650061,85.2848494 Z" id="Shape"></path>
        </g>
    </g>
</svg>