<?xml version="1.0" encoding="UTF-8"?>
<svg width="150px" height="150px" viewBox="0 0 150 150" version="1.1" xmlns="http://www.w3.org/2000/svg" xmlns:xlink="http://www.w3.org/1999/xlink">
    <title>activity</title>
    <g id="activity" stroke="none" stroke-width="1" fill="none" fill-rule="evenodd">
        <g transform="translate(0, 32)" fill="#95968E" fill-rule="nonzero" id="Path">
            <path d="M6.009234,71.0657651 L30.6000364,71.0657651 C32.5376033,71.0657651 34.9918022,69.9359721 35.8405211,68.0878271 C40.1522963,58.3064521 44.4640716,48.4879806 48.7819878,38.7124216 L38.3440055,38.7124216 C44.6301937,51.6682203 50.9225229,64.587237 57.2079238,77.5427214 C58.0936462,79.3909449 58.9793686,81.2022292 59.871232,83.0565831 C60.9168725,85.1872746 63.7032213,86.2371372 65.8744614,85.9548265 C68.2918143,85.635545 70.1492332,83.9409262 70.9119779,81.6505311 C73.6552766,73.3182778 76.3554308,64.9916833 79.0925885,56.6606875 C83.4473508,43.3795083 87.8021131,30.1036735 92.1508919,16.8228087 C93.1596234,13.7650189 94.1682919,10.707229 95.1771494,7.6494392 L83.5274988,7.6494392 C90.6194189,24.9087475 97.7174799,42.1759152 104.81003,59.4352234 C105.818761,61.8483828 106.784443,64.261385 107.793143,66.6376051 C108.838783,69.1304591 110.733269,71.0646648 113.636391,71.0646648 L143.947779,71.0646648 C147.090873,71.0646648 150.153977,68.2893429 149.993995,65.028937 C149.834077,61.768531 147.330687,58.9932091 143.947779,58.9932091 L113.636391,58.9932091 C115.573958,60.4791286 117.505226,61.9282346 119.479639,63.4202688 C112.387719,46.1609606 105.289658,28.8937929 98.1971084,11.6344846 C97.1883769,9.2213252 96.2226954,6.80832301 95.2139954,4.43210294 C94.2052639,2.01894356 92.2308825,-0.117721083 89.3707471,0.00504321391 C86.6274484,0.127846808 84.4132212,1.81632745 83.5274988,4.43210294 C80.7842001,12.7643562 78.0840459,21.0909508 75.3468882,29.4219466 C70.9921259,42.7031257 66.6373636,55.9789605 62.2885849,69.2598253 C61.2798534,72.3176151 60.2711848,75.375405 59.2623274,78.4331948 C62.9281945,77.9481265 66.6372062,77.4691886 70.3092143,76.9841045 C64.0230261,64.0283058 57.7306969,51.1092891 51.445296,38.1538047 C50.5595736,36.3055812 49.6738512,34.4942969 48.7819878,32.639943 C46.9305525,28.8146012 40.1154503,28.575203 38.3440055,32.639943 C34.0322303,42.421318 29.720455,52.2397895 25.4025387,62.0153486 C27.1371374,61.0083512 28.8715787,60.0014482 30.6430234,59.0374105 L6.05222106,59.0374105 C2.90912695,59.0374105 -0.153976582,61.8127324 0.00600456223,65.0731384 C0.129021559,68.2906318 2.62632564,71.0659538 6.009234,71.0659538 L6.009234,71.0657651 Z"></path>
        </g>
    </g>
</svg>