<?xml version="1.0" encoding="UTF-8"?>
<svg width="135px" height="135px" viewBox="0 0 135 135" version="1.1" xmlns="http://www.w3.org/2000/svg" xmlns:xlink="http://www.w3.org/1999/xlink">
    <title>add</title>
    <g id="add" stroke="none" stroke-width="1" fill="none" fill-rule="evenodd">
        <g id="noun-add-1571616-95978E" transform="translate(9.000000, 9.000000)" fill="#95968E" fill-rule="nonzero">
            <path d="M58,0 C54.1551112,0 51.0406908,3.11413259 51.0406908,6.95930925 L51.0406908,51.0406908 L6.95930925,51.0406908 C3.1144204,51.0406908 0,54.1548233 0,58 C0,61.8451767 3.11413259,64.9593092 6.95930925,64.9593092 L51.0406908,64.9593092 L51.0406908,109.040691 C51.0406908,112.88558 54.1548233,116 58,116 C61.8451767,116 64.9593092,112.885867 64.9593092,109.040691 L64.9593092,64.9593092 L109.040691,64.9593092 C112.88558,64.9593092 116,61.8451767 116,58 C116,54.1548233 112.885867,51.0406908 109.040691,51.0406908 L64.9593092,51.0406908 L64.9593092,6.95930925 C64.9593092,3.1144204 61.8451767,0 58,0 Z" id="Path"></path>
        </g>
    </g>
</svg>