<?xml version="1.0" encoding="UTF-8"?>
<svg width="150px" height="150px" viewBox="0 0 150 150" version="1.1" xmlns="http://www.w3.org/2000/svg" xmlns:xlink="http://www.w3.org/1999/xlink">
    <title>ai-brain</title>
    <g id="ai-brain" stroke="none" stroke-width="1" fill="none" fill-rule="evenodd">
        <g transform="translate(15, 15)" fill="#95968E" fill-rule="nonzero">
            <!-- Brain outline -->
            <path d="M60,0 C40,0 25,15 20,30 C10,35 0,50 0,65 C0,85 15,100 35,100 L35,110 C35,115 40,120 45,120 L75,120 C80,120 85,115 85,110 L85,100 C105,100 120,85 120,65 C120,50 110,35 100,30 C95,15 80,0 60,0 Z M60,10 C75,10 87,22 92,35 L95,35 C107,40 110,55 110,65 C110,80 100,90 85,90 L85,100 L75,100 L75,110 L45,110 L45,100 L35,100 L35,90 C20,90 10,80 10,65 C10,55 13,40 25,35 L28,35 C33,22 45,10 60,10 Z"></path>
            <!-- Neural connections -->
            <circle cx="40" cy="45" r="8"></circle>
            <circle cx="80" cy="45" r="8"></circle>
            <circle cx="60" cy="70" r="10"></circle>
            <circle cx="35" cy="70" r="5"></circle>
            <circle cx="85" cy="70" r="5"></circle>
            <!-- Connection lines -->
            <rect x="45" y="50" width="10" height="3" rx="1.5" transform="rotate(25, 50, 51.5)"></rect>
            <rect x="65" y="50" width="10" height="3" rx="1.5" transform="rotate(-25, 70, 51.5)"></rect>
            <rect x="40" y="65" width="15" height="3" rx="1.5"></rect>
            <rect x="65" y="65" width="15" height="3" rx="1.5"></rect>
        </g>
    </g>
</svg>
