<?xml version="1.0" encoding="UTF-8"?>
<svg width="150px" height="150px" viewBox="0 0 150 150" version="1.1" xmlns="http://www.w3.org/2000/svg" xmlns:xlink="http://www.w3.org/1999/xlink">
    <title>all-shares</title>
    <g id="all-shares" stroke="none" stroke-width="1" fill="none" fill-rule="evenodd">
        <g transform="translate(0.000000, 20.625000)" fill="#95968E" fill-rule="nonzero" id="Shape">
            <path d="M14.5320214,93.8602224 C15.2351464,91.5310974 15.4914964,90.5716599 15.6819214,89.4582849 C-1.27370357,71.8874724 -5.30870357,43.5864099 7.66929643,23.5764099 C23.2332964,-0.40296514 55.2699214,-7.21484014 79.2417964,8.36397236 C103.206171,23.9425974 110.025546,56.0152224 94.4688589,79.9945974 C80.7944839,101.073347 54.0982339,109.137722 31.1144839,99.7195974 C30.2575527,100.254272 29.4299089,100.869497 27.2911714,102.51016 C25.0353589,104.245997 23.9660464,105.029785 22.7501089,105.76216 C20.0036089,107.446735 17.9966089,108.07666 15.5724214,106.501904 C13.0968589,104.890566 12.6792964,102.459029 13.1261089,99.4194661 C13.3458402,97.9546224 13.6754277,96.6949036 14.5323589,93.8604661 L14.5320214,93.8602224 Z M36.3063964,52.0177224 C36.7531714,50.3624536 36.5481027,48.7803474 35.7058152,47.2717224 C34.8562152,45.7629286 33.6110652,44.7888474 31.9558152,44.3420349 C30.3005464,43.8952599 28.7111277,44.1149911 27.1950027,44.9865661 C25.6788964,45.8654724 24.6975027,47.1325036 24.2580027,48.7877536 C23.8112277,50.4430224 24.0382714,52.0105036 24.9171777,53.4971911 C25.8034152,54.9840099 27.0704277,55.9508161 28.7256777,56.3976286 C30.3809464,56.8370724 31.9484277,56.6320036 33.4278027,55.7823849 C34.9072902,54.9327849 35.8668027,53.6730099 36.3063027,52.0177599 L36.3063964,52.0177224 Z M57.0045214,52.0250461 C57.4512964,50.3697774 57.2462277,48.7876711 56.4039402,47.2790461 C55.5543402,45.7702524 54.3091902,44.7961711 52.6539402,44.3493586 C50.9986714,43.9098961 49.4092527,44.1223149 47.8931277,44.9938899 C46.3770214,45.8727961 45.4029402,47.1398274 44.9561277,48.7950774 C44.5166652,50.4503461 44.7363957,52.0178274 45.6153027,53.5045149 C46.5015402,54.9913336 47.7758652,55.9581399 49.4313027,56.4049524 C51.0865714,56.8444149 52.6465527,56.6466586 54.1261152,55.7897274 C55.6056027,54.9401274 56.5651152,53.6876649 57.0046152,52.0251024 L57.0045214,52.0250461 Z M77.7026464,52.0323699 C78.1494214,50.3771011 77.9443527,48.7949949 77.1020652,47.2863699 C76.2597777,45.7775761 75.0073152,44.8034949 73.3520652,44.3566824 C71.6967964,43.9172386 70.1073777,44.1296386 68.5912527,45.0012136 C67.0751464,45.8801199 66.1010652,47.1471511 65.6542527,48.8024011 C65.2147902,50.4576699 65.4345214,52.0324636 66.3207589,53.5118386 C67.1996652,54.9986574 68.4740089,55.9654636 70.1292589,56.4122761 C71.7845277,56.8590511 73.3520089,56.6539824 74.8240714,55.7970511 C76.3035589,54.9474511 77.2630714,53.6949886 77.7025714,52.0324261 L77.7026464,52.0323699 Z M85.9130839,102.107995 C93.0688339,97.6183074 99.3603964,91.5464949 104.223584,84.0464949 C122.182521,56.3677449 114.309021,19.3589949 86.6527714,1.37774486 C86.6234746,1.35577174 86.5941777,1.34112236 86.5648808,1.31915111 C107.152381,-3.43434889 129.404881,4.82015111 141.577381,23.5772761 C154.555943,43.5872761 150.527506,71.8885261 133.564756,89.4591511 C133.755181,90.5724324 134.018862,91.5319636 134.721987,93.8610886 C135.571587,96.6955261 135.908506,97.9553386 136.128237,99.4200886 C136.575012,102.459651 136.150208,104.891339 133.674612,106.502526 C131.250237,108.077226 129.250737,107.447357 126.496925,105.762782 C125.288431,105.03037 124.219175,104.246676 121.955862,102.510782 C119.817237,100.870157 118.989612,100.25497 118.139862,99.7202199 C107.636862,104.019595 96.3654871,104.678657 85.9123621,102.107845 L85.9130839,102.107995 Z"></path>
        </g>
    </g>
</svg>