<?xml version="1.0" encoding="UTF-8"?>
<svg width="64px" height="64px" viewBox="0 0 64 64" version="1.1" xmlns="http://www.w3.org/2000/svg" xmlns:xlink="http://www.w3.org/1999/xlink">
    <title>all-stories</title>
    <g id="all-stories" stroke="none" stroke-width="1" fill="none" fill-rule="evenodd">
        <g transform="translate(0.000000, 0.000000)" fill="#95968E" fill-rule="nonzero" id="Shape">
            <path d="M25.9618,0 C17.3366,1.7148 9.9696,6.8828 5.2856,13.996 L17.1376,13.996 C19.1649,7.6562 22.2782,2.684 25.9618,0 L25.9618,0 Z M38.5276,0 C42.2112,2.6836 45.2971,7.6562 47.3518,13.996 L59.1758,13.996 C54.5235,6.8827 47.1288,1.715 38.5308,0 L38.5276,0 Z M33.844,1.1992 L33.844,13.9962 L44.211,13.9962 C41.8985,7.086 38.2735,2.1442 33.844,1.1992 L33.844,1.1992 Z M30.6174,1.23045 C26.2776,2.25775 22.7072,7.14065 20.4224,13.99645 L30.6174,13.99645 L30.6174,1.23045 Z M3.3984,17.25345 C1.4257,21.19485 0.2265,25.56205 -3.55271368e-15,30.21845 L14.508,30.21845 C14.62128,25.58955 15.22284,21.22235 16.2228,17.24945 L3.3988,17.24945 L3.3984,17.25345 Z M19.5074,17.25345 C18.5074,21.19485 17.9371,25.62065 17.8238,30.22245 L30.6208,30.22245 L30.6208,17.25345 L19.5074,17.25345 Z M33.8474,17.25345 L33.8474,30.22245 L46.8164,30.22245 C46.69921,25.62085 46.1289,21.19515 45.1289,17.25345 L33.8474,17.25345 Z M48.2734,17.25345 C49.24606,21.22225 49.8711,25.59325 49.9882,30.22245 L64.4962,30.22245 C64.26573,25.56225 63.0665,21.19515 61.0939,17.25345 L48.2699,17.25345 L48.2734,17.25345 Z M0.0004,33.47645 C0.22696,38.13265 1.4301,42.53115 3.3988,46.44545 L16.1958,46.44545 C15.22314,42.50015 14.6255,38.10165 14.5083,33.47645 L0.0004,33.47645 Z M17.8244,33.47645 C17.93768,38.10535 18.50799,42.50375 19.508,46.44545 L30.617,46.44545 L30.617,33.47645 L17.82,33.47645 L17.8244,33.47645 Z M33.8474,33.47645 L33.8474,46.44545 L45.1284,46.44545 C46.1284,42.50405 46.7261,38.10565 46.812,33.47645 L33.843,33.47645 L33.8474,33.47645 Z M49.9844,33.47645 C49.87112,38.10535 49.26956,42.50375 48.3008,46.44545 L61.0978,46.44545 C63.0705,42.53135 64.2697,38.13295 64.4962,33.47645 L49.9844,33.47645 Z M5.2854,49.69945 C9.9377,56.81275 17.3084,61.98045 25.9064,63.69545 C22.2502,61.01185 19.1642,56.03925 17.1369,49.69945 L5.2854,49.69945 Z M20.4224,49.69945 C22.7076,56.58225 26.2505,61.49645 30.6174,62.49645 L30.6174,49.69945 L20.4224,49.69945 Z M33.8484,49.69945 L33.8484,62.52345 C38.3015,61.58204 41.9304,56.64065 44.2154,49.69945 L33.8484,49.69945 Z M47.3604,49.69945 C45.3331,56.03925 42.2471,61.01145 38.5909,63.69545 C47.1886,61.98065 54.5559,56.81265 59.2119,49.69945 L47.3604,49.69945 Z"></path>
        </g>
    </g>
</svg>