<?xml version="1.0" encoding="UTF-8"?>
<svg width="80px" height="80px" viewBox="0 0 80 80" version="1.1" xmlns="http://www.w3.org/2000/svg" xmlns:xlink="http://www.w3.org/1999/xlink">
    <title>all-shares</title>
    <g id="all-shares" stroke="none" stroke-width="1" fill="none" fill-rule="evenodd">
        <g transform="translate(0.000000, 11.000000)" fill="#95968E" fill-rule="nonzero" id="Shape">
            <path d="M7.75041143,50.0587853 C8.12541143,48.8165853 8.26213143,48.3048853 8.36369143,47.7110853 C-0.679308569,38.3399853 -2.83130857,23.2460853 4.09029143,12.5740853 C12.3910914,-0.214914741 29.4772914,-3.84791474 42.2622914,4.46078526 C55.0432914,12.7693853 58.6802914,29.8747853 50.3833914,42.6637853 C43.0903914,53.9057853 28.8523914,58.2067853 16.5943914,53.1837853 C16.1373614,53.4689453 15.6959514,53.7970653 14.5552914,54.6720853 C13.3521914,55.5978653 12.7818914,56.0158853 12.1333914,56.4064853 C10.6685914,57.3049253 9.59819143,57.6408853 8.30529143,56.8010153 C6.98499143,55.9416353 6.76229143,54.6448153 7.00059143,53.0237153 C7.11778143,52.2424653 7.29356143,51.5706153 7.75059143,50.0589153 L7.75041143,50.0587853 Z M19.3634114,27.7427853 C19.6016914,26.8599753 19.4923214,26.0161853 19.0431014,25.2115853 C18.5899814,24.4068953 17.9259014,23.8873853 17.0431014,23.6490853 C16.1602914,23.4108053 15.3126014,23.5279953 14.5040014,23.9928353 C13.6954114,24.4615853 13.1720014,25.1373353 12.9376014,26.0201353 C12.6993214,26.9029453 12.8204114,27.7389353 13.2891614,28.5318353 C13.7618214,29.3248053 14.4375614,29.8404353 15.3203614,30.0787353 C16.2031714,30.3131053 17.0391614,30.2037353 17.8281614,29.7506053 C18.6172214,29.2974853 19.1289614,28.6256053 19.3633614,27.7428053 L19.3634114,27.7427853 Z M30.4024114,27.7466913 C30.6406914,26.8638813 30.5313214,26.0200913 30.0821014,25.2154913 C29.6289814,24.4108013 28.9649014,23.8912913 28.0821014,23.6529913 C27.1992914,23.4186113 26.3516014,23.5319013 25.5430014,23.9967413 C24.7344114,24.4654913 24.2149014,25.1412413 23.9766014,26.0240413 C23.7422214,26.9068513 23.8594111,27.7428413 24.3281614,28.5357413 C24.8008214,29.3287113 25.4804614,29.8443413 26.3633614,30.0826413 C27.2461714,30.3170213 28.0781614,30.2115513 28.8672614,29.7545213 C29.6563214,29.3014013 30.1680614,28.6334213 30.4024614,27.7467213 L30.4024114,27.7466913 Z M41.4414114,27.7505973 C41.6796914,26.8677873 41.5703214,26.0239973 41.1211014,25.2193973 C40.6718814,24.4147073 40.0039014,23.8951973 39.1211014,23.6568973 C38.2382914,23.4225273 37.3906014,23.5358073 36.5820014,24.0006473 C35.7734114,24.4693973 35.2539014,25.1451473 35.0156014,26.0279473 C34.7812214,26.9107573 34.8984114,27.7506473 35.3710714,28.5396473 C35.8398214,29.3326173 36.5194714,29.8482473 37.4022714,30.0865473 C38.2850814,30.3248273 39.1210714,30.2154573 39.9061714,29.7584273 C40.6952314,29.3053073 41.2069714,28.6373273 41.4413714,27.7506273 L41.4414114,27.7505973 Z M45.8203114,54.4575973 C49.6367114,52.0630973 52.9922114,48.8247973 55.5859114,44.8247973 C65.1640114,30.0627973 60.9648114,10.3247973 46.2148114,0.734797259 C46.1991864,0.723078259 46.1835614,0.715265259 46.1679364,0.703547259 C57.1479364,-1.83165274 69.0159364,2.57074726 75.5079364,12.5745473 C82.4298364,23.2465473 80.2813364,38.3405473 71.2345364,47.7115473 C71.3360964,48.3052973 71.4767264,48.8170473 71.8517264,50.0592473 C72.3048464,51.5709473 72.4845364,52.2428473 72.6017264,53.0240473 C72.8400064,54.6451473 72.6134444,55.9420473 71.2931264,56.8013473 C70.0001264,57.6411873 68.9337264,57.3052573 67.4650264,56.4068173 C66.8204964,56.0161973 66.2502264,55.5982273 65.0431264,54.6724173 C63.9025264,53.7974173 63.4611264,53.4693173 63.0079264,53.1841173 C57.4063264,55.4771173 51.3949264,55.8286173 45.8199264,54.4575173 L45.8203114,54.4575973 Z"></path>
        </g>
    </g>
</svg>