<?xml version="1.0" encoding="UTF-8"?>
<svg width="113px" height="113px" viewBox="0 0 113 113" version="1.1" xmlns="http://www.w3.org/2000/svg" xmlns:xlink="http://www.w3.org/1999/xlink">
    <title>boomerang</title>
    <g id="boomerang" stroke="none" stroke-width="1" fill="none" fill-rule="evenodd">
        <g id="noun-boomerang-49703-95978E" transform="translate(56.849874, 77.849874) rotate(-45.000000) translate(-56.849874, -77.849874) translate(16.849874, 37.848981)" fill="#95968E" fill-rule="nonzero">
            <path d="M79.9700203,37.9995284 C80.2206237,24.1497866 78.9675797,10.5769183 73.6463452,6.02972453 C62.0064859,-3.91212527 11.2067413,1.30886161 5.40012027,1.85620901 C-0.251712183,2.39039987 -3.82440847,8.10856681 7.00240098,9.12969812 C18.0580492,10.1717802 41.4387761,12.0664443 53.3768833,17.7767766 C63.2702518,21.9581739 71.6628258,28.3868955 79.9700886,38 L79.9700203,37.9995284 Z" id="Path"></path>
            <path d="M62.259145,28.0017857 C67.1068427,40.4012584 68.0360273,62.3200735 68.8732946,72.7726579 C69.7577972,83.8107519 76.0015899,80.2866984 76.5767451,74.8557528 C76.873333,72.03974 78.6029575,59.2002416 79.259145,45.2249783 C73.6187948,37.8669362 68.1491098,32.2647358 62.259145,28.0017857 L62.259145,28.0017857 Z" id="Path"></path>
        </g>
    </g>
</svg>