<?xml version="1.0" encoding="UTF-8"?>
<svg width="150px" height="150px" viewBox="0 0 150 150" version="1.1" xmlns="http://www.w3.org/2000/svg" xmlns:xlink="http://www.w3.org/1999/xlink">
    <title>cabinet</title>
    <g id="cabinet" stroke="none" stroke-width="1" fill="none" fill-rule="evenodd">
        <g transform="translate(22.000000, 0.000000)" fill="#95968E" fill-rule="nonzero" id="Path">
            <path d="M101.649465,38 L79.2048775,38 L73.0816687,49.8958667 C72.6271328,50.7708667 71.6918725,51.3333333 70.6993137,51.3333333 L36.3001512,51.3333333 C35.3127017,51.3333333 34.3722787,50.7708267 33.9177962,49.8958667 L27.7945875,38 L0,38 L0,70 L107,70 L107,38 L101.649465,38 Z"></path>
            <path d="M79.2048775,75 L73.0816687,86.8958667 C72.6271328,87.7708667 71.6918725,88.3333333 70.6993137,88.3333333 L36.3001512,88.3333333 C35.3127017,88.3333333 34.3722787,87.7708267 33.9177962,86.8958667 L27.7945875,75 L0,75 L0,107 L107,107 L107,75 L79.2048775,75 Z"></path>
            <path d="M79.2048775,113 L73.0816687,124.789654 C72.6271328,125.656841 71.6918725,126.214286 70.6993137,126.214286 L36.3001512,126.214286 C35.3127017,126.214286 34.3722787,125.656801 33.9177962,124.789654 L27.7945875,113 L0,113 L0,147.357143 C0,148.812829 1.2016635,150 2.675,150 L104.325,150 C105.79839,150 107,148.812776 107,147.357143 L107,113 L79.2048775,113 Z"></path>
            <path d="M99.5473366,32 L106,32 L85.3038429,1.19789804 C84.8155652,0.453125026 83.9545201,0 83.067158,0 L23.9276001,0 C23.0402917,0 22.1792197,0.453111693 21.6961571,1.19789804 L1,32 L99.5473366,32 Z"></path>
            <polygon points="67.9220769 46 72 38 33 38 37.0779231 46"></polygon>
            <polygon points="67.9220769 83 72 75 33 75 37.0779231 83"></polygon>
            <polygon points="67.9220769 121 72 113 33 113 37.0779231 121"></polygon>
        </g>
    </g>
</svg>