<?xml version="1.0" encoding="UTF-8"?>
<svg width="150px" height="150px" viewBox="0 0 150 150" version="1.1" xmlns="http://www.w3.org/2000/svg" xmlns:xlink="http://www.w3.org/1999/xlink">
    <title>cancel</title>
    <g id="cancel" stroke="none" stroke-width="1" fill="none" fill-rule="evenodd">
        <g id="noun-return-2784589-95968E" transform="translate(19.000000, 25.000000)" fill="#95958E" fill-rule="nonzero">
            <path d="M73.1050065,0 L23.9558783,0 C19.0058029,0 15.1161071,4.02487097 15.1161071,8.87817424 C15.1161071,13.7314775 19.1235683,17.7563485 23.9558783,17.7563485 L73.1050065,17.7563485 C84.6556409,17.7563485 94.0847303,27.226401 94.0847303,38.8272153 C94.0847303,50.4280297 84.6556409,59.8980822 73.1050065,59.8980822 L58.3720544,59.8976968 L63.2043645,45.2191154 C64.7367879,40.6023661 59.9039868,36.3409411 55.5432294,38.4719002 L3.09391994,63.9226664 C-1.03130665,65.9348553 -1.03130665,71.9724083 3.09391994,73.9845972 L55.5432294,99.4353633 C59.9039868,101.566322 64.7367879,97.3044042 63.2043645,92.6881482 L58.3720544,78.0095668 L73.2228701,78.0095668 C94.5561847,78.0095668 112,60.4899697 112,39.0639758 C111.882215,17.5196063 94.4383211,0 73.1050065,0 L73.1050065,0 Z" id="Path"></path>
        </g>
    </g>
</svg>