<?xml version="1.0" encoding="UTF-8"?>
<svg width="150px" height="150px" viewBox="0 0 150 150" version="1.1" xmlns="http://www.w3.org/2000/svg" xmlns:xlink="http://www.w3.org/1999/xlink">
    <title>columns-two</title>
    <g id="columns-two" stroke="none" stroke-width="1" fill="none" fill-rule="evenodd">
        <g id="noun-two-column-2530005-676767" transform="translate(11.538462, 10.645161)" fill="#676767" fill-rule="nonzero">
            <path d="M58.6538462,0 L13.535503,0 C9.94576726,0 6.50269625,1.4419023 3.96427811,4.00854194 C1.42585996,6.57530323 0,10.0568184 0,13.6866359 L0,114.0553 C0,117.685117 1.42598028,121.166632 3.96427811,123.733394 C6.50269625,126.300155 9.94576726,127.741935 13.535503,127.741935 L58.6538462,127.741935 L58.6538462,0 Z" id="Path"></path>
            <path d="M113.387574,0 L68.2692308,0 L68.2692308,127.741935 L113.387574,127.741935 C116.97731,127.741935 120.420381,126.300033 122.958799,123.733394 C125.497217,121.166632 126.923077,117.685117 126.923077,114.0553 L126.923077,13.6866359 C126.923077,10.0568184 125.497097,6.57530323 122.958799,4.00854194 C120.420381,1.44178065 116.97731,0 113.387574,0 L113.387574,0 Z" id="Path"></path>
        </g>
    </g>
</svg>