<?xml version="1.0" encoding="UTF-8"?>
<svg width="150px" height="150px" viewBox="0 0 150 150" version="1.1" xmlns="http://www.w3.org/2000/svg" xmlns:xlink="http://www.w3.org/1999/xlink">
    <title>columns-three</title>
    <g id="columns-three" stroke="none" stroke-width="1" fill="none" fill-rule="evenodd">
        <g id="noun-three-column-4619356-676767" transform="translate(11.538462, 10.645161)" fill="#676767" fill-rule="nonzero">
            <polygon id="Path" points="44.2307692 0 80.7692308 0 80.7692308 127.741935 44.2307692 127.741935"></polygon>
            <path d="M36.5384615,0 L13.7019231,0 C10.0680513,0 6.58264744,1.4419023 4.01301923,4.00854194 C1.44339103,6.57530323 0,10.0568184 0,13.6866359 L0,114.0553 C0,117.685117 1.44351282,121.166632 4.01301923,123.733394 C6.58264744,126.300155 10.0680513,127.741935 13.7019231,127.741935 L36.5384615,127.741935 L36.5384615,0 Z" id="Path"></path>
            <path d="M113.221154,0 L90.3846154,0 L90.3846154,127.741935 L113.221154,127.741935 C116.855026,127.741935 120.340429,126.300033 122.910058,123.733394 C125.479686,121.166632 126.923077,117.685117 126.923077,114.0553 L126.923077,13.6866359 C126.923077,10.0568184 125.479564,6.57530323 122.910058,4.00854194 C120.340429,1.44178065 116.855026,0 113.221154,0 L113.221154,0 Z" id="Path"></path>
        </g>
    </g>
</svg>