<?xml version="1.0" encoding="UTF-8"?>
<svg width="156px" height="155px" viewBox="0 0 156 155" version="1.1" xmlns="http://www.w3.org/2000/svg" xmlns:xlink="http://www.w3.org/1999/xlink">
    <title>columns-one</title>
    <g id="columns-one" stroke="none" stroke-width="1" fill="none" fill-rule="evenodd">
        <g id="noun-two-column-2530005-676767" transform="translate(38.000000, 11.000000)" fill="#676767" fill-rule="nonzero">
            <path d="M41,0 L9.46153846,0 C6.95225436,0 4.54549128,1.48996571 2.77109538,4.14216 C0.996699487,6.79448 0,10.3920457 0,14.1428571 L0,117.857143 C0,121.607954 0.99678359,125.20552 2.77109538,127.85784 C4.54549128,130.51016 6.95225436,132 9.46153846,132 L41,132 L41,0 Z" id="Path"></path>
            <path d="M70.5384615,0 L39,0 L39,132 L70.5384615,132 C73.0477456,132 75.4545087,130.510034 77.2289046,127.85784 C79.0033005,125.20552 80,121.607954 80,117.857143 L80,14.1428571 C80,10.3920457 79.0032164,6.79448 77.2289046,4.14216 C75.4545087,1.48984 73.0477456,0 70.5384615,0 L70.5384615,0 Z" id="Path"></path>
        </g>
    </g>
</svg>