<?xml version="1.0" encoding="UTF-8"?>
<svg width="150px" height="150px" viewBox="0 0 150 150" version="1.1" xmlns="http://www.w3.org/2000/svg" xmlns:xlink="http://www.w3.org/1999/xlink">
    <title>columns-one</title>
    <g id="columns-one" stroke="none" stroke-width="1" fill="none" fill-rule="evenodd">
        <g id="noun-two-column-2530005-676767" transform="translate(36.538462, 10.645161)" fill="#676767" fill-rule="nonzero">
            <path d="M39.4230769,0 L9.09763314,0 C6.68485996,0 4.37066469,1.4419023 2.66451479,4.00854194 C0.958364892,6.57530323 0,10.0568184 0,13.6866359 L0,114.0553 C0,117.685117 0.958445759,121.166632 2.66451479,123.733394 C4.37066469,126.300155 6.68485996,127.741935 9.09763314,127.741935 L39.4230769,127.741935 L39.4230769,0 Z" id="Path"></path>
            <path d="M67.8254438,0 L37.5,0 L37.5,127.741935 L67.8254438,127.741935 C70.238217,127.741935 72.5524122,126.300033 74.2585621,123.733394 C75.964712,121.166632 76.9230769,117.685117 76.9230769,114.0553 L76.9230769,13.6866359 C76.9230769,10.0568184 75.9646312,6.57530323 74.2585621,4.00854194 C72.5524122,1.44178065 70.238217,0 67.8254438,0 L67.8254438,0 Z" id="Path"></path>
        </g>
    </g>
</svg>