<?xml version="1.0" encoding="UTF-8"?>
<svg width="156px" height="155px" viewBox="0 0 156 155" version="1.1" xmlns="http://www.w3.org/2000/svg" xmlns:xlink="http://www.w3.org/1999/xlink">
    <title>columns-two</title>
    <g id="columns-two" stroke="none" stroke-width="1" fill="none" fill-rule="evenodd">
        <g id="noun-two-column-2530005-676767" transform="translate(12.000000, 11.000000)" fill="#676767" fill-rule="nonzero">
            <path d="M61,0 L14.0769231,0 C10.3435979,0 6.7628041,1.48996571 4.12284923,4.14216 C1.48289436,6.79448 0,10.3920457 0,14.1428571 L0,117.857143 C0,121.607954 1.48301949,125.20552 4.12284923,127.85784 C6.7628041,130.51016 10.3435979,132 14.0769231,132 L61,132 L61,0 Z" id="Path"></path>
            <path d="M117.923077,0 L71,0 L71,132 L117.923077,132 C121.656402,132 125.237196,130.510034 127.877151,127.85784 C130.517106,125.20552 132,121.607954 132,117.857143 L132,14.1428571 C132,10.3920457 130.516981,6.79448 127.877151,4.14216 C125.237196,1.48984 121.656402,0 117.923077,0 L117.923077,0 Z" id="Path"></path>
        </g>
    </g>
</svg>