<?xml version="1.0" encoding="UTF-8"?>
<svg width="107px" height="107px" viewBox="0 0 107 107" version="1.1" xmlns="http://www.w3.org/2000/svg" xmlns:xlink="http://www.w3.org/1999/xlink">
    <title>content-preview-s</title>
    <g id="content-preview-s" stroke="none" stroke-width="1" fill="none" fill-rule="evenodd">
        <g id="roundlines" transform="translate(53.500000, 53.793753) rotate(-270.000000) translate(-53.500000, -53.793753) translate(39.644264, 1.587375)" fill="#95968E" fill-rule="nonzero">
            <path d="M23.7689688,8.45009149e-15 C21.6275838,8.45009149e-15 19.8264657,1.80111808 19.8264657,3.94250308 L19.8264657,100.470254 C19.8264657,102.611639 21.6275838,104.412757 23.7689688,104.412757 C25.9103538,104.412757 27.7114718,102.611639 27.7114718,100.470254 L27.7080348,3.94250308 C27.7080348,1.69112748 25.9069168,8.45009149e-15 23.7689635,8.45009149e-15 L23.7689688,8.45009149e-15 Z" id="Path"></path>
            <path d="M3.94250308,1.20921541e-14 C1.80111808,1.20921541e-14 0,1.80111808 0,3.94250308 L0,100.470254 C0,102.611639 1.80111808,104.412757 3.94250308,104.412757 C6.08388808,104.412757 7.88500616,102.611639 7.88500616,100.470254 L7.88500616,3.94250308 C7.88500616,1.69112748 6.08388808,1.20921541e-14 3.94250308,1.20921541e-14 Z" id="Path"></path>
        </g>
    </g>
</svg>