<?xml version="1.0" encoding="UTF-8"?>
<svg width="150px" height="150px" viewBox="0 0 150 150" version="1.1" xmlns="http://www.w3.org/2000/svg" xmlns:xlink="http://www.w3.org/1999/xlink">
    <title>content-preview-l</title>
    <g id="content-preview-l" stroke="none" stroke-width="1" fill="none" fill-rule="evenodd">
        <g id="roundlines" transform="translate(75.000000, 75.411619) rotate(-270.000000) translate(-75.000000, -75.411619) translate(0.000000, 2.225107)" fill="#95968E" fill-rule="nonzero">
            <path d="M88.8972404,8.76482491e-15 C85.8952988,8.76482491e-15 83.3703669,2.52493189 83.3703669,5.52687348 L83.3703669,140.84615 C83.3703669,143.848092 85.8952988,146.373024 88.8972404,146.373024 C91.899182,146.373024 94.4241139,143.848092 94.4241139,140.84615 L94.4192957,5.52687348 C94.4192957,2.37073946 91.8943638,8.76482491e-15 88.897233,8.76482491e-15 L88.8972404,8.76482491e-15 Z" id="Path"></path>
            <path d="M61.1031297,8.76482491e-15 C58.1011881,8.76482491e-15 55.5762562,2.52493189 55.5762562,5.52687348 L55.5762562,140.84615 C55.5762562,143.848092 58.1011881,146.373024 61.1031297,146.373024 C64.1050712,146.373024 66.6300031,143.848092 66.6300031,140.84615 L66.6300031,5.52687348 C66.6300031,2.37073946 64.1050712,8.76482491e-15 61.1031297,8.76482491e-15 Z" id="Path"></path>
            <path d="M33.3151866,8.76482491e-15 C30.313245,8.76482491e-15 27.7883131,2.52493189 27.7883131,5.52687348 L27.7883131,140.84615 C27.7883131,143.848092 30.313245,146.373024 33.3151866,146.373024 C36.3171282,146.373024 38.8420601,143.848092 38.8420601,140.84615 L38.8420601,5.52687348 C38.8420601,2.37073946 36.3171282,8.76482491e-15 33.3151866,8.76482491e-15 Z" id="Path"></path>
            <path d="M5.52687348,8.76482491e-15 C2.52493189,8.76482491e-15 3.28680934e-15,2.52493189 3.28680934e-15,5.52687348 L3.28680934e-15,140.84615 C3.28680934e-15,143.848092 2.52493189,146.373024 5.52687348,146.373024 C8.52881507,146.373024 11.053747,143.848092 11.053747,140.84615 L11.053747,5.52687348 C10.8947314,2.37073946 8.52881507,8.76482491e-15 5.52687348,8.76482491e-15 Z" id="Path"></path>
            <path d="M144.473127,8.76482491e-15 C141.471185,8.76482491e-15 138.946253,2.52493189 138.946253,5.52687348 L138.946253,140.84615 C138.946253,143.848092 141.471185,146.373024 144.473127,146.373024 C147.475068,146.373024 150,143.848092 150,140.84615 L150,5.52687348 C150,2.37073946 147.475068,8.76482491e-15 144.473127,8.76482491e-15 Z" id="Path"></path>
            <path d="M116.685183,8.76482491e-15 C113.683242,8.76482491e-15 111.15831,2.52493189 111.15831,5.52687348 L111.15831,140.84615 C111.15831,143.848092 113.683242,146.373024 116.685183,146.373024 C119.687125,146.373024 122.212057,143.848092 122.212057,140.84615 L122.212057,5.52687348 C122.212057,2.37073946 119.682314,8.76482491e-15 116.685183,8.76482491e-15 Z" id="Path"></path>
        </g>
    </g>
</svg>