<?xml version="1.0" encoding="UTF-8"?>
<svg width="150px" height="150px" viewBox="0 0 150 150" version="1.1" xmlns="http://www.w3.org/2000/svg" xmlns:xlink="http://www.w3.org/1999/xlink">
    <title>content-preview-m</title>
    <g id="content-preview-m" stroke="none" stroke-width="1" fill="none" fill-rule="evenodd">
        <g id="roundlines" transform="translate(75.000000, 75.411804) rotate(-270.000000) translate(-75.000000, -75.411804) translate(27.788128, 2.225292)" fill="#95968E" fill-rule="nonzero">
            <path d="M61.1089273,1.18459227e-14 C58.1069857,1.18459227e-14 55.5820538,2.52493189 55.5820538,5.52687348 L55.5820538,140.84615 C55.5820538,143.848092 58.1069857,146.373024 61.1089273,146.373024 C64.1108689,146.373024 66.6358008,143.848092 66.6358008,140.84615 L66.6309826,5.52687348 C66.6309826,2.37073946 64.1060507,1.18459227e-14 61.1089199,1.18459227e-14 L61.1089273,1.18459227e-14 Z" id="Path"></path>
            <path d="M33.3148165,1.6951618e-14 C30.3128749,1.6951618e-14 27.7879431,2.52493189 27.7879431,5.52687348 L27.7879431,140.84615 C27.7879431,143.848092 30.3128749,146.373024 33.3148165,146.373024 C36.3167581,146.373024 38.84169,143.848092 38.84169,140.84615 L38.84169,5.52687348 C38.84169,2.37073946 36.3167581,1.6951618e-14 33.3148165,1.6951618e-14 Z" id="Path"></path>
            <path d="M5.52687348,2.20561803e-14 C2.52493189,2.20561803e-14 0,2.52493189 0,5.52687348 L0,140.84615 C0,143.848092 2.52493189,146.373024 5.52687348,146.373024 C8.52881507,146.373024 11.053747,143.848092 11.053747,140.84615 L11.053747,5.52687348 C11.053747,2.37073946 8.52881507,2.20561803e-14 5.52687348,2.20561803e-14 Z" id="Path"></path>
            <path d="M88.8968703,6.74136032e-15 C85.8949288,6.74136032e-15 83.3699969,2.52493189 83.3699969,5.52687348 L83.3699969,140.84615 C83.3699969,143.848092 85.8949288,146.373024 88.8968703,146.373024 C91.8988119,146.373024 94.4237438,143.848092 94.4237438,140.84615 L94.4237438,5.52687348 C94.4237438,2.37073946 91.8940011,6.74136032e-15 88.8968703,6.74136032e-15 Z" id="Path"></path>
        </g>
    </g>
</svg>