<?xml version="1.0" encoding="UTF-8"?>
<svg width="150px" height="150px" viewBox="0 0 150 150" version="1.1" xmlns="http://www.w3.org/2000/svg" xmlns:xlink="http://www.w3.org/1999/xlink">
    <title>content-preview</title>
    <g id="content-preview" stroke="none" stroke-width="1" fill="none" fill-rule="evenodd">
        <g id="roundlines" transform="translate(75.000000, 114.293064) rotate(-270.000000) translate(-75.000000, -114.293064) translate(41.685183, 41.106552)" fill="#95968E" fill-rule="nonzero">
            <path d="M5.52687348,-2.82551144e-14 C2.52493189,-2.82551144e-14 0,2.52493189 0,5.52687348 L0,140.84615 C0,143.848092 2.52493189,146.373024 5.52687348,146.373024 C8.52881507,146.373024 11.053747,143.848092 11.053747,140.84615 L11.0489288,5.52687348 C11.0489288,2.37073946 8.52399687,-2.82551144e-14 5.52686608,-2.82551144e-14 L5.52687348,-2.82551144e-14 Z" id="Path"></path>
            <path d="M61.1027596,8.10663146e-14 C58.100818,8.10663146e-14 55.5758861,2.52493189 55.5758861,5.52687348 L55.5758861,140.84615 C55.5758861,143.848092 58.100818,146.373024 61.1027596,146.373024 C64.1047012,146.373024 66.6296331,143.848092 66.6296331,140.84615 L66.6296331,5.52687348 C66.6296331,2.37073946 64.1047012,8.10663146e-14 61.1027596,8.10663146e-14 Z" id="Path"></path>
            <path d="M33.3148165,8.61708769e-14 C30.3128749,8.61708769e-14 27.7879431,2.52493189 27.7879431,5.52687348 L27.7879431,140.84615 C27.7879431,143.848092 30.3128749,146.373024 33.3148165,146.373024 C36.3167581,146.373024 38.84169,143.848092 38.84169,140.84615 L38.84169,5.52687348 C38.84169,2.37073946 36.3119473,8.61708769e-14 33.3148165,8.61708769e-14 Z" id="Path"></path>
        </g>
        <g id="lines6" transform="translate(0.000000, -0.000000)" fill="#95968E">
            <path d="M31.2515625,0 L118.748437,0 C136.010156,0 150,13.9898438 150,31.2515625 C150,48.5097656 136.010156,62.4984375 118.748437,62.4984375 L31.2515625,62.4984375 C13.9898437,62.4984375 0,48.5085938 0,31.2515625 C0,13.9898438 13.9898438,0 31.2515625,0 Z M31.2515625,12.5015625 C20.8969922,12.5015625 12.5015625,20.8969922 12.5015625,31.2515625 C12.5015625,41.6061328 20.8969922,50.0015625 31.2515625,50.0015625 L118.748438,50.0015625 C129.103008,50.0015625 137.498438,41.6061328 137.498438,31.2515625 C137.498438,20.8969922 129.103008,12.5015625 118.748438,12.5015625 L31.2515625,12.5015625 Z" id="Shape"></path>
        </g>
    </g>
</svg>