<?xml version="1.0" encoding="UTF-8"?>
<svg width="150px" height="150px" viewBox="0 0 150 150" version="1.1" xmlns="http://www.w3.org/2000/svg" xmlns:xlink="http://www.w3.org/1999/xlink">
    <title>content-preview-s</title>
    <g id="content-preview-s" stroke="none" stroke-width="1" fill="none" fill-rule="evenodd">
        <g id="roundlines" transform="translate(75.000000, 75.411804) rotate(-270.000000) translate(-75.000000, -75.411804) translate(55.576071, 2.225292)" fill="#95968E" fill-rule="nonzero">
            <path d="M33.3209842,1.18459227e-14 C30.3190426,1.18459227e-14 27.7941108,2.52493189 27.7941108,5.52687348 L27.7941108,140.84615 C27.7941108,143.848092 30.3190426,146.373024 33.3209842,146.373024 C36.3229258,146.373024 38.8478577,143.848092 38.8478577,140.84615 L38.8430395,5.52687348 C38.8430395,2.37073946 36.3181076,1.18459227e-14 33.3209768,1.18459227e-14 L33.3209842,1.18459227e-14 Z" id="Path"></path>
            <path d="M5.52687348,1.6951618e-14 C2.52493189,1.6951618e-14 0,2.52493189 0,5.52687348 L0,140.84615 C0,143.848092 2.52493189,146.373024 5.52687348,146.373024 C8.52881507,146.373024 11.053747,143.848092 11.053747,140.84615 L11.053747,5.52687348 C11.053747,2.37073946 8.52881507,1.6951618e-14 5.52687348,1.6951618e-14 Z" id="Path"></path>
        </g>
    </g>
</svg>