<?xml version="1.0" encoding="UTF-8"?>
<svg width="107px" height="107px" viewBox="0 0 107 107" version="1.1" xmlns="http://www.w3.org/2000/svg" xmlns:xlink="http://www.w3.org/1999/xlink">
    <title>content-preview-l</title>
    <g id="content-preview-l" stroke="none" stroke-width="1" fill="none" fill-rule="evenodd">
        <g id="roundlines" transform="translate(53.500000, 53.793621) rotate(-270.000000) translate(-53.500000, -53.793621) translate(0.000000, 1.587243)" fill="#95968E" fill-rule="nonzero">
            <path d="M63.4133648,6.25224177e-15 C61.2719798,6.25224177e-15 59.4708617,1.80111808 59.4708617,3.94250308 L59.4708617,100.470254 C59.4708617,102.611639 61.2719798,104.412757 63.4133648,104.412757 C65.5547498,104.412757 67.3558679,102.611639 67.3558679,100.470254 L67.3524309,3.94250308 C67.3524309,1.69112748 65.5513128,6.25224177e-15 63.4133595,6.25224177e-15 L63.4133648,6.25224177e-15 Z" id="Path"></path>
            <path d="M43.5868992,6.25224177e-15 C41.4455142,6.25224177e-15 39.6443961,1.80111808 39.6443961,3.94250308 L39.6443961,100.470254 C39.6443961,102.611639 41.4455142,104.412757 43.5868992,104.412757 C45.7282842,104.412757 47.5294022,102.611639 47.5294022,100.470254 L47.5294022,3.94250308 C47.5294022,1.69112748 45.7282842,6.25224177e-15 43.5868992,6.25224177e-15 Z" id="Path"></path>
            <path d="M23.7648331,6.25224177e-15 C21.6234481,6.25224177e-15 19.82233,1.80111808 19.82233,3.94250308 L19.82233,100.470254 C19.82233,102.611639 21.6234481,104.412757 23.7648331,104.412757 C25.9062181,104.412757 27.7073362,102.611639 27.7073362,100.470254 L27.7073362,3.94250308 C27.7073362,1.69112748 25.9062181,6.25224177e-15 23.7648331,6.25224177e-15 Z" id="Path"></path>
            <path d="M3.94250308,6.25224177e-15 C1.80111808,6.25224177e-15 2.34459066e-15,1.80111808 2.34459066e-15,3.94250308 L2.34459066e-15,100.470254 C2.34459066e-15,102.611639 1.80111808,104.412757 3.94250308,104.412757 C6.08388808,104.412757 7.88500616,102.611639 7.88500616,100.470254 L7.88500616,3.94250308 C7.77157506,1.69112748 6.08388808,6.25224177e-15 3.94250308,6.25224177e-15 Z" id="Path"></path>
            <path d="M103.057497,6.25224177e-15 C100.916112,6.25224177e-15 99.1149938,1.80111808 99.1149938,3.94250308 L99.1149938,100.470254 C99.1149938,102.611639 100.916112,104.412757 103.057497,104.412757 C105.198882,104.412757 107,102.611639 107,100.470254 L107,3.94250308 C107,1.69112748 105.198882,6.25224177e-15 103.057497,6.25224177e-15 Z" id="Path"></path>
            <path d="M83.2354309,6.25224177e-15 C81.0940459,6.25224177e-15 79.2929278,1.80111808 79.2929278,3.94250308 L79.2929278,100.470254 C79.2929278,102.611639 81.0940459,104.412757 83.2354309,104.412757 C85.3768159,104.412757 87.177934,102.611639 87.177934,100.470254 L87.177934,3.94250308 C87.177934,1.69112748 85.3733842,6.25224177e-15 83.2354309,6.25224177e-15 Z" id="Path"></path>
        </g>
    </g>
</svg>