<?xml version="1.0" encoding="UTF-8"?>
<svg width="107px" height="107px" viewBox="0 0 107 107" version="1.1" xmlns="http://www.w3.org/2000/svg" xmlns:xlink="http://www.w3.org/1999/xlink">
    <title>content-preview</title>
    <g id="content-preview" stroke="none" stroke-width="1" fill="none" fill-rule="evenodd">
        <g id="roundlines" transform="translate(53.500000, 81.529052) rotate(-270.000000) translate(-53.500000, -81.529052) translate(29.735431, 29.322674)" fill="#95968E" fill-rule="nonzero">
            <path d="M3.94250308,-2.0155315e-14 C1.80111808,-2.0155315e-14 0,1.80111808 0,3.94250308 L0,100.470254 C0,102.611639 1.80111808,104.412757 3.94250308,104.412757 C6.08388808,104.412757 7.88500616,102.611639 7.88500616,100.470254 L7.88156918,3.94250308 C7.88156918,1.69112748 6.0804511,-2.0155315e-14 3.9424978,-2.0155315e-14 L3.94250308,-2.0155315e-14 Z" id="Path"></path>
            <path d="M43.5866352,5.78273044e-14 C41.4452502,5.78273044e-14 39.6441321,1.80111808 39.6441321,3.94250308 L39.6441321,100.470254 C39.6441321,102.611639 41.4452502,104.412757 43.5866352,104.412757 C45.7280202,104.412757 47.5291383,102.611639 47.5291383,100.470254 L47.5291383,3.94250308 C47.5291383,1.69112748 45.7280202,5.78273044e-14 43.5866352,5.78273044e-14 Z" id="Path"></path>
            <path d="M23.7645691,6.14685589e-14 C21.6231841,6.14685589e-14 19.822066,1.80111808 19.822066,3.94250308 L19.822066,100.470254 C19.822066,102.611639 21.6231841,104.412757 23.7645691,104.412757 C25.9059541,104.412757 27.7070722,102.611639 27.7070722,100.470254 L27.7070722,3.94250308 C27.7070722,1.69112748 25.9025224,6.14685589e-14 23.7645691,6.14685589e-14 Z" id="Path"></path>
        </g>
        <g id="lines6" transform="translate(0.000000, -0.000000)" fill="#95968E">
            <path d="M22.2927813,0 L84.7072187,0 C97.0205781,0 107,9.97942187 107,22.2927813 C107,34.6036328 97.0205781,44.5822188 84.7072187,44.5822188 L22.2927813,44.5822188 C9.97942187,44.5822188 0,34.6027969 0,22.2927813 C0,9.97942187 9.97942187,0 22.2927813,0 Z M22.2927813,8.91778125 C14.9065211,8.91778125 8.91778125,14.9065211 8.91778125,22.2927812 C8.91778125,29.6790414 14.9065211,35.6677812 22.2927813,35.6677812 L84.7072188,35.6677812 C92.0934789,35.6677812 98.0822188,29.6790414 98.0822188,22.2927812 C98.0822188,14.9065211 92.0934789,8.91778125 84.7072188,8.91778125 L22.2927813,8.91778125 Z" id="Shape"></path>
        </g>
    </g>
</svg>