<?xml version="1.0" encoding="UTF-8"?>
<svg width="107px" height="107px" viewBox="0 0 107 107" version="1.1" xmlns="http://www.w3.org/2000/svg" xmlns:xlink="http://www.w3.org/1999/xlink">
    <title>content-preview-m</title>
    <g id="content-preview-m" stroke="none" stroke-width="1" fill="none" fill-rule="evenodd">
        <g id="roundlines" transform="translate(53.500000, 53.793753) rotate(-270.000000) translate(-53.500000, -53.793753) translate(19.822198, 1.587375)" fill="#95968E" fill-rule="nonzero">
            <path d="M43.5910348,8.45009149e-15 C41.4496498,8.45009149e-15 39.6485317,1.80111808 39.6485317,3.94250308 L39.6485317,100.470254 C39.6485317,102.611639 41.4496498,104.412757 43.5910348,104.412757 C45.7324198,104.412757 47.5335379,102.611639 47.5335379,100.470254 L47.5301009,3.94250308 C47.5301009,1.69112748 45.7289828,8.45009149e-15 43.5910295,8.45009149e-15 L43.5910348,8.45009149e-15 Z" id="Path"></path>
            <path d="M23.7645691,1.20921541e-14 C21.6231841,1.20921541e-14 19.822066,1.80111808 19.822066,3.94250308 L19.822066,100.470254 C19.822066,102.611639 21.6231841,104.412757 23.7645691,104.412757 C25.9059541,104.412757 27.7070722,102.611639 27.7070722,100.470254 L27.7070722,3.94250308 C27.7070722,1.69112748 25.9059541,1.20921541e-14 23.7645691,1.20921541e-14 Z" id="Path"></path>
            <path d="M3.94250308,1.57334086e-14 C1.80111808,1.57334086e-14 0,1.80111808 0,3.94250308 L0,100.470254 C0,102.611639 1.80111808,104.412757 3.94250308,104.412757 C6.08388808,104.412757 7.88500616,102.611639 7.88500616,100.470254 L7.88500616,3.94250308 C7.88500616,1.69112748 6.08388808,1.57334086e-14 3.94250308,1.57334086e-14 Z" id="Path"></path>
            <path d="M63.4131008,4.80883703e-15 C61.2717158,4.80883703e-15 59.4705978,1.80111808 59.4705978,3.94250308 L59.4705978,100.470254 C59.4705978,102.611639 61.2717158,104.412757 63.4131008,104.412757 C65.5544858,104.412757 67.3556039,102.611639 67.3556039,100.470254 L67.3556039,3.94250308 C67.3556039,1.69112748 65.5510541,4.80883703e-15 63.4131008,4.80883703e-15 Z" id="Path"></path>
        </g>
    </g>
</svg>