<?xml version="1.0" encoding="UTF-8"?>
<svg width="150px" height="150px" viewBox="0 0 150 150" version="1.1" xmlns="http://www.w3.org/2000/svg" xmlns:xlink="http://www.w3.org/1999/xlink">
    <title>content-view-feed</title>
    <g id="content-view-feed" stroke="none" stroke-width="1" fill="none" fill-rule="evenodd">
        <path d="M141.09597,117.790607 C141.09597,121.894939 136.703867,125.232938 131.30343,125.232938 L18.6965702,125.232938 C13.296133,125.232938 8.9040296,121.894939 8.9040296,117.790607 L8.9040296,32.2104585 C8.9040296,28.1061261 13.296133,24.7668495 18.6965702,24.7668495 L131.30343,24.7668495 C136.703867,24.7668495 141.09597,28.1061261 141.09597,32.2104585 L141.09597,117.790607 Z" id="Shape" fill="#FFFFFF"></path>
        <g id="noun-blog-layout-273584-95968E" transform="translate(0.000000, 18.001065)" fill="#95958E">
            <path d="M131.30343,-0.00106509207 L18.6965702,-0.00106509207 C8.38774023,-0.00106509207 0,6.37378355 0,14.208461 L0,99.7894088 C0,107.624938 8.38788037,113.998935 18.6965702,113.998935 L131.30343,113.998935 C141.61226,113.998935 150,107.624512 150,99.7894088 L150,14.208461 C150,6.37367704 141.61212,-0.00106509207 131.30343,-0.00106509207 L131.30343,-0.00106509207 Z M141.097092,99.7894088 C141.097092,103.893779 136.703867,107.232661 131.30343,107.232661 L18.6965702,107.232661 C13.2966935,107.232661 8.90346902,103.893779 8.90346902,99.7894088 L8.90346902,14.208461 C8.90346902,10.1045164 13.2966935,6.76563459 18.6965702,6.76563459 L131.30343,6.76563459 C136.703867,6.76563459 141.097092,10.1045164 141.097092,14.208461 L141.097092,99.7894088 Z M75.748087,33.406925 L111.800052,33.406925 L111.800052,26.6402254 L75.748087,26.6402254 L75.748087,33.406925 Z M75.748087,50.6988564 L121.046733,50.6988564 L121.046733,43.9321567 L75.748087,43.9321567 L75.748087,50.6988564 Z M75.748087,67.9907878 L100.540908,67.9907878 L100.540908,61.2245142 L75.748087,61.2245142 L75.748087,67.9907878 Z M75.748087,85.2837843 L115.20134,85.2837843 L115.20134,78.5170846 L75.748087,78.5170846 L75.748087,85.2837843 Z M28.4650061,50.6988564 L62.9487635,50.6988564 L62.9487635,26.6403319 L28.4650061,26.6403319 L28.4650061,50.6988564 Z M28.4650061,85.2837843 L62.9487635,85.2837843 L62.9487635,61.2252597 L28.4650061,61.2252597 L28.4650061,85.2837843 Z" id="Shape"></path>
        </g>
    </g>
</svg>