<?xml version="1.0" encoding="UTF-8"?>
<svg width="128pt" height="128pt" version="1.1" viewBox="0 0 128 128" xmlns="http://www.w3.org/2000/svg">
 <g fill="#95968e">
  <path d="m116.29 39.5h-39.414c-2.9336 0-5.3086 2.3789-5.3086 5.3125s2.375 5.3125 5.3086 5.3125h39.414c1.4102 0 2.7617-0.5625 3.7578-1.5625 1-0.99609 1.5547-2.3516 1.5547-3.7617-0.007812-2.9297-2.3867-5.3008-5.3125-5.3008z"/>
  <path d="m116.29 77.875h-39.414c-2.9336 0-5.3086 2.3789-5.3086 5.3125s2.375 5.3125 5.3086 5.3125h39.414c2.9336 0 5.3125-2.3789 5.3125-5.3125s-2.3789-5.3125-5.3125-5.3125z"/>
  <path d="m116.29 58.688h-39.414c-2.9336 0-5.3086 2.3789-5.3086 5.3125s2.375 5.3125 5.3086 5.3125h39.414c2.9336 0 5.3125-2.3789 5.3125-5.3125s-2.3789-5.3125-5.3125-5.3125z"/>
  <path d="m54.043 35.07h-37.402c-5.6562 0-10.242 4.5859-10.242 10.242v37.402c0 2.7148 1.082 5.3203 3 7.2383 1.9219 1.9219 4.5273 3 7.2422 3h37.402c2.7148 0 5.3203-1.0781 7.2383-3 1.9219-1.918 3-4.5234 3-7.2383v-37.43c-0.015625-5.6445-4.5938-10.215-10.238-10.215zm0.55078 40.332-38.516 0.003906c-0.94922 0-1.8242-0.50391-2.2969-1.3203-0.47656-0.82031-0.48047-1.8281-0.007812-2.6484l5.1211-8.7539 5.0547-8.7539v-0.003907c0.47266-0.82031 1.3477-1.3281 2.2969-1.3281 0.94922 0 1.8242 0.50781 2.2969 1.3281l4.9805 8.793 2.2383 3.8398c0.47656 0.81641 1.3477 1.3203 2.293 1.3203 0.94531 0 1.8164-0.50391 2.2891-1.3203l0.87109-1.5117 3.6992-6.3984c0.47656-0.81641 1.3477-1.3164 2.293-1.3164 0.94531 0 1.8164 0.5 2.2891 1.3164l3.6875 6.3984 3.6992 6.3984v0.003907c0.46484 0.82031 0.45703 1.8203-0.011718 2.6328-0.47266 0.81641-1.3398 1.3164-2.2773 1.3242z"/>
 </g>
</svg>
