<?xml version="1.0" encoding="UTF-8"?>
<svg width="150px" height="150px" viewBox="0 0 150 150" version="1.1" xmlns="http://www.w3.org/2000/svg" xmlns:xlink="http://www.w3.org/1999/xlink">
    <title>dialog-goodies</title>
    <g id="dialog-goodies" stroke="none" stroke-width="1" fill="none" fill-rule="evenodd">
        <g id="noun-candy-1865934-95968E" transform="translate(0.326087, 0.000000)" fill="#95958E" fill-rule="nonzero">
            <path d="M71.0869565,39.4565217 L39.4565217,71.0869565 C28.6956522,81.8478261 28.6956522,99.7826087 39.4565217,110.543478 C50.2173913,121.304348 68.1521739,121.304348 78.9130435,110.543478 L110.543478,78.9130435 C121.304348,68.1521739 121.304348,50.2173913 110.543478,39.4565217 C99.7826087,28.6956522 81.8478261,28.6956522 71.0869565,39.4565217 Z M105.978261,53.8043478 C104.673913,55.1086957 102.717391,55.1086957 101.413043,53.8043478 C94.8913043,47.2826087 84.1304348,47.2826087 77.6086957,53.8043478 L45.9782609,85.4347826 C45.326087,86.0869565 44.3478261,86.4130435 43.6956522,86.4130435 C43.0434783,86.4130435 42.0652174,86.0869565 41.4130435,85.4347826 C40.1086957,84.1304348 40.1086957,82.173913 41.4130435,80.8695652 L73.0434783,49.2391304 C77.6086957,44.673913 83.4782609,42.3913043 89.673913,42.3913043 C95.8695652,42.3913043 101.73913,44.673913 106.304348,49.2391304 C107.282609,50.2173913 107.282609,52.5 105.978261,53.8043478 Z" id="Shape"></path>
            <path d="M110.543478,0 C101.73913,8.80434783 100.108696,22.5 105.652174,32.9347826 C106.956522,30 108.586957,25.1086957 108.586957,22.173913 C108.586957,20.2173913 109.891304,18.9130435 111.521739,18.5869565 C113.478261,18.5869565 114.782609,19.8913043 115.108696,21.5217391 C115.434783,24.7826087 114.130435,29.0217391 112.826087,31.9565217 L117.391304,28.0434783 C118.695652,26.7391304 120.652174,26.7391304 121.956522,28.0434783 C123.26087,29.3478261 123.26087,31.3043478 121.956522,32.6086957 L117.391304,37.173913 C120.652174,35.8695652 124.565217,34.8913043 128.152174,34.8913043 C130.108696,34.8913043 131.413043,36.5217391 131.086957,38.4782609 C131.086957,40.4347826 129.456522,41.7391304 127.5,41.4130435 C124.565217,41.0869565 119.673913,43.0434783 116.73913,44.3478261 C127.173913,50.2173913 140.869565,48.5869565 149.673913,39.4565217 L110.543478,0 Z" id="Path"></path>
            <path d="M41.4130435,127.826087 C41.4130435,129.782609 40.1086957,131.086957 38.4782609,131.413043 L38.1521739,131.413043 C36.5217391,131.413043 34.8913043,130.108696 34.8913043,128.478261 C34.5652174,125.217391 35.8695652,120.978261 37.173913,118.043478 L32.6086957,121.956522 C31.9565217,122.608696 30.9782609,122.934783 30.326087,122.934783 C29.673913,122.934783 28.6956522,122.608696 28.0434783,121.956522 C26.7391304,120.652174 26.7391304,118.695652 28.0434783,117.391304 L32.6086957,112.826087 C29.673913,113.804348 26.0869565,115.108696 22.826087,115.108696 L22.173913,115.108696 C20.2173913,115.108696 18.9130435,113.478261 19.2391304,111.521739 C19.2391304,109.565217 20.8695652,108.26087 22.826087,108.586957 C25.7608696,108.913043 30.6521739,106.956522 33.5869565,105.652174 C22.5,99.7826087 8.80434783,101.413043 0,110.543478 L39.4565217,150 C48.2608696,141.195652 49.8913043,127.5 44.3478261,117.065217 C43.0434783,120 41.4130435,124.565217 41.4130435,127.826087 Z" id="Path"></path>
        </g>
    </g>
</svg>