<?xml version="1.0" encoding="UTF-8"?>
<svg width="150px" height="150px" viewBox="0 0 150 150" version="1.1" xmlns="http://www.w3.org/2000/svg" xmlns:xlink="http://www.w3.org/1999/xlink">
    <title>dialog-preferences</title>
    <g id="dialog-preferences" stroke="none" stroke-width="1" fill="none" fill-rule="evenodd">
        <g id="noun-preferences-2577458-95968E" fill="#95958E" fill-rule="nonzero">
            <path d="M6.25030469,31.2498307 L106.250305,31.2498307 L106.250305,43.7501693 C106.250305,47.1895262 109.062915,50 112.500068,50 L125.000271,50 C128.437559,50 131.250034,47.1895262 131.250034,43.7501693 L131.250034,31.2498307 L143.750237,31.2498307 C147.187525,31.2498307 150,28.4393569 150,25 C150,21.5637577 147.18739,18.7501693 143.750237,18.7501693 L131.250034,18.7501693 L131.250034,6.24983073 C131.250034,2.81358843 128.437424,0 125.000271,0 L112.500068,0 C109.062779,0 106.250305,2.81358843 106.250305,6.24983073 L106.250305,18.7501693 L6.25030469,18.7501693 C2.81247461,18.7501693 0,21.5637577 0,25 C0,28.4393569 2.81261003,31.2498307 6.25030469,31.2498307 Z" id="Path"></path>
            <path d="M6.24977995,81.2500291 L31.2505247,81.2500291 L31.2505247,93.7502354 C31.2505247,97.1895559 34.0631424,100 37.5003047,100 L50.0005417,100 C53.4378394,100 56.2503216,97.1895559 56.2503216,93.7502354 L56.2503216,81.2500291 L143.75022,81.2500291 C147.187518,81.2500291 150,78.4395851 150,75.0002645 C150,71.5640586 147.187382,68.7504999 143.75022,68.7504999 L56.2503216,68.7504999 L56.2503216,56.2502937 C56.2503216,52.8140877 53.437704,50.0005291 50.0005417,50.0005291 L37.5003047,50 C34.063007,50 31.2505247,52.8135587 31.2505247,56.2497646 L31.2505247,68.7499709 L6.24977995,68.7504998 C2.81248223,68.7504998 0,71.5640585 0,75.0002644 C0,78.4395849 2.81207597,81.250029 6.24977995,81.250029 L6.24977995,81.2500291 Z" id="Path"></path>
            <path d="M6.24977995,131.249831 L74.9997969,131.249831 L74.9997969,143.750169 C74.9997969,147.189526 77.8124145,150 81.2495768,150 L93.7498138,150 C97.1871115,150 99.9995937,147.189526 99.9995937,143.750169 L99.9995937,131.249831 L143.75022,131.249831 C147.187518,131.249831 150,128.439357 150,125 C150,121.563758 147.187382,118.750169 143.75022,118.750169 L99.9995937,118.750169 L99.9995937,106.249831 C99.9995937,102.813588 97.1869761,100 93.7498138,100 L81.2495768,100 C77.8122791,100 74.9997969,102.813588 74.9997969,106.249831 L74.9997969,118.750169 L6.24977995,118.750169 C2.81248223,118.750169 0,121.563758 0,125 C0,128.439357 2.81207597,131.249831 6.24977995,131.249831 L6.24977995,131.249831 Z" id="Path"></path>
        </g>
    </g>
</svg>