<?xml version="1.0" encoding="UTF-8"?>
<svg width="150px" height="150px" viewBox="0 0 150 150" version="1.1" xmlns="http://www.w3.org/2000/svg" xmlns:xlink="http://www.w3.org/1999/xlink">
    <title>dialog-account</title>
    <g id="dialog-account" stroke="none" stroke-width="1" fill="none" fill-rule="evenodd">
        <g id="noun-contact-4860943-95968E" transform="translate(14.000000, 7.000000)" fill="#95958E" fill-rule="nonzero">
            <path d="M88,49 C88,56.7321067 81.7321067,63 74,63 C66.2678933,63 60,56.7321067 60,49 C60,41.2678933 66.2678933,35 74,35 C81.7321067,35 88,41.2678933 88,49" id="Path"></path>
            <path d="M29.9615385,0 L17.3461538,0 C12.7464585,0.00345933395 8.33649846,1.83732837 5.08412615,5.09854512 C1.83225846,8.3601414 0.00353230769,12.7826084 0,17.3953488 L0,118.604651 C0.00344955077,123.217392 1.83213231,127.639859 5.08412615,130.901455 C8.33649846,134.162545 12.7464585,135.996458 17.3461538,136 L105.653846,136 C110.253542,135.996541 114.663502,134.162672 117.915874,130.901455 C121.167742,127.639859 122.996468,123.217392 123,118.604651 L123,17.3953488 C122.99655,12.7826084 121.167868,8.3601414 117.915874,5.09854512 C114.663502,1.83745488 110.253542,0.00354232558 105.653846,0 L29.9615385,0 Z M9.46153846,118.604651 L9.46153846,17.3953488 C9.46498801,15.2995572 10.2968157,13.290173 11.7746954,11.8080893 C13.2525877,10.3260056 15.2562892,9.49178791 17.3461538,9.48837209 L25.2307692,9.48837209 L25.2307692,126.511628 L17.3461538,126.511628 C15.2562892,126.508169 13.2525877,125.673982 11.7746954,124.191911 C10.2968031,122.709827 9.46494462,120.700443 9.46153846,118.604651 Z M104.076923,99.627907 C104.076923,101.32291 103.175125,102.888997 101.711538,103.736625 C100.247902,104.584152 98.4444062,104.584152 96.9807692,103.736625 C95.5171323,102.889098 94.6153846,101.323036 94.6153846,99.627907 L94.6153846,93.3023256 C94.6153846,85.957693 90.7080215,79.1709767 84.3653846,75.4983442 C78.0227477,71.8260912 70.2084,71.8260912 63.8653846,75.4983442 C57.5227477,79.1705972 53.6153846,85.9578195 53.6153846,93.3023256 L53.6153846,99.627907 C53.6153846,101.32291 52.7135865,102.888997 51.25,103.736625 C49.7863631,104.584152 47.9828677,104.584152 46.5192308,103.736625 C45.0555938,102.889098 44.1538462,101.323036 44.1538462,99.627907 L44.1538462,93.3023256 C44.1730644,88.024893 45.5839262,82.8463926 48.2424923,78.2917209 C50.9010585,73.7373023 54.7133015,69.9686474 59.2923077,67.3676949 C55.4766585,64.290426 52.7072031,60.101626 51.3663138,55.3792 C50.02492,50.656774 50.1781969,45.6333767 51.8049003,41.0024186 C53.4316542,36.3709544 56.4508942,32.3596502 60.447448,29.5225005 C64.4434972,26.6853507 69.2190511,25.1612651 74.1149557,25.1612651 C79.0108603,25.1612651 83.7869188,26.6853507 87.7824634,29.5225005 C91.7790172,32.3596502 94.7982572,36.3709544 96.4250111,41.0024186 C98.0517649,45.6333767 98.2049157,50.656774 96.8635975,55.3792 C95.5227083,60.101626 92.7532529,64.290426 88.9376037,67.3676949 C93.5166098,69.9686474 97.3288529,73.7373023 99.9874191,78.2917209 C102.645985,82.8466456 104.05689,88.0252726 104.076065,93.3023256 L104.076923,99.627907 Z" id="Shape"></path>
        </g>
    </g>
</svg>