<?xml version="1.0" encoding="UTF-8"?>
<svg width="150px" height="150px" viewBox="0 0 150 150" version="1.1" xmlns="http://www.w3.org/2000/svg" xmlns:xlink="http://www.w3.org/1999/xlink">
    <title>dialog-statistics</title>
    <g id="dialog-statistics" stroke="none" stroke-width="1" fill="none" fill-rule="evenodd">
        <g id="noun-stats-2732659-95968E" transform="translate(5.000000, 0.000000)" fill="#95958E">
            <path d="M11.8087806,0.536762756 L35.6903671,0.536762756 L35.6903671,139.534452 L11.8087806,139.534452 L11.8087806,0.536762756 Z M4.29561726,0 L4.29561726,145.706656 L139.804538,145.706656 L139.804538,150 L2.49770616e-14,150 L2.49770616e-14,0 L4.29561726,0 Z M115.924846,89.3560362 L139.806432,89.3560362 L139.806432,139.534073 L115.924846,139.534073 L115.924846,89.3560362 Z M81.8459033,26.8328346 L105.460434,26.8328346 L105.460434,139.534073 L81.8459033,139.534073 L81.8459033,26.8328346 Z M46.9620061,54.4721391 L70.576537,54.4721391 L70.576537,139.534073 L46.9620061,139.534073 L46.9620061,54.4721391 Z" id="Shape"></path>
        </g>
    </g>
</svg>