<?xml version="1.0" encoding="UTF-8"?>
<svg width="150px" height="150px" viewBox="0 0 150 150" version="1.1" xmlns="http://www.w3.org/2000/svg">
    <title>dialog-faq</title>
    <g id="dialog-faq" stroke="none" stroke-width="1" fill="none" fill-rule="evenodd">
        <g id="faq-shape" fill="#95958E" fill-rule="nonzero">
            <path d="M75,10 C39.1,10 10,39.1 10,75 C10,110.9 39.1,140 75,140 C110.9,140 140,110.9 140,75 C140,39.1 110.9,10 75,10 Z M75,124 C47.9,124 26,102.1 26,75 C26,47.9 47.9,26 75,26 C102.1,26 124,47.9 124,75 C124,102.1 102.1,124 75,124 Z"/>
            <path d="M75,45 C62.8,45 53,54.5 53,66.5 C53,71 56.6,74.5 61,74.5 C65.4,74.5 69,71 69,66.5 C69,63.4 71.6,60.9 75,60.9 C78.4,60.9 81,63.4 81,66.5 C81,68.5 80,69.7 77.2,71.9 C73.6,74.8 67,80.2 67,90 L67,93 C67,97.4 70.6,101 75,101 C79.4,101 83,97.4 83,93 L83,90 C83,88.2 84.3,86.9 87.1,84.6 C90.7,81.7 97,76.3 97,66.5 C97,54.5 87.2,45 75,45 Z"/>
            <circle cx="75" cy="115" r="8"/>
        </g>
    </g>
</svg>
