<?xml version="1.0" encoding="UTF-8"?>
<svg width="150px" height="150px" viewBox="0 0 150 150" version="1.1" xmlns="http://www.w3.org/2000/svg" xmlns:xlink="http://www.w3.org/1999/xlink">
    <title>dialog-trainer</title>
    <g id="dialog-trainer" stroke="none" stroke-width="1" fill="none" fill-rule="evenodd">
        <g id="noun-puzzle-4847624-95968E" transform="translate(17.988060, 18.015708)" fill="#95958E" fill-rule="nonzero">
            <path d="M77.412287,17.0273085 C77.0484352,17.3911616 76.5543189,17.5961964 76.0394031,17.5961964 C75.5244676,17.5961964 75.0303514,17.3911418 74.6657484,17.0273085 L58.0893007,0.569658703 C57.7254477,0.205034871 57.2313314,0 56.715646,0 C56.2007105,0 55.7065943,0.205054605 55.342761,0.568887898 L38.7663133,17.1453356 C38.4016906,17.5099582 38.1966557,18.0040745 38.1966557,18.5189903 C38.1966557,19.0339061 38.4017103,19.5280421 38.7663133,19.892645 L46.5333657,27.6596974 C49.236708,30.3060089 50.7599652,33.9291468 50.7599652,37.7123263 C50.7599652,41.4949138 49.2367475,45.1186436 46.5333657,47.7643631 C43.9703311,50.056057 40.632545,51.2894236 37.1945108,51.2146323 C33.757266,51.1398587 30.4765107,49.7631077 28.0151056,47.3619896 L19.7738483,39.1207323 C19.4099953,38.7568793 18.915879,38.5518444 18.4001936,38.5518444 C17.8852581,38.5518444 17.3911418,38.756899 17.0273085,39.1207323 L0.569658703,55.69718 C0.205034871,56.0618027 0,56.5559189 0,57.0708347 C0,57.5865398 0.205054605,58.0806561 0.568887898,58.4444894 L17.1453356,75.0209371 C17.5099582,75.3847901 17.7149931,75.8789064 17.7149931,76.3945918 C17.7149931,76.9095273 17.5099385,77.4036436 17.1453356,77.7674769 L8.90407835,86.0087341 C6.35957508,88.5611124 4.93025114,92.0182884 4.93025114,95.6228765 C4.93025114,99.2274645 6.35941721,102.68543 8.90484915,105.237808 C11.4501232,107.787029 14.9043392,109.219313 18.5073485,109.219313 C22.1095685,109.219313 25.5645738,107.787068 28.1098478,105.237808 L37.7478682,95.5997878 L55.5791924,113.431112 C55.9430454,113.795735 56.4371617,114 56.9528471,114 C57.4677826,114 57.9618989,113.795715 58.3257322,113.431112 L74.9021799,96.8546644 C75.2668025,96.4900418 75.4718374,95.9959255 75.4718374,95.4810097 C75.4718374,94.9660939 75.2667828,94.4719579 74.9021799,94.107355 L67.0871742,86.2692606 L67.0879452,86.2692606 C64.5602342,83.8218665 63.0501988,80.5101291 62.8613457,76.9967115 C62.6724866,73.483886 63.8187539,70.0288807 66.0696777,67.324749 C68.5417391,64.4903738 72.0816,62.8114164 75.8410989,62.6904478 C79.5998084,62.5686524 83.2405094,64.0163268 85.8899783,66.6857664 L94.1312355,74.9031457 C94.4950886,75.2669975 94.9892049,75.4720324 95.5048902,75.4720324 C96.0198258,75.4720324 96.513942,75.2669778 96.8785449,74.9023749 L113.454993,58.3259272 C113.818846,57.9620741 114.023881,57.4679579 114.023881,56.9530421 C114.023881,56.437337 113.818826,55.9432207 113.454993,55.5793874 L96.8785449,39.0029397 C96.5139223,38.638317 96.3088874,38.1442008 96.3088874,37.629285 C96.3088874,37.1143495 96.513942,36.6202332 96.8785449,36.2556303 L105.095924,28.014373 L105.095153,28.015144 C107.645164,25.46987 109.077448,22.0148646 109.077448,18.4126447 C109.077448,14.8096354 107.645203,11.3554194 105.095153,8.81014534 C102.541394,6.18692249 99.0354751,4.70767188 95.3746455,4.70767188 C91.713816,4.70767188 88.2080947,6.18694223 85.6533483,8.81014534 L77.412287,17.0273085 Z" id="Path"></path>
        </g>
    </g>
</svg>