<?xml version="1.0" encoding="UTF-8"?>
<svg width="128pt" height="128pt" version="1.1" viewBox="0 0 128 128" xmlns="http://www.w3.org/2000/svg">
 <path d="m123.22 51.719-13.438 28.281-3.6016-8.8203c-0.097657-0.26953-0.3125-0.48047-0.57813-0.57813-0.25781-0.10937-0.54687-0.10937-0.80078 0-18.801 8.6602-28.961 27.098-30.801 56.398h-20c0.71875-36.82 15.199-62 43.102-74.941 0.47656-0.21875 0.69531-0.77344 0.5-1.2578l-3.6016-9.9023z" fill="#333333"/>
 <path d="m85.301 24.719h-11.301c-0.5625 0-1.0195 0.45703-1.0195 1.0195v25.801l-9.6406 9.6602-9.3398-9.6406v-26.957c0-0.56641-0.45703-1.0234-1.0195-1.0234h-10.98l22.539-22.578z" fill="#333333"/>
 <path d="m56 71.559c-1.8789 2.3789-8.5195 11.379-10 21.281-6.1211-11.539-14-19.16-23.359-22.68-0.11719-0.027344-0.24219-0.027344-0.35938 0-0.39844 0.003906-0.75781 0.23828-0.92188 0.60156l-4 8.9414-12.578-28 29.219-10.762-4 9.2773c-0.10156 0.25781-0.10156 0.54297 0 0.80078 0.09375 0.25391 0.28906 0.45703 0.53906 0.55859 10.23 4.0781 19.07 11.016 25.461 19.98z" fill="#333333"/>
</svg>
