<?xml version="1.0" encoding="UTF-8"?>
<svg width="150px" height="150px" viewBox="0 0 150 150" version="1.1" xmlns="http://www.w3.org/2000/svg" xmlns:xlink="http://www.w3.org/1999/xlink">
    <title>discover</title>
    <g id="discover" stroke="none" stroke-width="1" fill="none" fill-rule="evenodd">
        <g id="noun-direction-6410655-95968E" transform="translate(0, -0)" fill="#95958E" fill-rule="nonzero">
            <path d="M132.199737,75.0425757 C137.082895,67.7133461 141.234766,59.9231727 144.595734,51.7816673 C152.287176,32.5515166 151.699372,16.9559218 142.953808,7.78954158 C142.83761,7.6518584 142.712624,7.5175998 142.578853,7.38626585 C129.845397,-5.35592752 104.177259,-1.30942186 75.0395425,17.7682475 C67.7113061,12.8850941 59.9213756,8.7332263 51.7811127,5.37226188 C32.5509444,-2.3191735 16.9528357,-1.73424496 7.78894688,7.0141863 C7.65126357,7.13038335 7.51700485,7.25536934 7.38567077,7.38914049 C-5.36278343,20.1313339 -1.30815007,45.7944488 17.7676619,74.9296395 L17.7676619,74.9291513 C12.884504,82.2573811 8.73263245,90.0473044 5.37166498,98.18756 C-2.32077728,117.42021 -1.73197368,133.013306 7.01359089,142.182185 C7.12978805,142.319869 7.25477415,142.454127 7.38854543,142.585461 C10.0742198,145.100279 13.238961,147.048291 16.6935422,148.314761 C20.1482483,149.580732 23.8225527,150.138288 27.4973572,149.954186 C40.5520242,149.954186 57.0875192,143.852931 74.9078585,132.188856 L74.9078585,132.189344 C82.2429691,137.078372 90.0410235,141.235114 98.1887856,144.598953 C105.859231,147.894426 114.081858,149.715953 122.425847,149.968922 C129.675468,150.31263 136.769108,147.794438 142.179702,142.957529 C142.317385,142.841332 142.451644,142.716346 142.582978,142.582575 C155.327682,129.839132 151.274299,104.176017 132.198487,75.0420758 L132.199737,75.0425757 Z M134.000768,133.480437 C133.909471,133.559041 133.820615,133.644967 133.732738,133.733331 C124.117154,143.329783 94.1600366,134.47884 63.1188004,107.62902 C64.8324676,106.81272 66.0789415,105.258184 66.5031401,103.40791 C66.9269137,101.558011 66.4821464,99.6153738 65.2947866,98.1346797 C64.1074306,96.6533607 62.3082737,95.7965903 60.4101289,95.8083389 L47.9116444,95.8083389 C46.2545953,95.8083389 44.664913,96.4664585 43.4928052,97.6387403 C42.3210722,98.8104721 41.6624021,100.400153 41.6624021,102.057575 L41.6624021,114.556049 C41.6624021,116.213096 42.3210097,117.802777 43.4928052,118.974884 C44.6650255,120.146616 46.2547203,120.805285 47.9116444,120.805285 C49.2826031,120.794056 50.611067,120.326831 51.6860617,119.476323 C52.7616188,118.625839 53.5222141,117.440946 53.8484245,116.109484 C57.1531488,119.00463 60.4853697,121.800664 63.8530864,124.387223 C42.8793795,137.09317 24.1141549,141.10893 16.4900793,134.002298 C16.4114751,133.911 16.3255493,133.822145 16.237185,133.734268 C6.63534925,124.129942 15.4872759,94.1591029 42.3415198,63.117895 C43.1583207,64.8295609 44.7123573,66.0745338 46.5612581,66.4978571 C48.4101589,66.9216303 50.3507986,66.4773521 51.831619,65.2914669 C53.3119396,64.1060617 54.1697105,62.3089563 54.1604617,60.412188 L54.1604617,47.9137149 C54.1604617,46.2566673 53.5023415,44.6669865 52.3300586,43.4948797 C51.1583257,42.3231478 49.5686434,41.6644783 47.9112194,41.6644783 L35.4127349,41.6644783 C33.7556858,41.6644783 32.1660036,42.3230853 30.9938957,43.4948797 C29.8221628,44.667099 29.1634926,46.2567923 29.1634926,47.9137149 C29.1747216,49.2846724 29.6419471,50.6131351 30.4924565,51.6881288 C31.3429409,52.7636849 32.5278347,53.5242795 33.8592983,53.8504896 C30.9641493,57.1552109 28.1681133,60.4874288 25.581552,63.8551424 C12.8780923,42.8827045 8.86607877,24.116247 15.9664678,16.4921784 C16.0577655,16.4135743 16.146621,16.3276485 16.2344978,16.2392843 C25.8398331,6.63158304 55.8071995,15.4893759 86.8509353,42.3435953 C85.1397678,43.160883 83.8952937,44.7144307 83.47197,46.5633298 C83.0486839,48.411729 83.4929637,50.352367 84.6783613,51.8326861 C85.8637675,53.3130053 87.6598747,54.1707755 89.5566447,54.1620265 L102.055129,54.1620265 C103.712178,54.1620265 105.301861,53.5039069 106.473968,52.3316252 C107.645701,51.1598933 108.304372,49.5702125 108.304372,47.91279 L108.304372,35.4143168 C108.304372,33.7572693 107.645764,32.1675885 106.473968,30.9954817 C105.301748,29.8237498 103.712053,29.1650803 102.055129,29.1650803 C100.68417,29.1763093 99.3557066,29.6435343 98.2807119,30.4940429 C97.2051548,31.3445265 96.4445596,32.5294193 96.1183491,33.8608816 C92.8136248,30.9657353 89.4814039,28.1692019 86.1136872,25.5831428 C107.086144,12.8771951 125.852619,8.86143563 133.476694,15.9680675 C133.555299,16.0593651 133.641224,16.1482205 133.729589,16.2360972 C143.331424,25.8404239 134.479498,55.8112626 107.625254,86.8524705 C106.80944,85.1388048 105.254916,83.8914572 103.404516,83.467134 C101.554115,83.0428734 99.6114756,83.4881277 98.1302802,84.6754864 C96.6489598,85.8628414 95.7921887,87.6623715 95.8034373,89.5606396 L95.8034373,102.059113 C95.8034373,103.71616 96.4620449,105.305841 97.6342153,106.477948 C98.8059482,107.64968 100.39563,108.308349 102.05268,108.308349 L114.551164,108.308349 C116.208713,108.308349 117.79827,107.649742 118.970003,106.477948 C120.142224,105.305729 120.800406,103.716035 120.800406,102.059113 C120.789666,100.688155 120.322439,99.3596925 119.471942,98.2846989 C118.621458,97.2096302 117.436564,96.4485482 116.105101,96.122338 C119.00025,92.8176167 121.796286,89.4853988 124.382847,86.1176852 C137.088806,107.087623 141.10082,125.854081 134.000306,133.47815 L134.000768,133.480437 Z" id="Shape"></path>
        </g>
    </g>
</svg>