<?xml version="1.0" encoding="UTF-8"?>
<svg width="154px" height="154px" viewBox="0 0 154 154" version="1.1" xmlns="http://www.w3.org/2000/svg" xmlns:xlink="http://www.w3.org/1999/xlink">
    <title>email</title>
    <g id="email" stroke="none" stroke-width="1" fill="none" fill-rule="evenodd">
        <g id="noun-email-4801096-95978E" transform="translate(17.000000, 37.000000)" fill="#95968E">
            <path d="M16.9608,0 L102.9138,0 C106.3982,0 109.6404,1.0625 112.3396,2.8828 L71.7886,39.8438 C68.4175,42.9141 64.1792,44.4532 59.9336,44.4532 C55.6914,44.4532 51.4453,42.918 48.0786,39.8438 L7.5276,2.8828 C10.2307,1.0625 13.4768,0 16.9573,0 L16.9608,0 Z M116.6018,6.9727 C118.6604,9.7813 119.883,13.2344 119.883,16.9649 L119.883,64.0159 C119.883,73.3479 112.2502,80.9809 102.918,80.9809 L16.965,80.9809 C7.633,80.9809 0,73.3481 0,64.0159 L0,16.9649 C0,13.2383 1.2188,9.7852 3.2812,6.9727 L44.1252,44.2027 C48.6252,48.3043 54.2852,50.355 59.9452,50.355 C65.6054,50.355 71.2652,48.3042 75.7652,44.2027 L116.6092,6.9727 L116.6018,6.9727 Z" id="Shape"></path>
        </g>
    </g>
</svg>