<?xml version="1.0" encoding="UTF-8"?>
<svg width="92px" height="92px" viewBox="0 0 92 92" version="1.1" xmlns="http://www.w3.org/2000/svg" xmlns:xlink="http://www.w3.org/1999/xlink">
    <title>folder-open</title>
    <g id="folder-open" stroke="none" stroke-width="1" fill="none" fill-rule="evenodd">
        <g id="noun-folder-977418-95978E" transform="translate(1.000000, 13.000000)" fill="#95968E" fill-rule="nonzero">
            <path d="M90,16.5023145 L90,61.5002104 C90,64.0499896 88.0496818,66 85.4999238,66 L4.49995898,66 C1.95008379,66 0,64.0498724 0,61.5002104 L0,16.5023145 C0,13.9525353 1.95020099,12.0025168 4.49995898,12.0025168 L85.5046115,12.0025168 C88.0499162,11.9979475 90,13.9480821 90,16.5023145 L90,16.5023145 Z M39.9000738,8.99957919 L32.2505655,1.35035876 C31.3487337,0.448560983 30.3003645,0 29.1010161,0 L4.49995898,0 C1.95008379,0 3.55271368e-15,1.95012758 3.55271368e-15,4.49978959 L3.55271368e-15,10.5011106 C1.19934841,9.59931285 2.85199755,8.99969638 4.49995898,8.99969638 L39.9000738,8.99957919 Z" id="Shape"></path>
        </g>
    </g>
</svg>