<?xml version="1.0" encoding="UTF-8"?>
<svg width="150px" height="150px" viewBox="0 0 150 150" version="1.1" xmlns="http://www.w3.org/2000/svg" xmlns:xlink="http://www.w3.org/1999/xlink">
    <title>folder-closed</title>
    <g id="folder-closed" stroke="none" stroke-width="1" fill="none" fill-rule="evenodd">
        <g id="noun-folder-977432-95978E" transform="translate(1.666667, 20.000000)" fill="#95968E" fill-rule="nonzero">
            <path d="M122.979731,29.99913 L130.444054,29.99913 C134.673669,29.99913 137.908378,33.2492734 137.908378,37.4986195 L137.908378,40.0009233 L122.979537,40.0009233 L122.979731,29.99913 Z M0.0569198464,53.4968014 L7.27066974,103.499909 C7.77183572,107.25356 11.0067192,110 14.7349929,110 L131.932914,110 C135.668964,110 138.903672,107.25356 139.397238,103.499909 L146.610988,53.4968014 C147.127355,48.8505865 144.006503,44.9977184 139.146664,44.9977184 L7.52085422,44.9977184 C3.10151148,44.9977184 -0.497879318,48.4765691 0.0565310594,53.4968014 L0.0569198464,53.4968014 Z M117.999369,7.49948953 L117.999369,40.0009233 L28.4267131,40.0009233 L28.4267131,7.49948953 C28.4267131,3.24994807 31.661616,0 35.8910363,0 L110.534268,0 C114.763883,0 117.999369,3.25014337 117.999369,7.49948953 L117.999369,7.49948953 Z M105.561292,29.99913 L38.374997,29.99913 L38.374997,34.9963158 L105.555461,34.9963158 L105.561292,29.99913 Z M105.561292,19.9971414 L38.374997,19.9971414 L38.374997,24.9943272 L105.555461,24.9943272 L105.561292,19.9971414 Z M105.561292,10.0027698 L53.3102527,10.0027698 L53.3102527,14.9999556 L105.561292,14.9999556 L105.561292,10.0027698 Z M23.4455731,10.0027698 L15.9812499,10.0027698 C11.7516352,10.0027698 8.51692672,13.2529132 8.51692672,17.5022594 L8.51692672,40.0018998 L23.4457674,40.0018998 L23.4455731,10.0027698 Z" id="Shape"></path>
        </g>
    </g>
</svg>