<?xml version="1.0" encoding="UTF-8"?>
<svg width="90px" height="90px" viewBox="0 0 90 90" version="1.1" xmlns="http://www.w3.org/2000/svg" xmlns:xlink="http://www.w3.org/1999/xlink">
    <title>folder-closed</title>
    <g id="folder-closed" stroke="none" stroke-width="1" fill="none" fill-rule="evenodd">
        <g id="noun-folder-977432-95978E" transform="translate(1.000000, 12.000000)" fill="#95968E" fill-rule="nonzero">
            <path d="M73.7878387,17.999478 L78.2664326,17.999478 C80.8042014,17.999478 82.7450265,19.949564 82.7450265,22.4991717 L82.7450265,24.000554 L73.7877221,24.000554 L73.7878387,17.999478 Z M0.0341519079,32.0980808 L4.36240184,62.0999451 C4.66310143,64.3521357 6.60403151,66 8.84099574,66 L79.1597487,66 C81.4013784,66 83.3422035,64.3521357 83.6383426,62.0999451 L87.9665925,32.0980808 C88.276413,29.3103519 86.4039017,26.9986311 83.4879986,26.9986311 L4.51251253,26.9986311 C1.86090689,26.9986311 -0.298727591,29.0859415 0.0339186356,32.0980808 L0.0341519079,32.0980808 Z M70.7996212,4.49969372 L70.7996212,24.000554 L17.0560279,24.000554 L17.0560279,4.49969372 C17.0560279,1.94996884 18.9969696,0 21.5346218,0 L66.3205608,0 C68.8583296,0 70.7996212,1.95008602 70.7996212,4.49969372 L70.7996212,4.49969372 Z M63.3367754,17.999478 L23.0249982,17.999478 L23.0249982,20.9977895 L63.3332763,20.9977895 L63.3367754,17.999478 Z M63.3367754,11.9982848 L23.0249982,11.9982848 L23.0249982,14.9965963 L63.3332763,14.9965963 L63.3367754,11.9982848 Z M63.3367754,6.00166191 L31.9861516,6.00166191 L31.9861516,8.99997337 L63.3367754,8.99997337 L63.3367754,6.00166191 Z M14.0673438,6.00166191 L9.58874993,6.00166191 C7.05098114,6.00166191 5.11015603,7.95174793 5.11015603,10.5013556 L5.11015603,24.0011399 L14.0674605,24.0011399 L14.0673438,6.00166191 Z" id="Shape"></path>
        </g>
    </g>
</svg>