<?xml version="1.0" encoding="UTF-8"?>
<svg width="128pt" height="128pt" version="1.1" viewBox="0 0 128 128" xmlns="http://www.w3.org/2000/svg">
 <g fill="#95968e">
  <path d="m58.879 40.961h12.801v7.6797h10.238l0.003906-12.801c0-1.3594-0.54297-2.6602-1.5-3.6211-0.96094-0.96094-2.2656-1.5-3.6211-1.5h-46.082c-2.8281 0-5.1172 2.293-5.1172 5.1211v12.801h10.238v-7.6797h12.801v46.078h-10.242v10.238l30.723 0.003906v-10.242h-10.242z"/>
  <path d="m89.602 85.516v-8.7148h10.238v-10.242h-10.238v-10.238h-10.242v10.238h-10.238v10.238h10.238v8.7188c0.007813 6.4961 5.2695 11.758 11.766 11.766h11.273v-10.242h-11.273c-0.84375 0-1.5234-0.67969-1.5234-1.5234z"/>
 </g>
</svg>
