<?xml version="1.0" encoding="UTF-8"?>
<svg width="118px" height="118px" viewBox="0 0 118 118" version="1.1" xmlns="http://www.w3.org/2000/svg" xmlns:xlink="http://www.w3.org/1999/xlink">
    <title>global-shares</title>
    <g id="global-shares" stroke="none" stroke-width="1" fill="none" fill-rule="evenodd">
        <g transform="translate(-0.000000, 17.000000)" fill="#95968E" fill-rule="nonzero" id="Path">
            <path d="M40.7133551,32.09392 C40.5727351,31.17595 40.5024151,30.25012 40.5024151,29.33222 C40.5024151,21.98452 44.9086151,15.34822 51.5924151,12.44122 C49.2565151,9.23812 45.4986151,7.28892 41.5304151,7.28892 C34.6906151,7.28892 29.1244151,12.86312 29.1244151,19.71092 C29.1244151,26.28122 34.2533151,31.67192 40.7144151,32.09392 L40.7133551,32.09392 Z"></path>
            <path d="M23.6823551,24.15592 C23.3229851,22.71062 23.1393851,21.22622 23.1393851,19.71452 C23.1393851,11.95282 27.9987851,5.10152 35.1593851,2.46452 C33.0226851,0.86682 30.4405851,0.00362 27.7335851,0.00362 C20.9015851,0.00362 15.3425851,5.57002 15.3425851,12.40962 C15.3425851,17.74552 18.7605851,22.44062 23.6823851,24.15562 L23.6823551,24.15592 Z"></path>
            <path d="M47.4983551,43.76092 C45.3850551,42.09682 43.6663551,39.99142 42.4631551,37.58122 C42.1701851,37.565596 41.8615951,37.561689 41.5334651,37.561689 C30.4124651,37.561689 22.4354651,45.624189 17.1464651,62.206689 L13.8222651,72.683689 C13.7128851,73.027439 13.7910151,73.386809 14.0566351,73.750089 C14.5371051,74.406339 15.5097351,74.882889 16.3691351,74.882889 L27.2711351,74.882889 L28.8258351,70.003989 C33.0836351,56.601989 39.3568351,47.784989 47.4978351,43.761989 L47.4983551,43.76092 Z"></path>
            <path d="M26.4986551,30.31212 C16.0256551,30.89024 8.45565506,38.94102 3.37765506,54.90212 L0.057355057,65.39412 C0.010481057,65.53084 -0.114514943,65.91756 0.268295057,66.44882 C0.744855057,67.10507 1.71359506,67.58162 2.57689506,67.58162 L9.18239506,67.58162 L11.4714951,60.40192 C15.7292951,46.98392 22.0064951,38.16792 30.1354951,34.15592 C28.7447551,33.06212 27.5298551,31.77312 26.4986551,30.31212 Z"></path>
            <path d="M77.2683551,29.33192 C77.2683551,30.26942 77.2019491,31.19522 77.0691351,32.09362 C83.5418351,31.67174 88.6781351,26.28112 88.6781351,19.71462 C88.6781351,12.86692 83.1039351,7.29262 76.2561351,7.29262 C72.2717351,7.29262 68.5178351,9.23792 66.1901351,12.44102 C72.8620351,15.34332 77.2681351,21.98012 77.2681351,29.33202 L77.2683551,29.33192 Z"></path>
            <path d="M57.3813551,10.41792 L57.7172951,10.9687 C58.0962051,10.945263 58.4868251,10.925731 58.8891951,10.925731 C59.2876351,10.925731 59.6743551,10.945263 60.0571951,10.9687 L60.3931351,10.4062 C62.1236351,7.4609 64.5767351,5.0976 67.5376351,3.5156 C65.2251351,1.2695 62.1392351,0 58.8892351,0 C55.6275351,0 52.5415351,1.2656 50.2408351,3.5156 C53.2135351,5.1094 55.6666351,7.4726 57.3814351,10.4179 L57.3813551,10.41792 Z"></path>
            <path d="M94.6433551,19.71492 C94.6433551,21.22662 94.4597651,22.71492 94.1003851,24.15632 C99.0222851,22.44542 102.440185,17.75012 102.440185,12.41032 C102.440185,5.57052 96.8737851,0.00432 90.0341851,0.00432 C87.3310851,0.00432 84.7568851,0.8676 82.6200851,2.46522 C89.7841851,5.10582 94.6430851,11.95352 94.6430851,19.71522 L94.6433551,19.71492 Z"></path>
            <path d="M58.8893551,16.89392 C52.0416551,16.89392 46.4673551,22.47202 46.4673551,29.33192 C46.4673551,36.17172 52.0376551,41.73792 58.8893551,41.73792 C65.7331551,41.73792 71.2993551,36.17152 71.2993551,29.33192 C71.2993551,22.47642 65.7329551,16.89392 58.8893551,16.89392 Z"></path>
            <path d="M114.404355,54.90192 C109.322355,38.93692 101.752355,30.88592 91.2633551,30.31192 C90.2360551,31.77672 89.0172551,33.06192 87.6266551,34.15572 C95.7672551,38.16742 102.048655,46.98772 106.310655,60.39772 L108.599755,67.57742 L115.185655,67.57742 C116.048935,67.57742 117.021555,67.10476 117.502055,66.44852 C117.763775,66.09305 117.841895,65.73368 117.732525,65.38602 L114.404355,54.90192 Z"></path>
            <path d="M83.2523551,71.79692 C77.9906551,55.23492 70.0253551,47.18392 58.8933551,47.18392 C47.7763551,47.18392 39.7993551,55.23472 34.5063551,71.80092 L31.1860551,82.28892 C31.1430861,82.42173 31.0180851,82.80845 31.4087151,83.34362 C31.8852751,83.99987 32.8579151,84.47642 33.7212151,84.47642 L84.0652151,84.472514 C84.9284951,84.472514 85.8972151,83.995954 86.3738151,83.343614 C86.7566251,82.816274 86.6316251,82.425644 86.5886551,82.300614 L83.2523551,71.79692 Z"></path>
            <path d="M100.624355,62.20692 C95.3548551,45.62492 87.3823551,37.56192 76.2533551,37.56192 C75.9174151,37.56192 75.6088251,37.569733 75.3197651,37.581451 C74.1049651,39.987651 72.3822651,42.097051 70.2689651,43.768951 C78.4173651,47.780651 84.6989651,56.592951 88.9599651,69.998951 L90.5146651,74.877851 L101.432665,74.877851 C102.288135,74.877851 103.256865,74.397381 103.741265,73.733351 C104.002985,73.373971 104.077205,73.022411 103.967825,72.682551 L100.624355,62.20692 Z"></path>
        </g>
    </g>
</svg>