<?xml version="1.0" encoding="UTF-8"?>
<svg width="150px" height="150px" viewBox="0 0 150 150" version="1.1" xmlns="http://www.w3.org/2000/svg" xmlns:xlink="http://www.w3.org/1999/xlink">
    <title>history</title>
    <g id="history" stroke="none" stroke-width="1" fill="none" fill-rule="evenodd">
        <g id="noun-history-1800971-95968E" transform="translate(7, 12)" fill="#95958E" fill-rule="nonzero">
            <path d="M73.2014506,0.00890892806 C47.777473,0.00890892806 25.7329287,14.7838861 15.4918153,36.1782637 L13.5797757,32.8029187 C12.2876118,30.4131379 9.76450278,28.95645 7.04911022,29.035045 C4.49978372,29.0873777 2.17731734,30.482891 0.928804471,32.6981998 C-0.319686047,34.9222835 -0.310969254,37.6260204 0.963727518,39.8327105 L10.8731558,57.4947162 C12.7590003,60.8787692 16.9847448,62.1784902 20.450899,60.4165767 L38.0695479,51.4156567 C39.8506344,50.60452 41.2301674,49.0955396 41.876104,47.2378383 C42.513458,45.3888003 42.3824826,43.3565376 41.4919393,41.6122633 C40.6013961,39.859147 39.0384976,38.550852 37.1527648,37.9839405 C35.2756595,37.4170066 33.2501004,37.6350633 31.5389271,38.5944811 L29.958662,39.3794492 C38.3837771,24.5173924 54.5444865,14.4076569 73.2028922,14.4076569 C100.618322,14.4076569 122.584638,36.134054 122.584638,63.0070875 C122.584638,89.6624217 100.923633,111.247035 73.824243,111.606518 C71.9122035,111.632685 70.0874212,112.417655 68.7604572,113.786995 C67.4333815,115.165066 66.6999863,117.005373 66.7261814,118.915546 C66.7611045,120.825651 67.5468786,122.639879 68.9176054,123.974209 C70.2883321,125.299943 72.1392424,126.032573 74.051349,125.998888 C108.773238,125.544145 137,97.477963 137,62.9988484 C137,28.2428649 108.310578,0 73.2131959,0 L73.2014506,0.00890892806 Z M72.0228062,26.8986885 C70.1107666,26.9248549 68.2859843,27.7098252 66.9590203,29.0878957 C65.6232055,30.4572359 64.8985494,32.2975659 64.9247445,34.2077384 L64.9247445,63.006574 C64.9247445,65.1957812 65.9200458,67.2627641 67.6311968,68.632149 L85.6514886,83.0320134 L85.6427584,83.0320134 C88.7508536,85.5090973 93.2909614,85.0118942 95.7792703,81.906876 C98.2675793,78.7932168 97.761156,74.2664096 94.6529937,71.7806178 L79.3391542,59.5175564 L79.3391542,34.2063763 C79.365347,32.2613943 78.6057814,30.3775468 77.2263155,28.999454 C75.8468495,27.6213835 73.9698112,26.8625839 72.0228375,26.8974605 L72.0228062,26.8986885 Z" id="Shape"></path>
        </g>
    </g>
</svg>