<?xml version="1.0" encoding="UTF-8"?>
<svg width="128pt" height="128pt" version="1.1" viewBox="0 0 128 128" xmlns="http://www.w3.org/2000/svg">
 <path d="m118.81 51.227-51.594-41.422c-1.8789-1.5117-4.4102-1.5117-6.2891 0.003906l-51.746 41.645c-2.4219 1.9492-2.9727 5.7266-1.2344 8.4414 1.0547 1.6445 2.7109 2.5234 4.3867 2.5234 1.0898 0 2.1914-0.37109 3.1445-1.1367l48.598-39.117 48.449 38.895c2.4219 1.9453 5.7969 1.3203 7.5312-1.3945 1.7305-2.7148 1.1758-6.4922-1.2461-8.4375zm-98.172 11.977 12.555 56.125h18.363v-33.945h24.887v33.945h18.367l12.555-56.125-43.367-33.945z" fill="#95968e"/>
</svg>
