<?xml version="1.0" encoding="UTF-8"?>
<svg width="128pt" height="128pt" version="1.1" viewBox="0 0 128 128" xmlns="http://www.w3.org/2000/svg">
 <path d="m40.57 29.227c-6.9492 0-12.578 5.6328-12.578 12.578 0 6.9453 5.6289 12.578 12.578 12.578 6.9453 0 12.578-5.6328 12.578-12.578 0-6.9453-5.6328-12.578-12.578-12.578zm73.352 27.426-24.031 21.617c-5.5039 4.8906-14 4.1016-18.508-1.7227l-3.1758-4.1016c-4.3555-5.625-12.477-6.5859-18.023-2.1289l-36.105 29.477v-80.828c0-2.6953 2.1914-4.8867 4.8867-4.8867h90.07c2.6953 0 4.8867 2.1914 4.8867 4.8867zm-4.8867-50.254h-90.07c-6.9375 0-12.566 5.625-12.566 12.566v90.07c0 6.9375 5.6289 12.566 12.566 12.566h90.07c6.9414 0 12.566-5.6289 12.566-12.566v-90.07c0-6.9414-5.625-12.566-12.566-12.566z" fill="#95968e" fill-rule="evenodd"/>
</svg>
