<?xml version="1.0" encoding="UTF-8"?>
<svg width="68px" height="68px" viewBox="0 0 68 68" version="1.1" xmlns="http://www.w3.org/2000/svg" xmlns:xlink="http://www.w3.org/1999/xlink">
    <title>indicator-hidden</title>
    <defs>
        <linearGradient x1="50%" y1="0%" x2="50%" y2="100%" id="linearGradient-1">
            <stop stop-color="#E74848" offset="0%"></stop>
            <stop stop-color="#C22828" offset="100%"></stop>
        </linearGradient>
        <linearGradient x1="50%" y1="0%" x2="50%" y2="100%" id="linearGradient-2">
            <stop stop-color="#E74848" offset="0%"></stop>
            <stop stop-color="#C22828" offset="100%"></stop>
        </linearGradient>
    </defs>
    <g id="indicator-hidden" stroke="none" stroke-width="1" fill="none" fill-rule="evenodd">
        <g id="noun-dots-2561422-95978E" transform="translate(3.999997, 4.000000)" fill-rule="nonzero">
            <path d="M30.0000027,51 C18.360935,51 9.00000267,41.645487 9.00000267,30 C9.00000267,18.3609323 18.3545157,9 30.0000027,9 C41.6390703,9 51.0000027,18.354513 51.0000027,30 C50.9930377,41.6390677 41.6385354,51 30.0000027,51 M30.0000027,60 C46.6939467,60 60.0000027,46.4658991 60.0000027,30 C60.0000027,13.5341009 46.4659023,0 30.0000027,0 C13.5341057,0 2.66599966e-06,13.5341009 2.66599966e-06,30 C-0.00687829366,46.4667802 13.3069424,60 30.0000027,60 Z" id="Shape" fill="url(#linearGradient-1)"></path>
            <path d="M30.0000068,42.9998003 C22.7948692,42.9998003 17.0000068,37.2089112 17.0000068,29.9998003 C17.0000068,22.7946631 22.7908954,16.9998003 30.0000068,16.9998003 C37.2051422,16.9998003 43.0000068,22.7906893 43.0000068,29.9998003 C42.9956929,37.2049374 37.204811,42.9998003 30.0000068,42.9998003 M30.0000044,36 C33.3387928,36 36.0000044,33.2931798 36.0000044,30 C36.0000044,26.7068202 33.293184,24 30.0000044,24 C26.7068249,24 24.0000044,26.7068202 24.0000044,30 C23.9986283,33.293356 26.6613923,36 30.0000044,36 Z" id="Shape" fill="url(#linearGradient-2)"></path>
        </g>
    </g>
</svg>