<?xml version="1.0" encoding="UTF-8"?>
<svg width="68px" height="68px" viewBox="0 0 68 68" version="1.1" xmlns="http://www.w3.org/2000/svg" xmlns:xlink="http://www.w3.org/1999/xlink">
    <title>indicator-unread</title>
    <defs>
        <linearGradient x1="50%" y1="0%" x2="50%" y2="98.6150568%" id="linearGradient-1">
            <stop stop-color="#928E80" offset="0%"></stop>
            <stop stop-color="#747166" offset="100%"></stop>
        </linearGradient>
    </defs>
    <g id="indicator-unread" stroke="none" stroke-width="1" fill="none" fill-rule="evenodd">
        <g id="noun-dots-2561422-95978E" transform="translate(11.000000, 10.000000)" fill="url(#linearGradient-1)" fill-rule="nonzero">
            <path d="M23.5,0 C36.524671,0 47,10.4681455 47,23.5 C46.9922059,36.524671 36.5240723,47 23.5,47 C10.475329,47 0,36.5318545 0,23.5 C0,10.475329 10.4681455,0 23.5,0 Z M23.5,10 C16.0136155,10 10,16.0177422 10,23.5 C10,30.9863845 16.0177422,37 23.5,37 C30.9819139,37 36.9955225,30.9822578 37,23.5 C37,16.0136155 30.9822578,10 23.5,10 Z" id="Shape"></path>
        </g>
    </g>
</svg>