<?xml version="1.0" encoding="UTF-8"?>
<svg width="68px" height="68px" viewBox="0 0 68 68" version="1.1" xmlns="http://www.w3.org/2000/svg" xmlns:xlink="http://www.w3.org/1999/xlink">
    <title>indicator-focus</title>
    <defs>
        <linearGradient x1="50%" y1="0%" x2="50%" y2="100%" id="linearGradient-1">
            <stop stop-color="#7BD48F" offset="0%"></stop>
            <stop stop-color="#6BBF7A" offset="100%"></stop>
        </linearGradient>
        <linearGradient x1="50%" y1="0%" x2="50%" y2="100%" id="linearGradient-2">
            <stop stop-color="#80D493" offset="0%"></stop>
            <stop stop-color="#5BB46B" offset="100%"></stop>
        </linearGradient>
    </defs>
    <g id="indicator-focus" stroke="none" stroke-width="1" fill="none" fill-rule="evenodd">
        <g id="noun-dots-2561422-95978E" transform="translate(-0.000000, 0.000000)" fill-rule="nonzero">
            <path d="M34.000003,57.5219761 C20.9630424,57.5219761 10.4778292,47.0439523 10.4778292,33.9998003 C10.4778292,20.9628385 20.9558522,10.4776244 34.000003,10.4776244 C47.0369636,10.4776244 57.5221768,20.9556482 57.5221768,33.9998003 C57.5143754,47.036762 47.0363644,57.5219761 34.000003,57.5219761 M34.000003,68 C52.919804,68 68.000003,52.6613523 68.000003,34 C68.000003,15.3386477 52.6613537,0 34.000003,0 C15.3386524,0 3.02146611e-06,15.3386477 3.02146611e-06,34 C-0.00779539913,52.6623509 15.0812007,68 34.000003,68 Z" id="Shape" fill="url(#linearGradient-1)"></path>
            <path d="M34.0038728,49 C25.7183476,49 19,42.2876649 19,34 C19,25.7123351 25.7183476,19 34.0038728,19 C42.2816524,19 49,25.7123351 49,34 C49,42.2876649 42.2816524,49 34.0038728,49 Z" id="Path" fill="url(#linearGradient-2)"></path>
        </g>
    </g>
</svg>