<?xml version="1.0" encoding="UTF-8"?>
<svg width="68px" height="68px" viewBox="0 0 68 68" version="1.1" xmlns="http://www.w3.org/2000/svg" xmlns:xlink="http://www.w3.org/1999/xlink">
    <title>indicator-hidden</title>
    <defs>
        <linearGradient x1="50%" y1="1.67996066%" x2="50%" y2="100%" id="linearGradient-1">
            <stop stop-color="#EE8069" offset="0%"></stop>
            <stop stop-color="#C34536" offset="100%"></stop>
        </linearGradient>
        <linearGradient x1="50%" y1="0%" x2="50%" y2="100%" id="linearGradient-2">
            <stop stop-color="#EE8069" offset="1.67996066%"></stop>
            <stop stop-color="#C34536" offset="100%"></stop>
        </linearGradient>
    </defs>
    <g id="indicator-hidden" stroke="none" stroke-width="1" fill="none" fill-rule="evenodd">
        <g id="noun-dots-2561422-95978E" transform="translate(4.016404, 4.000200)" fill-rule="nonzero">
            <path d="M30,60 C13.5556641,60 0,46.7336989 0,30 C0,13.2663011 13.2663011,0 30,0 C46.7336989,0 59.7115385,13.5567909 59.7115385,30 C59.7115385,46.4432091 46.4452374,60 30,60 M29.9835963,52.9998003 C42.7822863,52.9998003 52.9835963,42.6236562 52.9835963,29.9998003 C52.9835963,17.3759443 42.6074522,6.99980027 29.9835963,6.99980027 C17.3597403,6.99980027 6.98359629,17.2017858 6.98359629,29.9998003 C6.98359629,42.7978147 17.1908512,52.9998003 29.9835963,52.9998003 Z" id="Shape" fill="url(#linearGradient-1)"></path>
            <path d="M30.4835963,37.4995995 C26.6552198,37.4995995 23.4835963,34.3321026 23.4835963,30.4995995 C23.4835963,26.671223 26.6510932,23.4995995 30.4835963,23.4995995 C34.3119728,23.4995995 37.4835963,26.6670964 37.4835963,30.4995995 C37.4835963,34.327976 34.3160994,37.4995995 30.4835963,37.4995995 M30.4835963,48.9998003 C40.7649209,48.9998003 48.9835963,40.7730943 48.9835963,30.4998003 C48.9835963,20.2184757 40.7568903,11.9998003 30.4835963,11.9998003 C20.2103022,11.9998003 11.9835963,20.2186764 11.9835963,30.4998003 C11.9835963,40.7809241 20.2103022,48.9998003 30.4835963,48.9998003 Z" id="Shape" fill="url(#linearGradient-2)"></path>
        </g>
    </g>
</svg>