<?xml version="1.0" encoding="UTF-8"?>
<svg width="68px" height="68px" viewBox="0 0 68 68" version="1.1" xmlns="http://www.w3.org/2000/svg" xmlns:xlink="http://www.w3.org/1999/xlink">
    <title>indicator-hidden</title>
    <g id="indicator-hidden" stroke="none" stroke-width="1" fill="none" fill-rule="evenodd">
        <g id="noun-dots-2561422-95978E" fill="#B7655B" fill-rule="nonzero">
            <path d="M34,60.5882277 C19.4259179,60.5882277 7.41197204,48.8307349 7.41197204,34.0001997 C7.41197204,19.1696646 19.1694648,7.41217177 34,7.41217177 C48.8305352,7.41217177 60.3323738,19.4271163 60.3323738,34.0001997 C60.3323738,48.5732832 48.574881,60.5882277 34,60.5882277 M34,68 C52.9198026,68 68,52.6613523 68,34 C68,15.3386477 52.6613523,0 34,0 C15.3386477,0 0,15.081196 0,34 C0,52.918804 15.0889855,68 34,68 Z" id="Shape"></path>
            <path d="M34.5,48.1220374 C27.0498492,48.1220374 20.8777619,41.9579806 20.8777619,34.4997992 C20.8777619,27.0496484 27.0418186,20.8775611 34.5,20.8775611 C41.9501508,20.8775611 48.1222381,27.0416178 48.1222381,34.4997992 C48.1222381,41.9499501 41.9581814,48.1220374 34.5,48.1220374 M34.5,53 C44.7813246,53 53,44.773294 53,34.5 C53,24.2186754 44.773294,16 34.5,16 C24.226706,16 16,24.2188762 16,34.5 C16,44.7811238 24.226706,53 34.5,53 Z" id="Shape"></path>
        </g>
    </g>
</svg>