<?xml version="1.0" encoding="UTF-8"?>
<svg width="145px" height="145px" viewBox="0 0 145 145" version="1.1" xmlns="http://www.w3.org/2000/svg" xmlns:xlink="http://www.w3.org/1999/xlink">
    <title>layout-grid</title>
    <g id="layout-grid" stroke="none" stroke-width="1" fill="none" fill-rule="evenodd">
        <g id="noun-layout-4378760-95968E" transform="translate(8.000000, 12.538462)" fill="#95958E" fill-rule="nonzero">
            <path d="M0,28.1538462 L0,9.69230769 C0.002401823,7.24467692 0.975154158,4.89858462 2.70397236,3.16775385 C4.43324557,1.43741538 6.77751632,0.463876923 9.22311839,0.461538462 L27.6693552,0.461538462 C30.1149572,0.463942277 32.459105,1.43750154 34.1885012,3.16775385 C35.9174055,4.89846154 36.890137,7.24467692 36.8924735,9.69230769 L36.8924735,28.1538462 C36.8900717,30.6014769 35.9173194,32.9475692 34.1885012,34.6784 C32.459228,36.4087385 30.1149572,37.3822769 27.6693552,37.3846154 L9.22311839,37.3846154 C6.77751632,37.3822116 4.43336855,36.4086523 2.70397236,34.6784 C0.975068076,32.9476923 0.00233652332,30.6014769 0,28.1538462 Z M55.2231184,36.9230769 L73.6693552,36.9230769 C76.1149572,36.9206731 78.459105,35.9471138 80.1885012,34.2168615 C81.9174055,32.4861538 82.890137,30.1399385 82.8924735,27.6923077 L82.8924735,9.23076923 C82.8900717,6.78313846 81.9173194,4.43704615 80.1885012,2.70621538 C78.459228,0.975876923 76.1149572,0.00233846154 73.6693552,0 L55.2231184,0 C52.7775163,0.00240381538 50.4333685,0.975963077 48.7039724,2.70621538 C46.9750681,4.43692308 46.0023365,6.78313846 46,9.23076923 L46,27.6923077 C46.0024018,30.1399385 46.9751542,32.4860308 48.7039724,34.2168615 C50.4332456,35.9472 52.7775163,36.9207385 55.2231184,36.9230769 Z M101.223118,37.4615385 L119.669355,37.4615385 C122.114957,37.4591346 124.459105,36.4855754 126.188501,34.7553231 C127.917405,33.0246154 128.890137,30.6784 128.892474,28.2307692 L128.892474,9.76923077 C128.890072,7.3216 127.917319,4.97550769 126.188501,3.24467692 C124.459228,1.51433846 122.114957,0.5408 119.669355,0.538461538 L101.223118,0.538461538 C98.7775163,0.540865354 96.4333685,1.51442462 94.7039724,3.24467692 C92.9750681,4.97538462 92.0023365,7.3216 92,9.76923077 L92,28.2307692 C92.0024018,30.6784 92.9751542,33.0244923 94.7039724,34.7553231 C96.4332456,36.4856615 98.7775163,37.4592 101.223118,37.4615385 Z M0,112.153846 L0,93.6923077 C0.002401823,91.2446769 0.975154158,88.8985846 2.70397236,87.1677538 C4.43324557,85.4374154 6.77751632,84.4638769 9.22311839,84.4615385 L27.6693552,84.4615385 C30.1149572,84.4639423 32.459105,85.4375015 34.1885012,87.1677538 C35.9174055,88.8984615 36.890137,91.2446769 36.8924735,93.6923077 L36.8924735,112.153846 C36.8900717,114.601477 35.9173194,116.947569 34.1885012,118.6784 C32.459228,120.408738 30.1149572,121.382277 27.6693552,121.384615 L9.22311839,121.384615 C6.77751632,121.382212 4.43336855,120.408652 2.70397236,118.6784 C0.975068076,116.947692 0.00233652332,114.601477 0,112.153846 Z M101.223118,121.461538 L119.669355,121.461538 C122.114957,121.459135 124.459105,120.485575 126.188501,118.755323 C127.917405,117.024615 128.890137,114.6784 128.892474,112.230769 L128.892474,93.7692308 C128.890072,91.3216 127.917319,88.9755077 126.188501,87.2446769 C124.459228,85.5143385 122.114957,84.5408 119.669355,84.5384615 L101.223118,84.5384615 C98.7775163,84.5408654 96.4333685,85.5144246 94.7039724,87.2446769 C92.9750681,88.9753846 92.0023365,91.3216 92,93.7692308 L92,112.230769 C92.0024018,114.6784 92.9751542,117.024492 94.7039724,118.755323 C96.4332456,120.485662 98.7775163,121.4592 101.223118,121.461538 Z M55.2231184,120.923077 L73.6693552,120.923077 C76.1149572,120.920673 78.459105,119.947114 80.1885012,118.216862 C81.9174055,116.486154 82.890137,114.139938 82.8924735,111.692308 L82.8924735,93.2307692 C82.8900717,90.7831385 81.9173194,88.4370462 80.1885012,86.7062154 C78.459228,84.9758769 76.1149572,84.0023385 73.6693552,84 L55.2231184,84 C52.7775163,84.0024038 50.4333685,84.9759631 48.7039724,86.7062154 C46.9750681,88.4369231 46.0023365,90.7831385 46,93.2307692 L46,111.692308 C46.0024018,114.139938 46.9751542,116.486031 48.7039724,118.216862 C50.4332456,119.9472 52.7775163,120.920738 55.2231184,120.923077 Z M34.34223,46.6923077 L2.90484801,46.6923077 C1.9022051,46.7365391 0.987358235,47.6254769 0.493734179,49.0355692 C0.000140607163,50.4456615 0.000140607163,52.1697231 0.493734179,53.5798154 C0.98732775,54.9899077 1.90212889,55.8788923 2.90484801,55.9230769 L34.34223,55.9230769 C35.3448729,55.8788455 36.2597198,54.9899077 36.7533438,53.5798154 C37.2469374,52.1697231 37.2469374,50.4456615 36.7533438,49.0355692 C36.2597503,47.6254769 35.3449491,46.7364923 34.34223,46.6923077 Z M34.34223,65.1538462 L2.90484801,65.1538462 C1.9022051,65.1980775 0.987358235,66.0870154 0.493734179,67.4971077 C0.000140607163,68.9072 0.000140607163,70.6312615 0.493734179,72.0413538 C0.98732775,73.4514462 1.90212889,74.3404308 2.90484801,74.3846154 L34.34223,74.3846154 C35.3448729,74.340384 36.2597198,73.4514462 36.7533438,72.0413538 C37.2469374,70.6312615 37.2469374,68.9072 36.7533438,67.4971077 C36.2597503,66.0870154 35.3449491,65.1980308 34.34223,65.1538462 Z M80.34223,65.1538462 L48.904848,65.1538462 C47.9022051,65.1980775 46.9873582,66.0870154 46.4937342,67.4971077 C46.0001406,68.9072 46.0001406,70.6312615 46.4937342,72.0413538 C46.9873277,73.4514462 47.9021289,74.3404308 48.904848,74.3846154 L80.34223,74.3846154 C81.3448729,74.340384 82.2597198,73.4514462 82.7533438,72.0413538 C83.2469374,70.6312615 83.2469374,68.9072 82.7533438,67.4971077 C82.2597503,66.0870154 81.3449491,65.1980308 80.34223,65.1538462 Z M80.34223,46.6923077 L48.904848,46.6923077 C47.9022051,46.7365391 46.9873582,47.6254769 46.4937342,49.0355692 C46.0001406,50.4456615 46.0001406,52.1697231 46.4937342,53.5798154 C46.9873277,54.9899077 47.9021289,55.8788923 48.904848,55.9230769 L80.34223,55.9230769 C81.3448729,55.8788455 82.2597198,54.9899077 82.7533438,53.5798154 C83.2469374,52.1697231 83.2469374,50.4456615 82.7533438,49.0355692 C82.2597503,47.6254769 81.3449491,46.7364923 80.34223,46.6923077 Z M126.095152,47.0769231 L94.65777,47.0769231 C93.6551271,47.1211545 92.7402802,48.0100923 92.2466562,49.4201846 C91.7530626,50.8302769 91.7530626,52.5543385 92.2466562,53.9644308 C92.7402497,55.3745231 93.6550509,56.2635077 94.65777,56.3076923 L126.095152,56.3076923 C127.097795,56.2634609 128.012642,55.3745231 128.506266,53.9644308 C128.999859,52.5543385 128.999859,50.8302769 128.506266,49.4201846 C128.012672,48.0100923 127.097871,47.1211077 126.095152,47.0769231 Z M126.095152,65.5384615 L94.65777,65.5384615 C93.6551271,65.5826929 92.7402802,66.4716308 92.2466562,67.8817231 C91.7530626,69.2918154 91.7530626,71.0158769 92.2466562,72.4259692 C92.7402497,73.8360615 93.6550509,74.7250462 94.65777,74.7692308 L126.095152,74.7692308 C127.097795,74.7249994 128.012642,73.8360615 128.506266,72.4259692 C128.999859,71.0158769 128.999859,69.2918154 128.506266,67.8817231 C128.012672,66.4716308 127.097871,65.5826462 126.095152,65.5384615 Z" id="Shape"></path>
        </g>
    </g>
</svg>