<?xml version="1.0" encoding="UTF-8"?>
<svg width="145px" height="145px" viewBox="0 0 145 145" version="1.1" xmlns="http://www.w3.org/2000/svg" xmlns:xlink="http://www.w3.org/1999/xlink">
    <title>layout-split</title>
    <g id="layout-split" stroke="none" stroke-width="1" fill="none" fill-rule="evenodd">
        <g id="noun-layout-4378755-95968E" transform="translate(8.123539, 13.000000)" fill="#95958E" fill-rule="nonzero">
            <path d="M128.876461,9.23076923 L128.876461,110.769231 C128.873581,113.216369 127.901762,115.562954 126.174587,117.293292 C124.447338,119.023631 122.104944,119.997169 119.662175,120 L78.1978896,120 C75.755121,119.997115 73.4127267,119.023557 71.6854781,117.293292 C69.9582296,115.562954 68.9864296,113.216369 68.9836039,110.769231 L68.9836039,9.23076923 C68.9864834,6.78363077 69.9583033,4.43704615 71.6854781,2.70670769 C73.4127267,0.976369231 75.755121,0.00283076923 78.1978896,0 L119.662175,0 C122.104944,0.00288467692 124.447338,0.976443077 126.174587,2.70670769 C127.901835,4.43704615 128.873635,6.78363077 128.876461,9.23076923 Z M4.18683265,116.230769 L55.8131674,116.230769 C57.3224919,116.186538 58.6996531,115.2976 59.4427281,113.887508 C60.1857573,112.477415 60.1857573,110.753354 59.4427281,109.343262 C58.699699,107.933169 57.3226067,107.044185 55.8131674,107 L4.18683265,107 C2.67750807,107.044231 1.30034691,107.933169 0.557271866,109.343262 C-0.185757289,110.753354 -0.185757289,112.477415 0.557271866,113.887508 C1.30030102,115.2976 2.67739334,116.186585 4.18683265,116.230769 Z M4.18683265,99.2307692 L55.8131674,99.2307692 C57.3224919,99.1865378 58.6996531,98.2976 59.4427281,96.8875077 C60.1857573,95.4774154 60.1857573,93.7533538 59.4427281,92.3432615 C58.699699,90.9331692 57.3226067,90.0441846 55.8131674,90 L4.18683265,90 C2.67750807,90.0442314 1.30034691,90.9331692 0.557271866,92.3432615 C-0.185757289,93.7533538 -0.185757289,95.4774154 0.557271866,96.8875077 C1.30030102,98.2976 2.67739334,99.1865846 4.18683265,99.2307692 Z M4.18683265,65.2307692 L55.8131674,65.2307692 C57.3224919,65.1865378 58.6996531,64.2976 59.4427281,62.8875077 C60.1857573,61.4774154 60.1857573,59.7533538 59.4427281,58.3432615 C58.699699,56.9331692 57.3226067,56.0441846 55.8131674,56 L4.18683265,56 C2.67750807,56.0442314 1.30034691,56.9331692 0.557271866,58.3432615 C-0.185757289,59.7533538 -0.185757289,61.4774154 0.557271866,62.8875077 C1.30030102,64.2976 2.67739334,65.1865846 4.18683265,65.2307692 Z M4.18683265,82.2307692 L55.8131674,82.2307692 C57.3224919,82.1865378 58.6996531,81.2976 59.4427281,79.8875077 C60.1857573,78.4774154 60.1857573,76.7533538 59.4427281,75.3432615 C58.699699,73.9331692 57.3226067,73.0441846 55.8131674,73 L4.18683265,73 C2.67750807,73.0442314 1.30034691,73.9331692 0.557271866,75.3432615 C-0.185757289,76.7533538 -0.185757289,78.4774154 0.557271866,79.8875077 C1.30030102,81.2976 2.67739334,82.1865846 4.18683265,82.2307692 Z M55.8131674,21 L4.18683265,21 C2.67750807,21.0442314 1.30034691,21.9331692 0.557271866,23.3432615 C-0.185757289,24.7533538 -0.185757289,26.4774154 0.557271866,27.8875077 C1.30030102,29.2976 2.67739334,30.1865846 4.18683265,30.2307692 L55.8131674,30.2307692 C57.3224919,30.1865378 58.6996531,29.2976 59.4427281,27.8875077 C60.1857573,26.4774154 60.1857573,24.7533538 59.4427281,23.3432615 C58.699699,21.9331692 57.3226067,21.0441846 55.8131674,21 Z M55.8131674,38 L4.18683265,38 C2.67750807,38.0442314 1.30034691,38.9331692 0.557271866,40.3432615 C-0.185757289,41.7533538 -0.185757289,43.4774154 0.557271866,44.8875077 C1.30030102,46.2976 2.67739334,47.1865846 4.18683265,47.2307692 L55.8131674,47.2307692 C57.3224919,47.1865378 58.6996531,46.2976 59.4427281,44.8875077 C60.1857573,43.4774154 60.1857573,41.7533538 59.4427281,40.3432615 C58.699699,38.9331692 57.3226067,38.0441846 55.8131674,38 Z M55.8131674,4 L4.18683265,4 C2.67750807,4.04423138 1.30034691,4.93316923 0.557271866,6.34326154 C-0.185757289,7.75335385 -0.185757289,9.47741538 0.557271866,10.8875077 C1.30030102,12.2976 2.67739334,13.1865846 4.18683265,13.2307692 L55.8131674,13.2307692 C57.3224919,13.1865378 58.6996531,12.2976 59.4427281,10.8875077 C60.1857573,9.47741538 60.1857573,7.75335385 59.4427281,6.34326154 C58.699699,4.93316923 57.3226067,4.04418462 55.8131674,4 L55.8131674,4 Z" id="Shape"></path>
        </g>
    </g>
</svg>