<?xml version="1.0" encoding="UTF-8"?>
<svg width="150px" height="150px" viewBox="0 0 150 150" version="1.1" xmlns="http://www.w3.org/2000/svg" xmlns:xlink="http://www.w3.org/1999/xlink">
    <title>layout-magazine</title>
    <g id="layout-magazine" stroke="none" stroke-width="1" fill="none" fill-rule="evenodd">
        <g id="noun-layout-4378742-95968E" transform="translate(8.275862, 13.448276)" fill="#95958E" fill-rule="nonzero">
            <path d="M0,28.6472149 L0,9.54907162 C0.00248464449,7.01703979 1.00878016,4.59004775 2.79721279,2.79953316 C4.58611611,1.00952785 7.01122377,0.00241909814 9.54115695,0 L28.6234709,0 C31.153404,0.00248670557 33.5783845,1.00961698 35.367415,2.79953316 C37.1559367,4.58992042 38.1622107,7.01703979 38.1646278,9.54907162 L38.1646278,28.6472149 C38.1621432,31.1792467 37.1558476,33.6062387 35.367415,35.3967533 C33.5785117,37.1867586 31.153404,38.1938674 28.6234709,38.1962865 L9.54115695,38.1962865 C7.01122377,38.1937998 4.58624332,37.1866695 2.79721279,35.3967533 C1.00869111,33.606366 0.00241709309,31.1792467 0,28.6472149 Z M9.54115695,81.1671088 L28.6234709,81.1671088 C31.153404,81.164622 33.5783845,80.1574918 35.367415,78.3675756 C37.1559367,76.5771883 38.1622107,74.150069 38.1646278,71.6180371 L38.1646278,52.5198939 C38.1621432,49.9878621 37.1558476,47.56087 35.367415,45.7703554 C33.5785117,43.9803501 31.153404,42.9732414 28.6234709,42.9708223 L9.54115695,42.9708223 C7.01122377,42.973309 4.58624332,43.9804393 2.79721279,45.7703554 C1.00869111,47.5607427 0.00241709309,49.9878621 0,52.5198939 L0,71.6180371 C0.00248464449,74.150069 1.00878016,76.577061 2.79721279,78.3675756 C4.58611611,80.1575809 7.01122377,81.1646897 9.54115695,81.1671088 Z M9.54115695,124.137931 L28.6234709,124.137931 C31.153404,124.135444 33.5783845,123.128314 35.367415,121.338398 C37.1559367,119.548011 38.1622107,117.120891 38.1646278,114.588859 L38.1646278,95.4907162 C38.1621432,92.9586844 37.1558476,90.5316923 35.367415,88.7411777 C33.5785117,86.9511724 31.153404,85.9440637 28.6234709,85.9416446 L9.54115695,85.9416446 C7.01122377,85.9441313 4.58624332,86.9512615 2.79721279,88.7411777 C1.00869111,90.531565 0.00241709309,92.9586844 0,95.4907162 L0,114.588859 C0.00248464449,117.120891 1.00878016,119.547883 2.79721279,121.338398 C4.58611611,123.128403 7.01122377,124.135512 9.54115695,124.137931 Z M47.7057848,14.3236074 L128.805619,14.3236074 C130.479265,14.2778508 132.006359,13.3582599 132.830333,11.8995438 C133.654257,10.4408276 133.654257,8.65731565 132.830333,7.19859947 C132.00641,5.73988329 130.479392,4.82024403 128.805619,4.77453581 L47.7057848,4.77453581 C46.0321386,4.82029241 44.5050446,5.73988329 43.6810703,7.19859947 C42.8571469,8.65731565 42.8571469,10.4408276 43.6810703,11.8995438 C44.5049938,13.3582599 46.0320114,14.2778992 47.7057848,14.3236074 Z M47.7057848,33.4217507 L128.805619,33.4217507 C130.479265,33.3759941 132.006359,32.4564032 132.830333,30.997687 C133.654257,29.5389708 133.654257,27.7554589 132.830333,26.2967427 C132.00641,24.8380265 130.479392,23.9183873 128.805619,23.872679 L47.7057848,23.872679 C46.0321386,23.9184356 44.5050446,24.8380265 43.6810703,26.2967427 C42.8571469,27.7554589 42.8571469,29.5389708 43.6810703,30.997687 C44.5049938,32.4564032 46.0320114,33.3760424 47.7057848,33.4217507 Z M47.7057848,57.2944297 L128.805619,57.2944297 C130.479265,57.2486731 132.006359,56.3290822 132.830333,54.870366 C133.654257,53.4116499 133.654257,51.6281379 132.830333,50.1694218 C132.00641,48.7107056 130.479392,47.7910663 128.805619,47.7453581 L47.7057848,47.7453581 C46.0321386,47.7911147 44.5050446,48.7107056 43.6810703,50.1694218 C42.8571469,51.6281379 42.8571469,53.4116499 43.6810703,54.870366 C44.5049938,56.3290822 46.0320114,57.2487215 47.7057848,57.2944297 Z M47.7057848,76.3925729 L128.805619,76.3925729 C130.479265,76.3468163 132.006359,75.4272255 132.830333,73.9685093 C133.654257,72.5097931 133.654257,70.7262812 132.830333,69.267565 C132.00641,67.8088488 130.479392,66.8892095 128.805619,66.8435013 L47.7057848,66.8435013 C46.0321386,66.8892579 44.5050446,67.8088488 43.6810703,69.267565 C42.8571469,70.7262812 42.8571469,72.5097931 43.6810703,73.9685093 C44.5049938,75.4272255 46.0320114,76.3468647 47.7057848,76.3925729 Z M47.7057848,100.265252 L128.805619,100.265252 C130.479265,100.219495 132.006359,99.2999045 132.830333,97.8411883 C133.654257,96.3824721 133.654257,94.5989602 132.830333,93.140244 C132.00641,91.6815279 130.479392,90.7618886 128.805619,90.7161804 L47.7057848,90.7161804 C46.0321386,90.761937 44.5050446,91.6815279 43.6810703,93.140244 C42.8571469,94.5989602 42.8571469,96.3824721 43.6810703,97.8411883 C44.5049938,99.2999045 46.0320114,100.219544 47.7057848,100.265252 Z M47.7057848,119.363395 L128.805619,119.363395 C130.479265,119.317639 132.006359,118.398048 132.830333,116.939332 C133.654257,115.480615 133.654257,113.697103 132.830333,112.238387 C132.00641,110.779671 130.479392,109.860032 128.805619,109.814324 L47.7057848,109.814324 C46.0321386,109.86008 44.5050446,110.779671 43.6810703,112.238387 C42.8571469,113.697103 42.8571469,115.480615 43.6810703,116.939332 C44.5049938,118.398048 46.0320114,119.317687 47.7057848,119.363395 Z" id="Shape"></path>
        </g>
    </g>
</svg>