<?xml version="1.0" encoding="UTF-8"?>
<svg width="150px" height="150px" viewBox="0 0 150 150" version="1.1" xmlns="http://www.w3.org/2000/svg" xmlns:xlink="http://www.w3.org/1999/xlink">
    <title>layout-list</title>
    <g id="layout-list" stroke="none" stroke-width="1" fill="none" fill-rule="evenodd">
        <g id="noun-layout-4378752-95968E" transform="translate(8.275862, 12.413793)" fill="#95958E" fill-rule="nonzero">
            <path d="M133.448276,47.7453581 L133.448276,76.3925729 C133.445297,78.9240955 132.439966,81.3515968 130.653233,83.1416021 C128.866425,84.9316074 126.443258,85.9387162 123.916256,85.9416446 L9.5320197,85.9416446 C7.00501773,85.9386604 4.58185123,84.931531 2.79504236,83.1416021 C1.0082335,81.3515968 0.00292315271,78.9240955 0,76.3925729 L0,47.7453581 C0.0029788197,45.2138355 1.00830975,42.7863342 2.79504236,40.9963289 C4.58185123,39.2063236 7.00501773,38.1992149 9.5320197,38.1962865 L123.916256,38.1962865 C126.443258,38.1992706 128.866425,39.2064 130.653233,40.9963289 C132.440042,42.7863342 133.445353,45.2138355 133.448276,47.7453581 Z M128.682266,19.0981432 L4.76600985,19.0981432 C3.0939665,19.1438998 1.56833498,20.0634907 0.745149754,21.5222069 C-0.0779846305,22.9809231 -0.0779846305,24.764435 0.745149754,26.2231512 C1.56828414,27.6818674 3.09383941,28.6015066 4.76600985,28.6472149 L128.682266,28.6472149 C130.354309,28.6014582 131.879941,27.6818674 132.703126,26.2231512 C133.52626,24.764435 133.52626,22.9809231 132.703126,21.5222069 C131.879992,20.0634907 130.354436,19.1438515 128.682266,19.0981432 Z M4.76600985,9.54907162 L128.682266,9.54907162 C130.354309,9.50331501 131.879941,8.58372414 132.703126,7.12500796 C133.52626,5.66629178 133.52626,3.88277984 132.703126,2.42406366 C131.879992,0.96534748 130.354436,0.0457082228 128.682266,0 L4.76600985,0 C3.0939665,0.0457566048 1.56833498,0.96534748 0.745149754,2.42406366 C-0.0779846305,3.88277984 -0.0779846305,5.66629178 0.745149754,7.12500796 C1.56828414,8.58372414 3.09383941,9.5033634 4.76600985,9.54907162 Z M4.76600985,124.137931 L128.682266,124.137931 C130.354309,124.092174 131.879941,123.172584 132.703126,121.713867 C133.52626,120.255151 133.52626,118.471639 132.703126,117.012923 C131.879992,115.554207 130.354436,114.634568 128.682266,114.588859 L4.76600985,114.588859 C3.0939665,114.634616 1.56833498,115.554207 0.745149754,117.012923 C-0.0779846305,118.471639 -0.0779846305,120.255151 0.745149754,121.713867 C1.56828414,123.172584 3.09383941,124.092223 4.76600985,124.137931 Z M4.76600985,105.039788 L128.682266,105.039788 C130.354309,104.994031 131.879941,104.07444 132.703126,102.615724 C133.52626,101.157008 133.52626,99.373496 132.703126,97.9147798 C131.879992,96.4560637 130.354436,95.5364244 128.682266,95.4907162 L4.76600985,95.4907162 C3.0939665,95.5364728 1.56833498,96.4560637 0.745149754,97.9147798 C-0.0779846305,99.373496 -0.0779846305,101.157008 0.745149754,102.615724 C1.56828414,104.07444 3.09383941,104.99408 4.76600985,105.039788 Z" id="Shape"></path>
        </g>
    </g>
</svg>