<?xml version="1.0" encoding="UTF-8"?>
<svg width="145px" height="145px" viewBox="0 0 145 145" version="1.1" xmlns="http://www.w3.org/2000/svg" xmlns:xlink="http://www.w3.org/1999/xlink">
    <title>layout-full</title>
    <g id="layout-full" stroke="none" stroke-width="1" fill="none" fill-rule="evenodd">
        <g id="noun-layout-4378749-95968E" transform="translate(8.000000, 13.000000)" fill="#95958E" fill-rule="nonzero">
            <path d="M129,9.23076923 L129,55.3846154 C128.99712,57.8317538 128.025301,60.1783385 126.298126,61.9086769 C124.570877,63.6390154 122.228483,64.6125538 119.785714,64.6153846 L9.21428571,64.6153846 C6.77151714,64.6124999 4.42912286,63.6389415 2.70187429,61.9086769 C0.974625714,60.1783385 0.00282571429,57.8317538 0,55.3846154 L0,9.23076923 C0.00287952571,6.78363077 0.974699429,4.43704615 2.70187429,2.70670769 C4.42912286,0.976369231 6.77151714,0.00283076923 9.21428571,0 L119.785714,0 C122.228483,0.00288467692 124.570877,0.976443077 126.298126,2.70670769 C128.025374,4.43704615 128.997174,6.78363077 129,9.23076923 Z M4.60714286,83.0769231 L124.392857,83.0769231 C126.009166,83.0326917 127.483943,82.1437538 128.279689,80.7336615 C129.075385,79.3235692 129.075385,77.5995077 128.279689,76.1894154 C127.483992,74.7793231 126.009289,73.8903385 124.392857,73.8461538 L4.60714286,73.8461538 C2.99083429,73.8903852 1.51605714,74.7793231 0.720311429,76.1894154 C-0.0753851429,77.5995077 -0.0753851429,79.3235692 0.720311429,80.7336615 C1.516008,82.1437538 2.99071143,83.0327385 4.60714286,83.0769231 Z M4.60714286,101.538462 L124.392857,101.538462 C126.009166,101.49423 127.483943,100.605292 128.279689,99.1952 C129.075385,97.7851077 129.075385,96.0610462 128.279689,94.6509538 C127.483992,93.2408615 126.009289,92.3518769 124.392857,92.3076923 L4.60714286,92.3076923 C2.99083429,92.3519237 1.51605714,93.2408615 0.720311429,94.6509538 C-0.0753851429,96.0610462 -0.0753851429,97.7851077 0.720311429,99.1952 C1.516008,100.605292 2.99071143,101.494277 4.60714286,101.538462 Z M4.60714286,120 L124.392857,120 C126.009166,119.955769 127.483943,119.066831 128.279689,117.656738 C129.075385,116.246646 129.075385,114.522585 128.279689,113.112492 C127.483992,111.7024 126.009289,110.813415 124.392857,110.769231 L4.60714286,110.769231 C2.99083429,110.813462 1.51605714,111.7024 0.720311429,113.112492 C-0.0753851429,114.522585 -0.0753851429,116.246646 0.720311429,117.656738 C1.516008,119.066831 2.99071143,119.955815 4.60714286,120 Z" id="Shape"></path>
        </g>
    </g>
</svg>