<?xml version="1.0" encoding="UTF-8"?>
<svg width="145px" height="145px" viewBox="0 0 145 145" version="1.1" xmlns="http://www.w3.org/2000/svg" xmlns:xlink="http://www.w3.org/1999/xlink">
    <title>layout-list</title>
    <g id="layout-list" stroke="none" stroke-width="1" fill="none" fill-rule="evenodd">
        <g id="noun-layout-4378752-95968E" transform="translate(8.000000, 12.000000)" fill="#95958E" fill-rule="nonzero">
            <path d="M129,46.1538462 L129,73.8461538 C128.99712,76.2932923 128.025301,78.6398769 126.298126,80.3702154 C124.570877,82.1005538 122.228483,83.0740923 119.785714,83.0769231 L9.21428571,83.0769231 C6.77151714,83.0740384 4.42912286,82.10048 2.70187429,80.3702154 C0.974625714,78.6398769 0.00282571429,76.2932923 0,73.8461538 L0,46.1538462 C0.00287952571,43.7067077 0.974699429,41.3601231 2.70187429,39.6297846 C4.42912286,37.8994462 6.77151714,36.9259077 9.21428571,36.9230769 L119.785714,36.9230769 C122.228483,36.9259616 124.570877,37.89952 126.298126,39.6297846 C128.025374,41.3601231 128.997174,43.7067077 129,46.1538462 Z M124.392857,18.4615385 L4.60714286,18.4615385 C2.99083429,18.5057698 1.51605714,19.3947077 0.720311429,20.8048 C-0.0753851429,22.2148923 -0.0753851429,23.9389538 0.720311429,25.3490462 C1.516008,26.7591385 2.99071143,27.6481231 4.60714286,27.6923077 L124.392857,27.6923077 C126.009166,27.6480763 127.483943,26.7591385 128.279689,25.3490462 C129.075385,23.9389538 129.075385,22.2148923 128.279689,20.8048 C127.483992,19.3947077 126.009289,18.5057231 124.392857,18.4615385 Z M4.60714286,9.23076923 L124.392857,9.23076923 C126.009166,9.18653785 127.483943,8.2976 128.279689,6.88750769 C129.075385,5.47741538 129.075385,3.75335385 128.279689,2.34326154 C127.483992,0.933169231 126.009289,0.0441846154 124.392857,0 L4.60714286,0 C2.99083429,0.0442313846 1.51605714,0.933169231 0.720311429,2.34326154 C-0.0753851429,3.75335385 -0.0753851429,5.47741538 0.720311429,6.88750769 C1.516008,8.2976 2.99071143,9.18658462 4.60714286,9.23076923 Z M4.60714286,120 L124.392857,120 C126.009166,119.955769 127.483943,119.066831 128.279689,117.656738 C129.075385,116.246646 129.075385,114.522585 128.279689,113.112492 C127.483992,111.7024 126.009289,110.813415 124.392857,110.769231 L4.60714286,110.769231 C2.99083429,110.813462 1.51605714,111.7024 0.720311429,113.112492 C-0.0753851429,114.522585 -0.0753851429,116.246646 0.720311429,117.656738 C1.516008,119.066831 2.99071143,119.955815 4.60714286,120 Z M4.60714286,101.538462 L124.392857,101.538462 C126.009166,101.49423 127.483943,100.605292 128.279689,99.1952 C129.075385,97.7851077 129.075385,96.0610462 128.279689,94.6509538 C127.483992,93.2408615 126.009289,92.3518769 124.392857,92.3076923 L4.60714286,92.3076923 C2.99083429,92.3519237 1.51605714,93.2408615 0.720311429,94.6509538 C-0.0753851429,96.0610462 -0.0753851429,97.7851077 0.720311429,99.1952 C1.516008,100.605292 2.99071143,101.494277 4.60714286,101.538462 Z" id="Shape"></path>
        </g>
    </g>
</svg>