<?xml version="1.0" encoding="UTF-8"?>
<svg width="150px" height="150px" viewBox="0 0 150 150" version="1.1" xmlns="http://www.w3.org/2000/svg" xmlns:xlink="http://www.w3.org/1999/xlink">
    <title>layout-full</title>
    <g id="layout-full" stroke="none" stroke-width="1" fill="none" fill-rule="evenodd">
        <g id="noun-layout-4378749-95968E" transform="translate(8.275862, 13.448276)" fill="#95958E" fill-rule="nonzero">
            <path d="M133.448276,9.54907162 L133.448276,57.2944297 C133.445297,59.8259523 132.439966,62.2534536 130.653233,64.0434589 C128.866425,65.8334642 126.443258,66.8405729 123.916256,66.8435013 L9.5320197,66.8435013 C7.00501773,66.8405172 4.58185123,65.8333878 2.79504236,64.0434589 C1.0082335,62.2534536 0.00292315271,59.8259523 0,57.2944297 L0,9.54907162 C0.0029788197,7.01754907 1.00830975,4.59004775 2.79504236,2.80004244 C4.58185123,1.01003714 7.00501773,0.00292838196 9.5320197,0 L123.916256,0 C126.443258,0.00298414854 128.866425,1.01011353 130.653233,2.80004244 C132.440042,4.59004775 133.445353,7.01754907 133.448276,9.54907162 Z M4.76600985,85.9416446 L128.682266,85.9416446 C130.354309,85.895888 131.879941,84.9762971 132.703126,83.5175809 C133.52626,82.0588647 133.52626,80.2753528 132.703126,78.8166366 C131.879992,77.3579204 130.354436,76.4382812 128.682266,76.3925729 L4.76600985,76.3925729 C3.0939665,76.4383295 1.56833498,77.3579204 0.745149754,78.8166366 C-0.0779846305,80.2753528 -0.0779846305,82.0588647 0.745149754,83.5175809 C1.56828414,84.9762971 3.09383941,85.8959363 4.76600985,85.9416446 Z M4.76600985,105.039788 L128.682266,105.039788 C130.354309,104.994031 131.879941,104.07444 132.703126,102.615724 C133.52626,101.157008 133.52626,99.373496 132.703126,97.9147798 C131.879992,96.4560637 130.354436,95.5364244 128.682266,95.4907162 L4.76600985,95.4907162 C3.0939665,95.5364728 1.56833498,96.4560637 0.745149754,97.9147798 C-0.0779846305,99.373496 -0.0779846305,101.157008 0.745149754,102.615724 C1.56828414,104.07444 3.09383941,104.99408 4.76600985,105.039788 Z M4.76600985,124.137931 L128.682266,124.137931 C130.354309,124.092174 131.879941,123.172584 132.703126,121.713867 C133.52626,120.255151 133.52626,118.471639 132.703126,117.012923 C131.879992,115.554207 130.354436,114.634568 128.682266,114.588859 L4.76600985,114.588859 C3.0939665,114.634616 1.56833498,115.554207 0.745149754,117.012923 C-0.0779846305,118.471639 -0.0779846305,120.255151 0.745149754,121.713867 C1.56828414,123.172584 3.09383941,124.092223 4.76600985,124.137931 Z" id="Shape"></path>
        </g>
    </g>
</svg>