<?xml version="1.0" encoding="UTF-8"?>
<svg width="150px" height="150px" viewBox="0 0 150 150" version="1.1" xmlns="http://www.w3.org/2000/svg" xmlns:xlink="http://www.w3.org/1999/xlink">
    <title>layout-split</title>
    <g id="layout-split" stroke="none" stroke-width="1" fill="none" fill-rule="evenodd">
        <g id="noun-layout-4378755-95968E" transform="translate(8.403661, 13.448276)" fill="#95958E" fill-rule="nonzero">
            <path d="M133.320477,9.54907162 L133.320477,114.588859 C133.317498,117.120382 132.312167,119.547883 130.525435,121.337889 C128.738626,123.127894 126.315459,124.135003 123.788457,124.137931 L80.8943685,124.137931 C78.3673666,124.134947 75.9442,123.127818 74.1573912,121.337889 C72.3705823,119.547883 71.365272,117.120382 71.3623488,114.588859 L71.3623488,9.54907162 C71.3653276,7.01754907 72.3706586,4.59004775 74.1573912,2.80004244 C75.9442,1.01003714 78.3673666,0.00292838196 80.8943685,0 L123.788457,0 C126.315459,0.00298414854 128.738626,1.01011353 130.525435,2.80004244 C132.312243,4.59004775 133.317554,7.01754907 133.320477,9.54907162 Z M4.33120619,120.238727 L57.7377593,120.238727 C59.2991296,120.19297 60.7237791,119.273379 61.4924774,117.814663 C62.2611282,116.355947 62.2611282,114.572435 61.4924774,113.113719 C60.7238265,111.655003 59.2992483,110.735363 57.7377593,110.689655 L4.33120619,110.689655 C2.76983593,110.735412 1.34518646,111.655003 0.576488137,113.113719 C-0.192162712,114.572435 -0.192162712,116.355947 0.576488137,117.814663 C1.34513899,119.273379 2.76971725,120.193019 4.33120619,120.238727 Z M4.33120619,102.65252 L57.7377593,102.65252 C59.2991296,102.606763 60.7237791,101.687172 61.4924774,100.228456 C62.2611282,98.7697401 62.2611282,96.9862281 61.4924774,95.5275119 C60.7238265,94.0687958 59.2992483,93.1491565 57.7377593,93.1034483 L4.33120619,93.1034483 C2.76983593,93.1492049 1.34518646,94.0687958 0.576488137,95.5275119 C-0.192162712,96.9862281 -0.192162712,98.7697401 0.576488137,100.228456 C1.34513899,101.687172 2.76971725,102.606812 4.33120619,102.65252 Z M4.33120619,67.4801061 L57.7377593,67.4801061 C59.2991296,67.4343495 60.7237791,66.5147586 61.4924774,65.0560424 C62.2611282,63.5973263 62.2611282,61.8138143 61.4924774,60.3550981 C60.7238265,58.896382 59.2992483,57.9767427 57.7377593,57.9310345 L4.33120619,57.9310345 C2.76983593,57.9767911 1.34518646,58.896382 0.576488137,60.3550981 C-0.192162712,61.8138143 -0.192162712,63.5973263 0.576488137,65.0560424 C1.34513899,66.5147586 2.76971725,67.4343979 4.33120619,67.4801061 Z M4.33120619,85.066313 L57.7377593,85.066313 C59.2991296,85.0205564 60.7237791,84.1009655 61.4924774,82.6422493 C62.2611282,81.1835332 62.2611282,79.4000212 61.4924774,77.941305 C60.7238265,76.4825889 59.2992483,75.5629496 57.7377593,75.5172414 L4.33120619,75.5172414 C2.76983593,75.562998 1.34518646,76.4825889 0.576488137,77.941305 C-0.192162712,79.4000212 -0.192162712,81.1835332 0.576488137,82.6422493 C1.34513899,84.1009655 2.76971725,85.0206048 4.33120619,85.066313 Z M57.7377593,21.7241379 L4.33120619,21.7241379 C2.76983593,21.7698945 1.34518646,22.6894854 0.576488137,24.1482016 C-0.192162712,25.6069178 -0.192162712,27.3904297 0.576488137,28.8491459 C1.34513899,30.3078621 2.76971725,31.2275013 4.33120619,31.2732095 L57.7377593,31.2732095 C59.2991296,31.2274529 60.7237791,30.3078621 61.4924774,28.8491459 C62.2611282,27.3904297 62.2611282,25.6069178 61.4924774,24.1482016 C60.7238265,22.6894854 59.2992483,21.7698462 57.7377593,21.7241379 Z M57.7377593,39.3103448 L4.33120619,39.3103448 C2.76983593,39.3561014 1.34518646,40.2756923 0.576488137,41.7344085 C-0.192162712,43.1931247 -0.192162712,44.9766366 0.576488137,46.4353528 C1.34513899,47.894069 2.76971725,48.8137082 4.33120619,48.8594164 L57.7377593,48.8594164 C59.2991296,48.8136598 60.7237791,47.894069 61.4924774,46.4353528 C62.2611282,44.9766366 62.2611282,43.1931247 61.4924774,41.7344085 C60.7238265,40.2756923 59.2992483,39.3560531 57.7377593,39.3103448 Z M57.7377593,4.13793103 L4.33120619,4.13793103 C2.76983593,4.18368764 1.34518646,5.10327851 0.576488137,6.56199469 C-0.192162712,8.02071088 -0.192162712,9.80422281 0.576488137,11.262939 C1.34513899,12.7216552 2.76971725,13.6412944 4.33120619,13.6870027 L57.7377593,13.6870027 C59.2991296,13.641246 60.7237791,12.7216552 61.4924774,11.262939 C62.2611282,9.80422281 62.2611282,8.02071088 61.4924774,6.56199469 C60.7238265,5.10327851 59.2992483,4.18363926 57.7377593,4.13793103 L57.7377593,4.13793103 Z" id="Shape"></path>
        </g>
    </g>
</svg>