<?xml version="1.0" encoding="UTF-8"?>
<svg width="145px" height="145px" viewBox="0 0 145 145" version="1.1" xmlns="http://www.w3.org/2000/svg" xmlns:xlink="http://www.w3.org/1999/xlink">
    <title>layout-magazine</title>
    <g id="layout-magazine" stroke="none" stroke-width="1" fill="none" fill-rule="evenodd">
        <g id="noun-layout-4378742-95968E" transform="translate(8.000000, 13.000000)" fill="#95958E" fill-rule="nonzero">
            <path d="M0,27.6923077 L0,9.23076923 C0.002401823,6.78313846 0.975154158,4.43704615 2.70397236,2.70621538 C4.43324557,0.975876923 6.77751632,0.00233846154 9.22311839,0 L27.6693552,0 C30.1149572,0.00240381538 32.459105,0.975963077 34.1885012,2.70621538 C35.9174055,4.43692308 36.890137,6.78313846 36.8924735,9.23076923 L36.8924735,27.6923077 C36.8900717,30.1399385 35.9173194,32.4860308 34.1885012,34.2168615 C32.459228,35.9472 30.1149572,36.9207385 27.6693552,36.9230769 L9.22311839,36.9230769 C6.77751632,36.9206731 4.43336855,35.9471138 2.70397236,34.2168615 C0.975068076,32.4861538 0.00233652332,30.1399385 0,27.6923077 Z M9.22311839,78.4615385 L27.6693552,78.4615385 C30.1149572,78.4591346 32.459105,77.4855754 34.1885012,75.7553231 C35.9174055,74.0246154 36.890137,71.6784 36.8924735,69.2307692 L36.8924735,50.7692308 C36.8900717,48.3216 35.9173194,45.9755077 34.1885012,44.2446769 C32.459228,42.5143385 30.1149572,41.5408 27.6693552,41.5384615 L9.22311839,41.5384615 C6.77751632,41.5408654 4.43336855,42.5144246 2.70397236,44.2446769 C0.975068076,45.9753846 0.00233652332,48.3216 0,50.7692308 L0,69.2307692 C0.002401823,71.6784 0.975154158,74.0244923 2.70397236,75.7553231 C4.43324557,77.4856615 6.77751632,78.4592 9.22311839,78.4615385 Z M9.22311839,120 L27.6693552,120 C30.1149572,119.997596 32.459105,119.024037 34.1885012,117.293785 C35.9174055,115.563077 36.890137,113.216862 36.8924735,110.769231 L36.8924735,92.3076923 C36.8900717,89.8600615 35.9173194,87.5139692 34.1885012,85.7831385 C32.459228,84.0528 30.1149572,83.0792615 27.6693552,83.0769231 L9.22311839,83.0769231 C6.77751632,83.0793269 4.43336855,84.0528862 2.70397236,85.7831385 C0.975068076,87.5138462 0.00233652332,89.8600615 0,92.3076923 L0,110.769231 C0.002401823,113.216862 0.975154158,115.562954 2.70397236,117.293785 C4.43324557,119.024123 6.77751632,119.997662 9.22311839,120 Z M46.1155919,13.8461538 L124.512098,13.8461538 C126.129956,13.8019225 127.606147,12.9129846 128.402656,11.5028923 C129.199115,10.0928 129.199115,8.36873846 128.402656,6.95864615 C127.606196,5.54855385 126.130079,4.65956923 124.512098,4.61538462 L46.1155919,4.61538462 C44.497734,4.659616 43.0215432,5.54855385 42.2250347,6.95864615 C41.4285753,8.36873846 41.4285753,10.0928 42.2250347,11.5028923 C43.021494,12.9129846 44.497611,13.8019692 46.1155919,13.8461538 Z M46.1155919,32.3076923 L124.512098,32.3076923 C126.129956,32.2634609 127.606147,31.3745231 128.402656,29.9644308 C129.199115,28.5543385 129.199115,26.8302769 128.402656,25.4201846 C127.606196,24.0100923 126.130079,23.1211077 124.512098,23.0769231 L46.1155919,23.0769231 C44.497734,23.1211545 43.0215432,24.0100923 42.2250347,25.4201846 C41.4285753,26.8302769 41.4285753,28.5543385 42.2250347,29.9644308 C43.021494,31.3745231 44.497611,32.2635077 46.1155919,32.3076923 Z M46.1155919,55.3846154 L124.512098,55.3846154 C126.129956,55.340384 127.606147,54.4514462 128.402656,53.0413538 C129.199115,51.6312615 129.199115,49.9072 128.402656,48.4971077 C127.606196,47.0870154 126.130079,46.1980308 124.512098,46.1538462 L46.1155919,46.1538462 C44.497734,46.1980775 43.0215432,47.0870154 42.2250347,48.4971077 C41.4285753,49.9072 41.4285753,51.6312615 42.2250347,53.0413538 C43.021494,54.4514462 44.497611,55.3404308 46.1155919,55.3846154 Z M46.1155919,73.8461538 L124.512098,73.8461538 C126.129956,73.8019225 127.606147,72.9129846 128.402656,71.5028923 C129.199115,70.0928 129.199115,68.3687385 128.402656,66.9586462 C127.606196,65.5485538 126.130079,64.6595692 124.512098,64.6153846 L46.1155919,64.6153846 C44.497734,64.659616 43.0215432,65.5485538 42.2250347,66.9586462 C41.4285753,68.3687385 41.4285753,70.0928 42.2250347,71.5028923 C43.021494,72.9129846 44.497611,73.8019692 46.1155919,73.8461538 Z M46.1155919,96.9230769 L124.512098,96.9230769 C126.129956,96.8788455 127.606147,95.9899077 128.402656,94.5798154 C129.199115,93.1697231 129.199115,91.4456615 128.402656,90.0355692 C127.606196,88.6254769 126.130079,87.7364923 124.512098,87.6923077 L46.1155919,87.6923077 C44.497734,87.7365391 43.0215432,88.6254769 42.2250347,90.0355692 C41.4285753,91.4456615 41.4285753,93.1697231 42.2250347,94.5798154 C43.021494,95.9899077 44.497611,96.8788923 46.1155919,96.9230769 Z M46.1155919,115.384615 L124.512098,115.384615 C126.129956,115.340384 127.606147,114.451446 128.402656,113.041354 C129.199115,111.631262 129.199115,109.9072 128.402656,108.497108 C127.606196,107.087015 126.130079,106.198031 124.512098,106.153846 L46.1155919,106.153846 C44.497734,106.198078 43.0215432,107.087015 42.2250347,108.497108 C41.4285753,109.9072 41.4285753,111.631262 42.2250347,113.041354 C43.021494,114.451446 44.497611,115.340431 46.1155919,115.384615 Z" id="Shape"></path>
        </g>
    </g>
</svg>