<?xml version="1.0" encoding="UTF-8"?>
<svg width="128pt" height="128pt" version="1.1" viewBox="0 0 128 128" xmlns="http://www.w3.org/2000/svg">
 <path d="m106.67 37.332h-42.668c-2.9453 0-5.332 2.3906-5.332 5.3359 0 2.9453 2.3867 5.332 5.332 5.332h42.668c2.9453 0 5.332-2.3867 5.332-5.332 0-2.9453-2.3867-5.3359-5.332-5.3359zm-42.668-10.664h42.668c2.9453 0 5.332-2.3906 5.332-5.3359 0-2.9453-2.3867-5.332-5.332-5.332h-42.668c-2.9453 0-5.332 2.3867-5.332 5.332 0 2.9453 2.3867 5.3359 5.332 5.3359zm42.668 32h-42.668c-2.9453 0-5.332 2.3867-5.332 5.332s2.3867 5.332 5.332 5.332h42.668c2.9453 0 5.332-2.3867 5.332-5.332s-2.3867-5.332-5.332-5.332zm0 21.332h-42.668c-2.9453 0-5.332 2.3867-5.332 5.332 0 2.9453 2.3867 5.3359 5.332 5.3359h42.668c2.9453 0 5.332-2.3906 5.332-5.3359 0-2.9453-2.3867-5.332-5.332-5.332zm0 21.332h-42.668c-2.9453 0-5.332 2.3906-5.332 5.3359 0 2.9453 2.3867 5.332 5.332 5.332h42.668c2.9453 0 5.332-2.3867 5.332-5.332 0-2.9453-2.3867-5.3359-5.332-5.3359zm-67.773-62.438-1.5625 1.5625v-8.457c0-2.9453-2.3867-5.332-5.332-5.332s-5.332 2.3867-5.332 5.332v8.457l-1.5625-1.5625c-2.0859-2.0586-5.4453-2.0469-7.5195 0.023438-2.0742 2.0742-2.082 5.4336-0.023438 7.5195l10.664 10.664c2.0898 2.0742 5.457 2.0742 7.5469 0l10.664-10.664c2.0508-2.0898 2.0352-5.4375-0.035156-7.5078-2.0664-2.0703-5.418-2.0859-7.5078-0.035157zm-3.125 32 0.003907 0.003907c-2.0898-2.0742-5.457-2.0742-7.5469 0l-10.664 10.664c-2.0508 2.0898-2.0352 5.4375 0.035156 7.5078 2.0664 2.0703 5.418 2.0859 7.5078 0.035157l1.5625-1.5625v8.457c0 2.9453 2.3867 5.332 5.332 5.332s5.332-2.3867 5.332-5.332v-8.457l1.5625 1.5625c2.0859 2.0586 5.4453 2.0469 7.5195-0.023438 2.0742-2.0742 2.082-5.4336 0.023438-7.5195z" fill="#95968e"/>
</svg>
