<?xml version="1.0" encoding="UTF-8"?>
<svg width="150px" height="150px" viewBox="0 0 150 150" version="1.1" xmlns="http://www.w3.org/2000/svg" xmlns:xlink="http://www.w3.org/1999/xlink">
    <title>link</title>
    <g id="link" stroke="none" stroke-width="1" fill="none" fill-rule="evenodd">
        <g id="noun-link-1630224-95968E" transform="translate(16.000000, 16.000000)" fill="#95958E" fill-rule="nonzero">
            <path d="M95.269223,49.635474 C92.8132001,52.0909902 92.8132001,56.1222498 95.269223,58.5777661 C97.7716731,61.0797 101.803469,61.0797 104.259787,58.5777661 L108.754873,54.1297305 C121.081709,41.8054367 121.081709,21.603901 108.754873,9.27862374 C96.4280361,-3.09287458 76.2223326,-3.09287458 63.8945125,9.27862374 L43.8284843,29.3405129 C31.5016478,41.6648068 31.5016478,61.8201214 43.8284843,74.1916197 C46.2845071,76.6471359 50.3165984,76.6471359 52.8190486,74.1916197 C55.2750714,71.6896858 55.2750714,67.6587212 52.8190486,65.2029099 C45.4041593,57.7895502 45.4041593,45.6966564 52.7725564,38.2835917 L72.8385845,18.2217025 C80.2534737,10.8083428 92.3488624,10.8083428 99.7634565,18.2217025 C107.178346,25.6350623 107.178346,37.727956 99.7634565,45.1410208 L95.2683711,49.635179 L95.269223,49.635474 Z M22.6961041,68.4002244 C25.152127,65.8982904 25.152127,61.9134485 22.6961041,59.4115146 C20.193654,56.9559984 16.20799,56.9559984 13.7055399,59.4115146 L9.21045447,63.9056728 C-3.07015149,76.2299667 -3.07015149,96.4315023 9.21045447,108.75678 C21.5845052,121.081073 41.7429945,121.081073 54.0708146,108.75678 L74.1368428,88.6948904 C86.4636793,76.3705966 86.4636793,56.1690609 74.1368428,43.8437836 C71.6808199,41.3882674 67.6487286,41.3882674 65.1927058,43.8437836 C62.6902557,46.3457176 62.6902557,50.3305595 65.1927058,52.8324934 C72.5610694,60.1993371 72.607595,72.3387469 65.1927058,79.7055906 L45.1266776,99.7674798 C37.7117884,107.18084 25.6163998,107.18084 18.2018056,99.7674798 C10.7869164,92.35412 10.7869164,80.3074473 18.2018056,72.8943826 L22.6961041,68.4002244 Z" id="Shape"></path>
        </g>
    </g>
</svg>