<?xml version="1.0" encoding="UTF-8"?>
<svg width="150px" height="150px" viewBox="0 0 150 150" version="1.1" xmlns="http://www.w3.org/2000/svg" xmlns:xlink="http://www.w3.org/1999/xlink">
    <title>mark-read</title>
    <g id="mark-read" stroke="none" stroke-width="1" fill="none" fill-rule="evenodd">
        <g id="noun-read-notification-1742851-95978E" transform="translate(1.697465, 33.231060)" fill="#95968E" fill-rule="nonzero">
            <path d="M93.336332,81.2403939 L145.135938,30.3149521 C146.891511,28.5593792 146.891511,25.2217494 145.135938,23.2926606 L138.113647,16.2703691 C136.004457,14.1611794 133.020444,14.1611794 131.091356,16.2703691 L86.6620601,59.9934185 L68.7523853,42.4311047 C66.6431956,40.321915 63.6591826,40.321915 61.7300938,42.4311047 L54.7078024,49.4533962 C52.5986126,51.562586 52.5986126,54.5465989 54.7078024,56.4756877 L79.2930661,81.0609514 C81.2223195,83.3502421 83.8588067,84.2249007 86.3153575,84.2249007 C88.7705914,84.2249007 91.4072432,83.3432291 93.336332,81.2403939 Z" id="Path"></path>
            <path d="M103.28097,0 L4.10672023,0 C1.83970371,0 0,1.11039642 0,2.48404103 L0,7.44973381 C0,8.82098915 1.83575367,9.93377483 4.10672023,9.93377483 L103.17361,9.93377483 C105.440627,9.93377483 107.280331,8.82337842 107.280331,7.44973381 L107.280331,2.48404103 C107.387154,1.04576369 105.55143,0 103.280464,0 L103.28097,0 Z" id="Path"></path>
            <path d="M103.28097,17.4311921 L4.10672023,17.4311921 C1.83970371,17.4311921 0,18.5415885 0,19.9152331 L0,24.8809259 C0,26.2521812 1.83575367,27.3649669 4.10672023,27.3649669 L103.17361,27.3649669 C105.440627,27.3649669 107.280331,26.2545705 107.280331,24.8809259 L107.280331,19.9152331 C107.387154,18.4769557 105.55143,17.4311921 103.280464,17.4311921 L103.28097,17.4311921 Z" id="Path"></path>
            <path d="M45.4323394,71.0735762 L1.80650808,71.0735762 C0.809268572,71.0735762 0,72.1839726 0,73.5576172 L0,78.52331 C0,79.8945653 0.807530988,81.007351 1.80650808,81.007351 L45.3851128,81.007351 C46.3823523,81.007351 47.1916208,79.8969546 47.1916208,78.52331 L47.1916208,73.5576172 C47.2386113,72.1193398 46.4310937,71.0735762 45.4321166,71.0735762 L45.4323394,71.0735762 Z" id="Path"></path>
            <path d="M45.4323394,53.1927815 L1.80650808,53.1927815 C0.809268572,53.1927815 0,54.3031779 0,55.6768225 L0,60.6425153 C0,62.0137706 0.807530988,63.1265563 1.80650808,63.1265563 L45.3851128,63.1265563 C46.3823523,63.1265563 47.1916208,62.0161599 47.1916208,60.6425153 L47.1916208,55.6768225 C47.2386113,54.2385451 46.4310937,53.1927815 45.4321166,53.1927815 L45.4323394,53.1927815 Z" id="Path"></path>
            <path d="M45.4323394,35.3119868 L1.80650808,35.3119868 C0.809268572,35.3119868 0,36.4223832 0,37.7960278 L0,42.7617206 C0,44.1329759 0.807530988,45.2457616 1.80650808,45.2457616 L45.3851128,45.2457616 C46.3823523,45.2457616 47.1916208,44.1353652 47.1916208,42.7617206 L47.1916208,37.7960278 C47.2386113,36.3577504 46.4310937,35.3119868 45.4321166,35.3119868 L45.4323394,35.3119868 Z" id="Path"></path>
        </g>
    </g>
</svg>