<?xml version="1.0" encoding="UTF-8"?>
<svg width="151px" height="151px" viewBox="0 0 151 151" version="1.1" xmlns="http://www.w3.org/2000/svg" xmlns:xlink="http://www.w3.org/1999/xlink">
    <title>mark-read</title>
    <g id="mark-read" stroke="none" stroke-width="1" fill="none" fill-rule="evenodd">
        <g id="noun-read-notification-1742851-95978E" transform="translate(1.708781, 33.452600)" fill="#95968E" fill-rule="nonzero">
            <path d="M93.9585742,81.7819965 L146.103511,30.5170518 C147.870788,28.7497751 147.870788,25.3898944 146.103511,23.447945 L139.034405,16.3788383 C136.911154,14.2555872 133.907247,14.2555872 131.965298,16.3788383 L87.2398072,60.3933746 L69.2107346,42.7139788 C67.0874835,40.5907278 64.0835772,40.5907278 62.1416278,42.7139788 L55.0725211,49.7830855 C52.94927,51.9063366 52.94927,54.9102429 55.0725211,56.8521923 L79.8216865,81.6013577 C81.7638016,83.9059104 84.4178654,84.7864 86.8907933,84.7864 C89.3623953,84.7864 92.0166248,83.8988506 93.9585742,81.7819965 Z" id="Path"></path>
            <path d="M103.96951,0 L4.13409837,0 C1.8519684,0 0,1.11779906 0,2.5006013 L0,7.4993987 C0,8.87979574 1.84799203,10 4.13409837,10 L103.861434,10 C106.143564,10 107.995533,8.88220094 107.995533,7.4993987 L107.995533,2.5006013 C108.103068,1.05273545 106.255107,0 103.969,0 L103.96951,0 Z" id="Path"></path>
            <path d="M103.96951,17.5474 L4.13409837,17.5474 C1.8519684,17.5474 0,18.6651991 0,20.0480013 L0,25.0467987 C0,26.4271957 1.84799203,27.5474 4.13409837,27.5474 L103.861434,27.5474 C106.143564,27.5474 107.995533,26.4296009 107.995533,25.0467987 L107.995533,20.0480013 C108.103068,18.6001354 106.255107,17.5474 103.969,17.5474 L103.96951,17.5474 Z" id="Path"></path>
            <path d="M45.7352217,71.5474 L1.81855147,71.5474 C0.814663696,71.5474 0,72.6651991 0,74.0480013 L0,79.0467987 C0,80.4271957 0.812914528,81.5474 1.81855147,81.5474 L45.6876802,81.5474 C46.691568,81.5474 47.5062316,80.4296009 47.5062316,79.0467987 L47.5062316,74.0480013 C47.5535354,72.6001354 46.7406344,71.5474 45.7349974,71.5474 L45.7352217,71.5474 Z" id="Path"></path>
            <path d="M45.7352217,53.5474 L1.81855147,53.5474 C0.814663696,53.5474 0,54.6651991 0,56.0480013 L0,61.0467987 C0,62.4271957 0.812914528,63.5474 1.81855147,63.5474 L45.6876802,63.5474 C46.691568,63.5474 47.5062316,62.4296009 47.5062316,61.0467987 L47.5062316,56.0480013 C47.5535354,54.6001354 46.7406344,53.5474 45.7349974,53.5474 L45.7352217,53.5474 Z" id="Path"></path>
            <path d="M45.7352217,35.5474 L1.81855147,35.5474 C0.814663696,35.5474 0,36.6651991 0,38.0480013 L0,43.0467987 C0,44.4271957 0.812914528,45.5474 1.81855147,45.5474 L45.6876802,45.5474 C46.691568,45.5474 47.5062316,44.4296009 47.5062316,43.0467987 L47.5062316,38.0480013 C47.5535354,36.6001354 46.7406344,35.5474 45.7349974,35.5474 L45.7352217,35.5474 Z" id="Path"></path>
        </g>
    </g>
</svg>