<?xml version="1.0" encoding="UTF-8"?>
<svg width="128pt" height="128pt" version="1.1" viewBox="0 0 128 128" xmlns="http://www.w3.org/2000/svg">
 <path d="m94.219 38.109c-2.6211 0-4.75 2.125-4.75 4.75v18.246c0 17.902-12.793 25.914-25.469 25.914s-25.469-8.0117-25.469-25.844l0.25781-18.246c0-0.023438-0.007812-0.042969-0.007812-0.066407 0-2.5938-2.0742-4.7109-4.6758-4.75-2.5859-0.027343-4.7773 2.0586-4.8164 4.6797l-0.25781 18.312c0 19.199 12.211 33.035 30.219 35.109v20.566h-6.082c-2.6211 0-4.75 2.125-4.75 4.75 0 2.6211 2.125 4.75 4.75 4.75h21.664c2.6211 0 4.75-2.1289 4.75-4.75 0-2.625-2.125-4.75-4.75-4.75h-6.0859v-20.57c18.008-2.0742 30.219-15.91 30.219-35.109v-18.242c0-2.625-2.125-4.75-4.7461-4.75z" fill="#95958e"/>
 <path d="m64 82.195c11.758 0 21.285-8.0703 21.285-21.598v-34.383c0-13.527-9.5312-24.492-21.285-24.492-11.758-0.003906-21.285 10.965-21.285 24.492v34.383c0 13.527 9.5312 21.598 21.285 21.598z" fill="#95958e"/>
</svg>
