<?xml version="1.0" encoding="UTF-8"?>
<svg width="104px" height="104px" viewBox="0 0 104 104" version="1.1" xmlns="http://www.w3.org/2000/svg" xmlns:xlink="http://www.w3.org/1999/xlink">
    <title>monthly</title>
    <g id="monthly" stroke="none" stroke-width="1" fill="none" fill-rule="evenodd">
        <g id="noun-monthly-calendar-1779716-95978E" transform="translate(-1.000000, 9.000000)" fill="#95968E" fill-rule="nonzero">
            <path d="M2.46664522,0 C1.09895902,0 0,1.09539337 0,2.45871043 L0,22.115592 L105.992508,22.115592 L105.992508,2.45871043 C105.992508,1.09542385 104.89358,0 103.525863,0 L2.45961208,0 L2.46664522,0 Z M24.6485636,6.14365181 C27.3719185,6.14365181 29.5758912,8.34632595 29.5758912,11.055129 C29.5758912,13.7697233 27.3661085,15.9666061 24.6485636,15.9666061 C21.9252087,15.9666061 19.721236,13.763932 19.721236,11.055129 C19.721236,8.34053465 21.9310187,6.14365181 24.6485636,6.14365181 Z M81.344862,6.14365181 C84.0682169,6.14365181 86.2721895,8.34632595 86.2721895,11.055129 C86.2721895,13.7697233 84.0624069,15.9666061 81.344862,15.9666061 C78.621507,15.9666061 76.4175344,13.763932 76.4175344,11.055129 C76.4175344,8.34053465 78.627317,6.14365181 81.344862,6.14365181 Z M0.000458683175,27.027374 L0.000458683175,83.5412896 C0.000458683175,84.9045762 1.09938712,86 2.46710391,86 L103.533355,86 C104.901041,86 106,84.9046066 106,83.5412896 L106,27.027374 L0.000458683175,27.027374 Z M13.5579102,36.8561196 L29.5812425,36.8561196 L29.5812425,54.054748 L13.5579102,54.054748 L13.5579102,36.8561196 Z M34.5090287,36.8561196 L50.532361,36.8561196 L50.532361,54.054748 L34.5090287,54.054748 L34.5090287,36.8561196 Z M55.4601472,36.8561196 L71.4834795,36.8561196 L71.4834795,54.054748 L55.4601472,54.054748 L55.4601472,36.8561196 Z M76.4112657,36.8561196 L92.434598,36.8561196 L92.434598,54.054748 L76.4112657,54.054748 L76.4112657,36.8561196 Z M13.5579102,58.9666823 L29.5812425,58.9666823 L29.5812425,76.1653107 L13.5579102,76.1653107 L13.5579102,58.9666823 Z M34.5090287,58.9666823 L50.532361,58.9666823 L50.532361,76.1653107 L34.5090287,76.1653107 L34.5090287,58.9666823 Z M55.4601472,58.9666823 L71.4834795,58.9666823 L71.4834795,76.1653107 L55.4601472,76.1653107 L55.4601472,58.9666823 Z" id="Shape"></path>
        </g>
    </g>
</svg>