<?xml version="1.0" encoding="UTF-8"?>
<svg width="128pt" height="128pt" version="1.1" viewBox="0 0 128 128" xmlns="http://www.w3.org/2000/svg">
 <g fill="#95968e">
  <path d="m108.29 12.16h-5.375l-1.5352 5.6328c-1.2812 5.1211-6.2734 8.9609-11.391 8.9609-2.8164 0-5.5039-1.1523-7.0391-3.3281-1.6641-2.1758-2.1758-5.1211-1.4062-7.9375l0.89453-3.3281h-17.285l-1.5352 5.6328c-1.4062 5.1211-6.2734 8.9609-11.52 8.9609-2.8164 0-5.375-1.1523-7.0391-3.3281-1.6641-2.1758-2.1758-5.1211-1.4062-7.9375l0.89453-3.3281h-5.6328c-8.5742 0-17.152 6.6562-19.328 15.23l-15.875 58.496c-1.2812 4.6094-0.51172 9.2148 2.1758 12.543 2.5586 3.3281 6.5273 5.2461 11.008 5.2461h7.8086v3.457c0 9.0898 7.4258 16.512 16.512 16.512h67.07c9.0898 0 16.512-7.4258 16.512-16.512l0.003906-78.461c0-9.0859-7.4258-16.512-16.512-16.512zm-91.266 81.535c-1.0234 0-2.3047-0.25781-3.0703-1.2812-0.76953-0.89453-0.89453-2.3047-0.38281-3.8398l13.055-48.895h79.617l-12.414 46.336c-1.1523 4.2227-5.6328 7.8086-9.7266 7.8086h-67.078zm97.793 13.441c0 3.5859-2.9453 6.5273-6.5273 6.5273h-66.945c-3.5859 0-6.5273-2.9453-6.5273-6.5273v-3.457h49.281c8.5742 0 17.152-6.6562 19.328-15.23l11.391-42.371z"/>
  <path d="m52.098 22.145c3.0703 0 6.1445-2.4336 6.9102-5.5039l1.793-6.7852c0.76953-3.0703-1.0234-5.5039-3.9688-5.5039-3.0703 0-6.1445 2.4336-6.9102 5.5039l-1.793 6.7852c-0.76953 2.9453 1.0234 5.5039 3.9688 5.5039z"/>
  <path d="m89.984 22.145c3.0703 0 6.1445-2.4336 6.9102-5.5039l1.793-6.7852c0.76953-3.0703-1.0234-5.5039-3.9688-5.5039-3.0703 0-6.1445 2.4336-6.9102 5.5039l-1.9219 6.7852c-0.76562 2.9453 1.0234 5.5039 4.0977 5.5039z"/>
  <path d="m64.258 69.762h-11.902c-0.76953 0-1.6641 0.64062-1.9219 1.4062l-2.3047 8.7031c-0.25781 0.76953 0.25781 1.4062 1.0234 1.4062h11.902c0.76953 0 1.6641-0.64062 1.9219-1.4062l2.3047-8.7031c0.25391-0.76953-0.25781-1.4062-1.0234-1.4062z"/>
  <path d="m43.266 69.762h-11.902c-0.76953 0-1.6641 0.64062-1.9219 1.4062l-2.3047 8.7031c-0.25781 0.76953 0.25781 1.4062 1.0234 1.4062h11.902c0.76953 0 1.6641-0.64062 1.9219-1.4062l2.3047-8.7031c0.25391-0.76953-0.12891-1.4062-1.0234-1.4062z"/>
  <path d="m85.246 69.762h-11.902c-0.76953 0-1.6641 0.64062-1.9219 1.4062l-2.3008 8.7031c-0.25781 0.76953 0.25781 1.4062 1.0234 1.4062h11.902c0.76953 0 1.6641-0.64062 1.9219-1.4062l2.3047-8.7031c0.25391-0.76953-0.25781-1.4062-1.0273-1.4062z"/>
  <path d="m69.121 51.457h-11.902c-0.76953 0-1.6641 0.64062-1.9219 1.4062l-2.3047 8.7031c-0.25781 0.76953 0.25781 1.4062 1.0234 1.4062h11.902c0.76953 0 1.6641-0.64062 1.9219-1.4062l2.3047-8.7031c0.25391-0.76562-0.12891-1.4062-1.0234-1.4062z"/>
  <path d="m48.258 51.457h-11.902c-0.76953 0-1.6641 0.64062-1.9219 1.4062l-2.3047 8.7031c-0.25781 0.76953 0.25781 1.4062 1.0234 1.4062h11.902c0.76953 0 1.6641-0.64062 1.9219-1.4062l2.3047-8.7031c0.25391-0.76562-0.25781-1.4062-1.0234-1.4062z"/>
  <path d="m75.137 63.105h11.902c0.76953 0 1.6641-0.64062 1.9219-1.4062l2.3047-8.7031c0.25781-0.76953-0.25781-1.4062-1.0234-1.4062h-11.902c-0.76953 0-1.6641 0.64062-1.9219 1.4062l-2.3047 8.7031c-0.25781 0.63672 0.125 1.4062 1.0234 1.4062z"/>
 </g>
</svg>
