<?xml version="1.0" encoding="UTF-8"?>
<svg width="128pt" height="128pt" version="1.1" viewBox="0 0 128 128" xmlns="http://www.w3.org/2000/svg">
 <g fill="#95968e">
  <path d="m112.94 43.672h-97.883c-3.9922 0-7.8242-1.5859-10.648-4.4102-2.8242-2.8242-4.4102-6.6562-4.4102-10.648v-10.039c0-3.9961 1.5859-7.8242 4.4102-10.648 2.8242-2.8242 6.6562-4.4102 10.648-4.4102h97.883c3.9922 0 7.8242 1.5859 10.648 4.4102 2.8242 2.8242 4.4102 6.6523 4.4102 10.648v10.039c0 3.9922-1.5859 7.8242-4.4102 10.648-2.8242 2.8242-6.6562 4.4102-10.648 4.4102zm-97.883-35.137c-5.543 0-10.039 4.4922-10.039 10.039v10.039c0 2.6602 1.0586 5.2148 2.9414 7.0977 1.8828 1.8828 4.4336 2.9414 7.0977 2.9414h97.883c2.6641 0 5.2148-1.0586 7.0977-2.9414 1.8828-1.8828 2.9414-4.4375 2.9414-7.0977v-10.039c0-2.6641-1.0586-5.2188-2.9414-7.1016-1.8828-1.8828-4.4336-2.9375-7.0977-2.9375z"/>
  <path d="m125.49 70.125h-122.98c-1.3867 0-2.5117-1.125-2.5117-2.5117s1.125-2.5078 2.5117-2.5078h122.98c1.3867 0 2.5117 1.1211 2.5117 2.5078s-1.125 2.5117-2.5117 2.5117z"/>
  <path d="m125.49 96.375h-122.98c-1.3867 0-2.5117-1.1211-2.5117-2.5078 0-1.3867 1.125-2.5117 2.5117-2.5117h122.98c1.3867 0 2.5117 1.125 2.5117 2.5117 0 1.3867-1.125 2.5078-2.5117 2.5078z"/>
  <path d="m125.49 124.48h-122.98c-1.3867 0-2.5117-1.1211-2.5117-2.5078 0-1.3867 1.125-2.5117 2.5117-2.5117h122.98c1.3867 0 2.5117 1.125 2.5117 2.5117 0 1.3867-1.125 2.5078-2.5117 2.5078z"/>
 </g>
</svg>
