<?xml version="1.0" encoding="UTF-8"?>
<svg width="128pt" height="128pt" version="1.1" viewBox="0 0 128 128" xmlns="http://www.w3.org/2000/svg">
 <path d="m104.96 19.199c-11.266-10.238-25.602-15.871-40.961-15.871s-29.953 5.7617-41.09 16.129l-6.2695-6.1445c-1.4062-1.4062-3.8398-0.76953-4.3516 1.2812l-7.168 29.82c-0.51172 1.9219 1.2812 3.5859 3.1992 3.1992l29.824-7.168c1.9219-0.51172 2.6875-2.9453 1.2812-4.3516l-7.4258-7.4219c17.664-15.742 46.207-15.871 63.871-0.12891 1.0234 0.89453 2.5586 0.89453 3.5859 0l5.5039-5.5039c1.0234-1.0234 1.0234-2.8164 0-3.8398z" fill="#e8ab3b"/>
 <path d="m67.969 29.312h-7.8086c-1.4062 0-2.5586 1.1523-2.5586 2.5586v34.305c0 0.89453 0.51172 1.793 1.2812 2.1758l24.316 15.234c1.2812 0.76953 2.8164 0.38281 3.5859-0.76953l4.0977-6.5273c0.76953-1.2812 0.38281-2.8164-0.76953-3.5859l-19.199-12.031c-0.12891-0.12891-0.25781-0.25781-0.25781-0.51172v-28.16c-0.12891-1.5352-1.2812-2.6875-2.6875-2.6875z" fill="#e8ab3b"/>
 <path d="m122.37 60.414-7.8086-0.38281c-1.4062-0.12891-2.6875 1.0234-2.6875 2.4336l-0.89453 10.496c-0.12891 1.4062 0.89453 2.6875 2.3047 2.8164l7.8086 0.76953c1.4062 0.12891 2.6875-0.89453 2.8164-2.3047l0.38281-3.8398c0.12891-1.0234 0.12891-2.1758 0.25781-3.1992l0.25781-3.8398c0.125-1.5391-1.0273-2.8203-2.4375-2.9492z" fill="#e8ab3b"/>
 <path d="m105.34 40.062 4.2227 9.6016c0.51172 1.2812 2.0469 1.9219 3.3281 1.4062l7.2969-2.9453c1.2812-0.51172 1.9219-2.0469 1.4062-3.457l-1.4062-3.707c-0.51172-1.0234-0.89453-2.0469-1.4062-3.0703l-1.5391-3.332c-0.64062-1.2812-2.1758-1.9219-3.457-1.2812l-7.0391 3.3281c-1.4062 0.64062-1.918 2.1797-1.4062 3.457z" fill="#e8ab3b"/>
 <path d="m110.34 84.48c-1.1523-0.76953-2.8164-0.38281-3.5859 0.76953l-5.6289 8.8281c-0.76953 1.1523-0.38281 2.8164 0.76953 3.5859l6.5273 4.3516c1.1523 0.76953 2.8164 0.51172 3.5859-0.64062l2.1758-3.1992c0.64062-0.89453 1.1523-1.793 1.793-2.8164l2.0469-3.3281c0.76953-1.2812 0.38281-2.8164-0.89453-3.5859z" fill="#e8ab3b"/>
 <path d="m95.23 103.94c-0.76953-1.1523-2.3047-1.6641-3.457-0.89453l-9.0898 5.1211c-1.2812 0.64063-1.6641 2.1758-1.0234 3.457l3.5859 6.9102c0.64062 1.2812 2.1758 1.793 3.457 1.1523l3.457-1.793c0.89453-0.51172 1.793-1.0234 2.8164-1.5352l3.457-2.0469c1.2812-0.76953 1.6641-2.3047 0.89453-3.5859z" fill="#e8ab3b"/>
 <path d="m69.887 111.49-9.9844 0.25781c-1.4062 0-2.4336 1.1523-2.5586 2.4336l-0.38281 7.6797c-0.12891 1.5352 1.0234 2.6875 2.5586 2.8164h3.7109l7.168-0.25781c1.4062 0 2.5586-1.2812 2.5586-2.6875l-0.38281-7.8086c0-1.4102-1.2773-2.5625-2.6875-2.4336z" fill="#e8ab3b"/>
 <path d="m21.887 86.527c-0.76953-1.1523-2.4336-1.5352-3.5859-0.76953l-6.5273 4.2227c-1.1523 0.76953-1.5352 2.4336-0.76953 3.5859l2.0469 3.1992c0.64062 0.89453 1.2812 1.793 1.793 2.6875l2.3047 3.1992c0.89453 1.1523 2.4336 1.4062 3.5859 0.64062l6.3984-4.6094c1.1523-0.76953 1.4062-2.4336 0.64063-3.5859z" fill="#e8ab3b"/>
 <path d="m17.281 74.238-1.1523-10.367c-0.12891-1.4062-1.4062-2.4336-2.8164-2.3047l-7.8086 0.64062c-1.4062 0.12891-2.5586 1.4062-2.4336 2.8164l0.25781 3.8398c0.12891 1.0234 0.25781 2.1758 0.38281 3.1992l0.51172 3.8398c0.12891 1.4062 1.5352 2.4336 2.9453 2.3047l7.8086-1.0234c1.5352-0.25391 2.5586-1.5352 2.3047-2.9453z" fill="#e8ab3b"/>
 <path d="m37.504 103.81c-1.2812-0.64062-2.8164-0.12891-3.457 1.0234l-3.7109 6.9102c-0.64063 1.2812-0.25781 2.8164 1.0234 3.5859l3.457 1.9219c0.89453 0.51172 1.9219 1.0234 2.8164 1.4062l3.457 1.6641c1.2812 0.64063 2.8164 0.12891 3.457-1.1523l3.457-7.0391c0.64062-1.2812 0.12891-2.8164-1.1523-3.457z" fill="#e8ab3b"/>
</svg>
