<?xml version="1.0" encoding="UTF-8"?>
<svg width="150px" height="150px" viewBox="0 0 150 150" version="1.1" xmlns="http://www.w3.org/2000/svg" xmlns:xlink="http://www.w3.org/1999/xlink">
    <title>position-right</title>
    <g id="position-right" stroke="none" stroke-width="1" fill="none" fill-rule="evenodd">
        <g id="noun-horizontal-align-right-2977310-95968E" transform="translate(0.000164, 0.000000)" fill="#95958E" fill-rule="nonzero">
            <path d="M122.727139,27.2726975 L122.727139,61.3635694 C122.727139,63.172022 122.008571,64.9062928 120.730096,66.1847005 C119.45162,67.4631082 117.717281,68.1817438 115.908964,68.1817438 L47.7272207,68.1817438 C45.9187681,68.1817438 44.1844973,67.4631764 42.9060896,66.1847005 C41.6276819,64.9062246 40.9090463,63.1718856 40.9090463,61.3635694 L40.9090463,27.2726975 C40.9090463,25.4642449 41.6276137,23.7299741 42.9060896,22.4515664 C44.1845654,21.1731587 45.9189045,20.4545231 47.7272207,20.4545231 L115.908964,20.4545231 C117.717417,20.4545231 119.451688,21.1730905 120.730096,22.4515664 C122.008503,23.7300423 122.727139,25.4643813 122.727139,27.2726975 Z M143.181662,0 C141.373209,0 139.638939,0.718567398 138.360531,1.99704328 C137.082123,3.27551915 136.363488,5.00985817 136.363488,6.81817438 L136.363488,143.181662 C136.363488,145.617523 137.663195,147.868611 139.772575,149.086337 C141.881982,150.304554 144.481342,150.304554 146.590749,149.086337 C148.700156,147.868652 149.999836,145.617523 149.999836,143.181662 L149.999836,6.81817438 C149.999836,5.00972181 149.281269,3.27545097 148.002793,1.99704328 C146.724317,0.71863558 144.989978,0 143.181662,0 L143.181662,0 Z M115.908964,81.8180926 L6.81817438,81.8180926 C5.00972181,81.8180926 3.27545097,82.53666 1.99704328,83.8151358 C0.71863558,85.0936117 1.93784171e-15,86.8279507 1.93784171e-15,88.6362669 L1.93784171e-15,122.727139 C1.93784171e-15,124.535591 0.718567398,126.269862 1.99704328,127.54827 C3.27551915,128.826678 5.00985817,129.545313 6.81817438,129.545313 L115.908964,129.545313 C117.717417,129.545313 119.451688,128.826746 120.730096,127.54827 C122.008503,126.269794 122.727139,124.535455 122.727139,122.727139 L122.727139,88.6362669 C122.727139,86.8278144 122.008571,85.0935435 120.730096,83.8151358 C119.45162,82.5367281 117.717281,81.8180926 115.908964,81.8180926 Z" id="Shape"></path>
        </g>
    </g>
</svg>