<?xml version="1.0" encoding="UTF-8"?>
<svg width="150px" height="150px" viewBox="0 0 150 150" version="1.1" xmlns="http://www.w3.org/2000/svg" xmlns:xlink="http://www.w3.org/1999/xlink">
    <title>position-stretch</title>
    <g id="position-stretch" stroke="none" stroke-width="1" fill="none" fill-rule="evenodd">
        <g id="noun-width-2931057-95968E" transform="translate(0.000000, 36.000000)" fill="#95958E" fill-rule="nonzero">
            <path d="M132.157895,-7.47939722e-15 L17.8421053,-7.47939722e-15 C8.05289474,-7.47939722e-15 0,8.0525 0,17.8421053 L0,60.7894737 C0,70.5786842 8.0525,78.6315789 17.8421053,78.6315789 L132.157895,78.6315789 C141.947105,78.6315789 150,70.5790789 150,60.7894737 L150,17.8421053 C150,8.05236842 141.946986,-7.47939722e-15 132.157381,-7.47939722e-15 L132.157895,-7.47939722e-15 Z M67.2631579,44.5263158 C67.2631579,45.7896842 66.1581053,46.8947368 64.8947368,46.8947368 L43.2631579,46.8947368 L43.2631579,55.5789474 C43.2631579,56.684 42.6314737,57.6318421 41.5264474,58.1051316 C40.5791842,58.5790263 39.3157895,58.4207105 38.5263158,57.6312368 L20.8421053,41.3680789 L20.6843158,41.2102895 C20.2104211,40.7363947 19.8948421,39.9469211 19.8948421,39.1573947 C19.8948421,38.3678684 20.2104211,37.5784474 20.8421053,37.1045 L38.6842105,21.1571316 C39.4736842,20.3676579 40.7371053,20.2098684 41.6843421,20.6832368 C42.6316053,21.1571316 43.4210526,22.1044211 43.4210526,23.2094211 L43.4210526,31.8936316 L65.0526316,31.8936316 C66.316,31.8936316 67.4210526,32.9986842 67.4210526,34.2620526 L67.4210526,44.5257368 L67.2631579,44.5263158 Z M129.157895,41.3684211 L111.315789,57.4736842 C110.526316,58.2631579 109.262895,58.4209474 108.315658,57.9475789 C108.000079,57.7897895 107.683974,57.632 107.526184,57.3158947 C107.052289,56.842 106.736711,56.0525263 106.736711,55.263 L106.736711,46.5787895 L85.1051316,46.5787895 C83.8417632,46.5787895 82.7367105,45.4737368 82.7367105,44.2103684 L82.7367105,33.7894474 C82.7367105,32.5260789 83.8417632,31.4210263 85.1051316,31.4210263 L106.736711,31.4210263 L106.736711,22.7368158 C106.736711,21.6317632 107.368395,20.6839211 108.473421,20.2106316 C109.420684,19.7367368 110.684079,19.8950526 111.473553,20.6845263 L129.315658,36.7897895 C129.947342,37.2636842 130.262921,38.0531579 130.262921,38.8426842 C130.105132,40.1055395 129.789026,40.8950526 129.157868,41.3688684 L129.157895,41.3684211 Z" id="Shape"></path>
        </g>
    </g>
</svg>