<?xml version="1.0" encoding="UTF-8"?>
<svg width="128pt" height="128pt" version="1.1" viewBox="0 0 128 128" xmlns="http://www.w3.org/2000/svg">
 <path d="m115.38 38.766c-10.656-2.9453-12.535-4.8203-15.477-15.469-0.31641-1.1562-1.3711-1.9531-2.5703-1.9531s-2.2539 0.80078-2.5703 1.9531c-2.9414 10.648-4.8203 12.531-15.477 15.469-1.1562 0.32031-1.9531 1.3711-1.9531 2.5703 0 1.1992 0.80078 2.25 1.9531 2.5703 10.656 2.9453 12.535 4.8203 15.477 15.469 0.31641 1.1562 1.3711 1.9531 2.5703 1.9531s2.2539-0.80078 2.5703-1.9531c2.9414-10.648 4.8203-12.531 15.477-15.469 1.1562-0.32031 1.9531-1.3711 1.9531-2.5703 0-1.1992-0.80078-2.25-1.9531-2.5703z" fill="#95968E"/>
 <path d="m89.621 60.789c-2.4453-8.8555-2.8867-9.2969-11.75-11.746-3.4531-0.94922-5.8711-4.125-5.8711-7.7109 0-2.7305 1.4062-5.2148 3.5938-6.6641l-54.262-0.003907c-5.8867 0-10.664 4.7852-10.664 10.664v42.664c0 5.8867 4.7852 10.664 10.664 10.664h18.414l11.637 12.484c0.50391 0.53906 1.2109 0.85156 1.9492 0.85156s1.4453-0.30469 1.9492-0.85156l11.637-12.484h18.414c5.8867 0 10.664-4.7852 10.664-10.664v-21.445c-3.0195-0.51172-5.5508-2.7383-6.3789-5.7656zm-22.238 8.4453c-7.9805 2.2031-9.2695 3.4883-11.477 11.469-0.32031 1.1562-1.3711 1.9531-2.5703 1.9531-1.1992 0-2.25-0.80078-2.5703-1.9531-2.2031-7.9805-3.4961-9.2695-11.477-11.469-1.1562-0.32031-1.9531-1.3711-1.9531-2.5703 0-1.1992 0.80078-2.25 1.9531-2.5703 7.9805-2.2031 9.2695-3.4883 11.477-11.469 0.32031-1.1562 1.3711-1.9531 2.5703-1.9531 1.1992 0 2.25 0.80078 2.5703 1.9531 2.2031 7.9805 3.4961 9.2695 11.477 11.469 1.1562 0.32031 1.9531 1.3711 1.9531 2.5703 0 1.1992-0.80078 2.25-1.9531 2.5703z" fill="#95968E"/>
</svg>
