<?xml version="1.0" encoding="UTF-8"?>
<svg width="113px" height="113px" viewBox="0 0 113 113" version="1.1" xmlns="http://www.w3.org/2000/svg" xmlns:xlink="http://www.w3.org/1999/xlink">
    <title>refresh</title>
    <g id="refresh" stroke="none" stroke-width="1" fill="none" fill-rule="evenodd">
        <g id="noun-refresh-1051637-95978E" transform="translate(4.000000, 19.000000)" fill="#95968E" fill-rule="nonzero">
            <path d="M90.8872604,37.7778302 C90.8872604,16.9480791 73.9372724,0 53.1051752,0 C46.5154128,0 40.4018936,1.84459701 35,4.82923449 L44.1207843,16.9851958 C46.8769874,15.7899053 49.9098498,15.1110377 53.1050808,15.1110377 C65.6015054,15.1110377 75.7743319,25.2827184 75.7743319,37.7777358 L60.6614978,37.7777358 L83.3307489,68 L106,37.7777358 L90.8872604,37.7778302 Z" id="Path"></path>
            <path d="M52.8948489,60.8888889 C40.3984408,60.8888889 30.2256279,50.7172222 30.2256279,38.2222222 L45.3384419,38.2222222 L22.6692209,8 L0,38.2222222 L15.112814,38.2222222 C15.112814,59.0519444 32.0627794,76 52.8948489,76 C59.4846025,76 65.5981136,74.1554056 71,71.1707722 L61.8792279,59.0148278 C59.1230284,60.2101167 56.09017,60.8889833 52.8949433,60.8889833 L52.8948489,60.8888889 Z" id="Path"></path>
        </g>
    </g>
</svg>