<?xml version="1.0" encoding="UTF-8"?>
<svg width="150px" height="150px" viewBox="0 0 150 150" version="1.1" xmlns="http://www.w3.org/2000/svg" xmlns:xlink="http://www.w3.org/1999/xlink">
    <title>refresh</title>
    <g id="refresh" stroke="none" stroke-width="1" fill="none" fill-rule="evenodd">
        <g id="noun-refresh-1051637-95978E" transform="translate(5.309735, 25.221239)" fill="#95968E" fill-rule="nonzero">
            <path d="M120.646806,50.1475623 C120.646806,22.4974501 98.1468218,0 70.4935954,0 C61.7461232,0 53.6308322,2.4485801 46.460177,6.41048825 L58.5674127,22.5467201 C62.2260894,20.9600512 66.252013,20.0588995 70.49347,20.0588995 C87.0816444,20.0588995 100.585396,33.5611307 100.585396,50.1474369 L80.5241121,50.1474369 L110.616038,90.2654867 L140.707965,50.1474369 L120.646806,50.1475623 Z" id="Path"></path>
            <path d="M70.2144012,80.8259587 C53.6262489,80.8259587 40.1225149,67.3237463 40.1225149,50.7374631 L60.1837724,50.7374631 L30.0918862,10.619469 L0,50.7374631 L20.0612575,50.7374631 C20.0612575,78.3875369 42.5612116,100.884956 70.2144012,100.884956 C78.9618617,100.884956 87.0771419,98.4363791 94.2477876,94.4744764 L82.140568,78.338267 C78.4818961,79.9249336 74.4559779,80.8260841 70.2145265,80.8260841 L70.2144012,80.8259587 Z" id="Path"></path>
        </g>
    </g>
</svg>