<?xml version="1.0" encoding="UTF-8"?>
<svg width="107px" height="107px" viewBox="0 0 107 107" version="1.1" xmlns="http://www.w3.org/2000/svg" xmlns:xlink="http://www.w3.org/1999/xlink">
    <title>remove-list</title>
    <g id="remove-list" stroke="none" stroke-width="1" fill="none" fill-rule="evenodd">
        <g id="noun-add-to-list-1913842-95978E" transform="translate(11.000000, 17.000000)" fill="#95968E" fill-rule="nonzero">
            <path d="M4,8 L49.332,8 C51.5429,8 53.332,6.2109 53.332,4 C53.332,1.7891 51.5429,0 49.332,0 L4,0 C1.7891,0 0,1.7891 0,4 C0,6.2109 1.7891,8 4,8 Z" id="Path"></path>
            <path d="M4,24 L49.332,24 C51.5429,24 53.332,22.2109 53.332,20 C53.332,17.7891 51.5429,16 49.332,16 L4,16 C1.7891,16 0,17.7891 0,20 C0,22.2109 1.7891,24 4,24 Z" id="Path"></path>
            <path d="M2.77506938,40 L34.2249306,40 C35.7587808,40 37,38.2109 37,36 C37,33.7891 35.7587808,32 34.2249306,32 C31.0571156,32 28.6812543,32 27.0973468,32 C21.6923963,32 13.5849705,32 2.77506938,32 C1.24121916,32 0,33.7891 0,36 C0,38.2109 1.24121916,40 2.77506938,40 Z" id="Path"></path>
            <path d="M33.332,48 L4,48 C1.7891,48 0,49.7891 0,52 C0,54.2109 1.7891,56 4,56 L33.332,56 C35.5429,56 37.332,54.2109 37.332,52 C37.332,49.7891 35.5429,48 33.332,48 Z" id="Path"></path>
            <path d="M81.332,48 L69.332,48 L69.332,36 C69.332,33.7891 67.5429,32 65.332,32 C63.1211,32 61.332,33.7891 61.332,36 L61.332,48 L49.332,48 C47.1211,48 45.332,49.7891 45.332,52 C45.332,54.2109 47.1211,56 49.332,56 L61.332,56 L61.332,68 C61.332,70.2109 63.1211,72 65.332,72 C67.5429,72 69.332,70.2109 69.332,68 L69.332,56 L81.332,56 C83.5429,56 85.332,54.2109 85.332,52 C85.332,49.7891 83.5429,48 81.332,48 Z" id="Path" transform="translate(65.332000, 52.000000) rotate(-315.000000) translate(-65.332000, -52.000000) "></path>
        </g>
    </g>
</svg>