<?xml version="1.0" encoding="UTF-8"?>
<svg width="150px" height="150px" viewBox="0 0 150 150" version="1.1" xmlns="http://www.w3.org/2000/svg" xmlns:xlink="http://www.w3.org/1999/xlink">
    <title>rename</title>
    <g id="rename" stroke="none" stroke-width="1" fill="none" fill-rule="evenodd">
        <g id="noun-rename-3846134-95968E" transform="translate(0.000000, 16.000000)" fill="#95958E" fill-rule="nonzero">
            <path d="M26.1923077,96.1739992 L17.3076923,96.1739992 C12.7175385,96.1739992 8.31492308,94.3506145 5.06907692,91.1049222 C1.82323077,87.8590761 0,83.4564607 0,78.8663068 L0,39.0586145 C0,34.4684607 1.82338462,30.0658453 5.06907692,26.8199992 C8.31492308,23.574153 12.7175385,21.7509222 17.3076923,21.7509222 L26.1923077,21.7509222 L26.1923077,96.1739992 Z M132.692308,21.9816913 L60.8076923,21.9816913 L60.8076923,96.1739992 L132.692308,96.1739992 C137.282462,96.1739992 141.685077,94.3506145 144.930923,91.1049222 C148.176769,87.8590761 150,83.4564607 150,78.8663068 L150,39.0586145 C149.939303,34.5087684 148.088923,30.1649222 144.849692,26.9690761 C141.610462,23.7732299 137.242769,21.9816913 132.692308,21.9816913 Z M55.4430769,106.846307 C53.806,106.846307 52.2356923,106.196061 51.0783077,105.037999 C49.9202615,103.880553 49.27,102.310307 49.27,100.67323 L49.27,17.7116915 C49.27,16.0746145 49.9202462,14.5043068 51.0783077,13.3469222 C52.2357538,12.1888761 53.806,11.5386145 55.4430769,11.5386145 C57.5043077,11.5386145 59.4087692,10.4388607 60.4395385,8.65399915 C61.4701846,6.86907607 61.4701846,4.66969146 60.4395385,2.88476838 C59.4088923,1.09984531 57.5044615,7.60544429e-05 55.4430769,7.60544429e-05 C51.0026154,-0.0130682329 46.7273846,1.68046069 43.5007692,4.73092223 C40.2741538,1.68046069 35.9989231,-0.0130777713 31.5584615,7.60544429e-05 C29.4972308,7.60544429e-05 27.5927692,1.09990684 26.562,2.88476838 C25.5313538,4.66969146 25.5313538,6.86907607 26.562,8.65399915 C27.5926462,10.4389222 29.4970769,11.5386145 31.5584615,11.5386145 C33.1955385,11.5386145 34.7658462,12.1888607 35.9232308,13.3469222 C37.0812769,14.5043684 37.7315385,16.0746145 37.7315385,17.7116915 L37.7315385,100.67323 C37.7315385,102.310307 37.0812923,103.880615 35.9232308,105.037999 C34.7657846,106.196045 33.1955385,106.846307 31.5584615,106.846307 C29.4972308,106.846307 27.5927692,107.946061 26.562,109.730922 C25.5313538,111.515845 25.5313538,113.71523 26.562,115.500153 C27.5926462,117.285076 29.4970769,118.384845 31.5584615,118.384845 C35.9989231,118.39799 40.2741538,116.704461 43.5007692,113.653999 C46.7273846,116.704461 51.0026154,118.397999 55.4430769,118.384845 C57.5043077,118.384845 59.4087692,117.285015 60.4395385,115.500153 C61.4701846,113.71523 61.4701846,111.515845 60.4395385,109.730922 C59.4088923,107.945999 57.5044615,106.846307 55.4430769,106.846307 Z" id="Shape"></path>
        </g>
    </g>
</svg>