<?xml version="1.0" encoding="UTF-8"?>
<svg width="99px" height="98px" viewBox="0 0 99 98" version="1.1" xmlns="http://www.w3.org/2000/svg" xmlns:xlink="http://www.w3.org/1999/xlink">
    <title>saved-stories</title>
    <g id="saved-stories" stroke="none" stroke-width="1" fill="none" fill-rule="evenodd">
        <g id="noun-history-2712044-95978E" transform="translate(12.000000, 12.000000)" fill="#95968E" fill-rule="nonzero">
            <path d="M37,0 C27.1870714,0 17.7745357,3.89715714 10.8370357,10.8370357 C3.89689286,17.7745357 0,27.1870714 0,37 C0,46.8129286 3.89715714,56.2254643 10.8370357,63.1629643 C17.7745357,70.1031071 27.1870714,74 37,74 C46.8129286,74 56.2254643,70.1028429 63.1629643,63.1629643 C70.1031071,56.2254643 74,46.8129286 74,37 C74,27.1870714 70.1028429,17.7745357 63.1629643,10.8370357 C56.2254643,3.89689286 46.8129286,0 37,0 Z M49.1563394,49.135568 C48.1506286,50.164113 46.5248822,50.164113 45.5166549,49.135568 L35.192407,38.523806 C34.7008954,38.0263797 34.4211212,37.3502114 34.4186047,36.6403509 L34.4186047,20.7227079 C34.4186047,19.2563614 35.5730491,18.0697674 36.9996666,18.0697674 C38.4262841,18.0697674 39.5807286,19.2563614 39.5807286,20.7227079 L39.5807286,35.5519821 L49.1564685,45.3943913 C50.1571462,46.4306962 50.1571462,48.1017171 49.1564685,49.1354353 L49.1563394,49.135568 Z" id="Shape"></path>
        </g>
    </g>
</svg>