<?xml version="1.0" encoding="UTF-8"?>
<svg width="99px" height="98px" viewBox="0 0 99 98" version="1.1" xmlns="http://www.w3.org/2000/svg" xmlns:xlink="http://www.w3.org/1999/xlink">
    <title>saved-stories</title>
    <g id="saved-stories" stroke="none" stroke-width="1" fill="none" fill-rule="evenodd">
        <g id="noun-history-2712044-95978E" transform="translate(6.000000, 6.000000)" fill="#95968E" fill-rule="nonzero">
            <path d="M43,0 C31.5957857,0 20.6568929,4.52912857 12.5943929,12.5943929 C4.52882143,20.6568929 0,31.5957857 0,43 C0,54.4042143 4.52912857,65.3431071 12.5943929,73.4056071 C20.6568929,81.4711786 31.5957857,86 43,86 C54.4042143,86 65.3431071,81.4708714 73.4056071,73.4056071 C81.4711786,65.3431071 86,54.4042143 86,43 C86,31.5957857 81.4708714,20.6568929 73.4056071,12.5943929 C65.3431071,4.52882143 54.4042143,0 43,0 Z M57.1276377,57.1034979 C55.9588387,58.298834 54.0694577,58.298834 52.897734,57.1034979 L40.8992838,44.7709097 C40.3280676,44.1928196 40.0029246,43.4070025 40,42.5820294 L40,24.0831471 C40,22.3790146 41.3416517,21 42.9996126,21 C44.6575734,21 45.9992251,22.3790146 45.9992251,24.0831471 L45.9992251,41.3171683 L57.1277877,52.7556439 C58.2907374,53.9599983 58.2907374,55.9019955 57.1277877,57.1033438 L57.1276377,57.1034979 Z" id="Shape"></path>
        </g>
    </g>
</svg>