<?xml version="1.0" encoding="UTF-8"?>
<svg width="150px" height="150px" viewBox="0 0 150 150" version="1.1" xmlns="http://www.w3.org/2000/svg" xmlns:xlink="http://www.w3.org/1999/xlink">
    <title>saved-stories</title>
    <g id="saved-stories" stroke="none" stroke-width="1" fill="none" fill-rule="evenodd">
        <g id="noun-history-2712044-95978E" transform="translate(18.181818, 18.367347)" fill="#95968E" fill-rule="nonzero">
            <path d="M56.0606061,0 C41.1925325,0 26.9311147,5.96503644 16.4197511,16.5872996 C5.90438312,27.205922 0,41.6128644 0,56.6326531 C0,71.6524417 5.90478355,86.0593841 16.4197511,96.6780066 C26.9311147,107.300674 41.1925325,113.265306 56.0606061,113.265306 C70.9286797,113.265306 85.1900974,107.30027 95.701461,96.6780066 C106.216829,86.0593841 112.121212,71.6524417 112.121212,56.6326531 C112.121212,41.6128644 106.216429,27.205922 95.701461,16.5872996 C85.1900974,5.96463192 70.9286797,0 56.0606061,0 Z M74.4793021,75.207502 C72.9554979,76.7818056 70.4922458,76.7818056 68.9646286,75.207502 L53.3218288,58.9650092 C52.5771142,58.2036423 52.1532139,57.168691 52.149401,56.0821697 L52.149401,31.7184305 C52.149401,29.4740226 53.8985593,27.6578073 56.0601009,27.6578073 C58.2216426,27.6578073 59.9708009,29.4740226 59.9708009,31.7184305 L59.9708009,54.4162991 L74.4794977,69.4812112 C75.995676,71.0673921 75.995676,73.6250771 74.4794977,75.207299 L74.4793021,75.207502 Z" id="Shape"></path>
        </g>
    </g>
</svg>