<?xml version="1.0" encoding="UTF-8"?>
<svg width="142px" height="142px" viewBox="0 0 142 142" version="1.1" xmlns="http://www.w3.org/2000/svg" xmlns:xlink="http://www.w3.org/1999/xlink">
    <title>search</title>
    <g id="search" stroke="none" stroke-width="1" fill="none" fill-rule="evenodd">
        <g transform="translate(13.000000, 13.000000)" fill="#95968E" fill-rule="nonzero" id="Shape">
            <path d="M46.7417349,93.4526026 C56.0229349,93.4643216 65.0937349,90.6948026 72.7887349,85.5034026 L99.8197349,112.534403 C103.339235,116.053903 109.042435,116.053903 112.561735,112.534403 C116.081235,109.014903 116.081235,103.311703 112.561735,99.7924026 L85.5307349,72.7614026 C93.3276349,61.1364026 95.5034349,46.6324026 91.4643349,33.2304026 C87.4213349,19.8324026 77.5853349,8.94940262 64.6593349,3.57840262 C51.7333349,-1.79269738 37.0813349,-1.08959738 24.7333349,5.50030262 C12.3853349,12.0862026 3.63933489,23.8633026 0.901334884,37.5903026 C-1.83306511,51.3173026 1.72555489,65.5473026 10.6044349,76.3673026 C19.4833349,87.1873026 32.7454349,93.4573026 46.7414349,93.4533026 L46.7417349,93.4526026 Z M46.7417349,10.7846026 C56.2690349,10.7846026 65.4057349,14.5698026 72.1437349,21.3076026 C78.8817349,28.0454026 82.6667349,37.1826026 82.6667349,46.7136026 C82.6667349,56.2409026 78.8815349,65.3776026 72.1437349,72.1156026 C65.4059349,78.8536026 56.2687349,82.6386026 46.7417349,82.6386026 C37.2105349,82.6386026 28.0737349,78.8534026 21.3357349,72.1156026 C14.5977349,65.3778026 10.8127349,56.2406026 10.8127349,46.7136026 C10.8244529,37.1863026 14.6135349,28.0536026 21.3477349,21.3186026 C28.0819349,14.5836026 37.2147349,10.7956026 46.7427349,10.7836026 L46.7417349,10.7846026 Z"></path>
        </g>
    </g>
</svg>