<?xml version="1.0" encoding="UTF-8"?>
<svg width="150px" height="150px" viewBox="0 0 150 150" version="1.1" xmlns="http://www.w3.org/2000/svg" xmlns:xlink="http://www.w3.org/1999/xlink">
    <title>search</title>
    <g id="search" stroke="none" stroke-width="1" fill="none" fill-rule="evenodd">
        <g transform="translate(13.732394, 13.732394)" fill="#95968E" fill-rule="nonzero" id="Shape">
            <path d="M49.3750721,98.717538 C59.1791566,98.7299172 68.7609876,95.8043689 76.8895087,90.3204957 L105.443382,118.874369 C109.161164,122.592151 115.185671,122.592151 118.903241,118.874369 C122.621023,115.156588 122.621023,109.132081 118.903241,105.41451 L90.3493678,76.8606366 C98.5855298,64.580707 100.88391,49.2595802 96.6172552,35.102538 C92.3464805,20.9497211 81.9563397,9.45359432 68.3021143,3.78000277 C54.647889,-1.89369441 39.1704242,-1.15098314 26.1267622,5.81017883 C13.0831002,12.7671154 3.84436784,25.207714 0.952114314,39.7080661 C-1.93633639,54.2084182 1.82276925,69.2401084 11.2018678,80.6696858 C20.5809876,92.0992633 34.5902481,98.7225028 49.3747552,98.7182774 L49.3750721,98.717538 Z M49.3750721,11.3921858 C59.4391214,11.3921858 69.090565,15.3906366 76.2081707,22.5080309 C83.3257763,29.6254253 87.3240157,39.2773971 87.3240157,49.3453549 C87.3240157,59.4094042 83.325565,69.0608478 76.2081707,76.1784535 C69.0907763,83.2960591 59.4388045,87.2942985 49.3750721,87.2942985 C39.3069031,87.2942985 29.6553538,83.2958478 22.5377481,76.1784535 C15.4201425,69.0610591 11.4219031,59.4090873 11.4219031,49.3453549 C11.4342812,39.2813056 15.4368326,29.6340873 22.5504242,22.5196506 C29.6640157,15.405214 39.3113397,11.4038056 49.3761284,11.3911295 L49.3750721,11.3921858 Z"></path>
        </g>
    </g>
</svg>