<?xml version="1.0" encoding="UTF-8"?>
<svg width="142px" height="142px" viewBox="0 0 142 142" version="1.1" xmlns="http://www.w3.org/2000/svg" xmlns:xlink="http://www.w3.org/1999/xlink">
    <title>search-filled</title>
    <g id="search-filled" stroke="none" stroke-width="1" fill="none" fill-rule="evenodd">
        <g id="noun-search-2738105-95978E" transform="translate(-0.260265, -0.288897)" fill="#95968E" fill-rule="nonzero">
            <path d="M86.049,98.7923 L113.08,125.8233 C116.5995,129.3428 122.3027,129.3428 125.822,125.8233 C129.3415,122.3038 129.3415,116.6006 125.822,113.0813 L98.791,86.0503 C106.5879,74.4253 108.7637,59.9213 104.7246,46.5193 C100.6816,33.1213 90.8456,22.2383 77.9196,16.8673 C64.9936,11.4962 50.3416,12.1993 37.9936,18.7892 C25.6456,25.3751 16.8996,37.1522 14.1616,50.8792 C11.4272,64.6062 14.98582,78.8362 23.8647,89.6562 C32.7436,100.4762 46.0057,106.7462 60.0017,106.7422 C69.2832,106.753219 78.354,103.9837 86.049,98.7923 Z M8,0 L134,0 C138.418278,-8.11624501e-16 142,3.581722 142,8 L142,134 C142,138.418278 138.418278,142 134,142 L8,142 C3.581722,142 -2.12345226e-15,138.418278 0,134 L0,8 C-5.41083001e-16,3.581722 3.581722,-1.85291076e-15 8,0 Z M60.002,24.0735 C69.5293,24.0735 78.666,27.8587 85.404,34.5965 C92.142,41.3343 95.927,50.4715 95.927,60.0025 C95.927,69.5298 92.1418,78.6665 85.404,85.4045 C78.6662,92.1425 69.529,95.9275 60.002,95.9275 C50.4708,95.9275 41.334,92.1423 34.596,85.4045 C27.858,78.6667 24.073,69.5295 24.073,60.0025 C24.084718,50.4752 27.8738,41.3425 34.608,34.6075 C41.3422,27.8725 50.475,24.0845 60.003,24.0725 L60.002,24.0735 Z" id="Shape"></path>
        </g>
    </g>
</svg>