<?xml version="1.0" encoding="UTF-8"?>
<svg width="150px" height="150px" viewBox="0 0 150 150" version="1.1" xmlns="http://www.w3.org/2000/svg" xmlns:xlink="http://www.w3.org/1999/xlink">
    <title>sendto</title>
    <g id="sendto" stroke="none" stroke-width="1" fill="none" fill-rule="evenodd">
        <g id="noun-share-4837214-95968E" transform="translate(16.000000, 19.000000)" fill="#95958E" fill-rule="nonzero">
            <path d="M113.417389,55 C110.333168,55 107.83423,57.4869418 107.83423,60.5547202 L107.83423,104.887694 L11.1630279,104.887694 L11.1630279,60.5547202 C11.1630279,57.4869418 8.66409017,55 5.58151396,55 C2.49893776,55 0,57.4869418 0,60.5547202 L0,110.443642 C0,113.513058 2.49893776,116 5.58151396,116 L113.416841,116 C116.501062,116 119,113.513058 119,110.443642 L119,60.5547202 C119,57.4869418 116.501062,55 113.416841,55 L113.417389,55 Z" id="Path"></path>
            <path d="M33.0621069,35.3233081 C34.0905162,36.1606672 35.3257757,36.5670092 36.5535561,36.5670092 C38.1726266,36.5670092 39.7779126,35.8588441 40.8761727,34.4935108 L52.9429772,19.4936186 L52.9429772,74.4113393 C52.9429772,77.4985999 55.4306109,80 58.4992429,80 C61.5695126,80 64.0571463,77.4985999 64.0571463,74.4113393 L64.0576794,19.8353361 L76.1672023,34.5003726 C78.1263827,36.8741433 81.6306611,37.2000787 83.9930055,35.229974 C86.354804,33.2583047 86.6778538,29.7362806 84.7185915,27.3608631 L65.6768045,4.30521898 C64.2395263,2.15980896 62.2802094,0.826012502 60.1124865,0.286263406 C59.5985548,0.12866161 59.0643557,0.01876304 58.4992846,0.01876304 C58.4635649,0.01876304 58.4310443,0.0284125132 58.3958582,0.0289485569 C58.3297497,0.0257320201 58.2673739,0.00160840565 58.2007317,0 C55.2691263,0.0214431213 52.5730866,1.64147952 50.7423346,4.46016924 L32.2369167,27.4664084 C30.3063972,29.8658422 30.6763964,33.383612 33.0622018,35.323717 L33.0621069,35.3233081 Z" id="Path"></path>
        </g>
    </g>
</svg>