<?xml version="1.0" encoding="UTF-8"?>
<svg width="150px" height="150px" viewBox="0 0 150 150" version="1.1" xmlns="http://www.w3.org/2000/svg" xmlns:xlink="http://www.w3.org/1999/xlink">
    <title>settings</title>
    <g id="settings" stroke="none" stroke-width="1" fill="none" fill-rule="evenodd">
        <g id="noun-cog-1372761-95978E" transform="translate(10.000000, 10.000000)" fill="#95968E" fill-rule="nonzero">
            <path d="M126.094214,51.8832404 L116.354658,50.7156848 C115.182769,46.4665737 113.490103,42.3823515 111.302547,38.5590182 L117.417992,30.8810182 L117.417992,30.8766782 C118.776547,29.1753448 118.637658,26.7230115 117.092469,25.1865671 L104.618025,12.7865671 C103.085914,11.2414559 100.633692,11.1025671 98.9322471,12.4610448 L91.2542471,18.5764893 L91.2499071,18.5764893 C87.4477959,16.3977115 83.3853515,14.7006004 79.1621293,13.5243782 L77.9945737,3.78482261 C77.7471737,1.61904484 75.9069071,-0.0129551644 73.7281293,7.75071227e-05 L56.1192404,7.75071227e-05 C53.9404626,-0.0128651644 52.1001293,1.61904484 51.8527959,3.78482261 L50.7156848,13.5243782 C46.4665737,14.6962671 42.3823515,16.3889337 38.5590182,18.5764893 L30.8810182,12.4610448 L30.8766782,12.4610448 C29.1753448,11.1024893 26.7230115,11.2413782 25.1865671,12.7865671 L12.7865671,25.2610115 C11.2414559,26.7931226 11.1025671,29.2453448 12.4610448,30.9467893 L18.5764893,38.6247893 L18.5764893,38.6291293 C16.3977115,42.4312404 14.7006004,46.4936848 13.5243782,50.7169071 L3.78482261,51.8844626 C1.61904484,52.1318626 -0.0129551644,53.9721293 7.75071227e-05,56.1509071 L7.75071227e-05,73.7597959 C-0.0128651644,75.9385737 1.61904484,77.7789071 3.78482261,78.0262404 L13.5287115,79.1199959 L13.5243704,79.1199959 C14.6919259,83.3691071 16.3889259,87.4533293 18.5764815,91.2811071 L12.4610371,98.9591071 C11.1024815,100.66044 11.2413704,103.112774 12.7865593,104.649218 L25.2610037,117.123663 C26.7931148,118.668774 29.2453371,118.807663 30.9467815,117.449185 L38.6247815,111.33374 L38.6291215,111.33374 C42.4355659,113.495185 46.4980104,115.179185 50.7168993,116.338074 L51.8844548,126.094963 C52.1318548,128.26074 53.9721215,129.89274 56.1508993,129.879708 L73.7597882,129.879708 C75.9385659,129.89265 77.7788993,128.26074 78.0262326,126.094963 L79.1633437,116.338074 C83.4124548,115.170518 87.4966771,113.473518 91.3200104,111.290296 L98.9980104,117.40574 L99.0023504,117.40574 C100.703684,118.764296 103.156017,118.625407 104.692462,117.080218 L117.166906,104.605774 L117.162566,104.605774 C118.707677,103.069329 118.850899,100.617107 117.492433,98.9156626 L111.376988,91.2376626 C113.529766,87.4355515 115.200766,83.3774404 116.355322,79.1632182 L126.094877,77.9956626 C128.260655,77.7482626 129.892655,75.9079959 129.879622,73.7292182 L129.879622,56.1203293 C129.879622,53.9545515 128.251988,52.1316626 126.094877,51.8842182 L126.094214,51.8832404 Z M82.1364359,82.1354626 C77.6095471,86.7622404 71.4116582,89.3706848 64.9397693,89.3706848 C58.4678804,89.3706848 52.2708804,86.7621293 47.7431026,82.1354626 C43.1163248,77.6085737 40.5078804,71.4106848 40.5078804,64.9387959 C40.5078804,58.4669071 43.1164359,52.2699071 47.7431026,47.7421293 C52.2699915,43.1153515 58.4678804,40.5069071 64.9397693,40.5069071 C71.4116582,40.5069071 77.6086582,43.1154626 82.1364359,47.7421293 C86.7632137,52.2690182 89.3716582,58.4669071 89.3716582,64.9387959 C89.3716582,71.4106848 86.7631026,77.6076848 82.1364359,82.1354626 Z" id="Shape"></path>
        </g>
    </g>
</svg>