<?xml version="1.0" encoding="UTF-8"?>
<svg width="135px" height="135px" viewBox="0 0 135 135" version="1.1" xmlns="http://www.w3.org/2000/svg" xmlns:xlink="http://www.w3.org/1999/xlink">
    <title>settings</title>
    <g id="settings" stroke="none" stroke-width="1" fill="none" fill-rule="evenodd">
        <g id="noun-cog-1372761-95978E" transform="translate(9.000000, 9.000000)" fill="#95968E" fill-rule="nonzero">
            <path d="M113.484792,46.6949164 L104.719192,45.6441164 C103.664492,41.8199164 102.141092,38.1441164 100.172292,34.7031164 L105.676192,27.7929164 L105.676192,27.7890104 C106.898892,26.2578104 106.773892,24.0507104 105.383222,22.6679104 L94.1562224,11.5079104 C92.7773224,10.1173104 90.5703224,9.99231035 89.0390224,11.2149404 L82.1288224,16.7188404 L82.1249164,16.7188404 C78.7030164,14.7579404 75.0468164,13.2305404 71.2459164,12.1719404 L70.1951164,3.40634035 C69.9724564,1.45714035 68.3162164,-0.011659648 66.3553164,6.97564104e-05 L50.5073164,6.97564104e-05 C48.5464164,-0.011578648 46.8901164,1.45714035 46.6675164,3.40634035 L45.6441164,12.1719404 C41.8199164,13.2266404 38.1441164,14.7500404 34.7031164,16.7188404 L27.7929164,11.2149404 L27.7890104,11.2149404 C26.2578104,9.99224035 24.0507104,10.1172404 22.6679104,11.5079104 L11.5079104,22.7349104 C10.1173104,24.1138104 9.99231035,26.3208104 11.2149404,27.8521104 L16.7188404,34.7623104 L16.7188404,34.7662164 C14.7579404,38.1881164 13.2305404,41.8443164 12.1719404,45.6452164 L3.40634035,46.6960164 C1.45714035,46.9186764 -0.011659648,48.5749164 6.97564104e-05,50.5358164 L6.97564104e-05,66.3838164 C-0.011578648,68.3447164 1.45714035,70.0010164 3.40634035,70.2236164 L12.1758404,71.2079964 L12.1719334,71.2079964 C13.2227334,75.0321964 14.7500334,78.7079964 16.7188334,82.1529964 L11.2149334,89.0631964 C9.99223335,90.5943964 10.1172334,92.8014964 11.5079034,94.1842964 L22.7349034,105.411296 C24.1138034,106.801896 26.3208034,106.926896 27.8521034,105.704266 L34.7623034,100.200366 L34.7662094,100.200366 C38.1920094,102.145666 41.8482094,103.661266 45.6452094,104.704266 L46.6960094,113.485466 C46.9186694,115.434666 48.5749094,116.903466 50.5358094,116.891737 L66.3838094,116.891737 C68.3447094,116.903385 70.0010094,115.434666 70.2236094,113.485466 L71.2470094,104.704266 C75.0712094,103.653466 78.7470094,102.126166 82.1880094,100.161266 L89.0982094,105.665166 L89.1021154,105.665166 C90.6333154,106.887866 92.8404154,106.762866 94.2232154,105.372196 L105.450215,94.1451964 L105.446309,94.1451964 C106.836909,92.7623964 106.965809,90.5553964 105.743189,89.0240964 L100.239289,82.1138964 C102.176789,78.6919964 103.680689,75.0396964 104.719789,71.2468964 L113.485389,70.1960964 C115.434589,69.9734364 116.903389,68.3171964 116.89166,66.3562964 L116.89166,50.5082964 C116.89166,48.5590964 115.426789,46.9184964 113.485389,46.6957964 L113.484792,46.6949164 Z M73.9227924,73.9219164 C69.8485924,78.0860164 64.2704924,80.4336164 58.4457924,80.4336164 C52.6210924,80.4336164 47.0437924,78.0859164 42.9687924,73.9219164 C38.8046924,69.8477164 36.4570924,64.2696164 36.4570924,58.4449164 C36.4570924,52.6202164 38.8047924,47.0429164 42.9687924,42.9679164 C47.0429924,38.8038164 52.6210924,36.4562164 58.4457924,36.4562164 C64.2704924,36.4562164 69.8477924,38.8039164 73.9227924,42.9679164 C78.0868924,47.0421164 80.4344924,52.6202164 80.4344924,58.4449164 C80.4344924,64.2696164 78.0867924,69.8469164 73.9227924,73.9219164 Z" id="Shape"></path>
        </g>
    </g>
</svg>