<?xml version="1.0" encoding="UTF-8"?>
<svg width="153px" height="153px" viewBox="0 0 153 153" version="1.1" xmlns="http://www.w3.org/2000/svg" xmlns:xlink="http://www.w3.org/1999/xlink">
    <title>share</title>
    <g id="share" stroke="none" stroke-width="1" fill="none" fill-rule="evenodd">
        <g id="noun-comment-3266585-95978E" transform="translate(12.000000, 24.000000)" fill="#95968E" fill-rule="nonzero">
            <path d="M10.133,-1.77635684e-15 C4.5939,-1.77635684e-15 -1.77635684e-15,4.5859 -1.77635684e-15,10.125 L-1.77635684e-15,72.047 C-1.77635684e-15,77.5861 4.5938,82.172 10.133,82.172 L72.195,82.172 L103.14,104.969 C104.3548,105.87134 105.972,106.0081 107.3236,105.32838 C108.6752,104.64869 109.5228,103.26198 109.5228,101.75028 L109.5228,82.17228 L117.8744,82.17228 C123.4135,82.17228 128.0074,77.58638 128.0074,72.04728 L128.0074,10.12528 C128.0074,4.58618 123.4136,-1.77635684e-15 117.8744,-1.77635684e-15 L10.133,-1.77635684e-15 Z M33.727,23.859 C33.86372,23.855093 33.99653,23.855093 34.13325,23.859 L73.88325,23.859 C74.96135,23.835562 76.00045,24.24572 76.76995,24.9996 C77.53945,25.75348 77.97305,26.7848 77.97305,27.859 C77.97305,28.9371 77.53946,29.9684 76.76995,30.7223 C76.00042,31.4723 74.96135,31.8825 73.88325,31.859 L34.13325,31.859 C31.95745,31.917593 30.13715,30.2301 30.02385,28.0582 C29.91447,25.8863 31.55905,24.023 33.72695,23.859 L33.727,23.859 Z M34.13325,43.164 L93.89925,43.164 C96.10625,43.167906 97.89535,44.9609 97.89535,47.1679 C97.89535,49.3788 96.10625,51.1679 93.89925,51.1718 L34.13325,51.1718 C31.92625,51.167893 30.13715,49.3788 30.13715,47.1679 C30.13715,44.9609 31.92625,43.1679 34.13325,43.164 Z" id="Shape"></path>
        </g>
    </g>
</svg>