<?xml version="1.0" encoding="UTF-8"?>
<svg width="150px" height="150px" viewBox="0 0 150 150" version="1.1" xmlns="http://www.w3.org/2000/svg" xmlns:xlink="http://www.w3.org/1999/xlink">
    <title>share</title>
    <g id="share" stroke="none" stroke-width="1" fill="none" fill-rule="evenodd">
        <g id="noun-comment-3266585-95978E" transform="translate(11.764706, 23.529412)" fill="#95968E" fill-rule="nonzero">
            <path d="M9.93431373,-1.74152631e-15 C4.50382353,-1.74152631e-15 -1.74152631e-15,4.49598039 -1.74152631e-15,9.92647059 L-1.74152631e-15,70.6343137 C-1.74152631e-15,76.0648039 4.50372549,80.5607843 9.93431373,80.5607843 L70.7794118,80.5607843 L101.117647,102.910784 C102.308627,103.795431 103.894118,103.92951 105.219216,103.263118 C106.544314,102.596755 107.375294,101.237235 107.375294,99.7551765 L107.375294,80.5610588 L115.563137,80.5610588 C120.993627,80.5610588 125.497451,76.0650784 125.497451,70.6345882 L125.497451,9.9267451 C125.497451,4.4962549 120.993725,-1.74152631e-15 115.563137,-1.74152631e-15 L9.93431373,-1.74152631e-15 Z M33.0656863,23.3911765 C33.1997255,23.3873461 33.3299314,23.3873461 33.4639706,23.3911765 L72.4345588,23.3911765 C73.4915196,23.368198 74.5102451,23.7703137 75.2646569,24.5094118 C76.0190686,25.2485098 76.4441667,26.2596078 76.4441667,27.3127451 C76.4441667,28.3697059 76.0190784,29.3807843 75.2646569,30.119902 C74.5102157,30.8551961 73.4915196,31.2573529 72.4345588,31.2343137 L33.4639706,31.2343137 C31.3308333,31.2917578 29.5462255,29.6373529 29.4351471,27.5080392 C29.3279118,25.3787255 30.9402451,23.5519608 33.0656373,23.3911765 L33.0656863,23.3911765 Z M33.4639706,42.3176471 L92.0580882,42.3176471 C94.2218137,42.3214765 95.9758333,44.0793137 95.9758333,46.2430392 C95.9758333,48.4105882 94.2218137,50.1646078 92.0580882,50.1684314 L33.4639706,50.1684314 C31.3002451,50.164601 29.5462255,48.4105882 29.5462255,46.2430392 C29.5462255,44.0793137 31.3002451,42.3214706 33.4639706,42.3176471 Z" id="Shape"></path>
        </g>
    </g>
</svg>