<?xml version="1.0" encoding="UTF-8"?>
<svg width="128pt" height="128pt" version="1.1" viewBox="0 0 128 128" xmlns="http://www.w3.org/2000/svg">
 <path d="m93.77 56.852c-1.4297 0-2.8594 0.085938-4.2891 0.33594 4.2031-5.7188 6.7266-12.699 6.7266-20.27-0.082031-19.004-15.387-34.312-34.309-34.312-18.922 0-34.312 15.309-34.312 34.23 0 7.4844 2.4375 14.383 6.4766 20.016-18.84 0.085938-34.059 15.391-34.059 34.23 0 18.84 15.305 34.23 34.23 34.23 12.781 0 23.801-6.9805 29.77-17.324 5.8867 10.344 16.988 17.324 29.77 17.324 18.922 0 34.23-15.305 34.23-34.23 0-18.922-15.305-34.23-34.23-34.23zm-59.457 58.535c-13.371 0-24.223-10.848-24.223-24.223 0-13.371 10.848-24.223 24.223-24.223 13.371 0 24.223 10.848 24.223 24.223 0 13.371-10.848 24.223-24.223 24.223zm27.586-54.246c-13.371 0-24.223-10.848-24.223-24.223 0-13.371 10.848-24.223 24.223-24.223 13.371 0 24.223 10.848 24.223 24.223 0 13.371-10.848 24.223-24.223 24.223zm31.875 54.246c-13.371 0-24.223-10.848-24.223-24.223 0-13.371 10.848-24.223 24.223-24.223 13.371 0 24.223 10.848 24.223 24.223 0 13.371-10.848 24.223-24.223 24.223z" fill="#95968E"/>
</svg>
