<?xml version="1.0" encoding="UTF-8"?>
<svg width="116px" height="116px" viewBox="0 0 116 116" version="1.1" xmlns="http://www.w3.org/2000/svg" xmlns:xlink="http://www.w3.org/1999/xlink">
    <title>subscribers</title>
    <g id="subscribers" stroke="none" stroke-width="1" fill="none" fill-rule="evenodd">
        <g id="noun-people-2979001-95978E" transform="translate(5.000000, 19.000000)" fill="#95968E" fill-rule="nonzero">
            <path d="M61.6673967,48.6709594 C62.9485967,47.7842394 64.0931967,46.7100594 65.0579967,45.4873594 C64.0931567,46.7100594 62.9485967,47.7842594 61.6673967,48.6709594" id="Path"></path>
            <path d="M70.1403967,46.4209594 C66.4215967,52.4053594 59.8703967,56.0459594 52.8243967,56.0459594 C45.7735967,56.0459594 39.2263967,52.4053594 35.5043967,46.4209594 C33.1996967,48.7881594 27.7465967,55.9561594 30.3832967,69.0499594 C35.8910967,75.0343594 43.6292967,78.4718594 51.7622967,78.5499594 C60.0747967,78.7765194 68.2152967,76.1280594 74.8012967,71.0460594 C74.8012967,71.0460594 79.7543967,56.6590594 70.1410967,46.4209594" id="Path"></path>
            <path d="M65.9563967,26.6439594 C63.6008967,23.1517594 59.9602967,20.7377594 55.8273967,19.9330594 C51.6945967,19.1283694 47.4132967,19.9994654 43.9213967,22.3510594 C40.4291967,24.7065594 38.0190967,28.3510594 37.2143967,32.4800594 C36.4097067,36.6128594 37.2808027,40.8980594 39.6323967,44.3860594 C41.9839967,47.8782594 45.6284967,50.2883594 49.7613967,51.0930594 C53.8941967,51.8977494 58.1754967,51.0266534 61.6673967,48.6711594 C62.9485967,47.7844394 64.0931967,46.7102594 65.0579967,45.4875594 C65.3509667,45.1164694 65.6986167,44.7844394 65.9525267,44.3859594 L65.9564337,44.3859594 C67.7220337,41.7648594 68.6673337,38.6750594 68.6673337,35.5148594 C68.6673337,32.3546594 67.7220237,29.2648594 65.9564337,26.6437594" id="Path"></path>
            <path d="M95.8933967,7.02195936 C93.3425967,3.23675936 89.2839967,0.736759357 84.7563967,0.154759357 C80.2329967,-0.427270643 75.6743967,0.967259357 72.2483967,3.98285936 C68.8225967,6.99845936 66.8616967,11.3422594 66.8616967,15.9048594 C66.9124777,20.1001594 68.5999967,24.1079594 71.5647967,27.0728594 C74.5335967,30.0376594 78.5413967,31.7251594 82.7367967,31.7759594 C87.5219967,31.8228344 92.0531967,29.6353594 94.9987967,25.8618594 C95.2917667,25.5024794 95.6277067,25.1704494 95.8933267,24.7720594 L95.8933267,24.7759654 C97.6628267,22.1509654 98.6081267,19.0611654 98.6081267,15.8970654 C98.6081267,12.7329654 97.6628167,9.64316536 95.8933267,7.02206536" id="Path"></path>
            <path d="M100.083397,26.7329594 C96.3567967,32.7329594 89.8023967,36.3891594 82.7393967,36.4087594 C78.7705967,36.4087594 74.8877967,35.2329594 71.5873967,33.0298594 C71.7006767,33.8540794 71.7592767,34.6821594 71.7670867,35.5142594 C71.7631807,38.1861594 71.1928667,40.8228594 70.0912867,43.2564594 C70.9506667,43.2603654 71.7709867,43.6158394 72.3568867,44.2447394 C76.0521867,48.2213394 78.3490867,53.2955394 78.9115867,58.6937394 C79.8178367,58.8226494 80.7318867,58.9046794 81.6498867,58.9359294 C89.9662867,59.1624894 98.1028867,56.5062294 104.688887,51.4242294 C104.688887,51.4242294 109.630287,37.0612294 100.016987,26.7329594" id="Path"></path>
            <path d="M35.5033967,43.3619594 L35.6440267,43.3619594 C34.4682267,40.9127594 33.8471267,38.2330594 33.8276267,35.5142594 C33.8354397,34.7447294 33.8940337,33.9712594 34.0073167,33.2095594 C30.7573167,35.2954594 26.9761167,36.4048594 23.1123167,36.4087594 C16.0889167,36.3970404 9.56131666,32.7798594 5.81931666,26.8345594 C3.51461666,29.2134594 -1.92288334,36.3814594 0.698216656,49.4795594 L0.702122656,49.4795594 C6.22552266,55.4443594 13.9681227,58.8701594 22.1001227,58.9365594 C23.6899227,58.9365594 25.2798227,58.8584354 26.8618227,58.6943694 C27.3852627,53.3310694 29.6313227,48.2763694 33.2641227,44.2963694 C33.8500627,43.6987094 34.6508227,43.3627794 35.4907227,43.3627794" id="Path"></path>
            <path d="M36.3243967,7.02195936 C35.1798967,5.33445936 33.7227967,3.87745936 32.0352967,2.73285936 C28.8321967,0.564859357 24.9493967,-0.360940643 21.1132967,0.127359357 C17.2773967,0.619549357 13.7499967,2.49065936 11.1991967,5.39685936 C8.64449666,8.29915936 7.23829666,12.0374594 7.24218857,15.9048594 C7.29688366,20.0962594 8.98829666,24.1001594 11.9530967,27.0648594 C14.9178967,30.0296594 18.9218967,31.7210594 23.1130967,31.7757594 C26.2771967,31.7757594 29.3708967,30.8304494 31.9958967,29.0609594 C33.2770967,28.1703394 34.4138967,27.0921594 35.3747967,25.8617594 C35.6677667,25.5023794 36.0154167,25.1703494 36.2849567,24.7719594 L36.2849567,24.7758654 C38.0466567,22.1508654 38.9880567,19.0610654 38.9880567,15.8969654 C38.9880567,12.7367654 38.0466467,9.64696536 36.2849567,7.02196536" id="Path"></path>
        </g>
    </g>
</svg>