<?xml version="1.0" encoding="UTF-8"?>
<svg width="150px" height="150px" viewBox="0 0 150 150" version="1.1" xmlns="http://www.w3.org/2000/svg" xmlns:xlink="http://www.w3.org/1999/xlink">
    <title>subscribers</title>
    <g id="subscribers" stroke="none" stroke-width="1" fill="none" fill-rule="evenodd">
        <g id="noun-people-2979001-95978E" transform="translate(6.465517, 24.568966)" fill="#95968E" fill-rule="nonzero">
            <path d="M79.7423233,62.9365854 C81.3990474,61.7899647 82.8791336,60.4009388 84.1267198,58.8198612 C82.8790819,60.4009388 81.3990474,61.7899905 79.7423233,62.9365854" id="Path"></path>
            <path d="M90.6987888,60.0271026 C85.8899957,67.7655509 77.4186164,72.4732233 68.3074095,72.4732233 C59.1899957,72.4732233 50.7237888,67.7655509 45.9108577,60.0271026 C42.9306422,63.0881371 35.8792198,72.3571026 39.2887457,89.2887405 C46.4109008,97.0271888 56.417194,101.472232 66.9340043,101.573223 C77.6829267,101.866189 88.2094353,98.4414561 96.7258146,91.8699043 C96.7258146,91.8699043 103.130685,73.266025 90.699694,60.0271026" id="Path"></path>
            <path d="M85.288444,34.4533957 C82.2425388,29.9376199 77.5348664,26.8160681 72.1905991,25.7755078 C66.8464612,24.7349604 61.3102974,25.8613776 56.7949095,28.9022319 C52.2791336,31.9481371 49.162625,36.6608526 48.1220646,42.0000768 C47.0815172,47.3442147 48.2079345,52.8854216 51.2487888,57.3957664 C54.2896508,61.9115423 59.0023664,65.0280509 64.3466336,66.0686112 C69.6907715,67.1091587 75.2269353,65.9827414 79.7423233,62.936844 C81.3990474,61.7902233 82.8791336,60.4011974 84.1267198,58.8201199 C84.5055603,58.3402621 84.9551077,57.910913 85.2834396,57.3956371 L85.2884918,57.3956371 C87.5715952,54.0062837 88.7939659,50.0108526 88.7939659,45.9243871 C88.7939659,41.8379216 87.5715823,37.8424905 85.2884918,34.4531371" id="Path"></path>
            <path d="M124.000082,9.08011986 C120.701634,4.18546469 115.453444,0.952706065 109.598789,0.200119858 C103.749565,-0.552505142 97.8548233,1.25076641 93.4246508,5.15024917 C88.9947371,9.04973193 86.4590905,14.6667147 86.4590905,20.5666285 C86.5247556,25.9915854 88.7068922,31.1740854 92.5406853,35.0080078 C96.3796508,38.8418009 101.562151,41.023913 106.987237,41.0896026 C113.174996,41.1502168 119.034306,38.3215854 122.843272,33.4420595 C123.222112,32.977344 123.656517,32.5479949 123.999991,32.0328354 L123.999991,32.0378862 C126.288138,28.6434897 127.510509,24.6480587 127.510509,20.55655 C127.510509,16.4650414 126.288125,12.4696104 123.999991,9.08025693" id="Path"></path>
            <path d="M129.418185,34.5684819 C124.599306,42.3271026 116.123789,47.0549474 106.990599,47.0802923 C101.85853,47.0802923 96.8376681,45.5598612 92.5699095,42.711025 C92.7163922,43.7768268 92.7921681,44.8476199 92.8022672,45.9236112 C92.7972164,49.3786543 92.0597414,52.7881802 90.6352845,55.9350768 C91.7465517,55.9401276 92.8073103,56.3997923 93.5649396,57.213025 C98.3433448,62.3551802 101.313474,68.9166457 102.040845,75.8970768 C103.21272,76.0637707 104.394681,76.169844 105.58175,76.2102535 C116.335716,76.503219 126.857181,73.0684 135.37356,66.4968483 C135.37356,66.4968483 141.763302,47.9240035 129.33231,34.5684819" id="Path"></path>
            <path d="M45.9095646,56.0714992 L46.0914138,56.0714992 C44.5709827,52.9044302 43.7678362,49.4393009 43.7426207,45.9236112 C43.7527237,44.9285293 43.8284918,43.9283526 43.9749784,42.9433957 C39.7723922,45.6406802 34.8829095,47.0752492 29.8866164,47.0802923 C20.8046336,47.0651384 12.3637715,42.3877492 7.52497843,34.6998612 C4.54476292,37.776025 -2.48648708,47.0449905 0.902866365,63.9821888 L0.907917227,63.9821888 C8.05024481,71.6952923 18.0622276,76.1252061 28.5777448,76.2110681 C30.6335207,76.2110681 32.6894258,76.1100457 34.7351155,75.8978914 C35.4119776,68.9625897 38.3163655,62.4263397 43.0139517,57.279788 C43.7716327,56.5069518 44.8070983,56.0725595 45.8931758,56.0725595" id="Path"></path>
            <path d="M46.9712026,9.08011986 C45.4912457,6.89800779 43.6070646,5.01395607 41.4249526,3.53386986 C37.2830129,0.730421582 32.2621508,-0.46673359 27.3016767,0.164688824 C22.3414612,0.80114141 17.7801681,3.2206802 14.4817198,6.97869744 C11.1782284,10.7316716 9.35986637,15.5656802 9.36489901,20.5666285 C9.43562542,25.9865423 11.6227974,31.1639992 15.4565905,34.997663 C19.2903836,38.8314561 24.4679698,41.0186112 29.887625,41.089344 C33.9791336,41.089344 37.9796077,39.8669604 41.3740043,37.5788268 C43.0307284,36.427163 44.5007284,35.0329647 45.7432715,33.4419302 C46.1221121,32.9772147 46.5716595,32.5478655 46.9202026,32.0327061 L46.9202026,32.0377569 C49.1982629,28.6433604 50.4155905,24.6479293 50.4155905,20.5564207 C50.4155905,16.4699552 49.19825,12.4745242 46.9202026,9.08012762" id="Path"></path>
        </g>
    </g>
</svg>