<?xml version="1.0" encoding="UTF-8"?>
<svg width="95px" height="95px" viewBox="0 0 95 95" version="1.1" xmlns="http://www.w3.org/2000/svg" xmlns:xlink="http://www.w3.org/1999/xlink">
    <title>tag</title>
    <g id="tag" stroke="none" stroke-width="1" fill="none" fill-rule="evenodd">
        <g id="noun-tag-1014275-95978E" transform="translate(11.000000, 11.000000)" fill="#95968E" fill-rule="nonzero">
            <path d="M69.5597091,2.43515364 C68.0004624,0.87710288 65.9532321,0 63.7096201,0 L40.7973998,0 C38.1639952,0.098123173 35.7269722,1.1685571 33.8731529,3.02095454 L3.54824505,33.3195575 C-1.03419901,37.9966022 -1.2276099,45.3050317 3.25663567,49.7860737 L22.2709295,68.7857829 C24.4163507,70.9295585 27.3413571,72 30.1680965,72 C33.19137,72 36.3097873,70.8314429 38.6518187,68.4914362 L68.9767265,38.1897886 C70.8305459,36.3373912 71.9017329,33.9022375 72,31.1757058 L71.9970246,8.28105994 C71.9970246,6.03916884 71.1192484,3.99350886 69.5600017,2.43545811 L69.5597091,2.43515364 Z M56.0746904,25.8908373 C54.7394924,27.2922256 52.935467,27.9603554 51.1313893,27.9603554 C49.3273639,27.9603554 47.5253215,27.2922777 46.1880883,25.8908373 C43.4504262,23.2204559 43.4504262,18.7496229 46.1880883,16.0120271 C48.8605195,13.2764649 53.3347844,13.2764649 56.0744817,16.0120271 C58.8121437,18.6824084 58.8121437,23.1532414 56.0744817,25.8908373 L56.0746904,25.8908373 Z" id="Shape"></path>
        </g>
    </g>
</svg>