<?xml version="1.0" encoding="UTF-8"?>
<svg width="150px" height="150px" viewBox="0 0 150 150" version="1.1" xmlns="http://www.w3.org/2000/svg" xmlns:xlink="http://www.w3.org/1999/xlink">
    <title>tag</title>
    <g id="tag" stroke="none" stroke-width="1" fill="none" fill-rule="evenodd">
        <g id="noun-tag-1014275-95978E" transform="translate(17.368421, 17.368421)" fill="#95968E" fill-rule="nonzero">
            <path d="M109.83112,3.84497943 C107.369151,1.38489928 104.136682,0 100.594137,0 L64.4169471,0 C60.2589397,0.154931326 56.4110088,1.84509015 53.4839256,4.76992821 L5.60249218,52.6098276 C-1.6329458,59.994635 -1.93833141,71.5342606 5.14205631,78.60959 L35.1646256,108.609131 C38.5521326,111.99404 43.1705638,113.684211 47.6338365,113.684211 C52.4074262,113.684211 57.3312431,111.83912 61.0291874,108.144373 L108.910621,60.2996662 C111.837704,57.3748282 113.529052,53.5298487 113.684211,49.2247986 L113.679512,13.0753578 C113.679512,9.53552974 112.29355,6.30554031 109.831582,3.84546017 L109.83112,3.84497943 Z M88.5389848,40.8802693 C86.4307775,43.0929878 83.5823163,44.1479296 80.7337727,44.1479296 C77.8853114,44.1479296 75.0399813,43.0930701 72.9285605,40.8802693 C68.6059361,36.6638777 68.6059361,29.6046678 72.9285605,25.282148 C77.1481887,20.9628393 84.2128174,20.9628393 88.5386552,25.282148 C92.8612796,29.4985396 92.8612796,36.5577496 88.5386552,40.8802693 L88.5389848,40.8802693 Z" id="Shape"></path>
        </g>
    </g>
</svg>