<?xml version="1.0" encoding="UTF-8"?>
<svg width="138px" height="138px" viewBox="0 0 138 138" version="1.1" xmlns="http://www.w3.org/2000/svg" xmlns:xlink="http://www.w3.org/1999/xlink">
    <title>thumbs-up</title>
    <g id="thumbs-up" stroke="none" stroke-width="1" fill="none" fill-rule="evenodd">
        <g id="noun-thumbs-up-2003592-95978E" transform="translate(9.000000, 17.000000)" fill="#FFC021">
            <path d="M44.2378759,37.228447 L44.2378759,99.0646421 C48.1227244,101.8037 50.6396515,104 56.2211946,104 L101.960312,104 C111.047103,104 117.167331,97.1094954 114.783073,90.0410508 C119.262035,85.5944186 120.391531,80.4176634 117.647884,75.0794622 C121.790668,69.4966138 122.353465,63.5141722 117.866749,57.931405 C124.58119,47.59382 118.445174,35.6255242 103.504176,35.6255242 L85.2325418,35.6255242 C85.2520831,28.3287638 84.7752707,16.4079999 81.6720644,9.67877885 C75.3249177,-4.0859801 55.4552407,-2.46095691 56.0765683,10.0786889 C55.5098595,19.9523298 52.6177445,29.7601573 44.2378759,37.2279514 M0,35.8600069 L0,103.999667 L36.9604887,103.999667 L36.9604887,35.8600069 L0,35.8600069 Z" id="Shape"></path>
        </g>
    </g>
</svg>