<?xml version="1.0" encoding="UTF-8"?>
<svg width="150px" height="150px" viewBox="0 0 150 150" version="1.1" xmlns="http://www.w3.org/2000/svg" xmlns:xlink="http://www.w3.org/1999/xlink">
    <title>thumbs-up</title>
    <g id="thumbs-up" stroke="none" stroke-width="1" fill="none" fill-rule="evenodd">
        <g id="noun-thumbs-up-2003592-95978E" transform="translate(9.782609, 18.478261)" fill="#FFC021">
            <path d="M48.0846478,40.4657033 L48.0846478,107.678959 C52.3073091,110.656196 55.0430995,113.043478 61.1099941,113.043478 L110.826426,113.043478 C120.703373,113.043478 127.355794,105.553799 124.76421,97.8707074 C129.632647,93.0374115 130.860359,87.4105037 127.878135,81.6081111 C132.381161,75.5397976 132.992897,69.0371437 128.116032,62.9689185 C135.414337,51.732413 128.744755,38.7233958 112.504539,38.7233958 L92.6440672,38.7233958 C92.6653077,30.7921345 92.1470333,17.8347825 88.773983,10.5204118 C81.8749105,-4.44128272 60.2774355,-2.67495316 60.9527916,10.9550967 C60.3368038,21.6873151 57.1932006,32.3479971 48.0846478,40.4651646 M0,38.9782683 L0,113.043116 L40.1744442,113.043116 L40.1744442,38.9782683 L0,38.9782683 Z" id="Shape"></path>
        </g>
    </g>
</svg>