<?xml version="1.0" encoding="UTF-8"?>
<svg width="119px" height="119px" viewBox="0 0 119 119" version="1.1" xmlns="http://www.w3.org/2000/svg" xmlns:xlink="http://www.w3.org/1999/xlink">
    <title>train</title>
    <g id="train" stroke="none" stroke-width="1" fill="none" fill-rule="evenodd">
        <g id="noun-thumbs-up-2003592-95978E-(1)" transform="translate(14.000000, 19.000000)" fill="#95968E">
            <path d="M32.9042052,28.9952328 L32.9042052,77.1561155 C35.7937619,79.2894201 37.6658565,81 41.8174174,81 L75.8382487,81 C82.5970191,81 87.1492541,75.633357 85.3758397,70.1281261 C88.7072988,66.6648837 89.5474194,62.6329879 87.5066905,58.4753504 C90.5881004,54.1271704 91.0067096,49.4677687 87.6694829,45.119652 C92.6636948,37.0682636 88.0997164,27.7468025 76.9865773,27.7468025 L63.3961055,27.7468025 C63.4106403,22.0637487 63.0559865,12.7793076 60.7478165,7.53827968 C56.0267983,-3.18234989 41.2476997,-1.91670682 41.7098442,7.84974811 C41.2883252,15.5397954 39.1371653,23.1785841 32.9042052,28.9948468 M0,27.9294284 L0,80.9997405 L27.4912726,80.9997405 L27.4912726,27.9294284 L0,27.9294284 Z" id="Shape"></path>
        </g>
    </g>
</svg>