<?xml version="1.0" encoding="UTF-8"?>
<svg width="150px" height="150px" viewBox="0 0 150 150" version="1.1" xmlns="http://www.w3.org/2000/svg" xmlns:xlink="http://www.w3.org/1999/xlink">
    <title>train</title>
    <g id="train" stroke="none" stroke-width="1" fill="none" fill-rule="evenodd">
        <g id="noun-thumbs-up-2003592-95978E-(1)" transform="translate(17.647059, 23.949580)" fill="#95968E">
            <path d="M41.475889,36.5486128 L41.475889,97.2556077 C45.1181873,99.9446472 47.4779704,102.10084 52.7110304,102.10084 L95.5944311,102.10084 C104.11389,102.10084 109.852001,95.3361643 107.616605,88.3967976 C111.815923,84.031366 112.874898,78.9491444 110.302551,73.7084249 C114.186681,68.2275257 114.71434,62.3543303 110.507752,56.8735109 C116.802977,46.7247021 111.050063,34.9749611 97.0419042,34.9749611 L79.9110573,34.9749611 C79.9293786,27.8114479 79.4823359,16.1083709 76.5728779,9.50203321 C70.6220146,-4.0113654 51.9928988,-2.41601701 52.5754339,9.89464047 C52.0441074,19.5879773 49.3325614,29.2167026 41.475889,36.5481262 M0,35.2051619 L0,102.100513 L34.6528646,102.100513 L34.6528646,35.2051619 L0,35.2051619 Z" id="Shape"></path>
        </g>
    </g>
</svg>