<?xml version="1.0" encoding="UTF-8"?>
<svg width="150px" height="150px" viewBox="0 0 150 150" version="1.1" xmlns="http://www.w3.org/2000/svg" xmlns:xlink="http://www.w3.org/1999/xlink">
    <title>up</title>
    <g id="up" stroke="none" stroke-width="1" fill="none" fill-rule="evenodd">
        <g id="noun-arrow-down-2617461-95978E" transform="translate(75.551207, 74.444841) rotate(-180.000000) translate(-75.551207, -74.444841) translate(8.888889, 38.888889)" fill="#95968E" fill-rule="nonzero">
            <path d="M133.324636,4.44526512 C133.319563,5.62582067 132.855147,6.75426512 132.034792,7.60059845 L69.8125696,69.8228207 C68.0591251,71.5415985 65.2552363,71.5415985 63.5017918,69.8228207 L1.27956959,7.60059845 C0.0209029271,6.32026512 -0.347985962,4.41048734 0.346414038,2.75682067 C1.01481404,1.08582067 2.6380807,-0.00795710381 4.43496959,-3.94745964e-15 C32.8816363,0.0875151184 70.0771918,0.222065118 96.3449696,0.222065118 C113.589414,0.222065118 126.080525,0.178661785 128.168303,0.0441095629 C129.578858,-0.151201548 131.002525,0.308865118 132.035525,1.28977623 C132.855836,2.13613179 133.320192,3.26455401 133.324636,4.44510956 L133.324636,4.44526512 Z" id="Path"></path>
        </g>
    </g>
</svg>