<?xml version="1.0" encoding="UTF-8"?>
<svg width="135px" height="135px" viewBox="0 0 135 135" version="1.1" xmlns="http://www.w3.org/2000/svg" xmlns:xlink="http://www.w3.org/1999/xlink">
    <title>up</title>
    <g id="up" stroke="none" stroke-width="1" fill="none" fill-rule="evenodd">
        <g id="noun-arrow-down-2617461-95978E" transform="translate(67.996086, 67.000357) rotate(-180.000000) translate(-67.996086, -67.000357) translate(8.000000, 35.000000)" fill="#95968E" fill-rule="nonzero">
            <path d="M119.992173,4.00073861 C119.987607,5.06323861 119.569633,6.07883861 118.831313,6.84053861 L62.8313126,62.8405386 C61.2532126,64.3874386 58.7297126,64.3874386 57.1516126,62.8405386 L1.15161263,6.84053861 C0.0188126344,5.68823861 -0.313187366,3.96943861 0.311772634,2.48113861 C0.913332634,0.977238607 2.37427263,-0.00716139343 3.99147263,-3.55271368e-15 C29.5934726,0.0787636066 63.0694726,0.199858607 86.7104726,0.199858607 C102.230473,0.199858607 113.472473,0.160795607 115.351473,0.0396986066 C116.620973,-0.136081393 117.902273,0.277978607 118.831973,1.16079861 C119.570253,1.92251861 119.988173,2.93809861 119.992173,4.00059861 L119.992173,4.00073861 Z" id="Path"></path>
        </g>
    </g>
</svg>