<?xml version="1.0" encoding="UTF-8"?>
<svg width="128pt" height="128pt" version="1.1" viewBox="0 0 128 128" xmlns="http://www.w3.org/2000/svg">
 <path d="m64 6.8516c-31.508 0-57.145 25.637-57.145 57.148s25.637 57.148 57.148 57.148c31.508 0 57.145-25.637 57.145-57.148s-25.637-57.148-57.148-57.148zm-49.719 36.18h1.9766v2.582h-2.582v-1.082c0.19141-0.50391 0.39062-1.0078 0.60547-1.5zm3.2617-6.4531h1.9375v2.582h-2.582v-1.4648c0.21094-0.37891 0.42578-0.75 0.64453-1.1172zm19.586-19.363h1.7109v2.5781h-2.582l0.003907-2.0625c0.28516-0.17188 0.57812-0.34375 0.86719-0.51562zm24.945 9.0391v-2.582h2.582v2.582zm2.582 0.64062v2.582h-2.582v-2.582zm-2.582-3.8711v-2.582h2.582v2.582zm0-3.2266v-2.5781h2.582v2.5781zm0-3.2266v-2.582h2.582v2.582zm0-3.2266v-2.582h2.582v2.582zm-3.2266 16.133v-2.582h2.582v2.582zm2.582 0.64453v2.582h-2.582v-2.582zm-2.582-3.8672v-2.582h2.582v2.582zm0-3.2305v-2.582h2.582v2.582zm0-3.2266v-2.5781h2.582v2.5781zm0-3.2266v-2.582h2.582v2.582zm0-3.2266v-2.582h2.582v2.582zm2.2344-3.2266c0.11719-0.007813 0.23047-0.011719 0.34766-0.015626v0.015626zm-5.4609 80.668v-2.582h2.582v2.582zm2.582 0.64453v2.582h-2.582v-2.582zm-2.582-3.8711v-2.582h2.582v2.582zm0-54.855v-2.582h2.582v2.582zm0-3.2266v-2.582h2.582v2.582zm0-3.2227v-2.582h2.582v2.582zm0-3.2305v-2.582h2.582v2.582zm0-3.2266v-2.5781h2.582v2.5781zm0-3.2266v-2.582h2.582v2.582zm0-3.2266v-2.582h2.582v2.582zm-3.2266 81.309h2.582v2.5859h-2.582zm0-0.64062v-2.582h2.582v2.582zm0-3.2266v-2.582h2.582v2.582zm0-3.2266v-2.582h2.582v2.582zm0-3.2266v-2.582h2.582v2.582zm0-48.402v-2.582h2.582v2.582zm0-3.2266v-2.582h2.582v2.582zm0-3.2266v-2.582h2.582v2.582zm0-3.2227v-2.582h2.582v2.582zm0-3.2305v-2.582h2.582v2.582zm0-3.2266v-2.5781h2.582v2.5781zm0-3.2266v-2.582h2.582v2.582zm0-3.2266v-2.0469c0.85156-0.1875 1.7109-0.35547 2.582-0.5v2.5469zm-3.2266 90.348v-2.5781h2.582v2.5781zm2.582 0.64844v2.582h-2.582v-2.582zm-2.582-3.875v-2.582h2.582v2.582zm0-3.2266v-2.5859h2.582v2.5859zm0-3.2266v-2.582h2.582v2.582zm0-3.2266v-2.582h2.582v2.582zm0-3.2266v-2.582h2.582v2.582zm0-3.2266v-2.582h2.582v2.582zm0-67.762v-2.582h2.582v2.582zm0-3.2266v-1.2305c0.85156-0.24609 1.7109-0.46875 2.582-0.67188v1.9023zm-3.2266 96.801v-2.582h2.582v2.582zm2.582 0.64453v2.582h-2.582v-2.582zm-2.582-3.8711v-2.582h2.582v2.582zm0-3.2266v-2.5781h2.582v2.5781zm0-3.2266v-2.582h2.582v2.582zm0-3.2266v-2.5859h2.582v2.5859zm0-3.2266v-2.582h2.582v2.582zm0-3.2266v-2.582h2.582v2.582zm0-3.2266v-2.582h2.582v2.582zm0-3.2266v-2.582h2.582v2.582zm0-3.2266v-2.582h2.582v2.582zm0-32.266v-2.582h2.582v2.582zm0-3.2305v-2.582h2.582v2.582zm0-12.906v-2.582h2.582v2.582zm0-3.2266v-2.582h2.582v2.582zm0-3.2227v-2.582h2.582v2.582zm0-3.2305v-2.582h2.582v2.582zm0-6.4531v-2.582h2.582v2.582zm0-3.2266v-0.19531c0.85156-0.30469 1.7109-0.58594 2.582-0.84766v1.0391h-2.582zm-3.2266 93.574v-2.582h2.582v2.582zm2.5781 0.64844v2.582h-2.582v-2.582zm-2.5781-3.875v-2.5781h2.582v2.5781zm0-3.2266v-2.582h2.582v2.582zm0-3.2266v-2.5859h2.582v2.5859zm0-3.2266v-2.582h2.582v2.582zm0-3.2266v-2.582h2.582v2.582zm0-3.2266v-2.582h2.582v2.582zm0-3.2266v-2.582h2.582v2.582zm0-3.2266v-2.582h2.582v2.582zm0-29.039v-2.582h2.582v2.582zm0-3.2266v-2.582h2.582v2.582zm0-3.2305v-2.582h2.582v2.582zm0-3.2266v-2.582h2.582v2.582zm0-3.2266v-2.582h2.582v2.582zm0-3.2266v-2.582h2.582v2.582zm0-3.2266v-2.582h2.582v2.582zm0-3.2266v-2.582h2.582v2.582zm0-3.2227v-2.582h2.582v2.582zm0-3.2305v-2.582h2.582v2.582zm-3.2266 77.441v-2.582h2.582v2.582zm2.582 0.64453v2.5781h-2.582v-2.5781zm-2.582-3.8711v-2.5859h2.582v2.5859zm0-3.2266v-2.582h2.582v2.582zm0-3.2266v-2.582h2.582v2.582zm0-3.2266v-2.582h2.582v2.582zm0-3.2266v-2.582h2.582v2.582zm0-3.2266v-2.582h2.582v2.582zm0-3.2266v-2.582h2.582v2.582zm0-25.812v-2.582h2.582v2.582zm0-3.2266v-2.582h2.582v2.582zm0-3.2305v-2.582h2.582v2.582zm0-3.2266v-2.582h2.582v2.582zm0-3.2266v-2.582h2.582v2.582zm0-3.2266v-2.582h2.582v2.582zm0-3.2266v-2.582h2.582v2.582zm0-3.2266v-2.582h2.582v2.582zm0-3.2227v-2.582h2.582v2.582zm0-3.2305v-2.582h2.582v2.582zm-3.2266 67.762v-2.582h2.582v2.582zm2.582 0.64453v2.582h-2.582v-2.582zm-2.582-3.8711v-2.582h2.582v2.582zm0-3.2266v-2.582h2.582v2.582zm0-3.2266v-2.582h2.582v2.582zm0-3.2266v-2.582h2.582v2.582zm0-6.4531v-2.582h2.582v2.582zm0-19.359v-2.582h2.582v2.582zm0-3.2266v-2.582h2.582v2.582zm0-3.2305v-2.582h2.582v2.582zm0-3.2266v-2.582h2.582v2.582zm0-3.2266v-2.582h2.582v2.582zm0-3.2266v-2.582h2.582v2.582zm0-3.2266v-2.582h2.582v2.582zm0-3.2266v-2.582h2.582v2.582zm0-3.2227v-2.582h2.582v2.582zm0-3.2305v-2.582h2.582v2.582zm-3.2266 64.535v-2.582h2.582v2.582zm2.582 0.64844v2.582h-2.582v-2.582zm-2.582-3.875v-2.582h2.582v2.582zm0-3.2266v-2.582h2.582v2.582zm0-3.2266v-2.582h2.582v2.582zm0-6.4531v-2.582h2.582v2.582zm0-16.137v-2.5781h2.582v2.5781zm0-3.2227v-2.582h2.582v2.582zm0-3.2266v-2.582h2.582v2.582zm0-3.2305v-2.582h2.582v2.582zm0-3.2266v-2.582h2.582v2.582zm0-3.2266v-2.582h2.582v2.582zm0-3.2266v-2.582h2.582v2.582zm0-3.2266v-2.582h2.582v2.582zm0-3.2266v-2.582h2.582v2.582zm0-3.2227v-2.582h2.582v2.582zm0-3.2305v-2.582h2.582v2.582zm0.050782-3.2266c0.82422-0.57812 1.6719-1.1328 2.5312-1.668v1.668zm-0.69922 0.64453v2.582h-2.582l0.003906-0.73828c0.77344-0.63672 1.5664-1.25 2.3789-1.8438l0.19922 0.003906zm-2.5781 63.891v-2.582h2.582v2.582zm2.5781 0.64453v2.582h-2.582v-2.582zm-2.5781-3.8711v-2.582h2.582v2.582zm0-3.2266v-2.582h2.582l-0.003906 2.582zm0-6.4531v-2.582h2.582v2.582zm0-12.91v-2.582h2.582v2.582zm0-3.2266v-2.5781h2.582v2.5781zm0-3.2227v-2.582h2.582v2.582zm0-3.2266v-2.582h2.582v2.582zm0-3.2305v-2.582h2.582v2.582zm0-3.2266v-2.582h2.582v2.582zm0-3.2266v-2.582h2.582v2.582zm0-3.2266v-2.582h2.582v2.582zm0-3.2266v-2.582h2.582v2.582zm0-3.2266v-2.582h2.582v2.582zm0-3.2227v-2.582h2.582v2.582zm-0.64844-2.5859v2.582h-2.582v-1.0938c0.52734-0.50781 1.0664-1 1.6133-1.4883zm-0.23047-0.64453c0.078124-0.066407 0.15625-0.13281 0.23047-0.19531v0.19531zm-2.3516 41.949v-2.582h2.582v2.582zm2.582 7.0977v2.582h-2.582v-2.582zm-2.582-10.324v-2.582h2.582v2.582zm0-3.2305v-2.582h2.582v2.582zm0-3.2266v-2.5781h2.582v2.5781zm0-3.2227v-2.582h2.582v2.582zm0-3.2266v-2.582h2.582v2.582zm0-3.2305v-2.582h2.582v2.582zm0-3.2266v-2.582h2.582v2.582zm0-3.2266v-2.582h2.582v2.582zm0-3.2266v-2.582h2.582v2.582zm0-3.2266v-2.582h2.582v2.582zm0-3.2266v-2.582h2.582v2.582zm0 45.82h2.582v2.582h-2.582zm-0.64453-38.719v2.582h-2.582v-2.582zm-2.5781-0.64844v-2.582h2.582v2.582zm2.5781 3.8711v2.582h-2.582v-2.582zm0 3.2305v2.582h-2.582v-2.582zm0 3.2266v2.582h-2.582v-2.582zm0 3.2266v2.582h-2.582v-2.582zm0 3.2266v2.5781h-2.582v-2.5781zm0 3.2266v2.582h-2.582v-2.582zm0 3.2266v2.582h-2.582v-2.582zm0 9.6797v2.582h-2.582v-2.582zm0 3.2266v2.582h-2.582l0.003907-2.582zm0-39.367h-2.582v-2.582h2.582zm-3.2266-2.582v2.582h-2.582v-0.085937c0.60938-0.85156 1.2461-1.6836 1.9023-2.4961zm-0.14844-0.64453c0.046875-0.058593 0.097656-0.11719 0.14844-0.17578v0.17578zm-2.4297 41.949v-2.582h2.582v2.582zm2.5781 0.64453v2.582h-2.582l0.003906-2.582zm-2.5781-10.324v-2.582h2.582v2.582zm0-3.2305v-2.582h2.582v2.582zm0-3.2266v-2.5781h2.582v2.5781zm0-3.2227v-2.582h2.582v2.582zm0-3.2266v-2.582h2.582v2.582zm0-3.2305v-2.582h2.582v2.582zm0-3.2266v-2.582h2.582v2.582zm0-3.2266v-2.582h2.582v2.582zm0-3.2266v-2.582h2.582v2.582zm-2.1992 0c0.49609-0.8125 1.0156-1.6055 1.5508-2.3906v2.3906zm-1.0312 32.27v-2.582h2.582v2.582zm2.582 0.64453v2.582h-2.582v-2.582zm-2.582-3.8711v-2.582h2.582v2.582zm0-3.2266v-2.582h2.582v2.582zm0-3.2305v-2.582h2.582v2.582zm0-3.2266v-2.5781h2.582v2.5781zm0-3.2227v-2.582h2.582v2.582zm0-3.2266v-2.582h2.582v2.582zm0-3.2305v-2.582h2.582v2.582zm0-3.2266v-2.582h2.582v2.582zm-0.64453-2.582v2.582h-1.6953c0.38281-0.87109 0.78906-1.7344 1.2148-2.582zm-0.14453-0.64453c0.046875-0.089844 0.097656-0.1875 0.14844-0.27734v0.27734zm-2.4375 25.816v-2.582h2.582v2.582zm2.582 0.64453v2.582h-2.582v-2.582zm-2.582-3.8711v-2.582h2.582v2.582zm0-3.2305v-2.582h2.582v2.582zm0-3.2266v-2.5781h2.582v2.5781zm0-3.2227v-2.582h2.582v2.582zm0-3.2266v-2.582h2.582v2.582zm-0.64453 0.64453v2.582h-1.6562c0.19531-0.87109 0.41406-1.7305 0.65234-2.582zm-0.81641-0.64453c0.25391-0.85938 0.52734-1.7109 0.81641-2.5508v2.5508zm0.81641 3.8711v2.5781h-2.2812c0.14062-0.86328 0.30469-1.7266 0.48438-2.5781zm-2.5781 9.6797h2.5781v2.582h-2.5781zm0-0.64453v-2.582h2.5781v2.582zm0-3.2305v-1.1562c0.054687-0.47656 0.12109-0.95312 0.19531-1.4258h2.3867v2.582zm101.45-19.359h-1.4219v-2.5547c0.49609 0.84375 0.97266 1.6914 1.4219 2.5547zm5.3633 16.133h-0.32812v-1.8242c0.12109 0.60156 0.22656 1.2148 0.32812 1.8242zm-0.32812 3.2266v-2.582h0.43359c0.12891 0.85547 0.23828 1.7148 0.32812 2.582zm0.81641 0.64844c0.078125 0.85547 0.13281 1.7148 0.16797 2.582h-0.98437v-2.582zm-4.043 5.8086v-2.582h2.582v2.582zm2.582 0.64453v2.582h-2.582v-2.582zm-2.582-3.8711v-2.582h2.582v2.582zm0-3.2305v-2.582h2.582v2.582zm0-3.2266v-2.5781h2.582v2.5781zm0-3.2227v-2.582h2.2773c0.10547 0.375 0.20703 0.75 0.30469 1.1289v1.4531zm0-3.2266v-2.582h1.2617c0.29688 0.85156 0.57422 1.7109 0.82812 2.582zm0-3.2305v-2.582h0.023437c0.35938 0.84766 0.69531 1.7109 1.0117 2.582zm-3.2266 16.137v-2.582h2.582v2.582zm2.582 0.64453v2.582h-2.582v-2.582zm-2.582-3.875v-2.582h2.582v2.582zm0-3.2266v-2.5781h2.582v2.5781zm0-3.2227v-2.582h2.582v2.582zm0-3.2266v-2.582h2.582v2.582zm0-3.2305v-2.582h2.582v2.582zm0-3.2266v-2.582h1.75c0.28516 0.57031 0.5625 1.1484 0.83203 1.7266v0.85547zm-3.2266 22.59v-2.582h2.582v2.582zm2.582 0.64453v2.582h-2.582v-2.582zm-2.582-3.8711v-2.582h2.582v2.582zm0-3.2305v-2.582h2.582v2.582zm0-3.2266v-2.5781h2.582v2.5781zm0-3.2227v-2.582h2.582v2.582zm0-3.2266v-2.582h2.582v2.582zm0-3.2305v-2.582h2.582v2.582zm0-3.2266v-2.582h2.582v2.582zm0-3.2266v-2.582h2.582v2.582zm0-3.2266v-2.582h1.1406c0.49609 0.71875 0.97656 1.4492 1.4414 2.1953v0.39062zm0-3.2266v-0.94141c0.23438 0.30859 0.46094 0.625 0.6875 0.94141zm-0.64844-1.7852v1.7891h-2.5781v-2.582h1.9453c0.21484 0.26172 0.42578 0.52734 0.63281 0.79297zm-2.5781 37.281v-2.582h2.5781v2.582zm2.5781 0.64453v2.582h-2.5781v-2.582zm-2.5781-3.8711v-2.582h2.5781v2.582zm0-3.2266v-2.582h2.5781v2.582zm0-3.2305v-2.582h2.5781v2.582zm0-3.2266v-2.5781h2.5781v2.5781zm0-3.2227v-2.582h2.5781v2.582zm0-3.2266v-2.582h2.5781v2.582zm0-3.2305v-2.582h2.5781v2.582zm0-3.2266v-2.582h2.5781v2.582zm0-3.2266v-2.582h2.5781v2.582zm0-3.2266v-2.582h2.5781v2.582zm-0.64844-8.7891v2.3359h-2.582v-2.582h2.3516c0.078125 0.082031 0.15625 0.16797 0.23047 0.24609zm-2.5781 50.738v-2.582h2.582l-0.003906 2.582zm2.5781 10.328v2.582h-2.582v-2.582zm-2.5781-13.555v-2.582h2.582v2.582zm0-3.2266v-2.582h2.582v2.582zm0-3.2266v-2.582h2.582v2.582zm0-3.2266v-2.582h2.582v2.582zm0-3.2266v-2.582h2.582v2.582zm0-3.2305v-2.582h2.582v2.582zm0-3.2266v-2.5781h2.582v2.5781zm0-3.2227v-2.582h2.582v2.582zm0-3.2266v-2.582h2.582v2.582zm0-3.2305v-2.582h2.582v2.582zm0-3.2266v-2.582h2.582v2.582zm0-3.2266v-2.582h2.582v2.582zm0-3.2266v-2.582h2.582v2.582zm0-3.2266v-2.582h2.582v2.582zm-0.64844-8.7344v2.2812h-2.582v-2.582h2.2422c0.11328 0.10156 0.23047 0.19922 0.33984 0.30078zm-2.582 70.043v-2.582h2.582v2.582zm2.582 0.64062v2.5859h-2.582v-2.5859zm-2.582-13.547v-2.582h2.582v2.582zm0-3.2266v-2.582h2.582v2.582zm0-3.2266v-2.582h2.582v2.582zm0-3.2266v-2.582h2.582v2.582zm0-3.2266v-2.582h2.582v2.582zm0-3.2266v-2.582h2.582v2.582zm0-3.2266v-2.582h2.582v2.582zm0-3.2305v-2.582h2.582v2.582zm0-3.2266v-2.5781h2.582v2.5781zm0-3.2227v-2.582h2.582v2.582zm0-3.2266v-2.582h2.582v2.582zm0-3.2305v-2.582h2.582v2.582zm0-3.2266v-2.582h2.582v2.582zm0-3.2266v-2.582h2.582v2.582zm0-3.2266v-2.582h2.582v2.582zm0-3.2266v-2.582h2.582v2.582zm0-3.2266v-2.582h2.582v2.582zm-3.2227 58.082v-2.582h2.582v2.582zm2.5781 0.64844v2.582l-2.5781-0.003906v-2.582zm-2.5781-3.875v-2.582h2.582v2.582zm0-3.2266v-2.582h2.582v2.582zm0-3.2266v-2.582h2.582l-0.003906 2.582zm0-3.2266v-2.582h2.582v2.582zm0-3.2266v-2.582h2.582v2.582zm0-3.2266v-2.582h2.582v2.582zm0-3.2266v-2.582h2.582v2.582zm0-3.2266v-2.582h2.582v2.582zm0-3.2305v-2.582h2.582v2.582zm0-3.2266v-2.5781h2.582v2.5781zm0-3.2227v-2.582h2.582v2.582zm0-3.2266v-2.582h2.582v2.582zm0-3.2305v-2.582h2.582v2.582zm0-3.2266v-2.582h2.582v2.582zm0-3.2266v-2.582h2.582v2.582zm0-3.2266v-2.582h2.582v2.582zm0-3.2266v-2.582h2.582v2.582zm0-3.2266v-2.582h2.582v2.582zm-3.2266 64.535v-2.582h2.582v2.582zm2.5781 0.64062v2.5859h-2.582v-2.5859zm-2.5781-3.8672v-2.582h2.582v2.582zm0-3.2266v-2.582h2.582v2.582zm0-3.2266v-2.582h2.582v2.582zm0-3.2266v-2.582h2.582v2.582zm0-3.2266v-2.582h2.582l-0.003907 2.582zm0-3.2266v-2.582h2.582v2.582zm0-3.2266v-2.582h2.582v2.582zm0-3.2266v-2.582h2.582v2.582zm0-3.2266v-2.582h2.582v2.582zm0-3.2266v-2.582h2.582v2.582zm0-3.2305v-2.582h2.582v2.582zm0-3.2266v-2.5781h2.582v2.5781zm0-3.2227v-2.582h2.582v2.582zm0-3.2266v-2.582h2.582v2.582zm0-3.2305v-2.582h2.582v2.582zm0-3.2266v-2.582h2.582v2.582zm0-3.2266v-2.582h2.582v2.582zm0-3.2266v-2.582h2.582v2.582zm0-3.2266v-2.582h2.582v2.582zm-3.2305 64.535v-2.5859h2.5859v2.5859zm2.582 0.64844v2.582h-2.5859v-2.582zm-2.582-3.875v-2.582h2.5859v2.582zm0-3.2266v-2.582h2.5859v2.582zm0-3.2266v-2.582h2.5859v2.582zm0-3.2266v-2.582h2.5859v2.582zm0-3.2266v-2.582h2.5859v2.582zm0-3.2266v-2.582h2.5859v2.582zm0-3.2266v-2.582h2.5859v2.582zm0-3.2266v-2.582h2.5859v2.582zm0-3.2266v-2.582h2.5859v2.582zm0-3.2266v-2.582h2.5859v2.582zm0-3.2266v-2.582h2.5859v2.582zm0-6.457v-2.5781h2.5859v2.5781zm0-3.2227v-2.582h2.5859v2.582zm0-3.2266v-2.582h2.5859v2.582zm0-3.2305v-2.582h2.5859v2.582zm0-3.2266v-2.582h2.5859v2.582zm0-3.2266v-2.582h2.5859v2.582zm0-3.2266v-2.582h2.5859v2.582zm0-3.2266v-2.582h2.5859v2.582zm0-3.2266v-2.582h2.5859v2.582zm-3.2266 70.988v-2.582h2.582v2.582zm2.582 0.64453v2.5781h-2.582v-2.5781zm-2.582-3.8711v-2.5859h2.582v2.5859zm0-3.2266v-2.582h2.582v2.582zm0-3.2266v-2.582h2.582v2.582zm0-3.2266v-2.582h2.582v2.582zm0-3.2266v-2.582h2.582v2.582zm0-3.2266v-2.582h2.582v2.582zm0-3.2266v-2.582h2.582v2.582zm0-3.2266v-2.582h2.582v2.582zm0-3.2266v-2.582h2.582v2.582zm0-3.2266v-2.582h2.582v2.582zm0-3.2266v-2.582h2.582v2.582zm0-3.2266v-2.582h2.582v2.582zm0-6.457v-2.5781h2.582v2.5781zm0-3.2227v-2.582h2.582v2.582zm0-3.2266v-2.582h2.582v2.582zm0-3.2305v-2.582h2.582v2.582zm0-3.2266v-2.582h2.582v2.582zm0-3.2266v-2.582h2.582v2.582zm0-3.2266v-2.582h2.582v2.582zm0-3.2266v-2.582h2.582v2.582zm0-3.2266v-2.582h2.582v2.582zm-3.2266 64.535v-2.582h2.582v2.582zm2.582 0.64062v2.5859h-2.582v-2.5859zm-2.582-3.8672v-2.582h2.582v2.582zm0-3.2266v-2.582h2.582v2.582zm0-3.2266v-2.582h2.582v2.582zm0-3.2266v-2.582h2.582v2.582zm0-3.2266v-2.582h2.582v2.582zm0-3.2266v-2.582h2.582v2.582zm0-3.2266v-2.582h2.582v2.582zm0-3.2266v-2.582h2.582v2.582zm0-3.2266v-2.582h2.582v2.582zm0-3.2266v-2.582h2.582v2.582zm0-6.457v-2.5781h2.582v2.5781zm0-3.2227v-2.582h2.582v2.582zm0-3.2266v-2.582h2.582v2.582zm0-3.2305v-2.582h2.582v2.582zm0-6.4531v-2.582h2.582v2.582zm0-3.2266v-2.582h2.582v2.582zm0-3.2266v-2.582h2.582v2.582zm0-3.2266v-2.582h2.582v2.582zm-3.2266 51.629v-2.582h2.582v2.582zm2.582 0.64453v2.582h-2.582v-2.582zm-2.582-3.8711v-2.582h2.582v2.582zm0-3.2266v-2.582h2.582v2.582zm0-3.2266v-2.582h2.582v2.582zm0-3.2266v-2.582h2.582v2.582zm0-3.2266v-2.582h2.582v2.582zm0-3.2266v-2.582h2.582v2.582zm0-3.2305v-2.582h2.582v2.582zm0-3.2266v-2.5781h2.582v2.5781zm0-3.2227v-2.582h2.582v2.582zm0-3.2266v-2.582h2.582v2.582zm0-3.2305v-2.582h2.582v2.582zm0-6.4531v-2.582h2.582v2.582zm0-3.2266v-2.582h2.582v2.582zm0-3.2266v-2.582h2.582v2.582zm-3.2266 41.949v-2.582h2.582v2.582zm2.582 0.64453v2.582h-2.582v-2.582zm-2.582-3.8711v-2.582h2.582v2.582zm0-3.2266v-2.582h2.582v2.582zm0-3.2266v-2.582h2.582v2.582zm0-3.2266v-2.582h2.582v2.582zm0-3.2305v-2.582h2.582v2.582zm0-3.2266v-2.5781h2.582v2.5781zm0-3.2227v-2.582h2.582v2.582zm0-3.2266v-2.582h2.582v2.582zm0-3.2305v-2.582h2.582v2.582zm-3.2266 29.043v-2.582h2.582v2.582zm2.582 0.64453v2.582h-2.582v-2.582zm-2.582-3.8711v-2.582h2.582v2.582zm0-3.2266v-2.582h2.582v2.582zm0-3.2266v-2.582h2.582v2.582zm0-3.2266v-2.582h2.582v2.582zm0-3.2305v-2.582h2.582v2.582zm0-3.2266v-2.5781h2.582v2.5781zm0-3.2227v-2.582h2.582v2.582zm0-3.2266v-2.582h2.582v2.582zm0-3.2305v-2.582h2.582v2.582zm0-3.2266v-2.582h2.582v2.582zm-3.2266 32.27v-2.582h2.582v2.582zm2.582 0.64453v2.582h-2.582v-2.582zm-2.582-3.8711v-2.582h2.582v2.582zm0-3.2266v-2.582h2.582v2.582zm0-3.2266v-2.582h2.582v2.582zm0-3.2266v-2.582h2.582v2.582zm0-3.2305v-2.582h2.582v2.582zm0-3.2266v-2.5781h2.582v2.5781zm0-9.6797v-2.582h2.582v2.582zm0-25.812v-2.5781h2.582v2.5781zm0-3.2266v-2.582h2.582v2.582zm0-3.2266v-2.582h2.582v2.582zm-3.2266 54.855v-2.582h2.582v2.582zm2.582 0.64453v2.582h-2.582v-2.582zm-2.582-3.8711v-2.582h2.582v2.582zm0-35.496v-2.582h2.582v2.582zm0-3.2227v-2.582h2.582v2.582zm0-3.2305v-2.582h2.582v2.582zm0-3.2266v-2.5781h2.582v2.5781zm0-3.2266v-2.582h2.582v2.582zm0-3.2266v-2.582h2.582v2.582zm0-3.2266v-0.066407c0.54297 0.011719 1.082 0.035157 1.6211 0.0625zm0 61.953h2.582v2.582h-2.582zm51.629-0.64453v-2.582h0.81641c-0.078125 0.86719-0.17188 1.7266-0.29297 2.582zm0-3.2266v-2.582h1.0117c-0.027344 0.86719-0.070312 1.7266-0.13672 2.582zm0-3.2266v-2.582h1.0117c0.015625 0.53516 0.027344 1.0703 0.027344 1.6055 0 0.32422-0.007812 0.64844-0.011719 0.97266zm-11.488-35.496h-1.418v-1.6367c0.48437 0.53516 0.95703 1.082 1.418 1.6367zm-2.918-3.2227h-1.7266v-1.6875c0.58594 0.54688 1.1641 1.1094 1.7266 1.6875zm-37.867-16.207v0.070313h-2.582v-0.042969c0.64062-0.023438 1.2812-0.035157 1.9297-0.035157 0.21875 0 0.43359 0.003907 0.65234 0.007813zm-38.723 15.742v0.46094h-0.45312c0.15234-0.15234 0.30078-0.30859 0.45312-0.46094zm-1.0781 1.1055h1.0781v2.582h-2.582v-0.92969c0.48828-0.5625 0.99219-1.1094 1.5039-1.6523z" fill="#95968e"/>
</svg>
