<?xml version="1.0" encoding="UTF-8"?>
<svg width="128pt" height="128pt" version="1.1" viewBox="0 0 128 128" xmlns="http://www.w3.org/2000/svg">
 <path d="m96.8 17.6c-3.2-3.2-8.4-3.2-11.6 0l-8.4 8.4-4.8 4.8-48 48c-0.4 0.4-0.8 1.2-1.2 1.6l-8 24c-0.4 1.6 0 3.2 1.2 4.4 0.8 0.8 1.6 1.2 2.8 1.2 0.4 0 1.2 0 1.6-0.4l24-8c0.8-0.4 1.2-0.4 1.6-1.2l48-48 4.8-4.8 8.4-8.4c3.2-3.2 3.2-8.4 0-11.6zm-70 73.2 3.2 3.2-7.2 2.4zm13.2-1.6-7.2-7.2 42-42 7.2 7.2zm48.8-48.8-7.2-7.2 4.4-4.4 7.2 7.2z" fill="#95968E"/>
</svg>
