<?xml version="1.0" encoding="UTF-8"?>
<svg width="150px" height="150px" viewBox="0 0 150 150" version="1.1" xmlns="http://www.w3.org/2000/svg" xmlns:xlink="http://www.w3.org/1999/xlink">
    <title>position-left</title>
    <g id="position-left" stroke="none" stroke-width="1" fill="none" fill-rule="evenodd">
        <g id="noun-horizontal-align-left-2977307-95968E" transform="translate(0.000164, 0.000000)" fill="#95958E" fill-rule="nonzero">
            <path d="M6.81817438,150 C5.00972181,150 3.27545097,149.281433 1.99704328,148.002957 C0.71863558,146.724481 1.93784171e-15,144.990142 1.93784171e-15,143.181826 L1.93784171e-15,6.81833802 C1.93784171e-15,4.38247704 1.29970767,2.13138858 3.40908719,0.91366264 C5.51849398,-0.304554213 8.11785478,-0.304554213 10.2272616,0.91366264 C12.3366684,2.13134767 13.6363488,4.38247704 13.6363488,6.81833802 L13.6363488,143.181826 C13.6363488,144.990278 12.9177814,146.724549 11.6393055,148.002957 C10.3608296,149.281364 8.62649059,150 6.81817438,150 Z M143.181662,81.8182562 L34.0908719,81.8182562 C32.2824193,81.8182562 30.5481485,82.5368236 29.2697408,83.8152995 C27.9913331,85.0937754 27.2726975,86.8281144 27.2726975,88.6364306 L27.2726975,122.727302 C27.2726975,124.535755 27.9912649,126.270026 29.2697408,127.548434 C30.5482167,128.826841 32.2825557,129.545477 34.0908719,129.545477 L143.181662,129.545477 C144.990115,129.545477 146.724385,128.826909 148.002793,127.548434 C149.281201,126.269958 149.999836,124.535619 149.999836,122.727302 L149.999836,88.6364306 C149.999836,86.827978 149.281269,85.0937072 148.002793,83.8152995 C146.724317,82.5368918 144.989978,81.8182562 143.181662,81.8182562 Z M34.0908719,68.1819074 L102.272616,68.1819074 C104.081068,68.1819074 105.815339,67.46334 107.093747,66.1848642 C108.372155,64.9063883 109.09079,63.1720493 109.09079,61.3637331 L109.09079,27.2728612 C109.09079,25.4644086 108.372223,23.7301377 107.093747,22.4517301 C105.815271,21.1733224 104.080932,20.4546868 102.272616,20.4546868 L34.0908719,20.4546868 C32.2824193,20.4546868 30.5481485,21.1732542 29.2697408,22.4517301 C27.9913331,23.7302059 27.2726975,25.4645449 27.2726975,27.2728612 L27.2726975,61.3637331 C27.2726975,63.1721856 27.9912649,64.9064565 29.2697408,66.1848642 C30.5482167,67.4632719 32.2825557,68.1819074 34.0908719,68.1819074 Z" id="Shape"></path>
        </g>
    </g>
</svg>