<?xml version="1.0" encoding="UTF-8"?>
<svg width="150px" height="150px" viewBox="0 0 150 150" version="1.1" xmlns="http://www.w3.org/2000/svg" xmlns:xlink="http://www.w3.org/1999/xlink">
    <title>followers</title>
    <g id="followers" stroke="none" stroke-width="1" fill="none" fill-rule="evenodd">
        <g id="noun-followers-4779888-95968E" transform="translate(0.000000, 15.872031)" fill="#95958E" fill-rule="nonzero">
            <path d="M140.725747,-1.21202009e-14 L9.27510604,-1.21202009e-14 C6.82221363,-1.21202009e-14 4.46932179,0.971988469 2.73114559,2.70278722 C0.992905432,4.43354333 0.0108742623,6.78234134 6.06010043e-15,9.23523375 L6.06010043e-15,92.8711037 C6.06010043e-15,95.3274077 0.978640959,97.682645 2.71941845,99.4150642 C4.45934305,101.148315 6.81901532,102.116999 9.27510604,102.106124 L54.6506306,102.106124 L68.403374,116.338615 C70.1349617,118.121844 72.5144848,119.127969 75,119.127969 C77.4855152,119.127969 79.8648464,118.121823 81.596626,116.338615 L95.3493694,102.106124 L140.724894,102.106124 C143.181198,102.116952 145.5407,101.148294 147.280582,99.4150642 C149.021338,97.682645 150,95.3271945 150,92.8711037 L150,9.23523375 C149.989172,6.78234134 149.007201,4.43350069 147.268854,2.70278722 C145.530614,0.972031113 143.177573,-1.21202009e-14 140.724894,-1.21202009e-14 L140.725747,-1.21202009e-14 Z M75.0004264,19.5896636 C78.8384014,19.5896636 82.5198722,21.114683 85.2341733,23.8282805 C87.9478348,26.5425816 89.4727902,30.2240524 89.4727902,34.0620274 C89.4727902,37.9000023 87.9477708,41.5814731 85.2341733,44.2957742 C82.5198722,47.0094357 78.8384014,48.5343911 75.0004264,48.5343911 C71.1624515,48.5343911 67.4809807,47.0093718 64.7666796,44.2957742 C62.0530181,41.5814731 60.5280627,37.9000023 60.5280627,34.0620274 C60.5280627,30.2240524 62.053082,26.5425816 64.7666796,23.8282805 C67.4809807,21.114619 71.1624515,19.5896636 75.0004264,19.5896636 Z M47.8957947,81.5964128 C47.8957947,71.9123492 53.0621354,62.9636842 61.448537,58.1229318 C69.8349386,53.2821793 80.1678332,53.2813264 88.5531687,58.1229318 C96.9385043,62.9645371 102.105911,71.9132021 102.105911,81.5964128 L47.8957947,81.5964128 Z" id="Shape"></path>
        </g>
    </g>
</svg>