<?xml version="1.0" encoding="UTF-8"?>
<svg width="150px" height="150px" viewBox="0 0 150 150" version="1.1" xmlns="http://www.w3.org/2000/svg" xmlns:xlink="http://www.w3.org/1999/xlink">
    <title>boomerang</title>
    <g id="boomerang" stroke="none" stroke-width="1" fill="none" fill-rule="evenodd">
        <g id="noun-boomerang-49703-95978E" transform="translate(75.464434, 103.340540) rotate(-45.000000) translate(-75.464434, -103.340540) translate(22.367089, 50.242010)" fill="#95968E" fill-rule="nonzero">
            <path d="M106.154894,50.4418519 C106.487554,32.0572388 104.824221,14.0401571 97.7606352,8.00405911 C82.3094946,-5.19308664 14.8762053,1.73742691 7.16830124,2.46399426 C-0.334131216,3.17309717 -5.07664841,10.7635843 9.29522254,12.1190683 C23.9708617,13.5023631 55.0072249,16.0174039 70.8542699,23.5974911 C83.9870599,29.1480185 95.1276448,37.6817196 106.154985,50.4424779 L106.154894,50.4418519 Z" id="Path"></path>
            <path d="M82.6448827,37.1705119 C89.0798797,53.629989 90.3133106,82.7257613 91.4247274,96.6008733 C92.5988459,111.25321 100.887066,106.575263 101.650547,99.3660435 C102.044247,95.6279734 104.340209,78.5843916 105.211254,60.033157 C97.7240639,50.2658445 90.4634201,42.8292953 82.6448827,37.1705119 L82.6448827,37.1705119 Z" id="Path"></path>
        </g>
    </g>
</svg>