<?xml version="1.0" encoding="UTF-8"?>
<svg width="128pt" height="128pt" version="1.1" viewBox="0 0 128 128" xmlns="http://www.w3.org/2000/svg">
 <g fill="#95968e">
  <path d="m64 3.1992c-16.895 0-30.594 13.695-30.594 30.594v29.055c0 12.543 7.6797 23.426 18.559 28.16v-9.8555c-5.8867-3.9688-9.8555-10.625-9.8555-18.305l0.003906-29.055c0-12.031 9.8555-21.891 21.887-21.891 12.16 0 21.887 9.8555 21.887 21.887v29.055c0 7.6797-3.9688 14.336-9.8555 18.305v9.8555c10.879-4.7344 18.559-15.488 18.559-28.16l0.003906-29.051c0-16.898-13.699-30.594-30.594-30.594z"/>
  <path d="m64 41.855c2.4336 0 4.3516-1.9219 4.3516-4.3516v-11.777c0-2.4336-1.9219-4.3516-4.3516-4.3516-2.4336 0-4.3516 1.9219-4.3516 4.3516v11.777c0 2.3047 1.918 4.3516 4.3516 4.3516z"/>
  <path d="m75.648 102.79-7.2969 7.2969v-38.273c0-2.4336-1.9219-4.3516-4.3516-4.3516-2.4336 0-4.3516 1.9219-4.3516 4.3516v38.145l-7.2969-7.2969c-1.6641-1.6641-4.4805-1.6641-6.1445 0-1.6641 1.6641-1.6641 4.4805 0 6.1445l14.719 14.719c0.89453 0.89453 1.9219 1.2812 3.0703 1.2812 1.1523 0 2.1758-0.38281 3.0703-1.2812l14.719-14.719c1.6641-1.6641 1.6641-4.4805 0-6.1445-1.7852-1.6641-4.4727-1.6641-6.1367 0.12891z"/>
 </g>
</svg>
