<?xml version="1.0" encoding="UTF-8"?>
<svg width="150px" height="150px" viewBox="0 0 150 150" version="1.1" xmlns="http://www.w3.org/2000/svg" xmlns:xlink="http://www.w3.org/1999/xlink">
    <title>layout-grid</title>
    <g id="layout-grid" stroke="none" stroke-width="1" fill="none" fill-rule="evenodd">
        <g id="noun-layout-4378760-95968E" transform="translate(8.275862, 12.970822)" fill="#95958E" fill-rule="nonzero">
            <path d="M0,29.1246684 L0,10.0265252 C0.00248464449,7.49449337 1.00878016,5.06750133 2.79721279,3.27698674 C4.58611611,1.48698143 7.01122377,0.479872679 9.54115695,0.477453581 L28.6234709,0.477453581 C31.153404,0.479940286 33.5783845,1.48707056 35.367415,3.27698674 C37.1559367,5.06737401 38.1622107,7.49449337 38.1646278,10.0265252 L38.1646278,29.1246684 C38.1621432,31.6567003 37.1558476,34.0836923 35.367415,35.8742069 C33.5785117,37.6642122 31.153404,38.671321 28.6234709,38.6737401 L9.54115695,38.6737401 C7.01122377,38.6712533 4.58624332,37.6641231 2.79721279,35.8742069 C1.00869111,34.0838196 0.00241709309,31.6567003 0,29.1246684 Z M57.1273638,38.1962865 L76.2096778,38.1962865 C78.7396109,38.1937998 81.1645914,37.1866695 82.9536219,35.3967533 C84.7421436,33.606366 85.7484176,31.1792467 85.7508347,28.6472149 L85.7508347,9.54907162 C85.7483501,7.01703979 84.7420545,4.59004775 82.9536219,2.79953316 C81.1647186,1.00952785 78.7396109,0.00241909814 76.2096778,0 L57.1273638,0 C54.5974307,0.00248670557 52.1724502,1.00961698 50.3834197,2.79953316 C48.594898,4.58992042 47.588624,7.01703979 47.5862069,9.54907162 L47.5862069,28.6472149 C47.5886915,31.1792467 48.5949871,33.6062387 50.3834197,35.3967533 C52.172323,37.1867586 54.5974307,38.1938674 57.1273638,38.1962865 Z M104.713571,38.7533156 L123.795885,38.7533156 C126.325818,38.7508289 128.750798,37.7436987 130.539829,35.9537825 C132.32835,34.1633952 133.334625,31.7362759 133.337042,29.204244 L133.337042,10.1061008 C133.334557,7.57406897 132.328261,5.14707692 130.539829,3.35656233 C128.750925,1.56655703 126.325818,0.559448276 123.795885,0.557029178 L104.713571,0.557029178 C102.183638,0.559515883 99.7586571,1.56664615 97.9696266,3.35656233 C96.1811049,5.1469496 95.1748309,7.57406897 95.1724138,10.1061008 L95.1724138,29.204244 C95.1748984,31.7362759 96.181194,34.1632679 97.9696266,35.9537825 C99.7585299,37.7437878 102.183638,38.7508966 104.713571,38.7533156 Z M0,116.02122 L0,96.9230769 C0.00248464449,94.3910451 1.00878016,91.9640531 2.79721279,90.1735385 C4.58611611,88.3835332 7.01122377,87.3764244 9.54115695,87.3740053 L28.6234709,87.3740053 C31.153404,87.376492 33.5783845,88.3836223 35.367415,90.1735385 C37.1559367,91.9639257 38.1622107,94.3910451 38.1646278,96.9230769 L38.1646278,116.02122 C38.1621432,118.553252 37.1558476,120.980244 35.367415,122.770759 C33.5785117,124.560764 31.153404,125.567873 28.6234709,125.570292 L9.54115695,125.570292 C7.01122377,125.567805 4.58624332,124.560675 2.79721279,122.770759 C1.00869111,120.980371 0.00241709309,118.553252 0,116.02122 Z M104.713571,125.649867 L123.795885,125.649867 C126.325818,125.647381 128.750798,124.64025 130.539829,122.850334 C132.32835,121.059947 133.334625,118.632828 133.337042,116.100796 L133.337042,97.0026525 C133.334557,94.4706207 132.328261,92.0436286 130.539829,90.2531141 C128.750925,88.4631088 126.325818,87.456 123.795885,87.4535809 L104.713571,87.4535809 C102.183638,87.4560676 99.7586571,88.4631979 97.9696266,90.2531141 C96.1811049,92.0435013 95.1748309,94.4706207 95.1724138,97.0026525 L95.1724138,116.100796 C95.1748984,118.632828 96.181194,121.05982 97.9696266,122.850334 C99.7585299,124.64034 102.183638,125.647448 104.713571,125.649867 Z M57.1273638,125.092838 L76.2096778,125.092838 C78.7396109,125.090351 81.1645914,124.083221 82.9536219,122.293305 C84.7421436,120.502918 85.7484176,118.075798 85.7508347,115.543767 L85.7508347,96.4456233 C85.7483501,93.9135915 84.7420545,91.4865995 82.9536219,89.6960849 C81.1647186,87.9060796 78.7396109,86.8989708 76.2096778,86.8965517 L57.1273638,86.8965517 C54.5974307,86.8990384 52.1724502,87.9061687 50.3834197,89.6960849 C48.594898,91.4864721 47.588624,93.9135915 47.5862069,96.4456233 L47.5862069,115.543767 C47.5886915,118.075798 48.5949871,120.50279 50.3834197,122.293305 C52.172323,124.08331 54.5974307,125.090419 57.1273638,125.092838 Z M35.5264448,48.3023873 L3.00501518,48.3023873 C1.96779838,48.3481439 1.02140507,49.2677347 0.510759495,50.7264509 C0.000145455686,52.1851671 0.000145455686,53.968679 0.510759495,55.4273952 C1.02137353,56.8861114 1.96771954,57.8057507 3.00501518,57.8514589 L35.5264448,57.8514589 C36.5636616,57.8057023 37.5100549,56.8861114 38.0207005,55.4273952 C38.5313145,53.968679 38.5313145,52.1851671 38.0207005,50.7264509 C37.5100865,49.2677347 36.5637405,48.3480955 35.5264448,48.3023873 Z M35.5264448,67.4005305 L3.00501518,67.4005305 C1.96779838,67.4462871 1.02140507,68.365878 0.510759495,69.8245942 C0.000145455686,71.2833103 0.000145455686,73.0668223 0.510759495,74.5255385 C1.02137353,75.9842546 1.96771954,76.9038939 3.00501518,76.9496021 L35.5264448,76.9496021 C36.5636616,76.9038455 37.5100549,75.9842546 38.0207005,74.5255385 C38.5313145,73.0668223 38.5313145,71.2833103 38.0207005,69.8245942 C37.5100865,68.365878 36.5637405,67.4462387 35.5264448,67.4005305 Z M83.1126517,67.4005305 L50.5912221,67.4005305 C49.5540053,67.4462871 48.607612,68.365878 48.0969664,69.8245942 C47.5863524,71.2833103 47.5863524,73.0668223 48.0969664,74.5255385 C48.6075804,75.9842546 49.5539264,76.9038939 50.5912221,76.9496021 L83.1126517,76.9496021 C84.1498685,76.9038455 85.0962618,75.9842546 85.6069074,74.5255385 C86.1175214,73.0668223 86.1175214,71.2833103 85.6069074,69.8245942 C85.0962934,68.365878 84.1499474,67.4462387 83.1126517,67.4005305 Z M83.1126517,48.3023873 L50.5912221,48.3023873 C49.5540053,48.3481439 48.607612,49.2677347 48.0969664,50.7264509 C47.5863524,52.1851671 47.5863524,53.968679 48.0969664,55.4273952 C48.6075804,56.8861114 49.5539264,57.8057507 50.5912221,57.8514589 L83.1126517,57.8514589 C84.1498685,57.8057023 85.0962618,56.8861114 85.6069074,55.4273952 C86.1175214,53.968679 86.1175214,52.1851671 85.6069074,50.7264509 C85.0962934,49.2677347 84.1499474,48.3480955 83.1126517,48.3023873 Z M130.443261,48.7002653 L97.921831,48.7002653 C96.8846142,48.7460219 95.9382209,49.6656127 95.4275754,51.1243289 C94.9169613,52.5830451 94.9169613,54.366557 95.4275754,55.8252732 C95.9381894,57.2839894 96.8845354,58.2036286 97.921831,58.2493369 L130.443261,58.2493369 C131.480477,58.2035803 132.426871,57.2839894 132.937516,55.8252732 C133.44813,54.366557 133.44813,52.5830451 132.937516,51.1243289 C132.426902,49.6656127 131.480556,48.7459735 130.443261,48.7002653 Z M130.443261,67.7984085 L97.921831,67.7984085 C96.8846142,67.8441651 95.9382209,68.763756 95.4275754,70.2224721 C94.9169613,71.6811883 94.9169613,73.4647003 95.4275754,74.9234164 C95.9381894,76.3821326 96.8845354,77.3017719 97.921831,77.3474801 L130.443261,77.3474801 C131.480477,77.3017235 132.426871,76.3821326 132.937516,74.9234164 C133.44813,73.4647003 133.44813,71.6811883 132.937516,70.2224721 C132.426902,68.763756 131.480556,67.8441167 130.443261,67.7984085 Z" id="Shape"></path>
        </g>
    </g>
</svg>