<?xml version="1.0" encoding="UTF-8"?>
<svg width="150px" height="150px" viewBox="0 0 150 150" version="1.1" xmlns="http://www.w3.org/2000/svg" xmlns:xlink="http://www.w3.org/1999/xlink">
    <title>layout-left</title>
    <g id="layout-left" stroke="none" stroke-width="1" fill="none" fill-rule="evenodd">
        <g id="noun-grid-layout-273569-95968E">
            <path d="M141,131.221699 C141,136.614283 136.614274,141 131.221678,141 L18.778322,141 C13.3857261,141 9,136.614283 9,131.221699 L9,18.7799805 C9,13.3873961 13.3857261,9 18.778322,9 L131.221678,9 C136.614274,9 141,13.3873961 141,18.7799805 L141,131.221699 Z" id="Shape" fill="#FFFFFF"></path>
            <path d="M18.6965702,0 C8.3883008,0 0,8.38788037 0,18.6979717 L0,131.30343 C0,141.61226 8.38788037,150 18.6965702,150 L131.30343,150 C141.611139,150 150,141.61268 150,131.30343 L150,18.6979717 C150,8.38816066 141.611699,0 131.30343,0 L18.6965702,0 Z M141.09597,131.30343 C141.09597,136.703867 136.703867,141.09597 131.30343,141.09597 L18.6965702,141.09597 C13.296133,141.09597 8.9040296,136.703867 8.9040296,131.30343 L8.9040296,18.6979717 C8.9040296,13.2975344 13.296133,8.90374931 18.6965702,8.90374931 L131.30343,8.90374931 C136.703867,8.90374931 141.09597,13.2975344 141.09597,18.6979717 L141.09597,131.30343 Z M28.9543879,112.824783 L54.9543879,112.824783 L54.9543879,36.824783 L28.9543879,36.824783 L28.9543879,112.824783 Z M95.0467333,71.7666997 L122.046733,71.7666997 L122.046733,65 L95.0467333,65 L95.0467333,71.7666997 Z M95.0467333,58.7662736 L112.013805,58.7662736 L112.013805,52 L95.0467333,52 L95.0467333,58.7662736 Z M95.0467333,44.6999215 L122.046733,44.6999215 L122.046733,37.9332218 L95.0467333,37.9332218 L95.0467333,44.6999215 Z M95.0467333,112.7667 L122.046733,112.7667 L122.046733,106 L95.0467333,106 L95.0467333,112.7667 Z M95.0467333,98.7662736 L112.013805,98.7662736 L112.013805,92 L95.0467333,92 L95.0467333,98.7662736 Z M95.0467333,85.7666997 L122.046733,85.7666997 L122.046733,79 L95.0467333,79 L95.0467333,85.7666997 Z" id="Shape" fill="#95958E"></path>
            <polygon id="Shape" fill="#F2B380" points="65 113 85 113 85 37 65 37"></polygon>
        </g>
    </g>
</svg>