<?xml version="1.0" encoding="UTF-8"?>
<svg width="150px" height="150px" viewBox="0 0 150 150" version="1.1" xmlns="http://www.w3.org/2000/svg" xmlns:xlink="http://www.w3.org/1999/xlink">
    <title>dialog-import</title>
    <g id="dialog-import" stroke="none" stroke-width="1" fill="none" fill-rule="evenodd">
        <g id="noun-truck-4865733-95968E" transform="translate(9.000000, 22.000000)" fill="#95958E" fill-rule="nonzero">
            <path d="M53.2000312,92.75 C53.2000312,96.2642975 51.7988774,99.6343025 49.3045977,102.119208 C46.810318,104.604113 43.4275991,106 39.9000433,106 C36.3724876,106 32.9897686,104.604113 30.4954889,102.119208 C28.0012092,99.6343025 26.6000555,96.2642975 26.6000555,92.75 C26.6000555,89.2357025 28.0012092,85.8656975 30.4954889,83.3807925 C32.9897686,80.8958875 36.3724876,79.5 39.9000433,79.5 C43.4275991,79.5 46.810318,80.8958875 49.3045977,83.3807925 C51.7988774,85.8656975 53.2000312,89.2357025 53.2000312,92.75 Z M93.0999947,92.75 C93.0999947,96.2642975 94.5011484,99.6343025 96.9954281,102.119208 C99.4897079,104.604113 102.872427,106 106.399983,106 C109.927538,106 113.310257,104.604113 115.804537,102.119208 C118.298817,99.6343025 119.69997,96.2642975 119.69997,92.75 C119.69997,89.2357025 118.298817,85.8656975 115.804537,83.3807925 C113.310257,80.8958875 109.927538,79.5 106.399983,79.5 C102.872427,79.5 99.4897079,80.8958875 96.9954281,83.3807925 C94.5011484,85.8656975 93.0999947,89.2357025 93.0999947,92.75 Z M0,79.5 L0,13.25 C0,9.7357025 1.40123352,6.3656975 3.89551324,3.8807925 C6.38979296,1.3958875 9.77251187,0 13.3000676,0 L66.500019,0 C70.0275748,0 73.4102937,1.3958875 75.9045734,3.8807925 C78.3988531,6.3656975 79.8000069,9.7357025 79.8000069,13.25 L79.8000069,19.1763275 C79.8000069,20.0546567 80.1501689,20.8972375 80.7741246,21.5183975 C81.3975615,22.1394912 82.2433742,22.488854 83.1250304,22.488854 L112.584503,22.488854 C117.031221,22.4883365 121.183744,24.7025315 123.650492,28.3881515 L130.765986,39.025384 C132.222734,41.201829 133,43.7592115 133,46.3750265 L133,79.5000265 C133.002582,81.9067565 132.340186,84.2673765 131.085053,86.3237765 C130.797746,86.7714808 130.276666,87.013704 129.747739,86.9448703 C129.218851,86.8765506 128.777771,86.5095813 128.615165,86.0039083 C127.068509,80.9202808 123.814135,76.5208833 119.39814,73.5432108 C114.982145,70.5660683 109.673056,69.1919108 104.361174,69.6510233 C99.0490261,70.1101093 94.0567426,72.3750908 90.2219571,76.0658783 C86.3873046,79.7566658 83.9423679,84.6488308 83.2981165,89.9214033 C83.1900541,90.7096723 82.7972921,91.4316383 82.1935924,91.9518333 C81.5893739,92.4725185 80.8158466,92.756148 80.0173154,92.7495341 L66.2837479,92.7495341 C65.4847112,92.7561455 64.7111573,92.4719885 64.1069389,91.9513165 C63.5032392,91.4301145 63.1109959,90.7075787 63.0029335,89.9192965 C62.3129966,84.2989115 59.5823096,79.124654 55.3268455,75.3721215 C51.0708494,71.6197215 45.5840724,69.547819 39.9001896,69.547819 C34.2163068,69.547819 28.7297958,71.6197215 24.4735337,75.3721215 C20.2180696,79.1250515 17.4874491,84.299309 16.7974457,89.9192965 C16.6893833,90.7075655 16.2971401,91.4300615 15.6934404,91.9513165 C15.0892219,92.4720018 14.3156946,92.756148 13.5166313,92.7495341 L13.2999878,92.7495341 C9.77243207,92.7495341 6.38971316,91.3535295 3.89543344,88.8686245 C1.40115372,86.3837195 0,83.0137145 0,79.499417 L0,79.5 Z M79.7999005,49.6875 C79.7999005,50.5658293 80.1501689,51.40841 80.7741246,52.02957 C81.3975615,52.6511805 82.2433742,53.0000265 83.1250304,53.0000265 L123.578273,53.0000265 C124.313404,53.0000265 125.018396,52.7091493 125.537894,52.1915645 C126.057391,51.6739798 126.349406,50.971637 126.349406,50.2393095 L126.349406,46.379717 C126.349406,45.0712795 125.960793,43.7923895 125.23242,42.703372 L118.116926,32.0634895 C116.883565,30.2209445 114.80749,29.1137745 112.584397,29.1137745 L83.124924,29.1137745 C82.2432811,29.1137745 81.3975216,29.4626205 80.7740182,30.0837143 C80.1500625,30.704808 79.7999005,31.5474418 79.7999005,32.4263143 L79.7999005,49.6875 Z" id="Shape"></path>
        </g>
    </g>
</svg>