<?xml version="1.0" encoding="UTF-8"?>
<svg width="150px" height="150px" viewBox="0 0 150 150" version="1.1" xmlns="http://www.w3.org/2000/svg" xmlns:xlink="http://www.w3.org/1999/xlink">
    <title>add</title>
    <g id="add" stroke="none" stroke-width="1" fill="none" fill-rule="evenodd">
        <g id="noun-add-1571616-95978E" transform="translate(10.000000, 10.000000)" fill="#95968E" fill-rule="nonzero">
            <path d="M64.4444444,0 C60.1723457,0 56.7118786,3.46014732 56.7118786,7.73256583 L56.7118786,56.7118786 L7.73256583,56.7118786 C3.46046712,56.7118786 0,60.1720259 0,64.4444444 C0,68.716863 3.46014732,72.1770103 7.73256583,72.1770103 L56.7118786,72.1770103 L56.7118786,121.156323 C56.7118786,125.428422 60.1720259,128.888889 64.4444444,128.888889 C68.716863,128.888889 72.1770103,125.428742 72.1770103,121.156323 L72.1770103,72.1770103 L121.156323,72.1770103 C125.428422,72.1770103 128.888889,68.716863 128.888889,64.4444444 C128.888889,60.1720259 125.428742,56.7118786 121.156323,56.7118786 L72.1770103,56.7118786 L72.1770103,7.73256583 C72.1770103,3.46046712 68.716863,0 64.4444444,0 Z" id="Path"></path>
        </g>
    </g>
</svg>