<svg width="150px" height="150px" xmlns="http://www.w3.org/2000/svg" xmlns:xlink="http://www.w3.org/1999/xlink">
<g style="">  <path d="M141.448273,128.450930 L141.448273,80.705568 C141.445293,78.174048,140.439963,75.746548,138.653233,73.956538 C136.866423,72.166528,134.443263,71.159428,131.916253,71.156498 L17.532014,71.156498 C15.005014,71.159478,12.581844,72.166608,10.795034,73.956538 C9.008224,75.746548,8.002914,78.174048,7.999994,80.705568 L7.999994,128.450930 C8.002974,130.982450,9.008304,133.409950,10.795034,135.199960 C12.581844,136.989970,15.005014,137.997070,17.532014,138.000000 L131.916253,138.000000 C134.443253,137.997020,136.866423,136.989890,138.653233,135.199960 C140.440043,133.409950,141.445353,130.982450,141.448273,128.450930 Z M12.766010,52.058357 L136.682270,52.058357 C138.354310,52.104117,139.879950,53.023707,140.703130,54.482417 C141.526260,55.941137,141.526260,57.724647,140.703130,59.183357 C139.880000,60.642077,138.354440,61.561718,136.682270,61.607418 L12.766010,61.607418 C11.093970,61.561658,9.568340,60.642068,8.745150,59.183357 C7.922020,57.724638,7.922020,55.941128,8.745150,54.482417 C9.568280,53.023697,11.093840,52.104057,12.766010,52.058357 Z M12.766010,32.960213 L136.682270,32.960213 C138.354310,33.005973,139.879950,33.925563,140.703130,35.384273 C141.526260,36.842993,141.526260,38.626503,140.703130,40.085213 C139.880000,41.543933,138.354440,42.463573,136.682270,42.509273 L12.766010,42.509273 C11.093970,42.463513,9.568340,41.543923,8.745150,40.085213 C7.922020,38.626493,7.922020,36.842983,8.745150,35.384273 C9.568280,33.925553,11.093840,33.005913,12.766010,32.960213 Z M12.766010,13.862068 L136.682270,13.862068 C138.354310,13.907828,139.879950,14.827418,140.703130,16.286128 C141.526260,17.744848,141.526260,19.528358,140.703130,20.987068 C139.880000,22.445788,138.354440,23.365418,136.682270,23.411129 L12.766010,23.411129 C11.093970,23.365369,9.568340,22.445779,8.745150,20.987068 C7.922020,19.528348,7.922020,17.744838,8.745150,16.286128 C9.568280,14.827408,11.093840,13.907768,12.766010,13.862068 Z " style="fill: rgba(0, 0, 0, 1.000000); stroke-width: 0.000000px; stroke: rgba(0, 0, 0, 1.000000); " fill="#000000" stroke="#000000" stroke-width="0.000000" />
</g></svg>