<?xml version="1.0" encoding="UTF-8"?>
<svg width="150px" height="150px" viewBox="0 0 150 150" version="1.1" xmlns="http://www.w3.org/2000/svg" xmlns:xlink="http://www.w3.org/1999/xlink">
    <title>accept</title>
    <g id="accept" stroke="none" stroke-width="1" fill="none" fill-rule="evenodd">
        <g id="noun-checkmark-2193579-95968E" fill="#95958E">
            <path d="M75,0 C116.437861,0 150,33.5621394 150,75 C150,116.437861 116.437861,150 75,150 C33.5621394,150 0,116.437861 0,75 C0,33.5621394 33.5621394,0 75,0 L75,0 Z M58.8753507,87.9365107 L110.437437,36.3744243 C112.874927,33.9369342 116.624993,33.9369342 118.874821,36.3744243 L125.624835,42.9367754 C127.874663,45.3742655 127.874663,49.1243317 125.624835,51.3741596 L63.1881386,113.810856 C60.7506485,116.060684 57.0005823,116.060684 54.7507544,113.810856 L24.5633569,83.6234582 C22.313529,81.3736303 22.313529,77.6235641 24.5633569,75.186074 L31.3133702,68.6237229 C33.5631981,66.1862328 37.3132643,66.1862328 39.7507544,68.6237229 L58.8756154,87.9365107 L58.8753507,87.9365107 Z" id="Shape"></path>
        </g>
    </g>
</svg>