<?xml version="1.0" encoding="UTF-8"?>
<svg width="150px" height="150px" viewBox="0 0 150 150" version="1.1" xmlns="http://www.w3.org/2000/svg" xmlns:xlink="http://www.w3.org/1999/xlink">
    <title>position-center</title>
    <g id="position-center" stroke="none" stroke-width="1" fill="none" fill-rule="evenodd">
        <g id="noun-horizontal-align-center-2977332-95968E" transform="translate(19.000000, 0.000000)" fill="#95958E" fill-rule="nonzero">
            <path d="M122.727005,88.6363339 L122.727005,122.727169 C122.727005,124.535619 122.008438,126.269888 120.729964,127.548294 C119.451489,128.826701 117.717152,129.545336 115.908838,129.545336 L68.1816694,129.545336 L68.1816694,143.181669 C68.1816694,145.617528 66.8819632,147.868614 64.772586,149.086338 C62.6631815,150.304554 60.0638235,150.304554 57.954419,149.086338 C55.8450145,147.868655 54.5453355,145.617528 54.5453355,143.181669 L54.5453355,129.545336 L6.81816694,129.545336 C5.00971634,129.545336 3.2754474,128.826769 1.9970411,127.548294 C0.718634796,126.26982 0,124.535483 0,122.727169 L0,88.6363339 C0,86.8278833 0.718566614,85.0936143 1.9970411,83.815208 C3.27551558,82.5368017 5.00985271,81.8181669 6.81816694,81.8181669 L54.5453355,81.8181669 L54.5453355,68.1818331 L27.2726678,68.1818331 C25.4642172,68.1818331 23.7299482,67.4632664 22.4515419,66.184792 C21.1731356,64.9063175 20.4545008,63.1719804 20.4545008,61.3636661 L20.4545008,27.2728314 C20.4545008,25.4643808 21.1730674,23.7301119 22.4515419,22.4517056 C23.7300164,21.1732993 25.4643535,20.4546645 27.2726678,20.4546645 L54.5453355,20.4546645 L54.5453355,6.81833058 C54.5453355,4.38247226 55.8450418,2.13138626 57.954419,0.913661643 C60.0638235,-0.304553881 62.6631815,-0.304553881 64.772586,0.913661643 C66.8819904,2.13134535 68.1816694,4.38247226 68.1816694,6.81833058 L68.1816694,20.4546645 L95.4543372,20.4546645 C97.2627878,20.4546645 98.9970567,21.1732311 100.275463,22.4517056 C101.553869,23.73018 102.272504,25.4645172 102.272504,27.2728314 L102.272504,61.3636661 C102.272504,63.1721167 101.553938,64.9063857 100.275463,66.184792 C98.9969886,67.4631983 97.2626514,68.1818331 95.4543372,68.1818331 L68.1816694,68.1818331 L68.1816694,81.8181669 L115.908838,81.8181669 C117.717289,81.8181669 119.451558,82.5367336 120.729964,83.815208 C122.00837,85.0936825 122.727005,86.8280196 122.727005,88.6363339 Z" id="Path"></path>
        </g>
    </g>
</svg>