<svg viewBox="0 0 24 24" fill="currentColor" xmlns="http://www.w3.org/2000/svg"><path d="M14.2676 2.3125C13.4737 3.32993 13 4.60947 13 6C13 9.31371 15.6863 12 19 12C19.8925 12 20.7388 11.8036 21.5 11.4541V17.5L12 23L2.5 17.5V6.5L12 1L14.2676 2.3125ZM4.5 16.3467L12 20.6895V12L4.5 7.65723V16.3467ZM18.5293 2.31934C18.7059 1.8935 19.2943 1.89349 19.4707 2.31934L19.7236 2.93066C20.1556 3.97346 20.9615 4.80618 21.9746 5.25684L22.6924 5.57617C23.1026 5.75901 23.1026 6.3562 22.6924 6.53906L21.9326 6.87695C20.9449 7.31624 20.1534 8.11944 19.7139 9.12793L19.4668 9.69336C19.2864 10.1075 18.7137 10.1075 18.5332 9.69336L18.2871 9.12793C17.8476 8.11929 17.0552 7.31628 16.0674 6.87695L15.3076 6.53906C14.8974 6.35622 14.8974 5.75899 15.3076 5.57617L16.0254 5.25684C17.0385 4.80618 17.8445 3.97348 18.2764 2.93066L18.5293 2.31934Z"/></svg>