<svg viewBox="0 0 24 24" fill="currentColor" xmlns="http://www.w3.org/2000/svg"><path d="M14.415 3.3076C16.4893 2.57156 18.7252 2.46161 20.1318 3.86815C21.5384 5.2748 21.4284 7.51059 20.6924 9.58495C20.4144 10.3683 20.0299 11.1802 19.5527 12C20.0299 12.8198 20.4144 13.6317 20.6924 14.415C21.4284 16.4894 21.5384 18.7252 20.1318 20.1318C18.7252 21.5384 16.4894 21.4284 14.415 20.6924C13.6317 20.4144 12.8197 20.0299 12 19.5527C11.1802 20.03 10.3683 20.4144 9.58493 20.6924C7.51057 21.4284 5.27478 21.5384 3.86813 20.1318C2.46165 18.7253 2.57163 16.4903 3.30758 14.416C3.58557 13.6326 3.96902 12.8198 4.44626 12C3.96903 11.1802 3.58557 10.3674 3.30758 9.58397C2.57161 7.50968 2.46156 5.27473 3.86813 3.86815C5.27471 2.4616 7.50967 2.57164 9.58395 3.3076C10.3673 3.58559 11.1802 3.96905 12 4.44627C12.8196 3.96917 13.6318 3.58555 14.415 3.3076ZM5.70309 13.8838C5.50076 14.2955 5.32989 14.6973 5.19235 15.085C4.52106 16.977 4.73633 18.1718 5.28219 18.7178C5.82812 19.2636 7.02313 19.4797 8.91501 18.8086C9.30245 18.6711 9.70367 18.4981 10.1152 18.2959C9.31265 17.6913 8.51856 17.0039 7.7568 16.2422C6.99493 15.4803 6.30776 14.6865 5.70309 13.8838ZM18.2959 13.8838C17.6911 14.6865 17.0041 15.4812 16.2422 16.2432C15.4804 17.0049 14.6863 17.6913 13.8838 18.2959C14.2955 18.4982 14.6973 18.6701 15.0849 18.8076C16.9769 19.4788 18.1718 19.2637 18.7177 18.7178C19.2636 18.1719 19.4788 16.9769 18.8076 15.085C18.67 14.6973 18.4982 14.2955 18.2959 13.8838ZM12 9.99999C10.8954 9.99999 9.99997 10.8954 9.99997 12C9.99997 13.1046 10.8954 14 12 14C13.1045 14 14 13.1045 14 12C14 10.8954 13.1045 10 12 9.99999ZM8.91501 5.19237C7.02285 4.52104 5.82814 4.7363 5.28219 5.28221C4.73627 5.82815 4.52101 7.02285 5.19235 8.91503C5.3298 9.30238 5.50093 9.70379 5.70309 10.1152C6.30776 9.31256 6.99592 8.51966 7.75778 7.7578C8.51966 6.99593 9.31252 6.30778 10.1152 5.70311C9.70378 5.50096 9.30235 5.32982 8.91501 5.19237ZM18.7177 5.28221C18.1718 4.73636 16.9769 4.52116 15.0849 5.19237C14.6974 5.32988 14.2954 5.50082 13.8838 5.70311C14.6865 6.30778 15.4802 6.99495 16.2422 7.75682C17.0039 8.51858 17.6913 9.31266 18.2959 10.1152C18.498 9.70392 18.6702 9.30325 18.8076 8.916C19.4789 7.02383 19.2637 5.82817 18.7177 5.28221Z"/></svg>