<svg viewBox="0 0 24 24" fill="currentColor" xmlns="http://www.w3.org/2000/svg"><path d="M15.4903 3.33006C17.6238 2.75886 19.8169 4.02581 20.3887 6.15915L22.8477 15.3349C23.4906 17.7351 22.0661 20.2031 19.6661 20.8466C17.2656 21.4898 14.7978 20.0643 14.1544 17.664C14.069 17.3451 14.0208 17.024 14.0059 16.707C13.3704 16.8967 12.6973 16.9999 12.001 16.9999C11.3045 16.9999 10.6309 16.8968 9.99518 16.707C9.9803 17.024 9.93307 17.3452 9.84772 17.664C9.20434 20.0642 6.73638 21.4896 4.336 20.8466C1.93565 20.2033 0.511403 17.7353 1.15436 15.3349L3.61335 6.15915C4.18528 4.02568 6.37817 2.75855 8.51178 3.33006C10.2433 3.79416 11.4034 5.32694 11.4737 7.02829C11.647 7.01008 11.8231 6.99997 12.001 6.99997C12.1786 6.99998 12.3544 7.01014 12.5274 7.02829C12.5977 5.32684 13.7586 3.79407 15.4903 3.33006ZM5.50104 13.9999C4.12035 13.9999 3.00107 15.1192 3.00104 16.4999C3.00104 17.8806 4.12033 18.9999 5.50104 18.9999C6.88154 18.9997 8.00104 17.8805 8.00104 16.4999C8.00102 15.1194 6.88152 14.0002 5.50104 13.9999ZM18.501 13.9999C17.1203 13.9999 16.0011 15.1192 16.001 16.4999C16.001 17.8806 17.1203 18.9999 18.501 18.9999C19.8815 18.9997 21.001 17.8805 21.001 16.4999C21.001 15.1194 19.8815 14.0002 18.501 13.9999Z"/></svg>