<svg viewBox="0 0 24 24" fill="currentColor" xmlns="http://www.w3.org/2000/svg"><path d="M13.3428 1.99996C13.1216 2.62563 13 3.29855 13 3.99996C13 7.31368 15.6863 9.99997 19 9.99997C19.7014 9.99997 20.3743 9.8784 21 9.6572V21C21 21.5523 20.5523 22 20 22H6.5C4.567 22 3 20.433 3 18.5V4.99997C3.00003 3.34313 4.34316 1.99996 6 1.99996H13.3428ZM6.5 17C5.67159 17 5.00003 17.6716 5 18.5C5 19.3284 5.67157 20 6.5 20H19V17H6.5ZM18.5293 0.329292C18.7059 -0.0964932 19.2942 -0.096505 19.4707 0.329292L19.7236 0.940621C20.1556 1.98342 20.9616 2.81613 21.9746 3.2668L22.6924 3.58613C23.1026 3.76896 23.1026 4.36615 22.6924 4.54903L21.9326 4.88692C20.9449 5.3262 20.1534 6.12942 19.7139 7.1379L19.4668 7.70333C19.2864 8.11746 18.7137 8.11746 18.5332 7.70333L18.2871 7.1379C17.8476 6.12926 17.0552 5.32625 16.0674 4.88692L15.3076 4.54903C14.8974 4.36617 14.8974 3.76894 15.3076 3.58613L16.0254 3.2668C17.0385 2.81614 17.8445 1.98343 18.2764 0.940621L18.5293 0.329292Z"/></svg>