<svg viewBox="0 0 24 24" fill="currentColor" xmlns="http://www.w3.org/2000/svg"><path d="M19.5 4.7832V7.6709L22 9.11426V14.8867L19.499 16.3311L19.5 19.2178L14.5 22.1045L12 20.6611L9.5 22.1045L4.5 19.2178V16.3311L2 14.8877L2.00098 9.11328L4.5 7.66992V4.78418L9.5 1.89746L11.999 3.34082L14.501 1.89648L19.5 4.7832ZM14.7354 13.1602C14.6471 12.9473 14.3529 12.9473 14.2646 13.1602L14.1377 13.4648C13.9218 13.986 13.5192 14.4027 13.0127 14.6279L12.6543 14.7871C12.449 14.8784 12.449 15.1772 12.6543 15.2686L13.0342 15.4375C13.5279 15.6571 13.9239 16.0586 14.1436 16.5625L14.2666 16.8447C14.3568 17.0517 14.6432 17.0517 14.7334 16.8447L14.8564 16.5625C15.0761 16.0586 15.4721 15.6571 15.9658 15.4375L16.3457 15.2686C16.5511 15.1773 16.5511 14.8784 16.3457 14.7871L15.9873 14.6279C15.4807 14.4027 15.0773 13.986 14.8613 13.4648L14.7354 13.1602ZM10.4121 7.7793C10.2577 7.40689 9.74245 7.40691 9.58789 7.7793L9.36621 8.31445C8.98834 9.22695 8.28386 9.95622 7.39746 10.3506L6.76953 10.6299C6.41032 10.7898 6.41029 11.3128 6.76953 11.4727L7.43457 11.7676C8.2987 12.152 8.99142 12.8549 9.37598 13.7373L9.5918 14.2324C9.74973 14.5948 10.2503 14.5948 10.4082 14.2324L10.624 13.7373C11.0086 12.8549 11.7013 12.152 12.5654 11.7676L13.2305 11.4727C13.5898 11.3128 13.5897 10.7899 13.2305 10.6299L12.6025 10.3506C11.7161 9.95622 11.0108 9.22696 10.6328 8.31445L10.4121 7.7793Z"/></svg>