<svg viewBox="0 0 24 24" fill="currentColor" xmlns="http://www.w3.org/2000/svg"><path d="M13 3.99696H10V7.99697H4V10.997H20V9.9999H22V12.997H21V20.997C20.9997 21.5491 20.5521 21.997 20 21.997H10V15.997H8V21.997H4C3.44788 21.997 3.00026 21.5491 3 20.997V12.997H2V6.99697C2.00005 6.44472 2.44775 5.99696 3 5.99696H8V2.99696C8.00005 2.44472 8.44775 1.99696 9 1.99696H13V3.99696ZM18.5293 1.31922C18.7059 0.893436 19.2942 0.893424 19.4707 1.31922L19.7236 1.93055C20.1556 2.97335 20.9616 3.80606 21.9746 4.25673L22.6924 4.57606C23.1026 4.75889 23.1026 5.35608 22.6924 5.53896L21.9326 5.87685C20.9449 6.31613 20.1534 7.11935 19.7139 8.12783L19.4668 8.69326C19.2864 9.10739 18.7137 9.10739 18.5332 8.69326L18.2871 8.12783C17.8476 7.11919 17.0552 6.31618 16.0674 5.87685L15.3076 5.53896C14.8974 5.3561 14.8974 4.75887 15.3076 4.57606L16.0254 4.25673C17.0385 3.80607 17.8445 2.97336 18.2764 1.93055L18.5293 1.31922Z"/></svg>