<svg viewBox="0 0 24 24" fill="currentColor" xmlns="http://www.w3.org/2000/svg"><path d="M14.4336 3C15.136 3 15.7869 3.36852 16.1484 3.9707L16.9209 5.25684C17.0113 5.40744 17.174 5.5 17.3496 5.5H19C20.6569 5.5 22 6.84315 22 8.5V18C22 19.6569 20.6569 21 19 21H5C3.34315 21 2 19.6569 2 18V8.5C2 6.84315 3.34315 5.5 5 5.5H6.65039C6.82602 5.5 6.98874 5.40744 7.0791 5.25684L7.85156 3.9707C8.21306 3.36852 8.86403 3 9.56641 3H14.4336ZM12.4707 9.31738C12.2943 8.89134 11.7058 8.89134 11.5293 9.31738L11.2764 9.92871C10.8445 10.9716 10.0385 11.8042 9.02539 12.2549L8.30762 12.5742C7.89747 12.7571 7.89738 13.3543 8.30762 13.5371L9.06738 13.875C10.0552 14.3143 10.8476 15.1173 11.2871 16.126L11.5332 16.6914C11.7137 17.1055 12.2864 17.1055 12.4668 16.6914L12.7139 16.126C13.1534 15.1174 13.9449 14.3143 14.9326 13.875L15.6924 13.5371C16.1027 13.3543 16.1026 12.7571 15.6924 12.5742L14.9746 12.2549C13.9615 11.8042 13.1556 10.9715 12.7236 9.92871L12.4707 9.31738Z"/></svg>