<svg viewBox="0 0 24 24" fill="currentColor" xmlns="http://www.w3.org/2000/svg"><path d="M19 12C21.2091 12 23 13.7909 23 16C23 17.2628 22.414 18.388 21.5 19.1211V23.5L19 22L16.5 23.5V19.1211C15.586 18.388 15 17.2628 15 16C15 14.3776 15.9664 12.982 17.3545 12.3545C17.3598 12.3521 17.3648 12.3491 17.3701 12.3467C17.4643 12.3046 17.5604 12.2663 17.6582 12.2314C17.6673 12.2282 17.6764 12.2249 17.6855 12.2217C17.8819 12.1534 18.085 12.0997 18.2939 12.0625C18.3063 12.0603 18.3186 12.0578 18.3311 12.0557C18.4304 12.0389 18.5311 12.0259 18.6328 12.0166C18.6497 12.0151 18.6666 12.014 18.6836 12.0127C18.788 12.0045 18.8935 12 19 12ZM20 2C20.5523 2 21 2.44772 21 3V10.3418C20.3744 10.1207 19.7013 10 19 10C17.907 10 16.8826 10.293 16 10.8037V9H8V11H15.6836C14.0664 12.0748 13 13.9126 13 16C13 17.7766 13.7729 19.3721 15 20.4707V22H4C3.44772 22 3 21.5523 3 21V3C3 2.44772 3.44772 2 4 2H20ZM19 14C17.8954 14 17 14.8954 17 16C17 17.1046 17.8954 18 19 18C20.1046 18 21 17.1046 21 16C21 14.8954 20.1046 14 19 14ZM8 15H13V13H8V15Z"/></svg>