<svg viewBox="0 0 24 24" fill="currentColor" xmlns="http://www.w3.org/2000/svg"><path d="M12 1.99996C12.9057 1.99996 13.7829 2.12194 14.6172 2.34762C14.2223 3.14741 14 4.04768 14 4.99997C14 8.31368 16.6863 11 20 11C20.6685 11 21.3106 10.8882 21.9111 10.6865C21.9676 11.1165 22 11.5546 22 12C22 17.5228 17.5228 22 12 22C10.2975 22 8.69425 21.5746 7.29102 20.8242L2 22L3.17578 16.709C2.42542 15.3057 2 13.7025 2 12C2.00002 6.47714 6.47717 1.99996 12 1.99996ZM19.5293 1.3193C19.7058 0.893513 20.2942 0.8935 20.4707 1.3193L20.7236 1.93063C21.1555 2.97343 21.9615 3.80614 22.9746 4.2568L23.6914 4.57614C24.1022 4.75882 24.1022 5.35635 23.6914 5.53903L22.9326 5.87692C21.945 6.3162 21.1534 7.11943 20.7139 8.1279L20.4668 8.69333C20.2863 9.10747 19.7136 9.10747 19.5332 8.69333L19.2861 8.1279C18.8466 7.11942 18.0551 6.3162 17.0674 5.87692L16.3076 5.53903C15.8974 5.35618 15.8974 4.75895 16.3076 4.57614L17.0254 4.2568C18.0384 3.80614 18.8445 2.97343 19.2764 1.93063L19.5293 1.3193Z"/></svg>