<svg viewBox="0 0 24 24" fill="currentColor" xmlns="http://www.w3.org/2000/svg"><path d="M21 17C21 19.2091 19.2091 21 17 21C14.7909 21 13 19.2091 13 17C13 14.7909 14.7909 13 17 13C19.2091 13 21 14.7909 21 17ZM11 7C11 9.20914 9.20914 11 7 11C4.79086 11 3 9.20914 3 7C3 4.79086 4.79086 3 7 3C9.20914 3 11 4.79086 11 7ZM21 7C21 9.20914 19.2091 11 17 11C16.2584 11 15.5634 10.7972 14.9678 10.4453L10.4453 14.9678C10.7972 15.5634 11 16.2584 11 17C11 19.2091 9.20914 21 7 21C4.79086 21 3 19.2091 3 17C3 14.7909 4.79086 13 7 13C7.74116 13 8.43593 13.2022 9.03125 13.5537L13.5537 9.03125C13.2022 8.43593 13 7.74116 13 7C13 4.79086 14.7909 3 17 3C19.2091 3 21 4.79086 21 7Z"/></svg>