<svg viewBox="0 0 24 24" fill="currentColor" xmlns="http://www.w3.org/2000/svg"><path d="M23.7493 4.92674C23.5053 4.80721 23.4103 5.0349 23.2676 5.15064C23.2193 5.18858 23.1777 5.23791 23.137 5.28155C22.7804 5.66482 22.3643 5.91527 21.8215 5.88492C21.0261 5.84128 20.348 6.09173 19.7484 6.7027C19.6207 5.94942 19.197 5.49975 18.553 5.21135C18.2154 5.06146 17.8739 4.91156 17.6385 4.58522C17.473 4.35374 17.4285 4.0957 17.3452 3.84145C17.2932 3.68777 17.2403 3.53028 17.0644 3.50372C16.8733 3.47337 16.7986 3.63464 16.7239 3.76935C16.4232 4.31959 16.3077 4.92674 16.3182 5.54149C16.3446 6.92274 16.9263 8.0232 18.0801 8.80687C18.2116 8.89605 18.2456 8.98707 18.204 9.11802C18.1255 9.38741 18.0319 9.64931 17.9487 9.9187C17.8967 10.0914 17.8181 10.1293 17.6347 10.0534C17.0011 9.78784 16.4534 9.39508 15.9701 8.91878C15.1493 8.1219 14.4069 7.24157 13.481 6.55281C13.2634 6.39151 13.0469 6.24162 12.8217 6.09932C11.8769 5.1772 12.9457 4.42015 13.1925 4.33097C13.4516 4.23801 13.2823 3.91544 12.4463 3.91924C11.6112 3.92304 10.8461 4.20385 9.87196 4.57763C9.72921 4.63455 9.54598 4.73128 9.4256 4.70855C8.54132 4.54158 7.62304 4.50363 6.66308 4.61178C4.8567 4.8148 3.4135 5.67241 2.35237 7.13714C1.07845 8.89605 0.778651 10.8959 1.1456 12.9829C1.53147 15.1801 2.64839 17.0016 4.36587 18.4246C6.14576 19.8989 8.19617 20.6218 10.535 20.4832C11.9555 20.4016 13.5377 20.2101 15.3214 18.694C15.7715 18.9179 16.2434 19.0071 17.0275 19.0754C17.6309 19.1323 18.2116 19.0451 18.6617 18.952C19.3663 18.8022 19.3172 18.1476 19.0628 18.0261C16.9973 17.0604 17.4502 17.4532 17.0379 17.1363C18.0876 15.8879 19.6699 14.592 20.2884 10.395C20.3367 10.061 20.295 9.85235 20.2884 9.58102C20.2847 9.41782 20.3216 9.35331 20.5088 9.33437C21.0261 9.2755 21.5283 9.13318 21.9898 8.8771C23.3281 8.14278 23.8571 6.93799 23.9848 5.49216C24.0037 5.27207 23.981 5.04248 23.7493 4.92674ZM12.0983 17.937C10.0962 16.3565 9.12577 15.8366 8.72484 15.8594C8.35024 15.8802 8.41745 16.3109 8.49968 16.5918C8.58577 16.8688 8.6983 17.0604 8.85626 17.3033C8.96501 17.4645 9.03978 17.7055 8.7475 17.8838C8.10252 18.2861 6.98184 17.7492 6.92886 17.7226C5.62465 16.9523 4.5342 15.9333 3.76532 14.5407C3.02385 13.1993 2.59259 11.7611 2.52166 10.2261C2.50275 9.85419 2.61151 9.72324 2.97846 9.65689C3.46173 9.56771 3.96109 9.54877 4.44436 9.61891C6.48717 9.9187 8.22638 10.837 9.68379 12.2886C10.5161 13.1177 11.1459 14.1062 11.7947 15.072C12.4841 16.0985 13.2265 17.0756 14.1714 17.8762C14.5042 18.1571 14.7709 18.3715 15.0253 18.529C14.2575 18.6144 12.9749 18.6333 12.0983 17.937ZM13.0573 11.7383C13.0573 11.5732 13.1887 11.4423 13.3542 11.4423C13.3911 11.4423 13.4252 11.4499 13.4554 11.4613C13.4961 11.4764 13.5339 11.4992 13.5633 11.5333C13.6162 11.5846 13.6465 11.6605 13.6465 11.7383C13.6465 11.9034 13.515 12.0343 13.3504 12.0343C13.1849 12.0343 13.0573 11.9034 13.0573 11.7383ZM16.0373 13.2752C15.8463 13.353 15.6552 13.4213 15.4718 13.4288C15.1871 13.4421 14.8759 13.3264 14.7066 13.1841C14.4447 12.964 14.2575 12.8406 14.1779 12.4536C14.1448 12.2886 14.1638 12.0343 14.1931 11.8882C14.2612 11.5732 14.1855 11.3721 13.9652 11.1881C13.7846 11.0382 13.5566 10.9984 13.3051 10.9984C13.2114 10.9984 13.1253 10.9566 13.061 10.9224C12.9561 10.8693 12.87 10.7384 12.9523 10.5771C12.9787 10.5259 13.1065 10.3988 13.1367 10.376C13.4772 10.1806 13.8706 10.2451 14.2347 10.3912C14.5723 10.5296 14.8267 10.7839 15.1936 11.1425C15.5691 11.5771 15.6363 11.6985 15.8501 12.0229C16.0184 12.279 16.1726 12.5408 16.2775 12.8406C16.3409 13.0266 16.2586 13.1802 16.0373 13.2752Z"/></svg>