<svg viewBox="0 0 24 24" fill="currentColor" xmlns="http://www.w3.org/2000/svg"><path d="M18.5293 15.3193C18.7059 14.8935 19.2943 14.8935 19.4707 15.3193L19.7236 15.9307C20.1556 16.9735 20.9615 17.8062 21.9746 18.2568L22.6924 18.5762C23.1026 18.759 23.1026 19.3562 22.6924 19.5391L21.9326 19.877C20.9449 20.3162 20.1534 21.1194 19.7139 22.1279L19.4668 22.6934C19.2864 23.1075 18.7137 23.1075 18.5332 22.6934L18.2871 22.1279C17.8476 21.1193 17.0552 20.3163 16.0674 19.877L15.3076 19.5391C14.8974 19.3562 14.8974 18.759 15.3076 18.5762L16.0254 18.2568C17.0385 17.8062 17.8445 16.9735 18.2764 15.9307L18.5293 15.3193ZM20.002 2C20.5532 2.00012 21 2.45576 21 2.99219V13.3418C20.3744 13.1207 19.7013 13 19 13C15.6863 13 13 15.6863 13 19C13 20.0932 13.2939 21.1173 13.8047 22H3.99316C3.44463 21.9999 3 21.5507 3 20.9922V9H9C9.55228 9 10 8.55228 10 8V2H20.002ZM8 7H3L8 2.00293V7Z"/></svg>