<svg viewBox="0 0 24 24" fill="currentColor" xmlns="http://www.w3.org/2000/svg"><path d="M12 2.5C14.4444 2.5 16.1339 3.18785 17.2529 4.4668C18.3245 5.69165 18.7323 7.31149 18.9863 8.83594C19.0865 9.43687 19.2716 9.7571 19.4355 9.94629C19.6048 10.1416 19.816 10.2726 20.1016 10.4023C20.2731 10.4803 20.3756 10.5183 20.5811 10.6074C20.7484 10.6801 20.9611 10.778 21.1621 10.9141C21.3716 11.056 21.5954 11.257 21.7607 11.5479C21.9285 11.8433 22 12.1676 22 12.5C22 13.0858 21.8286 13.5641 21.5479 13.959C21.2923 14.3183 20.9624 14.579 20.7422 14.7539C20.2589 15.1379 20.0589 15.3106 19.9795 15.7002C19.9323 15.9326 19.9737 16.3479 20.1533 16.9238C20.3234 17.469 20.5779 18.0357 20.8164 18.5078C21.3648 19.5941 20.4441 21.0119 19.1201 20.7178L16.8232 20.207C16.3748 20.1074 15.905 20.1657 15.4941 20.3711L13.7891 21.2236C12.663 21.7867 11.337 21.7867 10.2109 21.2236L8.50586 20.3711C8.09501 20.1657 7.62516 20.1074 7.17676 20.207L4.85547 20.7236C3.54333 21.0152 2.61697 19.6182 3.1582 18.5293C3.39795 18.047 3.65817 17.4641 3.83398 16.9082C4.02156 16.3149 4.06235 15.9064 4.02051 15.7002C3.94973 15.353 3.76082 15.1872 3.25488 14.7764C2.78037 14.391 2.00001 13.7517 2 12.5C2 12.1676 2.07146 11.8433 2.23926 11.5479C2.40457 11.257 2.62841 11.056 2.83789 10.9141C3.03885 10.778 3.25157 10.6801 3.41895 10.6074C3.62436 10.5183 3.72694 10.4803 3.89844 10.4023C4.18397 10.2726 4.39518 10.1416 4.56445 9.94629C4.72838 9.7571 4.91347 9.43687 5.01367 8.83594C5.26775 7.31149 5.67551 5.69165 6.74707 4.4668C7.86615 3.18785 9.55563 2.5 12 2.5ZM10 8.5C9.30964 8.5 8.75 9.2835 8.75 10.25C8.75 11.2165 9.30964 12 10 12C10.6904 12 11.25 11.2165 11.25 10.25C11.25 9.2835 10.6904 8.5 10 8.5ZM14 8.5C13.3096 8.5 12.75 9.2835 12.75 10.25C12.75 11.2165 13.3096 12 14 12C14.6904 12 15.25 11.2165 15.25 10.25C15.25 9.2835 14.6904 8.5 14 8.5Z"/></svg>