<svg viewBox="0 0 24 24" fill="currentColor" xmlns="http://www.w3.org/2000/svg"><path d="M10.4199 12.5351C11.3994 13.1273 11.8892 13.4227 12.4273 13.4234C12.9654 13.4234 13.4551 13.1286 14.4353 12.539L20.6714 8.78628C20.9533 8.6169 21.1272 8.30242 21.1272 7.96234C21.1272 7.62225 20.9533 7.30777 20.6714 7.13839L14.4334 3.38369C13.4539 2.79413 12.9641 2.5 12.4273 2.5C11.8898 2.5 11.4001 2.79544 10.4218 3.38566L5.06094 6.61645C5.01761 6.64271 4.99564 6.65584 4.97554 6.66897C3.14652 7.79164 2.01695 9.83673 2 12.0545V12.2606C2.01632 14.4758 3.14401 16.5189 4.96989 17.6429L5.05591 17.6954L8.40756 19.7215C10.3691 20.9065 11.3498 21.4993 12.4273 21.5C13.5041 21.5 14.4855 20.9085 16.4476 19.7241L19.9901 17.5858C20.9709 16.9942 21.4613 16.6981 21.7306 16.2103C22 15.7232 22 15.131 22 13.9466V11.6527C21.9994 11.3297 21.8349 11.031 21.5674 10.8695C21.2999 10.7079 20.9703 10.7073 20.7022 10.8681L13.4288 15.2452C12.9396 15.5394 12.6954 15.6864 12.4266 15.6864C12.1585 15.6864 11.9143 15.54 11.4252 15.2459L6.50381 12.2882C6.25643 12.1398 6.13336 12.065 6.03353 12.0519C5.80749 12.0217 5.59024 12.1536 5.50422 12.3742C5.46655 12.4714 5.46718 12.6204 5.46906 12.9191C5.46969 13.1378 5.47032 13.2474 5.49041 13.3485C5.53436 13.5737 5.64738 13.7779 5.81251 13.9289C5.8866 13.9972 5.97765 14.0517 6.15911 14.1613L11.422 17.3415C11.9124 17.6383 12.1579 17.786 12.4266 17.786C12.6966 17.786 12.9415 17.6383 13.4319 17.3422L19.8828 13.449C20.0504 13.3479 20.1339 13.298 20.1967 13.3354C20.2595 13.3735 20.2595 13.4746 20.2595 13.6768V14.7161C20.2595 15.0122 20.2595 15.1599 20.1923 15.282C20.1251 15.4041 20.0027 15.4776 19.7572 15.626L14.4378 18.8365C13.4564 19.4286 12.966 19.7247 12.4273 19.7241C11.8886 19.7241 11.3975 19.4273 10.4174 18.8345L5.44206 15.8256L5.4069 15.8046C4.36461 15.1658 3.72229 14.0004 3.71538 12.7373V11.7394C3.71538 11.0415 4.07013 10.3968 4.64716 10.0462C5.15826 9.73628 5.78865 9.73562 6.29975 10.0449L10.4206 12.5344L10.4199 12.5351Z"/></svg>