<svg viewBox="0 0 24 24" fill="currentColor" xmlns="http://www.w3.org/2000/svg"><path d="M12 2C17.5228 2 22 6.47715 22 12C22 17.5228 17.5228 22 12 22C6.47715 22 2 17.5228 2 12C2 6.47715 6.47715 2 12 2ZM10.1484 6.44434C8.10295 6.44434 6.44434 8.10295 6.44434 10.1484V17.0615C6.44434 17.3343 6.66574 17.5557 6.93848 17.5557H14.2227C16.0632 17.5554 17.5554 16.0632 17.5557 14.2227V11.3828C17.5557 11.1101 17.3343 10.8887 17.0615 10.8887H11.3828C11.1101 10.8888 10.8889 11.1101 10.8887 11.3828V12.6172C10.8885 12.8899 11.1091 13.1112 11.3818 13.1113H14.8398C15.1122 13.1116 15.3328 13.3321 15.333 13.6045V13.8516C15.333 14.6698 14.6698 15.333 13.8516 15.333H9.16016C8.88757 15.333 8.66621 15.1124 8.66602 14.8398V10.1484C8.66595 9.33027 9.32931 8.66706 10.1475 8.66699H17.0605C17.333 8.66652 17.5542 8.44536 17.5547 8.17285V6.93848C17.5552 6.66575 17.3343 6.44451 17.0615 6.44434H10.1484Z"/></svg>