<svg viewBox="0 0 24 24" fill="currentColor" xmlns="http://www.w3.org/2000/svg"><path d="M22.0352 16.3789L19.9141 18.5L22.0352 20.6211L20.6211 22.0361L18.5 19.9141L16.3789 22.0361L14.9648 20.6211L17.0859 18.5L14.9648 16.3789L16.3789 14.9648L18.5 17.0859L20.6211 14.9648L22.0352 16.3789ZM7.52734 13C7.70634 16.2688 8.75755 19.3053 10.4521 21.8809C5.98775 21.1871 2.49961 17.5403 2.04883 13H7.52734ZM14.4688 13C14.4445 13.3927 14.4046 13.7814 14.3525 14.166C13.2115 15.2583 12.5 16.7957 12.5 18.5C12.5 18.8651 12.5342 19.2222 12.5967 19.5693C12.4093 19.9176 12.2118 20.2596 12 20.5918C10.5853 18.3735 9.70188 15.7828 9.53027 13H14.4688ZM10.4521 2.11914C8.75755 4.69467 7.70635 7.7312 7.52734 11H2.04883C2.49962 6.45975 5.98775 2.81288 10.4521 2.11914ZM12 3.4082C13.4147 5.62649 14.2971 8.21719 14.4688 11H9.53027C9.70189 8.21717 10.5853 5.6265 12 3.4082ZM13.5479 2.11914C18.0122 2.81288 21.4994 6.45979 21.9502 11H16.4727C16.2937 7.73119 15.2424 4.69467 13.5479 2.11914Z"/></svg>