<svg viewBox="0 0 24 24" fill="currentColor" xmlns="http://www.w3.org/2000/svg"><path d="M21 15V19H24L20 23L16 19H19V15H21ZM21.0078 3C21.5555 3 21.9999 3.44482 22 3.99316L22.001 13.3418C21.3752 13.1205 20.7015 13 20 13V5H4L4.00098 19L13.293 9.70703C13.6528 9.34601 14.22 9.31813 14.6123 9.62305L14.7061 9.70801L18.252 13.2588C15.7909 14.0071 14 16.2944 14 19C14 19.7015 14.1205 20.3752 14.3418 21.001L2.99219 21C2.44451 21 2.00013 20.5552 2 20.0068V3.99316C2.00013 3.44463 2.45577 3 2.99219 3H21.0078ZM8 7C9.10457 7 10 7.89543 10 9C10 10.1046 9.10457 11 8 11C6.89543 11 6 10.1046 6 9C6 7.89543 6.89543 7 8 7Z"/></svg>