<svg viewBox="0 0 24 24" fill="currentColor" xmlns="http://www.w3.org/2000/svg"><path d="M15.6381 4.56599L15.6938 4.59784C14.9364 4.99824 12.7704 6.28701 12.7704 7.92962C12.7704 8.48354 13.0874 9.01826 13.3844 9.51945C13.6464 9.96151 13.893 10.3775 13.893 10.7576C13.893 11.7153 12.9598 12.4571 12.4328 12.7997L12.3326 12.7418C12.532 12.4987 12.7769 12.092 12.7769 11.6582C12.7769 11.06 12.4704 10.5823 12.159 10.0969C11.8375 9.5956 11.5106 9.08616 11.5106 8.42736C11.5106 6.13463 14.6259 4.90499 15.6381 4.56599ZM11.5434 5.77842C12.7958 4.65819 14.1645 3.4338 14.1645 1.59281C14.1645 0.759642 13.8238 0.227858 13.6546 0.0151367L13.6005 0.0462914C13.6419 0.211625 13.7011 0.517945 13.7011 0.917644C13.7011 2.59358 12.2794 3.7686 10.903 4.9062C9.61148 5.97359 8.35986 7.00804 8.35986 8.39241C8.35986 10.3767 10.3182 11.5982 11.1447 12.1137C11.1667 12.1274 11.1879 12.1407 11.2082 12.1534L11.2587 12.1242C11.2135 12.0754 11.1657 12.0246 11.1159 11.9715C10.4801 11.2951 9.51432 10.2677 9.51432 8.69716C9.51432 7.59351 10.4875 6.72299 11.5434 5.77842ZM11.0908 15.6856C12.8553 15.6856 14.0892 15.4327 14.637 15.2776L15.4693 15.7583C14.6762 16.1607 12.918 16.4678 11.0874 16.4678C8.93406 16.4678 6.58033 16.0056 6.57265 15.3901C6.5682 15.0509 7.3385 14.8243 8.1677 14.6778L8.21766 14.7067C8.21766 14.7067 7.93691 14.808 7.93983 15.0401C7.94424 15.3892 9.35916 15.6856 11.0908 15.6856ZM7.56243 17.857C7.56243 17.4494 8.40054 17.257 8.78509 17.1805L8.83501 17.2093C8.76891 17.2585 8.73343 17.3259 8.73343 17.3826C8.73343 17.6501 9.66273 17.8943 11.0891 17.8943C12.3671 17.8943 13.0768 17.7366 13.4981 17.6363L14.4885 18.2093C14.4444 18.241 13.4687 18.854 11.0867 18.854C9.35558 18.854 7.56243 18.4215 7.56243 17.857ZM16.0908 16.1288C17.2713 15.4562 18.4524 14.6602 18.519 13.3818C18.5628 12.5432 17.7924 11.9276 16.9493 12.0925L16.994 11.9801L16.9946 11.978C17.2064 11.9135 17.4675 11.8618 17.761 11.8618C18.7036 11.8618 19.4266 12.427 19.5192 13.218C19.705 14.8042 17.4574 15.8361 16.1978 16.1905L16.0908 16.1288ZM18.0656 19.1166C18.0751 20.2067 14.3677 20.8552 11.0541 20.884C8.19296 20.9091 3.57989 20.3684 3.57033 19.2794C3.5637 18.5262 5.57092 18.0044 6.66027 17.8544L6.77512 17.9201C6.77512 17.9201 5.14953 18.2966 5.15551 18.9816C5.16149 19.665 8.58036 20.2563 11.0485 20.2348C14.8736 20.2014 17.4627 19.5775 17.769 18.7331L17.8234 18.7019C17.9352 18.7837 18.0639 18.9191 18.0656 19.1166ZM6.43132 21.3374C7.78419 21.5648 9.39241 21.6739 10.7095 21.6623C16.9181 21.6081 18.6693 20.0815 18.9407 19.7504L18.9875 19.7776C18.9226 20.9859 15.6401 21.9899 11.5914 22.0254C9.52977 22.0433 7.65363 21.8046 6.30604 21.4095L6.43132 21.3374ZM9.03259 12.054C7.95397 12.137 5.63738 12.4796 5.63738 13.0903C5.63738 13.5516 7.76084 14.2027 11.0887 14.2027C14.083 14.2027 15.9733 13.6377 16.4136 13.4221L15.7707 13.0479C15.3111 13.1733 13.6023 13.5538 11.0886 13.5538C9.60853 13.5538 7.05875 13.2809 7.05875 12.8645C7.05875 12.4903 8.65043 12.2015 9.10709 12.1187C9.11713 12.1168 9.12662 12.1151 9.13553 12.1135L9.03259 12.054Z"/></svg>