<svg viewBox="0 0 24 24" fill="currentColor" xmlns="http://www.w3.org/2000/svg"><path d="M4 12C4 16.4183 7.58172 20 12 20C14.5905 20 16.8941 18.7696 18.3574 16.8574L16 14.5H22V20.5L19.7812 18.2812C17.9493 20.5479 15.1444 22 12 22C6.47715 22 2 17.5228 2 12H4ZM11.5293 8.31934C11.7059 7.8935 12.2943 7.89349 12.4707 8.31934L12.7236 8.93066C13.1556 9.97346 13.9615 10.8062 14.9746 11.2568L15.6924 11.5762C16.1026 11.759 16.1026 12.3562 15.6924 12.5391L14.9326 12.877C13.9449 13.3162 13.1534 14.1194 12.7139 15.1279L12.4668 15.6934C12.2864 16.1075 11.7137 16.1075 11.5332 15.6934L11.2871 15.1279C10.8476 14.1193 10.0552 13.3163 9.06738 12.877L8.30762 12.5391C7.89744 12.3562 7.89741 11.759 8.30762 11.5762L9.02539 11.2568C10.0385 10.8062 10.8445 9.97348 11.2764 8.93066L11.5293 8.31934ZM12 2C17.5228 2 22 6.47715 22 12H20C20 7.58172 16.4183 4 12 4C9.40951 4 7.1059 5.23038 5.64258 7.14258L8 9.5H2V3.5L4.21875 5.71875C6.05073 3.45212 8.85558 2 12 2Z"/></svg>