<svg viewBox="0 0 24 24" fill="currentColor" xmlns="http://www.w3.org/2000/svg"><path d="M15.9498 2.39018L21.6066 8.04704C21.9972 8.43756 21.9972 9.07073 21.6066 9.46125L13.8285 17.2394L11.7071 17.9465L10.2929 19.3607C9.90241 19.7513 9.26925 19.7513 8.87872 19.3607L4.63608 15.1181C4.24556 14.7276 4.24556 14.0944 4.63608 13.7039L6.0503 12.2897L6.7574 10.1684L14.5356 2.39018C14.9261 1.99966 15.5593 1.99966 15.9498 2.39018ZM16.6569 5.92572L10.2929 12.2897L11.7071 13.7039L18.0711 7.33993L16.6569 5.92572ZM4.28253 16.8859L7.11096 19.7143L5.69674 21.1285L1.4541 19.7143L4.28253 16.8859Z"/></svg>