<svg viewBox="0 0 24 24" fill="currentColor" xmlns="http://www.w3.org/2000/svg"><path d="M12 21.9967C6.47715 21.9967 2 17.5196 2 11.9967C2 6.47386 6.47715 1.9967 12 1.9967C17.5228 1.9967 22 6.47386 22 11.9967C22 17.5196 17.5228 21.9967 12 21.9967ZM17.051 18.2008L16.1894 14.7542C16.0781 14.309 15.6781 13.9967 15.2192 13.9967H8.78078C8.32191 13.9967 7.92193 14.309 7.81063 14.7542L6.94897 18.2008C8.32629 19.3235 10.0845 19.9967 12 19.9967C13.9155 19.9967 15.6737 19.3235 17.051 18.2008ZM10 11.9967H14V10.4967L12.9615 6.86204C12.8666 6.52983 12.6069 6.27015 12.2747 6.17523C11.7437 6.02351 11.1902 6.331 11.0385 6.86204L10 10.4967V11.9967Z"/></svg>