<svg viewBox="0 0 24 24" fill="currentColor" xmlns="http://www.w3.org/2000/svg"><path d="M21.6064 20.1924L20.1924 21.6064L19.4678 20.8818C19.328 20.9562 19.1694 21 19 21H15C14.4477 21 14 20.5523 14 20V16C14 15.8305 14.0428 15.6711 14.1172 15.5312L11.5859 13H8V15H9C9.55228 15 10 15.4477 10 16V20C10 20.5523 9.55228 21 9 21H5C4.44772 21 4 20.5523 4 20V16L4.00488 15.8975C4.05621 15.3933 4.48232 15 5 15H6V13H3V11H9.58594L2.39355 3.80762L3.80762 2.39355L21.6064 20.1924ZM21 13H18V13.7578L15.2422 11H21V13ZM14 3C14.5523 3 15 3.44772 15 4V8C15 8.55228 14.5523 9 14 9H13.2422L9 4.75781V4C9 3.44772 9.44772 3 10 3H14Z"/></svg>