<svg viewBox="0 0 24 24" fill="currentColor" xmlns="http://www.w3.org/2000/svg"><path d="M3.52508 3.5254C4.89176 2.15877 7.10744 2.15907 8.4743 3.5254L8.64617 3.6963C8.84144 3.89118 9.15805 3.89135 9.35321 3.6963L9.52508 3.5254C10.5777 2.47283 12.1335 2.23205 13.4177 2.80079C13.1491 3.48198 13.0007 4.22436 13.0007 5.00098C13.0008 5.89291 13.1964 6.73918 13.5456 7.50001H9.49969C8.3955 7.50025 7.49998 8.39583 7.49969 9.50001V14.5C7.49993 15.6042 8.39547 16.4998 9.49969 16.5H14.4997C15.604 16.4999 16.4995 15.6043 16.4997 14.5V10.4541C17.261 10.8037 18.1081 11.001 19.0007 11.001C19.7769 11.0009 20.518 10.8505 21.1989 10.582C21.7676 11.8661 21.5269 13.422 20.4743 14.4746L20.3034 14.6465C20.1084 14.8416 20.1087 15.1583 20.3034 15.3535L20.4743 15.5254C21.8408 16.8922 21.841 19.1079 20.4743 20.4746C19.1076 21.8412 16.8919 21.8411 15.5251 20.4746L15.3532 20.3037C15.1579 20.109 14.8413 20.1087 14.6462 20.3037L14.4743 20.4746C13.1076 21.8412 10.8919 21.8411 9.52508 20.4746L9.35321 20.3037C9.15792 20.109 8.84128 20.1087 8.64617 20.3037L8.4743 20.4746C7.10758 21.8412 4.89192 21.8411 3.52508 20.4746C2.15877 19.1078 2.1585 16.8921 3.52508 15.5254L3.69598 15.3535C3.89108 15.1584 3.89087 14.8418 3.69598 14.6465L3.52508 14.4746C2.15877 13.1078 2.1585 10.8921 3.52508 9.5254L3.69598 9.35352C3.89108 9.15837 3.89087 8.84177 3.69598 8.64649L3.52508 8.47462C2.15877 7.10777 2.1585 4.89208 3.52508 3.5254ZM14.4997 14.5H9.49969V9.50001H14.4997V14.5ZM18.529 1.31934C18.7055 0.893505 19.2939 0.893599 19.4704 1.31934L19.7233 1.93067C20.1553 2.9734 20.9613 3.80616 21.9743 4.25684L22.6921 4.57618C23.1026 4.75893 23.1025 5.35627 22.6921 5.53907L21.9323 5.87696C20.9446 6.31625 20.1531 7.11942 19.7136 8.12794L19.4665 8.69337C19.2861 9.1075 18.7134 9.1075 18.5329 8.69337L18.2868 8.12794C17.8473 7.11944 17.0557 6.3163 16.0681 5.87696L15.3083 5.53907C14.8976 5.35638 14.8976 4.75887 15.3083 4.57618L16.0251 4.25684C17.0382 3.8062 17.8442 2.97354 18.2761 1.93067L18.529 1.31934Z"/></svg>