<svg viewBox="0 0 24 24" fill="currentColor" xmlns="http://www.w3.org/2000/svg"><path d="M17.1426 11.0967L7.2422 20.9961H3.00001V16.7539L12.8994 6.85446L17.1426 11.0967ZM16.4356 3.31832C16.8261 2.92829 17.4592 2.92802 17.8496 3.31832L20.6777 6.14743C21.0681 6.53797 21.0682 7.17101 20.6777 7.5615L18.5567 9.68259L14.3135 5.4404L16.4356 3.31832ZM4.5293 1.3193C4.70583 0.893505 5.29418 0.893508 5.47071 1.3193L5.72364 1.93063C6.15555 2.97342 6.96155 3.80613 7.97462 4.2568L8.69239 4.57614C9.10267 4.75896 9.10262 5.35616 8.69239 5.53903L7.93263 5.87692C6.94497 6.3162 6.15339 7.11943 5.71387 8.1279L5.4668 8.69334C5.28636 9.10747 4.71366 9.10747 4.53321 8.69334L4.28614 8.1279C3.84661 7.11943 3.05506 6.3162 2.06739 5.87692L1.30762 5.53903C0.897483 5.35617 0.897435 4.75896 1.30762 4.57614L2.0254 4.2568C3.03845 3.80614 3.84446 2.97344 4.27637 1.93063L4.5293 1.3193Z"/></svg>