<svg viewBox="0 0 24 24" fill="currentColor" xmlns="http://www.w3.org/2000/svg"><path d="M11.7104 1.99902C11.889 1.99902 12.0547 2.09436 12.144 2.24902L13.4428 4.49902H18.9281C19.1066 4.49916 19.2715 4.59453 19.3608 4.74902L20.5151 6.74902C20.6044 6.90373 20.6044 7.09432 20.5151 7.24902L19.2162 9.49902L21.9584 14.249C22.0477 14.4037 22.0477 14.5943 21.9584 14.749L20.8041 16.749C20.7148 16.9037 20.5491 16.999 20.3705 16.999H17.7729L15.0307 21.749C14.9414 21.9035 14.7765 21.9989 14.5981 21.999H12.2885C12.1099 21.999 11.9442 21.9037 11.8549 21.749L10.5561 19.499H5.07172C4.89315 19.499 4.72742 19.4037 4.63813 19.249L3.48383 17.249C3.39457 17.0944 3.39457 16.9037 3.48383 16.749L4.78266 14.499L2.04047 9.75C1.95141 9.5954 1.95129 9.40455 2.04047 9.25L3.19575 7.25C3.28501 7.09552 3.44996 7.00016 3.62836 7H6.22699L8.9682 2.24902C9.05748 2.09433 9.22319 1.99908 9.40179 1.99902H11.7104ZM6.58734 7.625L4.42133 7.62402L9.47308 16.374H6.58734L5.14399 18.874H10.9164L12.0004 20.75L17.0522 12L18.4946 14.5L21.3813 14.499L18.4946 9.49902L19.5776 7.625H9.47406L10.9174 5.12402L9.47406 2.625L6.58734 7.625ZM15.4643 10L12.0004 16L8.53558 10H15.4643Z"/></svg>