<svg viewBox="0 0 24 24" fill="currentColor" xmlns="http://www.w3.org/2000/svg"><path d="M17.2539 0.899902C18.5668 0.899902 19.6316 1.96405 19.6318 3.27687C19.6317 4.58978 18.5668 5.65482 17.2539 5.65482C16.1306 5.65482 15.1909 4.87499 14.9424 3.82766C13.5597 4.01397 12.4902 5.19938 12.4902 6.63237C12.4901 6.63491 12.4884 6.63766 12.4883 6.64018C14.6161 6.71893 16.5617 7.31815 18.1025 8.27203C18.6682 7.83745 19.3761 7.57873 20.1445 7.57867C21.9976 7.57867 23.5 9.08109 23.5 10.9342C23.4999 12.2727 22.7158 13.4281 21.582 13.9664C21.4749 17.8644 17.2317 20.9995 12.0088 20.9997C6.78922 20.9997 2.54712 17.8687 2.43457 13.9742C1.29198 13.4392 0.500107 12.2792 0.5 10.9342C0.500017 9.08111 2.00243 7.5787 3.85547 7.57867C4.62712 7.57867 5.33746 7.84005 5.9043 8.27789C7.43009 7.33076 9.35438 6.73323 11.46 6.64409C11.4598 6.64061 11.459 6.63687 11.459 6.63335C11.459 4.63684 12.9818 2.98832 14.9268 2.78957C15.1518 1.71052 16.1081 0.89991 17.2539 0.899902ZM12.0078 15.7164C10.8425 15.7164 9.72472 15.7734 8.69238 15.8785C8.51571 15.896 8.40381 16.0793 8.47266 16.2428C9.05146 17.6248 10.4169 18.5963 12.0078 18.5963C13.5988 18.5963 14.9655 17.6249 15.543 16.2428C15.612 16.0792 15.4987 15.8959 15.3232 15.8785C14.2896 15.7734 13.1732 15.7164 12.0078 15.7164ZM7.5752 10.9137C6.6347 10.9137 5.82654 11.7039 5.77051 12.9117C5.71483 14.1194 6.43257 14.776 7.37305 14.776C8.25466 14.7759 9.01895 14.3896 9.15723 13.3463L9.17676 13.1305C9.23263 11.9225 8.51568 10.9138 7.5752 10.9137ZM16.4424 10.9137C15.5018 10.9137 14.7849 11.9225 14.8408 13.1305L14.8594 13.3463C14.9977 14.3896 15.7629 14.7759 16.6445 14.776C17.585 14.776 18.3018 14.1194 18.2461 12.9117C18.1901 11.7039 17.3829 10.9137 16.4424 10.9137Z"/></svg>