<svg viewBox="0 0 24 24" fill="currentColor" xmlns="http://www.w3.org/2000/svg"><path d="M11 1.99983C11.2639 1.99983 11.525 2.01367 11.7832 2.03596C11.2854 2.91028 11.0001 3.92178 11 4.99983C11 8.31354 13.6863 10.9998 17 10.9998C18.0781 10.9998 19.0885 10.7134 19.9629 10.2156C19.9852 10.4741 20 10.7357 20 10.9998C20 13.1237 19.2632 15.0772 18.0312 16.617L22.3135 20.8992L20.8994 22.3133L16.6172 18.0311C15.0773 19.2631 13.124 19.9998 11 19.9998C6.032 19.9998 2 15.9678 2 10.9998C2.00021 6.03201 6.03213 1.99983 11 1.99983ZM16.5293 1.31916C16.7058 0.893124 17.2943 0.893124 17.4707 1.31916L17.7236 1.93049C18.1556 2.97331 18.9615 3.80602 19.9746 4.25666L20.6924 4.576C21.1026 4.75891 21.1027 5.3561 20.6924 5.53889L19.9326 5.87678C18.9448 6.3161 18.1534 7.11915 17.7139 8.12776L17.4668 8.69319C17.2864 9.10732 16.7137 9.10732 16.5332 8.69319L16.2871 8.12776C15.8476 7.11912 15.0552 6.31611 14.0674 5.87678L13.3076 5.53889C12.8974 5.35612 12.8975 4.75889 13.3076 4.576L14.0254 4.25666C15.0385 3.80602 15.8445 2.97333 16.2764 1.93049L16.5293 1.31916Z"/></svg>