<svg viewBox="0 0 24 24" fill="currentColor" xmlns="http://www.w3.org/2000/svg"><path d="M22.3135 20.8995L20.8994 22.3135L18.0713 19.4854L19.4854 18.0713L22.3135 20.8995ZM11 2.00001C11.2639 2.00001 11.525 2.01385 11.7832 2.03614C11.2853 2.91056 11 3.92183 11 5.00001C11 8.31373 13.6863 11 17 11C18.0781 11 19.0885 10.7136 19.9629 10.2158C19.9852 10.4744 20 10.7357 20 11C20 15.968 15.968 20 11 20C6.032 20 2 15.968 2 11C2.00003 6.03204 6.03202 2.00001 11 2.00001ZM16.5293 1.31837C16.7059 0.892582 17.2942 0.89257 17.4707 1.31837L17.7236 1.9297C18.1556 2.97249 18.9616 3.80521 19.9746 4.25587L20.6924 4.57521C21.1026 4.75803 21.1026 5.35523 20.6924 5.5381L19.9326 5.87599C18.9449 6.31527 18.1534 7.1185 17.7139 8.12697L17.4668 8.6924C17.2864 9.10654 16.7137 9.10654 16.5332 8.6924L16.2871 8.12697C15.8476 7.11834 15.0552 6.31532 14.0674 5.87599L13.3076 5.5381C12.8974 5.35524 12.8974 4.75802 13.3076 4.57521L14.0254 4.25587C15.0385 3.80521 15.8445 2.97251 16.2764 1.9297L16.5293 1.31837Z"/></svg>