<svg viewBox="0 0 24 24" fill="currentColor" xmlns="http://www.w3.org/2000/svg"><path d="M12.0007 3.29814L14.446 1.66794L15.5554 3.33204L13.0007 5.03517V10.2678L17.5323 7.65149L17.7299 4.58748L19.7257 4.7162L19.5366 7.64899L22.171 8.95159L21.2846 10.7444L18.5323 9.38354L14.001 11.9996L18.5326 14.616L21.2849 13.2551L22.1714 15.0479L19.537 16.3505L19.7261 19.2833L17.7302 19.412L17.5326 16.348L13.0007 13.7315V18.9648L15.5554 20.6679L14.446 22.332L12.0007 20.7018L9.55544 22.332L8.44604 20.6679L11.0007 18.9648V13.7319L6.46884 16.3484L6.27123 19.4124L4.27538 19.2836L4.46452 16.3508L1.83008 15.0483L2.71653 13.2554L5.46884 14.6163L10.001 11.9996L5.46922 9.38319L2.71691 10.7441L1.83046 8.95124L4.4649 7.64864L4.27576 4.71585L6.27161 4.58713L6.46922 7.65113L11.0007 10.2674V5.03517L8.44604 3.33204L9.55544 1.66794L12.0007 3.29814Z"/></svg>