<svg viewBox="0 0 24 24" fill="currentColor" xmlns="http://www.w3.org/2000/svg"><path d="M10.9491 17.2928C11.3395 16.9025 11.9727 16.9027 12.3632 17.2928C12.7537 17.6834 12.7537 18.3174 12.3632 18.7079L9.52432 21.5458C9.13379 21.9363 8.50075 21.9363 8.11025 21.5458C7.7201 21.1553 7.71991 20.5221 8.11025 20.1317L10.9491 17.2928ZM9.17178 13.4139C9.56229 13.0238 10.1954 13.0236 10.5858 13.4139C10.9764 13.8044 10.9764 14.4384 10.5858 14.829L4.92861 20.4852C4.53808 20.8757 3.90506 20.8758 3.51454 20.4852C3.12414 20.0947 3.12408 19.4617 3.51454 19.0712L9.17178 13.4139ZM17.4228 2.71267C18.6406 2.22369 19.8771 2.52462 20.6757 3.32302C21.4742 4.12162 21.775 5.35808 21.2861 6.57598L17.0321 17.1727C16.8732 17.5687 16.4797 17.8199 16.0536 17.7987C15.6275 17.7773 15.2621 17.4878 15.1435 17.078C14.5878 15.157 13.5743 13.378 12.0976 11.9012C10.6208 10.4245 8.84169 9.41195 6.9208 8.85626C6.51112 8.73761 6.22161 8.37207 6.20009 7.9461C6.17872 7.52001 6.43026 7.12671 6.82607 6.96758L17.4228 2.71267ZM5.29287 11.6366C5.6834 11.2461 6.31644 11.2461 6.70693 11.6366C7.09729 12.0271 7.09731 12.6601 6.70693 13.0506L3.86806 15.8895C3.47757 16.2799 2.84451 16.2799 2.45399 15.8895C2.06349 15.499 2.06353 14.866 2.45399 14.4754L5.29287 11.6366Z"/></svg>