<svg viewBox="0 0 24 24" fill="currentColor" xmlns="http://www.w3.org/2000/svg"><path d="M12 2C12.5523 2 13 2.44772 13 3C13 3.55228 12.5523 4 12 4C7.58172 4 4 7.58172 4 12C4 16.4183 7.58172 20 12 20C16.4183 20 20 16.4183 20 12C20 11.4477 20.4477 11 21 11C21.5523 11 22 11.4477 22 12C22 17.5228 17.5228 22 12 22C6.47715 22 2 17.5228 2 12C2 6.47715 6.47715 2 12 2ZM12 6C12.5523 6 13 6.44772 13 7C13 7.55228 12.5523 8 12 8C9.79086 8 8 9.79086 8 12C8 14.2091 9.79086 16 12 16C14.2091 16 16 14.2091 16 12C16 11.4477 16.4477 11 17 11C17.5523 11 18 11.4477 18 12C18 15.3137 15.3137 18 12 18C8.68629 18 6 15.3137 6 12C6 8.68629 8.68629 6 12 6ZM18.5713 2.10059C18.8474 2.1006 19.0712 2.32449 19.0713 2.60059V4.42969C19.0716 4.70553 19.2954 4.92866 19.5713 4.92871H21.3994C21.6754 4.92871 21.8992 5.15275 21.8994 5.42871V6.34375L20.0107 8.23242C19.6358 8.60719 19.1268 8.81824 18.5967 8.81836H16.5967L12.707 12.707C12.3165 13.0974 11.6835 13.0975 11.293 12.707C10.9027 12.3165 10.9026 11.6834 11.293 11.293L15.1826 7.4043V5.4043C15.1826 4.87411 15.3928 4.36526 15.7676 3.99023L17.6572 2.10059H18.5713Z"/></svg>