<svg viewBox="0 0 24 24" fill="currentColor" xmlns="http://www.w3.org/2000/svg"><path d="M12 2C17.5228 2 22 6.47715 22 12C22 17.5228 17.5228 22 12 22C6.47715 22 2 17.5228 2 12C2 6.47715 6.47715 2 12 2ZM15.8828 8.2832C15.2377 8.31363 14.6149 8.54097 14.0996 8.9375C13.5106 9.39083 13.0995 10.0371 12.9385 10.7627C12.5893 10.0312 12.3253 9.26142 12.1514 8.46973H9.55273V11.6924C9.55273 12.863 9.02242 13.7313 7.98242 13.7314C6.94229 13.7314 6.35059 12.8671 6.35059 11.6924V8.46973H4.85742V11.6924C4.82354 12.5853 5.13199 13.4579 5.71875 14.1318C6.00502 14.4434 6.35462 14.6902 6.74414 14.8555C7.13392 15.0208 7.55526 15.1007 7.97852 15.0898C9.77702 15.0897 11.0369 13.7074 11.0371 11.7295V9.55078C11.3426 10.7229 11.8479 11.8342 12.5303 12.835L11.7305 17.3945H13.248L13.7744 14.1641C13.9486 14.314 14.134 14.4507 14.3291 14.5723C14.8359 14.8923 15.4185 15.0719 16.0176 15.0938H16.1562C16.6019 15.0984 17.0443 15.0134 17.4561 14.8428C17.8678 14.6721 18.241 14.4201 18.5527 14.1016C18.8643 13.7831 19.1079 13.4045 19.2695 12.9893C19.4312 12.574 19.5074 12.1299 19.4932 11.6846C19.5036 11.2409 19.4242 10.7993 19.2607 10.3867C19.0972 9.97399 18.8527 9.59746 18.541 9.28125C18.2295 8.96522 17.8573 8.71544 17.4473 8.5459C17.037 8.37633 16.5963 8.29097 16.1523 8.29492L15.8828 8.2832ZM16.1602 9.64453C17.2125 9.64453 18.0127 10.4609 18.0127 11.6846C18.0125 12.9081 17.1961 13.7236 16.1602 13.7236L15.9932 13.7344C15.6233 13.6915 15.2659 13.5717 14.9443 13.3818C14.5767 13.1646 14.2656 12.862 14.0391 12.5C14.3123 10.3221 15.108 9.64469 16.1602 9.64453Z"/></svg>