<svg viewBox="0 0 24 24" fill="currentColor" xmlns="http://www.w3.org/2000/svg"><path d="M19.2486 6.87221C19.4894 6.63146 19.8364 6.52969 20.1691 6.60221C20.5017 6.67474 20.7748 6.91221 20.8935 7.23129C21.8177 9.71627 21.2825 12.6245 19.2824 14.6248C17.3072 16.6001 14.4469 17.1462 11.9814 16.269L7.96873 20.2817C6.79716 21.4533 4.89766 21.4533 3.72609 20.2817C2.55452 19.1101 2.55452 17.2106 3.72609 16.039L7.73878 12.0264C6.8616 9.56086 7.40766 6.70062 9.38295 4.72534C11.3798 2.72875 14.2813 2.19203 16.7634 3.10949C17.0831 3.22767 17.3209 3.50092 17.3938 3.83386C17.4666 4.16665 17.3647 4.51341 17.1238 4.75434L14.7677 7.11044C14.1823 7.69617 14.1823 8.64605 14.7677 9.23176C15.3534 9.81746 16.3032 9.81728 16.889 9.23176L19.2486 6.87221Z"/></svg>