<svg viewBox="0 0 24 24" fill="currentColor" xmlns="http://www.w3.org/2000/svg"><path d="M18.25 3C19.7688 3 21 4.23122 21 5.75V18.25C21 19.7688 19.7688 21 18.25 21H5.75C4.23122 21 3 19.7688 3 18.25V5.75C3 4.23122 4.23122 3 5.75 3H18.25ZM13.2402 6.73926L5.80859 17.2676H10.7627L18.1943 6.73926H13.2402ZM13.1602 15.7168C12.9206 15.7169 12.6947 15.8364 12.5615 16.0293L11.6885 17.2676H17.8818V15.7168H13.1602ZM6.12109 8.28418H10.8496C11.0893 8.28412 11.3161 8.16475 11.4492 7.97168L12.3145 6.73926C12.3061 6.73926 6.13275 6.74002 6.12109 6.7334V8.28418Z"/></svg>