<?xml version="1.0" encoding="UTF-8"?>
<svg width="150px" height="150px" viewBox="0 0 150 150" version="1.1" xmlns="http://www.w3.org/2000/svg" xmlns:xlink="http://www.w3.org/1999/xlink">
    <title>monthly</title>
    <g id="monthly" stroke="none" stroke-width="1" fill="none" fill-rule="evenodd">
        <g id="noun-monthly-calendar-1779716-95978E" transform="translate(-1.442308, 12.980769)" fill="#95968E" fill-rule="nonzero">
            <path d="M3.55766138,0 C1.58503705,0 0,1.57989428 0,3.54621696 L0,31.8974885 L152.87381,31.8974885 L152.87381,3.54621696 C152.87381,1.57993824 151.288817,0 149.316148,0 L3.54751742,0 L3.55766138,0 Z M35.5508129,8.86103627 C39.4787286,8.86103627 42.6575353,12.0379701 42.6575353,15.9448975 C42.6575353,19.8601778 39.4703488,23.0287588 35.5508129,23.0287588 C31.6228971,23.0287588 28.4440904,19.851825 28.4440904,15.9448975 C28.4440904,12.0296173 31.6312769,8.86103627 35.5508129,8.86103627 Z M117.32432,8.86103627 C121.252236,8.86103627 124.431043,12.0379701 124.431043,15.9448975 C124.431043,19.8601778 121.243856,23.0287588 117.32432,23.0287588 C113.396404,23.0287588 110.217598,19.851825 110.217598,15.9448975 C110.217598,12.0296173 113.404784,8.86103627 117.32432,8.86103627 Z M0.000661562272,38.9817894 L0.000661562272,120.492245 C0.000661562272,122.458523 1.58565451,124.038462 3.55832294,124.038462 L149.326954,124.038462 C151.299578,124.038462 152.884615,122.458567 152.884615,120.492245 L152.884615,38.9817894 L0.000661562272,38.9817894 Z M19.5546782,53.1578648 L42.6652535,53.1578648 L42.6652535,77.9635788 L19.5546782,77.9635788 L19.5546782,53.1578648 Z M49.7726376,53.1578648 L72.8832129,53.1578648 L72.8832129,77.9635788 L49.7726376,77.9635788 L49.7726376,53.1578648 Z M79.9905969,53.1578648 L103.101172,53.1578648 L103.101172,77.9635788 L79.9905969,77.9635788 L79.9905969,53.1578648 Z M110.208556,53.1578648 L133.319132,53.1578648 L133.319132,77.9635788 L110.208556,77.9635788 L110.208556,53.1578648 Z M19.5546782,85.0480995 L42.6652535,85.0480995 L42.6652535,109.853814 L19.5546782,109.853814 L19.5546782,85.0480995 Z M49.7726376,85.0480995 L72.8832129,85.0480995 L72.8832129,109.853814 L49.7726376,109.853814 L49.7726376,85.0480995 Z M79.9905969,85.0480995 L103.101172,85.0480995 L103.101172,109.853814 L79.9905969,109.853814 L79.9905969,85.0480995 Z" id="Shape"></path>
        </g>
    </g>
</svg>