<?xml version="1.0" encoding="UTF-8"?>
<svg width="150px" height="150px" viewBox="0 0 150 150" version="1.1" xmlns="http://www.w3.org/2000/svg" xmlns:xlink="http://www.w3.org/1999/xlink">
    <title>pulse</title>
    <g id="pulse" stroke="none" stroke-width="1" fill="none" fill-rule="evenodd">
        <g id="noun-activity-1706408-95968E" transform="translate(1, 23)" fill="#95958E" fill-rule="nonzero">
            <path d="M7.68345237,80.7864443 L29.5015995,80.7864443 L32.6205308,80.7864443 C35.1827689,80.7864443 38.0713825,79.3522056 39.2517145,76.9650934 C41.0174834,73.3940966 42.7832522,69.8037566 44.5633929,66.2327598 C47.3896058,60.5344919 50.1965334,54.8218088 53.0227462,49.1231712 C53.6657195,47.8141096 54.3135079,46.5050481 54.956432,45.1959865 C50.2733059,44.5799575 45.6045516,43.9639286 40.9211799,43.3623147 C41.6409257,45.1815714 42.3654867,46.9958999 43.0851833,48.8151567 C44.8222086,53.1899481 46.5543203,57.5647394 48.2913455,61.920557 C50.3929483,67.2338069 52.5138363,72.5470568 54.615439,77.8609227 C56.4292368,82.4329665 58.252493,87.0099386 60.0662907,91.582352 C60.9587687,93.815457 61.8320596,96.034147 62.7245867,98.267252 C62.7389806,98.296129 62.7533757,98.3298171 62.7533757,98.3586941 C63.0124862,98.9747231 63.2763873,99.5907521 63.5211013,100.192366 C63.9961331,101.08753 64.6582933,101.809442 65.5028161,102.348467 C66.7935777,103.349514 68.4682022,104.071377 70.1571985,103.994374 C73.5208193,103.840366 76.6684942,101.713095 77.5561078,98.344279 C78.3382298,95.3893113 79.1203027,92.4294153 79.9073135,89.4744475 C81.7642268,82.4189445 83.62114,75.3686161 85.4829667,68.327405 C87.7237427,59.8088331 89.983804,51.295436 92.2245801,42.7769873 C94.1726377,35.4134698 96.1112369,28.0403423 98.0592946,20.676332 C99.0093581,17.0859919 100.007352,13.5005801 100.899879,9.89582496 C100.914274,9.84769708 100.928668,9.80438285 100.928668,9.75625744 L86.1256906,9.75625744 C86.8022472,11.9267739 87.478853,14.0972904 88.1505208,16.2727351 C89.7627445,21.4801512 91.3893401,26.6970542 93.0015638,31.9050863 C94.9496214,38.1905531 96.9025925,44.4572926 98.8506501,50.7420202 C100.539646,56.1948622 102.228643,61.6477043 103.932011,67.0951253 C104.762113,69.7420785 105.529863,72.4083751 106.403105,75.0409133 C106.417499,75.0697891 106.417499,75.117917 106.431894,75.1467927 C107.444333,78.3953599 110.376038,80.7968872 113.830803,80.7968872 L122.765163,80.7968872 L137.030119,80.7968872 L140.316967,80.7968872 C142.28431,80.7968872 144.357169,79.9354077 145.753447,78.5493671 C147.087324,77.2114754 148.085368,75.0216156 147.994223,73.0965251 C147.903057,71.108846 147.25529,69.0441633 145.753447,67.643683 C144.24674,66.2576178 142.404198,65.3961629 140.316967,65.3961629 L131.382607,65.3961629 L117.117651,65.3961629 L113.830803,65.3961629 C116.301897,67.27308 118.758619,69.1693404 121.229712,71.0462575 C120.553156,68.875741 119.87655,66.7052245 119.204882,64.5297798 C117.592658,59.3223637 115.966063,54.1054607 114.353839,48.8974286 C112.405781,42.6119618 110.45281,36.3452223 108.504753,30.0604947 C106.815756,24.6076527 105.12676,19.1548106 103.423392,13.7073896 C102.59329,11.0604364 101.82554,8.39413976 100.952298,5.76160156 C100.937903,5.73272458 100.937903,5.68459793 100.923508,5.65572096 C100.414893,4.03864491 99.5128583,2.70075319 98.1740677,1.65153265 C96.883306,0.650485567 95.2086815,-0.0713771821 93.5196852,0.00562643932 C90.1560645,0.159633682 87.0083895,2.28690493 86.1207759,5.65572096 C85.3386539,8.61068873 84.5565811,11.5705847 83.7695702,14.5255525 C81.912657,21.5810555 80.0557437,28.6313839 78.1939171,35.672595 C75.953141,44.1911669 73.6930797,52.704564 71.4523037,61.2230127 C69.5042461,68.5865302 67.5656468,75.9596577 65.6175892,83.323668 C64.6675257,86.9140081 63.6695316,90.4994199 62.7770045,94.104175 C62.7626106,94.1523017 62.7482154,94.1956159 62.7482154,94.2437426 L77.5511932,94.2437426 C76.8314473,92.4244858 76.1068864,90.6101573 75.3871897,88.7909005 C73.6501645,84.4161092 71.9180527,80.0413178 70.1810275,75.6855002 C68.0794247,70.3722503 65.9585367,65.0590004 63.856934,59.7451345 C62.0431362,55.1730907 60.2198801,50.5961186 58.4060823,46.0237052 C57.5136044,43.7906002 56.6403134,41.5719102 55.7477864,39.3388052 C55.7333924,39.3099295 55.7189973,39.2762401 55.7189973,39.2473631 C55.2295691,38.0008901 54.7065576,36.8120774 53.7372826,35.8447887 C52.5377144,34.6416102 50.9878423,33.9485283 49.332503,33.7175174 C47.9362252,33.5346308 46.6598353,33.6886417 45.3547018,34.2421031 C43.910395,34.858132 42.4086009,35.9361827 41.6839908,37.3992516 C39.9182219,40.9702483 38.1524531,44.5605883 36.3723124,48.1315851 C33.5460995,53.8298531 30.7391719,59.5425361 27.9129591,65.2411737 C27.2699858,66.5502353 26.6221974,67.8592969 25.9792733,69.1683584 C28.1913056,67.888127 30.403338,66.6272389 32.610457,65.3470075 L10.7923099,65.3470075 L7.67337858,65.3470075 C5.70603569,65.3470075 3.6331766,66.2084871 2.23689871,67.5945276 C0.926974596,68.9757878 -0.0854404957,71.1607193 0.00570388644,73.0858099 C0.0968716075,75.0734889 0.744636697,77.1381716 2.24647992,78.5386519 C3.75318746,79.910302 5.6101007,80.786172 7.6829598,80.786172 L7.68345237,80.7864443 Z" id="Path"></path>
        </g>
    </g>
</svg>