<svg fill="#333333" xmlns="http://www.w3.org/2000/svg"  viewBox="0 0 50 50" width="100px" height="100px"><path d="M 2.9824219 4 A 1.0001 1.0001 0 0 0 2 5 L 2 42 A 1.0001 1.0001 0 0 0 2.9941406 43 C 2.9941406 43 6.5212957 43.02334 11.005859 43.529297 C 15.490423 44.035252 20.924346 45.053035 24.546875 46.892578 A 1.0001 1.0001 0 0 0 25.349609 46.9375 C 37.573953 42.380708 46.935547 42.998047 46.935547 42.998047 A 1.0001 1.0001 0 0 0 48 42 L 48 5 A 1.0001 1.0001 0 0 0 46.957031 4 C 46.957031 4 37.171587 4.4567852 25.001953 9.0742188 C 14.927191 4.9959182 3.0839844 4.0039062 3.0839844 4.0039062 A 1.0001 1.0001 0 0 0 2.9824219 4 z M 46 6.1308594 L 46 41.046875 C 44.579569 40.988817 36.390749 40.791343 25.009766 44.955078 C 20.985851 43.024289 15.676982 42.044631 11.230469 41.542969 C 7.191848 41.087326 4.7370997 41.077616 4 41.066406 L 4 6.1484375 C 5.5916475 6.3008192 15.618603 7.3197829 24.617188 11.048828 A 1.0001 1.0001 0 0 0 25.359375 11.058594 C 36.41567 6.8006305 44.586775 6.2179414 46 6.1308594 z M 44 8.9824219 L 42.867188 9.1347656 C 42.670187 9.1607656 37.999656 9.7906875 33.597656 10.929688 C 30.817656 11.648687 28.016953 12.760687 27.001953 13.179688 L 27.001953 20.019531 C 29.059908 19.144594 32.053138 17.959459 34.519531 17.349609 C 38.694531 16.316609 42.31 16.072625 44 16.015625 L 44 8.9824219 z M 6.0195312 8.9882812 L 6.0136719 16.101562 C 7.8506719 16.305563 12.052 16.818641 15 17.556641 L 15 10.53125 C 11.038 9.60625 7.3116719 9.146 7.1386719 9.125 L 6.0195312 8.9882812 z M 17 11.037109 L 17 18.115234 C 19.17 18.770234 21.388 19.559156 23 20.160156 L 23 13.060547 C 22.075 12.698547 19.571 11.750109 17 11.037109 z M 44 18.019531 C 42.508 18.074531 39.470266 18.283359 35.947266 19.068359 L 36.003906 28.052734 C 39.521906 27.291734 42.392 27.070813 44 27.007812 L 44 18.019531 z M 6.0136719 18.115234 L 6.0078125 26.050781 C 7.9778125 26.166781 12.588578 26.531734 16.517578 27.552734 C 18.990578 28.194734 21.328 29.142344 23 29.902344 L 23 22.298828 C 21.064 21.566828 17.73925 20.359703 14.90625 19.595703 C 12.22525 18.872703 8.0046719 18.341234 6.0136719 18.115234 z M 33.951172 19.578125 C 31.507172 20.297125 28.706 21.455219 27 22.199219 L 27 31.091797 C 28.743 30.299797 31.347891 29.221109 33.962891 28.537109 C 33.977891 28.533109 33.992813 28.529391 34.007812 28.525391 L 33.951172 19.578125 z M 6.0058594 28.054688 L 6 37.830078 L 6.9335938 37.894531 C 6.9715938 37.896531 9.6833281 38.081922 12.486328 38.419922 L 15.777344 29.429688 C 12.183344 28.527687 7.9328594 28.175687 6.0058594 28.054688 z M 44 29.007812 C 42.168 29.084813 38.63375 29.382656 34.46875 30.472656 C 31.56675 31.231656 28.588 32.545828 27 33.298828 L 27 41.166016 L 27.275391 41.087891 C 27.323391 41.073891 32.115938 39.702203 35.210938 39.033203 C 38.826937 38.251203 43.010734 38.023484 43.052734 38.021484 L 44 37.970703 L 44 29.007812 z M 17.705078 29.982422 L 14.515625 38.693359 C 14.967625 38.762359 15.404453 38.835109 15.814453 38.912109 C 19.019453 39.516109 22.598766 40.916641 22.634766 40.931641 L 23 41.074219 L 23 32.111328 C 21.741 31.509328 19.820078 30.664422 17.705078 29.982422 z"/></svg>