<svg fill="#333333" xmlns="http://www.w3.org/2000/svg"  viewBox="0 0 50 50" width="100px" height="100px"><path d="M 15.929688 5 A 1.006 1.006 0 0 0 14.990234 5.6601562 L 7.4804688 26.660156 A 1 1 0 0 0 8.4199219 28 L 41.580078 28 A 1 1 0 0 0 42.519531 26.660156 L 36.429688 9.640625 C 34.009687 7.940625 32.259844 6.7 29.839844 5 L 15.929688 5 z M 8.3808594 30 L 7.4492188 32.679688 A 1 1 0 0 0 8.4003906 34 L 41.599609 34 A 1 1 0 0 0 42.550781 32.679688 L 41.619141 30 L 8.3808594 30 z M 8.3808594 36 L 7.4492188 38.679688 A 1 1 0 0 0 8.4003906 40 L 41.599609 40 A 1 1 0 0 0 42.550781 38.679688 L 41.619141 36 L 8.3808594 36 z M 8.3808594 42 L 7.4492188 44.679688 A 1 1 0 0 0 8.4003906 46 L 41.599609 46 A 1 1 0 0 0 42.550781 44.679688 L 41.619141 42 L 8.3808594 42 z"/></svg>