<svg fill="#333333" xmlns="http://www.w3.org/2000/svg"  viewBox="0 0 50 50" width="100px" height="100px"><path d="M 25 7 C 24.867188 7 24.746094 7.011719 24.625 7.0625 L 0.625 17.0625 C 0.253906 17.21875 0 17.597656 0 18 C 0 18.402344 0.253906 18.78125 0.625 18.9375 L 24.625 28.9375 C 24.746094 28.988281 24.867188 29 25 29 C 25.132813 29 25.253906 28.988281 25.375 28.9375 L 49.375 18.9375 C 49.746094 18.78125 50 18.402344 50 18 C 50 17.597656 49.746094 17.21875 49.375 17.0625 L 25.375 7.0625 C 25.25 7.011719 25.132813 7 25 7 Z M 0.8125 22 C 0.351563 22.0625 -0.00390625 22.433594 -0.046875 22.894531 C -0.09375 23.355469 0.1875 23.789063 0.625 23.9375 L 24.625 33.9375 C 24.867188 34.035156 25.132813 34.035156 25.375 33.9375 L 49.375 23.9375 C 49.894531 23.730469 50.144531 23.144531 49.9375 22.625 C 49.730469 22.105469 49.144531 21.855469 48.625 22.0625 L 25 31.90625 L 1.375 22.0625 C 1.199219 21.988281 1.003906 21.964844 0.8125 22 Z M 0.8125 27 C 0.351563 27.0625 -0.00390625 27.433594 -0.046875 27.894531 C -0.09375 28.355469 0.1875 28.789063 0.625 28.9375 L 24.625 38.9375 C 24.867188 39.035156 25.132813 39.035156 25.375 38.9375 L 49.375 28.9375 C 49.894531 28.730469 50.144531 28.144531 49.9375 27.625 C 49.730469 27.105469 49.144531 26.855469 48.625 27.0625 L 25 36.90625 L 1.375 27.0625 C 1.199219 26.988281 1.003906 26.964844 0.8125 27 Z M 0.8125 32 C 0.351563 32.0625 -0.00390625 32.433594 -0.046875 32.894531 C -0.09375 33.355469 0.1875 33.789063 0.625 33.9375 L 24.625 43.9375 C 24.867188 44.035156 25.132813 44.035156 25.375 43.9375 L 49.375 33.9375 C 49.894531 33.730469 50.144531 33.144531 49.9375 32.625 C 49.730469 32.105469 49.144531 31.855469 48.625 32.0625 L 25 41.90625 L 1.375 32.0625 C 1.199219 31.988281 1.003906 31.964844 0.8125 32 Z"/></svg>