<svg fill="#333333" xmlns="http://www.w3.org/2000/svg"  viewBox="0 0 50 50" width="100px" height="100px"><path d="M 5.984375 3 A 1.0001 1.0001 0 0 0 5.2753906 3.3105469 L 3.2753906 5.4160156 A 1.0001 1.0001 0 0 0 3 6.1054688 L 3 38 A 1.0001 1.0001 0 0 0 3.0039062 38.099609 C 3.022729 40.186203 3.6222636 42.091872 4.6503906 43.53125 C 5.660835 44.945872 7.1424611 45.925105 8.8300781 45.988281 A 1.0001 1.0001 0 0 0 9 46 L 43 46 A 1.0001 1.0001 0 0 0 43.150391 45.988281 C 44.846022 45.93196 46.335214 44.949591 47.349609 43.529297 C 48.394304 42.06658 49 40.124787 49 38 C 49 35.875213 48.394304 33.93342 47.349609 32.470703 C 46.339127 31.055887 44.857406 30.075002 43.169922 30.011719 A 1.0001 1.0001 0 0 0 43 30 L 39 30 L 39 4 A 1.0001 1.0001 0 0 0 37.292969 3.2929688 L 34.005859 6.5859375 L 30.707031 3.2929688 A 1.0001 1.0001 0 0 0 29.292969 3.2929688 L 26 6.5859375 L 22.707031 3.2929688 A 1.0001 1.0001 0 0 0 21.292969 3.2929688 L 18 6.5859375 L 14.707031 3.2929688 A 1.0001 1.0001 0 0 0 13.292969 3.2929688 L 10 6.5859375 L 6.7070312 3.2929688 A 1.0001 1.0001 0 0 0 5.984375 3 z M 9 12 L 23 12 L 23 14 L 9 14 L 9 12 z M 26 12 L 33 12 L 33 14 L 26 14 L 26 12 z M 9 16 L 16 16 L 16 18 L 9 18 L 9 16 z M 19 16 L 33 16 L 33 18 L 19 18 L 19 16 z M 9 20 L 14 20 L 14 22 L 9 22 L 9 20 z M 17 20 L 24 20 L 24 22 L 17 22 L 17 20 z M 27 20 L 33 20 L 33 22 L 27 22 L 27 20 z M 9 24 L 20 24 L 20 26 L 9 26 L 9 24 z M 23 24 L 33 24 L 33 26 L 23 26 L 23 24 z M 38 32 L 43 32 C 44.001135 32 44.955398 32.561279 45.720703 33.632812 C 45.799493 33.74313 45.862371 33.879715 45.935547 34 L 14.199219 34 C 13.96153 33.449059 13.680908 32.932568 13.349609 32.46875 C 13.235045 32.30836 13.11257 32.156502 12.986328 32.007812 C 20.484483 32.033174 38 32 38 32 z M 8.9765625 32.001953 C 8.9819565 32.002042 9.0179371 32.001865 9.0234375 32.001953 C 10.017217 32.010684 10.963681 32.568294 11.722656 33.630859 C 12.487645 34.701844 13 36.260018 13 38 C 13 39.739982 12.487645 41.298156 11.722656 42.369141 C 10.957667 43.440126 10.002404 44 9 44 C 7.9975962 44 7.042333 43.440126 6.2773438 42.369141 C 5.5123545 41.298156 5 39.739982 5 38 C 5 36.260018 5.5123545 34.701844 6.2773438 33.630859 C 7.036319 32.568294 7.9827833 32.010684 8.9765625 32.001953 z M 9 35 A 2 3 0 0 0 7 38 A 2 3 0 0 0 9 41 A 2 3 0 0 0 11 38 A 2 3 0 0 0 9 35 z"/></svg>