<svg fill="#333333" xmlns="http://www.w3.org/2000/svg"  viewBox="0 0 50 50" width="100px" height="100px"><path d="M 14.283203 2.828125 L 13.732422 3 C 13.631422 3.032 11.223469 3.8156406 7.6054688 7.4316406 C 3.9964688 11.038641 3.1336094 13.505375 3.0996094 13.609375 L 2.9121094 14.160156 L 3.3007812 14.595703 C 3.3607813 14.662703 9.3153438 21.331969 13.152344 25.167969 C 16.171344 28.184969 19.163531 27.643156 21.144531 27.285156 C 22.200531 27.094156 22.858094 26.997719 23.121094 27.261719 C 23.752094 27.893719 25.047875 29.464203 26.546875 31.283203 C 28.977875 34.233203 32.003266 37.90475 34.447266 40.34375 C 38.995266 44.89275 41.847156 46.945313 43.910156 46.945312 C 44.737156 46.945312 45.436359 46.615375 46.068359 45.984375 C 46.487359 45.567375 47.047828 44.888641 47.048828 43.806641 C 47.050828 42.400641 46.265547 40.178516 40.435547 34.353516 C 37.999547 31.917516 34.334625 28.905375 31.390625 26.484375 C 29.559625 24.979375 27.979703 23.679875 27.345703 23.046875 C 27.086703 22.787875 27.184906 22.141422 27.378906 21.107422 C 27.749906 19.130422 28.311047 16.141125 25.248047 13.078125 C 22.724047 10.553125 15.033031 3.5157969 14.707031 3.2167969 L 14.283203 2.828125 z M 44.941406 3.0019531 L 35.357422 12.585938 C 35.031422 12.911938 32.227063 15.713391 29.664062 18.275391 C 29.701062 19.542391 29.49875 20.649609 29.34375 21.474609 C 29.31975 21.602609 29.272328 21.849219 29.236328 22.074219 C 29.999328 22.751219 31.300156 23.821453 32.660156 24.939453 C 32.790156 25.046453 32.927547 25.160531 33.060547 25.269531 C 35.515547 24.426531 38.042438 23.313937 40.148438 21.210938 C 42.993437 18.361937 47.996406 11.387953 44.941406 3.0019531 z M 14 9 C 14.25575 9 14.511531 9.0974688 14.707031 9.2929688 L 21.707031 16.292969 C 22.098031 16.683969 22.098031 17.316031 21.707031 17.707031 C 21.512031 17.902031 21.256 18 21 18 C 20.744 18 20.487969 17.902031 20.292969 17.707031 L 13.292969 10.707031 C 12.901969 10.316031 12.901969 9.6839687 13.292969 9.2929688 C 13.488469 9.0974688 13.74425 9 14 9 z M 10 13 C 10.25575 13 10.511531 13.097469 10.707031 13.292969 L 17.707031 20.292969 C 18.098031 20.683969 18.098031 21.316031 17.707031 21.707031 C 17.512031 21.902031 17.256 22 17 22 C 16.744 22 16.487969 21.902031 16.292969 21.707031 L 9.2929688 14.707031 C 8.9019687 14.316031 8.9019687 13.683969 9.2929688 13.292969 C 9.4884687 13.097469 9.74425 13 10 13 z M 22.142578 29.142578 C 21.905578 29.178578 21.638953 29.226953 21.501953 29.251953 C 20.389953 29.452953 18.766687 29.738156 16.929688 29.410156 C 15.319688 30.832156 13.486437 32.540906 11.398438 34.628906 C 3.2334375 42.792906 3.3518281 44.735547 4.6738281 46.060547 C 6.0028281 47.387547 8.0264531 48.543906 16.189453 40.378906 C 19.620453 36.945906 21.756734 33.103391 23.427734 30.650391 C 22.927734 30.050391 22.483578 29.525578 22.142578 29.142578 z"/></svg>