<?xml version="1.0" encoding="UTF-8"?>
<svg width="150px" height="150px" viewBox="0 0 150 150" version="1.1" xmlns="http://www.w3.org/2000/svg" xmlns:xlink="http://www.w3.org/1999/xlink">
    <title>global-shares</title>
    <g id="global-shares" stroke="none" stroke-width="1" fill="none" fill-rule="evenodd">
        <g transform="translate(-0.000000, 21.610169)" fill="#95968E" fill-rule="nonzero" id="Path">
            <path d="M51.754265,40.7973559 C51.5755107,39.6304449 51.4861209,38.4535424 51.4861209,37.2867203 C51.4861209,27.9464237 57.0872226,19.5104492 65.5835785,15.8151102 C62.6142141,11.7433729 57.8372226,9.26557627 52.7929006,9.26557627 C44.0982395,9.26557627 37.0225616,16.3514237 37.0225616,25.0562542 C37.0225616,33.4083305 43.5423497,40.2609153 51.7556124,40.7973559 L51.754265,40.7973559 Z"></path>
            <path d="M30.1046887,30.706678 C29.6478624,28.8694322 29.4144726,26.9824831 29.4144726,25.0608305 C29.4144726,15.1942627 35.591676,6.48498305 44.6941336,3.13286441 C41.9779895,1.10188983 38.695659,0.00460169492 35.2545573,0.00460169492 C26.5698116,0.00460169492 19.5032861,7.0805339 19.5032861,15.7749407 C19.5032861,22.5578644 23.8482014,28.5262119 30.1047268,30.7062966 L30.1046887,30.706678 Z"></path>
            <path d="M60.379265,55.6282881 C57.6928667,53.5129068 55.5080785,50.8365508 53.978587,47.7727373 C53.6061675,47.7528763 53.2138921,47.7479097 52.7967777,47.7479097 C38.6599133,47.7479097 28.519659,57.9968504 21.7963539,79.0762996 L17.570676,92.3945199 C17.4316336,92.8314903 17.5309514,93.2883165 17.8686039,93.7501131 C18.4793709,94.5843292 19.715765,95.1901131 20.8082226,95.1901131 L34.6666972,95.1901131 L36.6430107,88.9881216 C42.0554683,71.9516809 50.0298751,60.7436301 60.3786039,55.629647 L60.379265,55.6282881 Z"></path>
            <path d="M33.6847311,38.5323559 C20.3715955,39.2672542 10.7487141,49.5012966 4.29362931,69.7908305 L0.0729089708,83.1281186 C0.0133233776,83.3019153 -0.145569843,83.7935085 0.341053039,84.468839 C0.946849649,85.3030551 2.17829881,85.908839 3.27571406,85.908839 L11.6725361,85.908839 L14.582409,76.7821017 C19.9948667,59.725322 27.9743582,48.5185424 38.3078328,43.4185424 C36.5399429,42.0281186 34.9955785,40.3895593 33.6847311,38.5323559 Z"></path>
            <path d="M98.2224853,37.286339 C98.2224853,38.4780763 98.1380709,39.6549407 97.9692395,40.7969746 C106.197248,40.2606864 112.726443,33.4082034 112.726443,25.0609576 C112.726443,16.3562542 105.640595,9.27027966 96.935765,9.27027966 C91.8708497,9.27027966 87.0989429,11.7431186 84.1400022,15.8148559 C92.6212311,19.5042203 98.2222056,27.9408305 98.2222056,37.2864661 L98.2224853,37.286339 Z"></path>
            <path d="M72.9424006,13.2431186 L73.3694429,13.9432627 C73.8511082,13.9134699 74.347659,13.8886411 74.8591463,13.8886411 C75.3656378,13.8886411 75.8572311,13.9134699 76.3438921,13.9432627 L76.7709344,13.2282203 C78.9707226,9.48419492 82.08907,6.48 85.852926,4.46898305 C82.9133073,1.61377119 78.9905531,0 74.8591972,0 C70.7129683,0 66.790087,1.60881356 63.8654683,4.46898305 C67.6443243,6.495 70.7626717,9.4990678 72.9425022,13.2430932 L72.9424006,13.2431186 Z"></path>
            <path d="M120.30935,25.061339 C120.30935,26.9829915 120.075973,28.8748983 119.619134,30.7071864 C125.875786,28.5323136 130.220574,22.5637119 130.220574,15.7758305 C130.220574,7.08116949 123.144642,0.00549152542 114.450235,0.00549152542 C111.014091,0.00549152542 107.741803,1.10288136 105.025532,3.13375424 C114.132439,6.49044915 120.309006,15.1951525 120.309006,25.0617203 L120.30935,25.061339 Z"></path>
            <path d="M74.8593497,21.475322 C66.1546463,21.475322 59.0686717,28.5661271 59.0686717,37.286339 C59.0686717,45.981 66.1495616,53.056678 74.8593497,53.056678 C83.5590955,53.056678 90.6347734,45.9807458 90.6347734,37.286339 C90.6347734,28.5717203 83.5588412,21.475322 74.8593497,21.475322 Z"></path>
            <path d="M145.429265,69.7905763 C138.969095,49.4960847 129.346214,39.2617627 116.01274,38.5321017 C114.70685,40.3941356 113.157528,42.0278644 111.389816,43.4182881 C121.738036,48.5179068 129.722867,59.7301525 135.140663,76.7767627 L138.050536,85.9035 L146.422443,85.9035 C147.519833,85.9035 148.756214,85.302661 149.367019,84.4684576 C149.699714,84.016589 149.799019,83.5597627 149.659989,83.117822 L145.429265,69.7905763 Z"></path>
            <path d="M105.829265,91.2672712 C99.1406633,70.2138814 89.0152819,59.9795593 74.8644344,59.9795593 C60.7326548,59.9795593 50.5924006,70.2136271 43.8640107,91.2723559 L39.6432904,104.604559 C39.5886688,104.773386 39.4297692,105.264979 39.9263328,105.94528 C40.5321294,106.779496 41.7685361,107.38528 42.8659514,107.38528 L106.862562,107.380314 C107.959951,107.380314 109.191375,106.774518 109.797223,105.945272 C110.283845,105.274925 110.124947,104.778361 110.070324,104.619425 L105.829265,91.2672712 Z"></path>
            <path d="M127.912316,79.0765932 C121.213799,57.9977797 111.079265,47.7482034 96.9322311,47.7482034 C96.5051887,47.7482034 96.1129133,47.7581352 95.7454641,47.7730309 C94.2012268,50.8317597 92.0113539,53.5132004 89.3249556,55.638497 C99.6830912,60.7381157 107.668176,71.9401919 113.084701,88.9817174 L115.061015,95.1837089 L128.939828,95.1837089 C130.02729,95.1837089 131.258727,94.5729419 131.874489,93.728836 C132.207184,93.271997 132.301532,92.8250987 132.162489,92.3930733 L127.912316,79.0765932 Z"></path>
        </g>
    </g>
</svg>