<?xml version="1.0"?><svg fill="#333333" xmlns="http://www.w3.org/2000/svg"  viewBox="0 0 50 50" width="100px" height="100px">    <path d="M 25 2 C 12.309534 2 2 12.309534 2 25 C 2 34.432875 7.6885276 42.54993 15.828125 46.09375 L 16.626953 44.259766 C 9.1985507 41.025586 4 33.629125 4 25 C 4 13.390466 13.390466 4 25 4 C 36.609534 4 46 13.390466 46 25 C 46 33.629125 40.801449 41.025586 33.373047 44.259766 L 34.171875 46.09375 C 42.311472 42.54993 48 34.432875 48 25 C 48 12.309534 37.690466 2 25 2 z M 25 8 C 15.622621 8 8 15.622621 8 25 C 8 31.97005 12.206567 37.966318 18.222656 40.585938 L 19.021484 38.753906 C 13.715574 36.443525 10 31.16595 10 25 C 10 16.703379 16.703379 10 25 10 C 33.296621 10 40 16.703379 40 25 C 40 31.16595 36.284426 36.443525 30.978516 38.753906 L 31.777344 40.585938 C 37.793433 37.966318 42 31.97005 42 25 C 42 15.622621 34.377379 8 25 8 z M 25 14 C 18.936593 14 14 18.936593 14 25 C 14 29.507111 16.722265 33.390327 20.615234 35.085938 L 21.414062 33.251953 C 18.231032 31.865562 16 28.702889 16 25 C 16 20.017407 20.017407 16 25 16 C 29.982593 16 34 20.017407 34 25 C 34 28.702889 31.768968 31.865562 28.585938 33.251953 L 29.384766 35.085938 C 33.277735 33.390327 36 29.507111 36 25 C 36 18.936593 31.063407 14 25 14 z M 25 20 C 22.243 20 20 22.243 20 25 C 20 27.414363 21.720904 29.433596 24 29.898438 L 24 48 L 26 48 L 26 29.898438 C 28.279096 29.433596 30 27.414363 30 25 C 30 22.243 27.757 20 25 20 z"/></svg>