<svg fill="#333333" xmlns="http://www.w3.org/2000/svg"  viewBox="0 0 50 50" width="100px" height="100px"><path d="M46.482,7.78c-7.403-1.626-11.774-3.924-14.967-5.603c-2.477-1.303-4.267-2.244-6.248-2.244s-3.771,0.941-6.248,2.244	C15.826,3.856,11.455,6.154,4.052,7.78L3.267,7.952v0.805c0,30.464,21.365,40.68,21.581,40.779l0.44,0.203l0.433-0.221	c0.215-0.109,21.546-11.313,21.546-40.762V7.952L46.482,7.78z M25,33.5c-0.825,0-1.5-0.675-1.5-1.5s0.675-1.5,1.5-1.5	s1.5,0.675,1.5,1.5S25.825,33.5,25,33.5z M29.242,29.172c-0.195,0.195-0.451,0.293-0.707,0.293s-0.512-0.098-0.707-0.293	c-0.752-0.752-1.756-1.166-2.828-1.166s-2.076,0.414-2.828,1.166c-0.391,0.391-1.023,0.391-1.414,0s-0.391-1.023,0-1.414	c1.129-1.13,2.636-1.752,4.242-1.752s3.113,0.622,4.242,1.752C29.633,28.148,29.633,28.781,29.242,29.172z M32.787,25.627	c-0.195,0.195-0.451,0.293-0.707,0.293s-0.512-0.098-0.707-0.293c-3.514-3.514-9.232-3.514-12.746,0	c-0.391,0.391-1.023,0.391-1.414,0s-0.391-1.023,0-1.414c4.293-4.293,11.281-4.293,15.574,0	C33.178,24.604,33.178,25.236,32.787,25.627z M36.326,22.088c-0.391,0.391-1.023,0.391-1.414,0	c-2.625-2.625-6.264-4.124-9.999-4.124c-0.04,0-0.079,0-0.118,0c-3.719,0.031-7.162,1.492-9.695,4.112	c-0.196,0.203-0.457,0.305-0.719,0.305c-0.25,0-0.501-0.094-0.695-0.281c-0.396-0.384-0.407-1.017-0.023-1.414	c2.909-3.009,6.856-4.686,11.116-4.722c0.044,0,0.089,0,0.134,0c4.263,0,8.416,1.712,11.414,4.71	C36.717,21.064,36.717,21.697,36.326,22.088z"/></svg>