<?xml version="1.0" encoding="UTF-8"?>
<svg width="128pt" height="128pt" version="1.1" viewBox="0 0 128 128" xmlns="http://www.w3.org/2000/svg">
 <path d="m122.02 107.54c-7.4922 13.164-21.266 20.457-35.242 20.457-6.8867 0-13.977-1.8242-20.457-5.2656-4.8594-2.8359-8.707-6.2773-11.949-10.531-4.457 1.6211-8.707 2.2266-13.367 2.2266-14.176 0-27.746-7.293-35.242-20.457-11.34-19.441-4.6602-44.559 14.988-55.492 4.8594-2.8359 9.9258-4.6602 14.988-5.0625 3.6484-19.039 20.055-33.418 40.105-33.418 22.48 0 40.707 18.227 40.707 40.91 0 5.4688-1.0117 10.734-3.0391 15.391 14.586 12.559 18.434 34.23 8.5078 51.242zm-72.91-4.8594c-4.0508-9.7227-4.2539-20.859 0-30.988-7.8984-6.6836-13.164-16.406-13.977-27.543-3.2422 0.60938-6.2773 1.8242-9.1133 3.4414-6.8867 4.2539-11.949 10.531-14.176 18.227-2.0234 7.8984-1.0117 15.797 3.2422 22.887 2.6328 4.8594 6.4805 8.5078 11.141 11.34 4.6602 2.4297 9.7227 3.8477 14.988 3.8477 2.4258-0.19922 5.2617-0.60156 7.8945-1.2109zm14.379-49.012c-2.2266-2.4297-4.8594-4.6602-7.4922-6.0742-3.2422-1.8242-6.4805-3.0391-10.125-3.6445 0.60938 6.8867 3.8477 13.367 8.5078 18.227h0.20313c2.6289-3.4453 5.668-6.2812 8.9062-8.5078zm-16.809-20.457c10.328 1.418 20.051 6.8867 26.734 15.391 4.2539-1.418 8.707-2.2266 13.367-2.2266 5.875 0 11.949 1.418 17.418 4.0508 1.2148-3.0391 1.6211-6.2773 1.6211-9.5195 0-8.1016-3.2422-15.594-8.707-21.266-5.6758-5.668-13.371-8.9102-21.27-8.9102-8.1016 0-15.594 3.2422-21.469 8.9102-3.6445 3.8477-6.2773 8.3047-7.6953 13.57zm23.492 48.203c-4.2539-0.80859-8.1016-2.0234-11.949-3.8477-1.8242 5.4688-2.0234 11.746-0.40625 17.418 0.20313 1.0117 0.60938 2.0234 0.80859 3.0391 5.6758-4.0508 9.7266-9.9258 11.547-16.609zm45.57-2.0273c-1.418-5.0625-4.0508-9.7227-7.6953-13.57-6.4805 8.3047-16 13.977-26.734 15.391-2.0234 10.125-7.8984 19.441-17.012 25.723 2.2266 2.4297 4.8594 4.6602 7.4922 6.0742 4.6602 2.6328 9.9258 4.0508 14.988 4.0508s10.328-1.418 14.988-3.8477c4.6602-2.8359 8.5078-6.4805 11.141-11.34 4.0469-6.6797 5.0625-14.578 2.832-22.48zm-18.633-17.215c0.80859-0.80859 1.418-1.6211 2.0234-2.4297-3.8477-1.6211-7.8984-2.6328-12.355-2.6328-2.6328 0-5.2656 0.40625-7.8984 1.0117 1.6211 4.0508 2.6328 8.1016 3.0391 12.152 5.6719-1.0117 10.738-4.0508 15.191-8.1016z" fill="#95968e"/>
</svg>
