<?xml version="1.0" encoding="UTF-8"?>
<svg width="150px" height="150px" viewBox="0 0 150 150" version="1.1" xmlns="http://www.w3.org/2000/svg" xmlns:xlink="http://www.w3.org/1999/xlink">
    <title>indicator-hidden</title>
    <defs>
        <linearGradient x1="50%" y1="0%" x2="50%" y2="100%" id="linearGradient-1">
            <stop stop-color="#E74848" offset="0%"></stop>
            <stop stop-color="#C22828" offset="100%"></stop>
        </linearGradient>
        <linearGradient x1="50%" y1="0%" x2="50%" y2="100%" id="linearGradient-2">
            <stop stop-color="#E74848" offset="0%"></stop>
            <stop stop-color="#C22828" offset="100%"></stop>
        </linearGradient>
    </defs>
    <g id="indicator-hidden" stroke="none" stroke-width="1" fill="none" fill-rule="evenodd">
        <g id="noun-dots-2561422-95978E" transform="translate(8.823524, 8.823529)" fill-rule="nonzero">
            <path d="M66.1764765,112.5 C40.5020625,112.5 19.8529471,91.8650448 19.8529471,66.1764706 C19.8529471,40.5020566 40.4879023,19.8529412 66.1764765,19.8529412 C91.8508905,19.8529412 112.500006,40.4878964 112.500006,66.1764706 C112.484642,91.8508846 91.8497104,112.5 66.1764765,112.5 M66.1764794,132.352941 C103.001353,132.352941 132.352947,102.498307 132.352947,66.1764706 C132.352947,29.8546344 102.498314,0 66.1764794,0 C29.8546448,0 5.8808816e-06,29.8546344 5.8808816e-06,66.1764706 C-0.0151727066,102.500251 29.3535494,132.352941 66.1764794,132.352941 Z" id="Shape" fill="url(#linearGradient-1)"></path>
            <path d="M66.1764831,94.8525006 C50.2827997,94.8525006 37.5000151,82.0784807 37.5000151,66.17603 C37.5000151,50.2823452 50.2740339,37.4995594 66.1764831,37.4995594 C82.0701666,37.4995594 94.8529512,50.2735793 94.8529512,66.17603 C94.8434402,82.0697149 82.0694361,94.8525006 66.1764831,94.8525006 M66.1764804,79.4117647 C73.5414548,79.4117647 79.4117733,73.4408378 79.4117733,66.1764706 C79.4117733,58.9121033 73.440847,52.9411765 66.1764804,52.9411765 C58.9121138,52.9411765 52.9411863,58.9121033 52.9411863,66.1764706 C52.9381506,73.4412266 58.8118947,79.4117647 66.1764804,79.4117647 Z" id="Shape" fill="url(#linearGradient-2)"></path>
        </g>
    </g>
</svg>