<?xml version="1.0" encoding="UTF-8"?>
<svg width="150px" height="150px" viewBox="0 0 150 150" version="1.1" xmlns="http://www.w3.org/2000/svg" xmlns:xlink="http://www.w3.org/1999/xlink">
    <title>all-stories</title>
    <g id="all-stories" stroke="none" stroke-width="1" fill="none" fill-rule="evenodd">
        <g transform="translate(0.000000, 0.000000)" fill="#95968E" fill-rule="nonzero" id="Shape">
            <path d="M60.8479687,0 C40.6326562,4.0190625 23.36625,16.1315625 12.388125,32.803125 L40.16625,32.803125 C44.9177344,17.9442187 52.2145312,6.290625 60.8479687,0 L60.8479687,0 Z M90.2990625,0 C98.9325,6.2896875 106.165078,17.9442187 110.980781,32.803125 L138.693281,32.803125 C127.789453,16.1313281 110.458125,4.01953125 90.3065625,0 L90.2990625,0 Z M79.321875,2.810625 L79.321875,32.8035938 L103.619531,32.8035938 C98.1996094,16.6078125 89.7035156,5.02546875 79.321875,2.810625 L79.321875,2.810625 Z M71.7595312,2.88386719 C61.588125,5.29160156 53.22,16.7358984 47.865,32.8041797 L71.7595312,32.8041797 L71.7595312,2.88386719 Z M7.965,40.4377734 C3.34148437,49.6754297 0.530859375,59.9110547 -8.32667268e-15,70.8244922 L34.003125,70.8244922 C34.268625,59.9755078 35.6785313,49.7398828 38.0221875,40.4283984 L7.9659375,40.4283984 L7.965,40.4377734 Z M45.7204687,40.4377734 C43.3767187,49.6754297 42.0400781,60.0483984 41.7745312,70.8338672 L71.7675,70.8338672 L71.7675,40.4377734 L45.7204687,40.4377734 Z M79.3298437,40.4377734 L79.3298437,70.8338672 L109.725937,70.8338672 C109.451273,60.0488672 108.114609,49.6761328 105.770859,40.4377734 L79.3298437,40.4377734 Z M113.140781,40.4377734 C115.420453,49.7396484 116.885391,59.9841797 117.159844,70.8338672 L151.162969,70.8338672 C150.622805,59.9115234 147.812109,49.6761328 143.188828,40.4377734 L113.132578,40.4377734 L113.140781,40.4377734 Z M0.0009375,78.4604297 C0.5319375,89.3733984 3.35179687,99.6823828 7.9659375,108.856523 L37.9589062,108.856523 C35.6792344,99.6097266 34.2785156,89.3007422 34.0038281,78.4604297 L0.0009375,78.4604297 Z M41.7759375,78.4604297 C42.0414375,89.3094141 43.3781016,99.6181641 45.721875,108.856523 L71.7585937,108.856523 L71.7585937,78.4604297 L41.765625,78.4604297 L41.7759375,78.4604297 Z M79.3298437,78.4604297 L79.3298437,108.856523 L105.769687,108.856523 C108.113437,99.6188672 109.514297,89.3101172 109.715625,78.4604297 L79.3195312,78.4604297 L79.3298437,78.4604297 Z M117.150937,78.4604297 C116.885437,89.3094141 115.475531,99.6181641 113.205,108.856523 L143.197969,108.856523 C147.821484,99.6828516 150.632109,89.3741016 151.162969,78.4604297 L117.150937,78.4604297 Z M12.3876562,116.483086 C23.2914844,133.154883 40.5665625,145.26668 60.718125,149.286211 C52.1489062,142.996523 44.9160937,131.341992 40.1646094,116.483086 L12.3876562,116.483086 Z M47.865,116.483086 C53.2209375,132.614648 61.5246094,144.132305 71.7595312,146.476055 L71.7595312,116.483086 L47.865,116.483086 Z M79.3321875,116.483086 L79.3321875,146.539336 C89.7691406,144.332906 98.274375,132.751523 103.629844,116.483086 L79.3321875,116.483086 Z M111.000937,116.483086 C106.249453,131.341992 99.0166406,142.995586 90.4474219,149.286211 C110.598281,145.267148 127.865391,133.154648 138.777891,116.483086 L111.000937,116.483086 Z"></path>
        </g>
    </g>
</svg>