<?xml version="1.0" encoding="UTF-8"?>
<svg width="150px" height="150px" viewBox="0 0 150 150" version="1.1" xmlns="http://www.w3.org/2000/svg" xmlns:xlink="http://www.w3.org/1999/xlink">
    <title>email</title>
    <g id="email" stroke="none" stroke-width="1" fill="none" fill-rule="evenodd">
        <g id="noun-email-4801096-95978E" transform="translate(16.558442, 36.038961)" fill="#95968E">
            <path d="M16.5202597,0 L100.240714,0 C103.63461,0 106.792597,1.0349026 109.421688,2.80792208 L69.923961,38.8088961 C66.6404221,41.7994481 62.5122078,43.2985714 58.3768831,43.2985714 C54.2448701,43.2985714 50.1090584,41.8032468 46.8298052,38.8088961 L7.33207792,2.80792208 C9.96496753,1.0349026 13.1267532,0 16.5168506,0 L16.5202597,0 Z M113.573182,6.79159091 C115.578312,9.52724026 116.769156,12.8906494 116.769156,16.5242532 L116.769156,62.3531494 C116.769156,71.4427597 109.33461,78.8775 100.244805,78.8775 L16.5243506,78.8775 C7.43474026,78.8775 0,71.4429545 0,62.3531494 L0,16.5242532 C0,12.8944481 1.18714286,9.53103896 3.19597403,6.79159091 L42.9790909,43.0545779 C47.3622078,47.0496429 52.8751948,49.0470779 58.3881818,49.0470779 C63.9013636,49.0470779 69.4141558,47.0495455 73.7972727,43.0545779 L113.58039,6.79159091 L113.573182,6.79159091 Z" id="Shape"></path>
        </g>
    </g>
</svg>