<?xml version="1.0" encoding="UTF-8"?>
<svg width="150px" height="150px" viewBox="0 0 150 150" version="1.1" xmlns="http://www.w3.org/2000/svg" xmlns:xlink="http://www.w3.org/1999/xlink">
    <title>search-filled</title>
    <g id="search-filled" stroke="none" stroke-width="1" fill="none" fill-rule="evenodd">
        <g id="noun-search-2738105-95978E" transform="translate(-0.274928, -0.305173)" fill="#95968E" fill-rule="nonzero">
            <path d="M90.896831,104.358063 L119.450704,132.911937 C123.168486,136.629718 129.192993,136.629718 132.910563,132.911937 C136.628345,129.194155 136.628345,123.169648 132.910563,119.452077 L104.35669,90.8982042 C112.592852,78.6182746 114.891232,63.2971479 110.624577,49.1401056 C106.353803,34.9872887 95.963662,23.491162 82.3094366,17.8175704 C68.6552113,12.1438732 53.1777465,12.8865845 40.1340845,19.8477465 C27.0904225,26.8046831 17.8516901,39.2452817 14.9594366,53.7456338 C12.0709859,68.2459859 15.8300915,83.2776761 25.2091901,94.7072535 C34.5883099,106.136831 48.5975704,112.76007 63.3820775,112.755845 C73.1864789,112.767485 82.7683099,109.841937 90.896831,104.358063 Z M8,0 L142,0 C146.418278,-8.11624501e-16 150,3.581722 150,8 L150,142 C150,146.418278 146.418278,150 142,150 L8,150 C3.581722,150 2.31743984e-15,146.418278 0,142 L0,8 C-5.41083001e-16,3.581722 3.581722,2.58798134e-15 8,0 Z M63.3823944,25.4297535 C73.4464437,25.4297535 83.0978873,29.4282042 90.215493,36.5455986 C97.3330986,43.662993 101.331338,53.3149648 101.331338,63.3829225 C101.331338,73.4469718 97.3328873,83.0984155 90.215493,90.2160211 C83.0980986,97.3336268 73.4461268,101.331866 63.3823944,101.331866 C53.3142254,101.331866 43.6626761,97.3334155 36.5450704,90.2160211 C29.4274648,83.0986268 25.4292254,73.4466549 25.4292254,63.3829225 C25.4416035,53.3188732 29.4441549,43.6716549 36.5577465,36.5572183 C43.671338,29.4427817 53.318662,25.4413732 63.3834507,25.4286972 L63.3823944,25.4297535 Z" id="Shape"></path>
        </g>
    </g>
</svg>