<?xml version="1.0" encoding="UTF-8"?>
<svg width="150px" height="150px" viewBox="0 0 150 150" version="1.1" xmlns="http://www.w3.org/2000/svg" xmlns:xlink="http://www.w3.org/1999/xlink">
    <title>dialog-organize</title>
    <g id="dialog-organize" stroke="none" stroke-width="1" fill="none" fill-rule="evenodd">
        <g id="noun-folder-archive-71880-95968E" transform="translate(8.000000, 8.000000)" fill="#95958E" fill-rule="nonzero">
            <path d="M14.3094871,16.6620609 L47.8080913,16.6620609 C57.1483955,16.6620609 65.4786051,26.0761253 67.3210283,33.3241218 L117.250698,33.3241218 C123.950419,33.3241218 129.902004,36.3346229 134,41 L134,38.8781421 C134,26.6259733 123.984029,16.6620609 111.667597,16.6620609 L67.3210283,16.6620609 C65.4786051,9.4140644 57.1483955,0 47.8080913,0 L19.8925878,0 C9.48535311,0 0,10.091877 0,21.1774794 L0,23.6824536 C3.71845673,19.4557331 8.86618724,16.6622831 14.3094871,16.6622831 L14.3094871,16.6620609 Z" id="Path"></path>
            <path d="M117.250698,38.9196785 L64.9091288,38.9196785 C63.3680813,38.9196785 62.1175784,37.6564553 62.1175784,36.0997321 C62.1175784,31.694863 55.2002283,22 47.8080913,22 L14.3094871,22 C6.95632015,22 0,29.7099591 0,37.8650186 L0,40.408723 C3.71276197,36.1224045 8.86060414,33.285764 14.3094871,33.285764 L47.8080913,33.285764 C57.1483955,33.285764 65.4786051,42.8453823 67.3210283,50.2054425 L117.250698,50.2054425 C123.950419,50.2054425 129.902004,53.26249 134,58 L134,55.8396954 C134,46.5114255 126.485035,38.9200169 117.250698,38.9200169 L117.250698,38.9196785 Z" id="Path"></path>
            <path d="M134,72.4237966 C134,63.2100814 126.485035,55.7118983 117.250698,55.7118983 L64.9091288,55.7118983 C63.3680813,55.7118983 62.1175784,54.464188 62.1175784,52.9265819 C62.1175784,48.5758063 55.2002283,39 47.8080913,39 L14.3094871,39 C6.95632015,39 0,46.6152778 0,54.67019 L0,78 L133.994417,78 L134,72.4237966 Z" id="Path"></path>
            <path d="M0,117.683333 C0,126.679444 7.35827945,134 16.4030965,134 L117.596467,134 C126.646756,134 134,126.679222 134,117.677778 L134,84 L0.00601923294,84 L0,117.683333 Z M39.0815777,97.8888889 C39.0815777,96.3611111 40.3320765,95.1111111 41.873119,95.1111111 L92.1208618,95.1111111 C93.6562095,95.1111111 94.912403,96.3611111 94.912403,97.8888889 L94.912403,114.555556 C94.912403,116.083333 93.6562095,117.333333 92.1208618,117.333333 L41.873119,117.333333 C40.3320765,117.333333 39.0815777,116.083333 39.0815777,114.555556 L39.0815777,97.8888889 Z" id="Shape"></path>
            <polygon id="Path" points="44 101 89 101 89 112 44 112"></polygon>
        </g>
    </g>
</svg>