<?xml version="1.0" encoding="UTF-8"?>
<svg width="42px" height="30px" viewBox="0 0 42 30" version="1.1" xmlns="http://www.w3.org/2000/svg" xmlns:xlink="http://www.w3.org/1999/xlink">
    <title>Artboard</title>
    <g id="Artboard" stroke="none" stroke-width="1" fill="none" fill-rule="evenodd">
        <g id="cc_amex" fill-rule="nonzero">
            <path d="M42,26 C42,28.209 40.209,30 38,30 L4,30 C1.791,30 0,28.209 0,26 L0,4 C0,1.791 1.791,0 4,0 L38,0 C40.209,0 42,1.791 42,4 L42,26 Z" id="Path" fill="#1976D2"></path>
            <path d="M19.255,11 L17.142,15.683 L15.039,11 L12.344,11 L12.344,17.726 L9.341,11 L7.067,11 L4,17.981 L5.815,17.981 L6.486,16.423 L9.918,16.423 L10.6,17.981 L14.065,17.981 L14.065,12.796 L16.364,17.981 L17.927,17.981 L20.278,12.886 L20.278,17.981 L22,17.981 L22,11 L19.255,11 Z M7.135,14.915 L8.161,12.475 L9.227,14.915 L7.135,14.915 Z M34.883,14.413 L38,11.018 L35.783,11.018 L33.789,13.182 L31.86,11 L25,11 L25,17.982 L31.635,17.982 L33.727,15.671 L35.767,18 L37.977,18 L34.883,14.413 Z M30.728,16.516 L26.717,16.516 L26.717,15.135 L30.555,15.135 L30.555,13.812 L26.717,13.812 L26.717,12.504 L30.951,12.516 L32.644,14.413 L30.728,16.516 Z" id="Shape" fill="#FFFFFF"></path>
        </g>
    </g>
</svg>