<?xml version="1.0" encoding="UTF-8"?>
<svg width="42px" height="30px" viewBox="0 0 42 30" version="1.1" xmlns="http://www.w3.org/2000/svg" xmlns:xlink="http://www.w3.org/1999/xlink">
    <title>Artboard</title>
    <g id="Artboard" stroke="none" stroke-width="1" fill="none" fill-rule="evenodd">
        <g id="cc_discover" fill-rule="nonzero">
            <path d="M42,26 C42,28.2 40.2,30 38,30 L4,30 C1.8,30 0,28.2 0,26 L0,4 C0,1.8 1.8,0 4,0 L38,0 C40.2,0 42,1.8 42,4 L42,26 Z" id="Path" fill="#E1E7EA"></path>
            <path d="M42,26 C42,28.2 40.2,30 38,30 L13,30 C13,30 36.6,26.2 42,15 L42,26 Z M19,15 C19,16.7 20.3,18 22,18 C23.7,18 25,16.7 25,15 C25,13.3 23.7,12 22,12 C20.3,12 19,13.3 19,15 Z" id="Shape" fill="#FF6D00"></path>
            <path d="M8.2,12 L9.3,12 L9.3,18 L8.2,18 L8.2,12 Z M14.2,15 C14.2,16.7 15.5,18 17.2,18 C17.7,18 18.1,17.9 18.6,17.7 L18.6,16.4 C18.2,16.8 17.8,17 17.2,17 C16.1,17 15.3,16.2 15.3,15 C15.3,13.9 16.1,13 17.2,13 C17.7,13 18.1,13.2 18.6,13.6 L18.6,12.3 C18.1,12.1 17.7,11.9 17.2,11.9 C15.5,12 14.2,13.4 14.2,15 Z M27.6,15.9 L26,12 L24.8,12 L27.3,18 L27.9,18 L30.4,12 L29.2,12 L27.6,15.9 Z M30.9,18 L34.1,18 L34.1,17 L32,17 L32,15.4 L34,15.4 L34,14.4 L32,14.4 L32,13 L34.1,13 L34.1,12 L30.9,12 L30.9,18 Z M38.5,13.8 C38.5,12.7 37.8,12 36.5,12 L34.8,12 L34.8,18 L35.9,18 L35.9,15.6 L36,15.6 L37.6,18 L39,18 L37.2,15.5 C38,15.3 38.5,14.7 38.5,13.8 Z M36.2,14.8 L35.9,14.8 L35.9,13 L36.2,13 C36.9,13 37.3,13.3 37.3,13.9 C37.3,14.4 37,14.8 36.2,14.8 Z M4.7,12 L3,12 L3,18 L4.6,18 C7.1,18 7.7,15.9 7.7,15 C7.8,13.2 6.5,12 4.7,12 Z M4.4,17 L4.1,17 L4.1,13 L4.5,13 C6,13 6.6,14 6.6,15 C6.6,15.4 6.5,17 4.4,17 Z M12.3,14.3 C11.6,14 11.4,13.9 11.4,13.6 C11.4,13.2 11.8,13 12.2,13 C12.5,13 12.8,13.1 13.1,13.5 L13.7,12.7 C13.2,12.2 12.7,12 12,12 C11,12 10.2,12.7 10.2,13.7 C10.2,14.5 10.6,14.9 11.6,15.3 C12.2,15.5 12.7,15.7 12.7,16.2 C12.7,16.7 12.3,17 11.8,17 C11.3,17 10.8,16.7 10.6,16.2 L9.9,16.9 C10.4,17.7 11,18 11.9,18 C13.1,18 13.9,17.2 13.9,16.1 C13.9,15.2 13.5,14.8 12.3,14.3 Z" id="Shape" fill="#000000"></path>
        </g>
    </g>
</svg>