<?xml version="1.0" encoding="UTF-8"?>
<svg width="42px" height="29px" viewBox="0 0 42 29" version="1.1" xmlns="http://www.w3.org/2000/svg" xmlns:xlink="http://www.w3.org/1999/xlink">
    <title>Artboard</title>
    <g id="Artboard" stroke="none" stroke-width="1" fill="none" fill-rule="evenodd">
        <g id="cc_stripe" fill-rule="nonzero">
            <path d="M38.765,29 L3.235,29 C1.439,29 0,27.63 0,25.848 L0,3.228 C0,1.445 1.439,0 3.235,0 L38.764,0 C40.56,0 42,1.445 42,3.228 L42,25.848 C42,27.63 40.56,29 38.765,29 Z" id="Path" fill="#03A9F4"></path>
            <path d="M33.847,14.277 C33.916,13.176 34.201,12.664 34.773,12.664 C35.321,12.664 35.621,13.191 35.659,14.277 L33.847,14.277 Z M37.953,14.935 C37.953,13.705 37.683,12.732 37.172,12.05 C36.632,11.353 35.826,11 34.813,11 C32.725,11 31.417,12.546 31.417,15.022 C31.417,16.406 31.762,17.449 32.455,18.107 C33.072,18.702 33.958,19 35.085,19 C36.132,19 37.102,18.749 37.717,18.345 L37.449,16.657 C36.842,16.988 36.139,17.168 35.354,17.168 C34.884,17.168 34.548,17.065 34.31,16.86 C34.048,16.641 33.902,16.288 33.85,15.784 L37.918,15.784 C37.944,15.669 37.953,15.106 37.953,14.935 Z M28.057,16.533 C27.836,16.91 27.526,17.113 27.167,17.113 C26.926,17.113 26.695,17.06 26.498,16.966 L26.498,13.248 C26.926,12.807 27.312,12.757 27.44,12.757 C28.071,12.757 28.381,13.438 28.381,14.774 C28.384,15.534 28.269,16.126 28.057,16.533 Z M30.113,11.709 C29.675,11.138 29.054,10.856 28.268,10.856 C27.556,10.856 26.925,11.158 26.334,11.792 L26.192,11.008 L24,11.008 L24,22 L26.481,21.584 L26.498,18.785 C26.885,18.906 27.277,18.97 27.629,18.97 C28.256,18.97 29.159,18.813 29.864,18.044 C30.531,17.314 30.86,16.182 30.86,14.683 C30.86,13.358 30.615,12.353 30.113,11.709 Z M20.527,11.008 L23,11.008 L23,19 L20.527,19 L20.527,11.008 Z M21.784,10.233 C22.502,10.233 23.084,9.639 23.084,8.92 C23.084,8.187 22.5,7.6 21.784,7.6 C21.046,7.6 20.461,8.187 20.461,8.92 C20.461,9.64 21.046,10.233 21.784,10.233 Z M19.463,10.9 C18.758,10.9 18.184,11.272 17.972,11.931 L17.822,11.01 L15.652,11.01 L15.652,19 L18.134,19 L18.134,13.75 C18.446,13.368 18.883,13.23 19.496,13.23 C19.623,13.23 19.752,13.23 19.934,13.256 L19.934,10.962 C19.751,10.921 19.6,10.9 19.463,10.9 Z M14.68,12.855 L14.988,11.007 L13.387,11.007 L13.387,8.762 L11.258,9.116 L10.949,11.007 L10.2,11.13 L9.923,12.856 L10.947,12.856 L10.947,16.478 C10.947,17.419 11.185,18.077 11.667,18.476 C12.088,18.811 12.678,18.969 13.51,18.969 C14.164,18.969 14.553,18.857 14.807,18.785 L14.807,16.826 C14.674,16.867 14.327,16.941 14.091,16.941 C13.611,16.941 13.386,16.691 13.386,16.116 L13.386,12.851 L14.68,12.851 L14.68,12.855 Z M7.531,14.05 C6.824,13.785 6.413,13.577 6.413,13.247 C6.413,12.972 6.642,12.813 7.059,12.813 C7.796,12.813 8.568,13.094 9.082,13.357 L9.382,11.528 C8.964,11.326 8.113,11 6.94,11 C6.1,11 5.405,11.22 4.926,11.621 C4.394,12.05 4.124,12.664 4.124,13.407 C4.124,14.754 4.948,15.325 6.29,15.809 C7.147,16.117 7.444,16.336 7.444,16.677 C7.444,16.999 7.17,17.191 6.649,17.191 C6.025,17.191 5.008,16.881 4.322,16.488 L4.04,18.341 C4.616,18.663 5.676,19 6.788,19 C7.675,19 8.41,18.79 8.89,18.394 C9.458,17.962 9.73400354,17.317 9.73400354,16.489 C9.736,15.106 8.891,14.531 7.531,14.05 L7.531,14.05 Z" id="Shape" fill="#FFFFFF"></path>
        </g>
    </g>
</svg>