<?xml version="1.0" encoding="UTF-8"?>
<svg width="42px" height="30px" viewBox="0 0 42 30" version="1.1" xmlns="http://www.w3.org/2000/svg" xmlns:xlink="http://www.w3.org/1999/xlink">
    <title>Artboard</title>
    <g id="Artboard" stroke="none" stroke-width="1" fill="none" fill-rule="evenodd">
        <g id="cc_visa" fill-rule="nonzero">
            <path d="M42,26 C42,28.209 40.209,30 38,30 L4,30 C1.791,30 0,28.209 0,26 L0,4 C0,1.791 1.791,0 4,0 L38,0 C40.209,0 42,1.791 42,4 L42,26 Z" id="Path" fill="#1565C0"></path>
            <path d="M12.186,10 L9.56,17.832 C9.56,17.832 8.893,14.519 8.827,14.103 C7.332,10.692 5.126,10.882 5.126,10.882 L7.726,21 L7.726,20.998 L10.887,20.998 L15.258,10 L12.186,10 Z M14.689,21 L17.56,21 L19.296,10 L16.389,10 L14.689,21 Z M35.008,10 L31.987,10 L27.277,21 L30.129,21 L30.717,19.429 L34.313,19.429 L34.619,21 L37.232,21 L35.008,10 Z M31.513,17.328 L33.076,13.171 L33.894,17.328 L31.513,17.328 Z M23.369,13.206 C23.369,12.6 23.867,12.149 25.295,12.149 C26.223,12.149 27.286,12.823 27.286,12.823 L27.752,10.514 C27.752,10.514 26.394,9.999 25.061,9.999 C22.042,9.999 20.485,11.443 20.485,13.271 C20.485,16.577 24.464,16.124 24.464,17.822 C24.464,18.113 24.233,18.786 22.576,18.786 C20.914,18.786 19.817,18.177 19.817,18.177 L19.322,20.393 C19.322,20.393 20.385,20.999 22.439,20.999 C24.498,20.999 27.354,19.459 27.354,17.247 C27.354,14.586 23.369,14.394 23.369,13.206 Z" id="Shape" fill="#FFFFFF"></path>
            <path d="M9.212,15.945 L8.246,11.197 C8.246,11.197 7.809,10.168 6.673,10.168 C5.537,10.168 2.233,10.168 2.233,10.168 C2.233,10.168 7.894,11.84 9.212,15.945 Z" id="Path" fill="#FFC107"></path>
        </g>
    </g>
</svg>