<?xml version="1.0" encoding="UTF-8"?>
<svg width="1200pt" height="1200pt" version="1.1" viewBox="0 0 1200 1200" xmlns="http://www.w3.org/2000/svg">
 <path d="m1050 700v250c0 13.262-5.2695 25.98-14.645 35.355s-22.094 14.645-35.355 14.645h-350v100c0 17.863-9.5312 34.371-25 43.301-15.469 8.9336-34.531 8.9336-50 0-15.469-8.9297-25-25.438-25-43.301v-100h-350c-13.262 0-25.98-5.2695-35.355-14.645s-14.645-22.094-14.645-35.355v-250c0-13.262 5.2695-25.98 14.645-35.355s22.094-14.645 35.355-14.645h350v-100h-200c-13.262 0-25.98-5.2695-35.355-14.645s-14.645-22.094-14.645-35.355v-250c0-13.262 5.2695-25.98 14.645-35.355s22.094-14.645 35.355-14.645h200v-100c0-17.863 9.5312-34.371 25-43.301 15.469-8.9336 34.531-8.9336 50 0 15.469 8.9297 25 25.438 25 43.301v100h200c13.262 0 25.98 5.2695 35.355 14.645s14.645 22.094 14.645 35.355v250c0 13.262-5.2695 25.98-14.645 35.355s-22.094 14.645-35.355 14.645h-200v100h350c13.262 0 25.98 5.2695 35.355 14.645s14.645 22.094 14.645 35.355z" fill="#7f7f79"/>
</svg>
