<svg width="80px"  height="80px"  xmlns="http://www.w3.org/2000/svg" viewBox="0 0 100 100" preserveAspectRatio="xMidYMid" class="lds-sunny">
    <circle cx="50" cy="50" r="25" ng-attr-fill="{{config.c1}}" fill="#F5F0D9"></circle>
    <g transform="rotate(60 50 50)">
      <path d="M43 23L57 23L50 10Z" transform="rotate(30 50 50)" ng-attr-fill="{{config.c2}}" fill="#F7E4DB"></path>
      <path d="M43 23L57 23L50 10Z" transform="rotate(60 50 50)" ng-attr-fill="{{config.c2}}" fill="#F7E4DB"></path>
      <path d="M43 23L57 23L50 10Z" transform="rotate(90 50 50)" ng-attr-fill="{{config.c2}}" fill="#F7E4DB"></path>
      <path d="M43 23L57 23L50 10Z" transform="rotate(120 50 50)" ng-attr-fill="{{config.c2}}" fill="#F7E4DB"></path>
      <path d="M43 23L57 23L50 10Z" transform="rotate(150 50 50)" ng-attr-fill="{{config.c2}}" fill="#F7E4DB"></path>
      <path d="M43 23L57 23L50 10Z" transform="rotate(180 50 50)" ng-attr-fill="{{config.c2}}" fill="#F7E4DB"></path>
      <path d="M43 23L57 23L50 10Z" transform="rotate(210 50 50)" ng-attr-fill="{{config.c2}}" fill="#F7E4DB"></path>
      <path d="M43 23L57 23L50 10Z" transform="rotate(240 50 50)" ng-attr-fill="{{config.c2}}" fill="#F7E4DB"></path>
      <path d="M43 23L57 23L50 10Z" transform="rotate(270 50 50)" ng-attr-fill="{{config.c2}}" fill="#F7E4DB"></path>
      <path d="M43 23L57 23L50 10Z" transform="rotate(300 50 50)" ng-attr-fill="{{config.c2}}" fill="#F7E4DB"></path>
      <path d="M43 23L57 23L50 10Z" transform="rotate(330 50 50)" ng-attr-fill="{{config.c2}}" fill="#F7E4DB"></path>
      <path d="M43 23L57 23L50 10Z" transform="rotate(360 50 50)" ng-attr-fill="{{config.c2}}" fill="#F7E4DB"></path>
      <animateTransform attributeName="transform" type="rotate" calcMode="linear" values="0 50 50;180 50 50" keyTimes="0;1" dur="5.3s" begin="0s" repeatCount="indefinite"></animateTransform>
    </g>
  </svg>