<?xml version="1.0" encoding="UTF-8"?>
<svg width="150px" height="150px" viewBox="0 0 150 150" version="1.1" xmlns="http://www.w3.org/2000/svg" xmlns:xlink="http://www.w3.org/1999/xlink">
    <title>add-list</title>
    <g id="add-list" stroke="none" stroke-width="1" fill="none" fill-rule="evenodd">
        <g id="noun-add-to-list-1913842-95978E" transform="translate(75.232710, 74.299065) scale(-1, -1) translate(-75.232710, -74.299065) translate(15.420561, 23.831776)" fill="#95968E" fill-rule="nonzero">
            <path d="M5.60747664,11.2149533 L69.1570093,11.2149533 C72.2564019,11.2149533 74.764486,8.70686916 74.764486,5.60747664 C74.764486,2.50808411 72.2564019,0 69.1570093,0 L5.60747664,0 C2.50808411,0 0,2.50808411 0,5.60747664 C0,8.70686916 2.50808411,11.2149533 5.60747664,11.2149533 Z" id="Path"></path>
            <path d="M5.60747664,33.6448598 L69.1570093,33.6448598 C72.2564019,33.6448598 74.764486,31.1367757 74.764486,28.0373832 C74.764486,24.9379907 72.2564019,22.4299065 69.1570093,22.4299065 L5.60747664,22.4299065 C2.50808411,22.4299065 0,24.9379907 0,28.0373832 C0,31.1367757 2.50808411,33.6448598 5.60747664,33.6448598 Z" id="Path"></path>
            <path d="M5.60747664,56.0747664 L69.1570093,56.0747664 C72.2564019,56.0747664 74.764486,53.5666822 74.764486,50.4672897 C74.764486,47.3678972 72.2564019,44.8598131 69.1570093,44.8598131 L5.60747664,44.8598131 C2.50808411,44.8598131 0,47.3678972 0,50.4672897 C0,53.5666822 2.50808411,56.0747664 5.60747664,56.0747664 Z" id="Path"></path>
            <path d="M46.7271028,67.2897196 L5.60747664,67.2897196 C2.50808411,67.2897196 0,69.7978037 0,72.8971963 C0,75.9965888 2.50808411,78.5046729 5.60747664,78.5046729 L46.7271028,78.5046729 C49.8264953,78.5046729 52.3345794,75.9965888 52.3345794,72.8971963 C52.3345794,69.7978037 49.8264953,67.2897196 46.7271028,67.2897196 Z" id="Path"></path>
            <path d="M114.016822,67.2897196 L97.1943925,67.2897196 L97.1943925,50.4672897 C97.1943925,47.3678972 94.6863084,44.8598131 91.5869159,44.8598131 C88.4875234,44.8598131 85.9794393,47.3678972 85.9794393,50.4672897 L85.9794393,67.2897196 L69.1570093,67.2897196 C66.0576168,67.2897196 63.5495327,69.7978037 63.5495327,72.8971963 C63.5495327,75.9965888 66.0576168,78.5046729 69.1570093,78.5046729 L85.9794393,78.5046729 L85.9794393,95.3271028 C85.9794393,98.4264953 88.4875234,100.934579 91.5869159,100.934579 C94.6863084,100.934579 97.1943925,98.4264953 97.1943925,95.3271028 L97.1943925,78.5046729 L114.016822,78.5046729 C117.116215,78.5046729 119.624299,75.9965888 119.624299,72.8971963 C119.624299,69.7978037 117.116215,67.2897196 114.016822,67.2897196 Z" id="Path"></path>
        </g>
    </g>
</svg>