<?xml version="1.0" encoding="UTF-8"?>
<svg width="150px" height="150px" viewBox="0 0 150 150" version="1.1" xmlns="http://www.w3.org/2000/svg" xmlns:xlink="http://www.w3.org/1999/xlink">
    <title>folder-open</title>
    <g id="folder-open" stroke="none" stroke-width="1" fill="none" fill-rule="evenodd">
        <g id="noun-folder-977418-95978E" transform="translate(1.630435, 21.195652)" fill="#95968E" fill-rule="nonzero">
            <path d="M146.73913,26.9059475 L146.73913,100.272082 C146.73913,104.429331 143.559264,107.608696 139.40205,107.608696 L7.33688965,107.608696 C3.17948444,107.608696 0,104.42914 0,100.272082 L0,26.9059475 C0,22.7486988 3.17967552,19.5693209 7.33688965,19.5693209 L139.409693,19.5693209 C143.559646,19.5618709 146.73913,22.7414382 146.73913,26.9059475 L146.73913,26.9059475 Z M65.0544682,14.6732269 L52.5824437,2.20167188 C51.1120659,0.731349429 49.4027682,0 47.4473088,0 L7.33688965,0 C3.17948444,0 7.10542736e-15,3.17955583 7.10542736e-15,7.33661347 L7.10542736e-15,17.121376 C1.95545936,15.6510536 4.649996,14.673418 7.33688965,14.673418 L65.0544682,14.6732269 Z" id="Shape"></path>
        </g>
    </g>
</svg>