<?xml version="1.0" encoding="utf-8"?>
<!-- Generator: Adobe Illustrator 15.0.0, SVG Export Plug-In . SVG Version: 6.00 Build 0)  -->
<!DOCTYPE svg PUBLIC "-//W3C//DTD SVG 1.1//EN" "http://www.w3.org/Graphics/SVG/1.1/DTD/svg11.dtd">
<svg version="1.1" id="Layer_1" xmlns="http://www.w3.org/2000/svg" xmlns:xlink="http://www.w3.org/1999/xlink" x="0px" y="0px"
	 width="595.28px" height="595.28px" viewBox="0 0 595.28 595.28" enable-background="new 0 0 595.28 595.28" xml:space="preserve">
<g>
	<path fill-rule="evenodd" clip-rule="evenodd" d="M297.54,570.09c-150.668,0-272.81-122.142-272.81-272.81
		S146.872,24.47,297.54,24.47c150.669,0,272.81,122.141,272.81,272.81S448.209,570.09,297.54,570.09z M473.329,122.554
		l-120.625,44.115L298.604,50.181l-54.101,116.489l-120.625-44.115l44.114,120.625L51.504,297.28l116.488,54.101l-44.114,120.625
		l120.625-44.114l54.101,116.488l54.101-116.488l120.625,44.114l-44.115-120.625l116.489-54.101l-116.489-54.101L473.329,122.554z
		 M297.54,427.291c-71.101,0-128.945-57.845-128.945-128.945c0-71.101,57.845-128.945,128.945-128.945
		s128.945,57.844,128.945,128.945C426.485,369.446,368.641,427.291,297.54,427.291z M297.54,190.714
		c-59.348,0-107.632,48.283-107.632,107.632s48.284,107.632,107.632,107.632c59.349,0,107.632-48.283,107.632-107.632
		S356.889,190.714,297.54,190.714z"/>
</g>
</svg>
