<?xml version="1.0" encoding="utf-8"?>
<!-- Generator: Adobe Illustrator 15.0.0, SVG Export Plug-In . SVG Version: 6.00 Build 0)  -->
<!DOCTYPE svg PUBLIC "-//W3C//DTD SVG 1.1//EN" "http://www.w3.org/Graphics/SVG/1.1/DTD/svg11.dtd">
<svg version="1.1" id="Layer_1" xmlns="http://www.w3.org/2000/svg" xmlns:xlink="http://www.w3.org/1999/xlink" x="0px" y="0px"
	 width="595.28px" height="595.28px" viewBox="0 0 595.28 595.28" enable-background="new 0 0 595.28 595.28" xml:space="preserve">
<g>
	<path fill-rule="evenodd" clip-rule="evenodd" d="M298.54,570.09c-150.668,0-272.81-122.142-272.81-272.81
		S147.872,24.47,298.54,24.47c150.669,0,272.81,122.141,272.81,272.81S449.209,570.09,298.54,570.09z M474.329,472.006
		l-4.322-11.819c-1.556,1.646-3.135,3.275-4.743,4.884c-0.889,0.888-1.785,1.766-2.685,2.638L474.329,472.006z M464.253,444.455
		l-7.149-19.55c-8.787,10.986-18.688,21.046-29.533,30l19.387,7.09C453.041,456.473,458.814,450.615,464.253,444.455z
		 M488.805,298.346c0-9.85-0.753-19.528-2.203-28.979l-20.84-9.678c2.872,12.428,4.391,25.368,4.391,38.657
		c0,12.443-1.333,24.581-3.86,36.279l20.646-9.589C488.168,316.313,488.805,307.402,488.805,298.346z M108.275,298.346
		c0,8.692,0.589,17.25,1.724,25.637l20.556,9.547c-2.376-11.36-3.628-23.128-3.628-35.184c0-12.896,1.433-25.463,4.143-37.554
		l-20.748,9.636C108.976,279.542,108.275,288.863,108.275,298.346z M453.836,340.41c3.637-13.413,5.578-27.517,5.578-42.064
		c0-15.438-2.188-30.373-6.266-44.515l-22.935-10.651l8.604-23.527c-14.492-25.731-35.857-47.096-61.589-61.587l-23.525,8.604
		l-10.65-22.932c-14.142-4.078-29.077-6.266-44.514-6.266c-14.55,0-28.654,1.942-42.068,5.579l-10.969,23.619l-24.811-9.074
		c-25.346,14.075-46.513,34.797-61.131,59.795l9.432,25.789l-25.383,11.789c-3.87,13.805-5.943,28.353-5.943,43.377
		c0,14.142,1.837,27.862,5.28,40.938l26.046,12.097l-9.911,27.099c14.194,24.607,34.713,45.128,59.32,59.323l27.101-9.911
		l12.098,26.048c13.076,3.443,26.797,5.281,40.94,5.281c15.022,0,29.569-2.072,43.373-5.942l11.791-25.387l25.793,9.433
		c24.997-14.617,45.718-35.783,59.792-61.128l-9.075-24.815L453.836,340.41z M336.091,465.816
		c-12.09,2.709-24.656,4.142-37.551,4.142c-12.056,0-23.825-1.253-35.186-3.629l9.547,20.557c8.387,1.135,16.945,1.725,25.639,1.725
		c9.481,0,18.802-0.701,27.915-2.047L336.091,465.816z M205.532,442.509c-20.45-13.239-37.919-30.708-51.158-51.158l-7.807,21.348
		c10.727,14.219,23.398,26.892,37.618,37.618L205.532,442.509z M154.874,204.573c13.637-20.822,31.674-38.515,52.782-51.746
		l-21.551-7.881c-14.766,10.852-27.914,23.781-39.011,38.354L154.874,204.573z M262.257,130.594
		c11.699-2.528,23.838-3.861,36.283-3.861c13.288,0,26.228,1.519,38.655,4.39l-9.678-20.839c-9.451-1.45-19.128-2.203-28.978-2.203
		c-9.058,0-17.971,0.637-26.695,1.868L262.257,130.594z M390.203,153.321c21.478,13.623,39.736,31.882,53.359,53.358l7.854-21.476
		c-11.218-15.117-24.62-28.52-39.737-39.737L390.203,153.321z M444.057,389.231c-13.229,21.106-30.922,39.143-51.743,52.779
		l21.273,7.78c14.571-11.096,27.5-24.243,38.352-39.008L444.057,389.231z M299.604,544.38l4.794-10.322
		c-1.948,0.047-3.901,0.071-5.857,0.071c-1.239,0-2.476-0.014-3.712-0.032L299.604,544.38z M298.54,519.375
		c4.313,0,8.597-0.129,12.85-0.374l8.748-18.835c-7.098,0.754-14.303,1.145-21.598,1.145c-6.532,0-12.991-0.314-19.367-0.921
		l8.697,18.728C291.407,519.286,294.963,519.375,298.54,519.375z M150.738,462.548l19.43-7.105
		c-10.502-8.598-20.129-18.226-28.727-28.728l-7.106,19.431C139.514,451.894,144.99,457.369,150.738,462.548z M135.085,468.272
		c-1.098-1.057-2.189-2.122-3.27-3.202c-1.081-1.081-2.147-2.174-3.205-3.272l-3.733,10.208L135.085,468.272z M52.504,297.28
		l10.284,4.776c-0.019-1.235-0.032-2.472-0.032-3.71c0-1.958,0.024-3.911,0.071-5.86L52.504,297.28z M77.51,298.346
		c0,3.576,0.089,7.132,0.257,10.667l18.729,8.698c-0.606-6.375-0.92-12.834-0.92-19.365c0-7.296,0.391-14.502,1.145-21.601
		l-18.837,8.749C77.638,289.747,77.51,294.031,77.51,298.346z M124.878,122.554l4.298,11.752c0.873-0.9,1.751-1.797,2.64-2.686
		c1.608-1.608,3.238-3.187,4.884-4.743L124.878,122.554z M134.889,149.929l7.09,19.388c8.955-10.846,19.015-20.748,30.002-29.535
		l-19.55-7.15C146.27,138.07,140.412,143.844,134.889,149.929z M299.604,50.181l-5.773,12.431c1.567-0.031,3.137-0.05,4.71-0.05
		c2.292,0,4.579,0.037,6.86,0.102L299.604,50.181z M298.54,77.315c-3.918,0-7.812,0.104-11.682,0.307L278.138,96.4
		c6.711-0.673,13.517-1.019,20.402-1.019c7.651,0,15.205,0.428,22.64,1.257l-8.773-18.891
		C307.82,77.462,303.197,77.315,298.54,77.315z M445.271,133.181l-19.505,7.133c11.33,9.14,21.662,19.472,30.802,30.802
		l7.134-19.505C457.924,145.115,451.769,138.96,445.271,133.181z M460.976,127.438c1.443,1.374,2.873,2.768,4.288,4.183
		c1.414,1.415,2.808,2.844,4.182,4.288l4.884-13.354L460.976,127.438z M519.138,284.478l-18.891-8.773
		c0.829,7.435,1.258,14.989,1.258,22.641c0,6.884-0.347,13.688-1.02,20.398l18.777-8.72c0.202-3.868,0.307-7.762,0.307-11.679
		C519.569,293.688,519.423,289.064,519.138,284.478z M534.273,303.053l12.43-5.773l-12.481-5.796
		c0.065,2.282,0.102,4.569,0.102,6.862C534.323,299.917,534.304,301.486,534.273,303.053z M298.54,427.291
		c-71.101,0-128.945-57.845-128.945-128.945c0-71.101,57.845-128.945,128.945-128.945s128.945,57.844,128.945,128.945
		C427.485,369.446,369.641,427.291,298.54,427.291z M298.54,190.714c-59.348,0-107.632,48.283-107.632,107.632
		s48.284,107.632,107.632,107.632c59.349,0,107.632-48.283,107.632-107.632S357.889,190.714,298.54,190.714z"/>
</g>
</svg>
