<?xml version="1.0" encoding="UTF-8"?>
<svg width="150px" height="150px" viewBox="0 0 150 150" version="1.1" xmlns="http://www.w3.org/2000/svg" xmlns:xlink="http://www.w3.org/1999/xlink">
    <title>dialog-keyboard</title>
    <g id="dialog-keyboard" stroke="none" stroke-width="1" fill="none" fill-rule="evenodd">
        <g id="noun-keyboard-2660379-95968E" transform="translate(0.000000, 15.000000)" fill="#95958E" fill-rule="nonzero">
            <path d="M143.499401,45.1886646 L80.3471471,45.1886646 L80.3471471,44.8740974 L80.3471471,32.5721642 C80.3471471,25.1978483 74.3358296,19.2217707 66.9967537,19.2217707 L25.2680369,19.2217707 C23.695201,19.2217707 22.4022456,17.9288299 22.4022456,16.3559794 L22.4022456,5.2423011 C22.4022456,2.34126992 20.0609757,8.27750881e-15 17.1599445,8.27750881e-15 C14.2589134,8.27750881e-15 11.9176434,2.34126992 11.9176434,5.2423011 L11.9176434,16.3559794 C11.9176434,23.7302953 17.928961,29.7063729 25.2680369,29.7063729 L66.9967537,29.7063729 C68.5695896,29.7063729 69.8625449,30.9993136 69.8625449,32.5721642 L69.8625449,44.8740974 L69.8625449,45.1886646 L6.50059898,45.1886646 C2.90103118,45.1886646 -4.1387544e-15,48.0896958 -4.1387544e-15,51.6892636 L-4.1387544e-15,113.373673 C-4.1387544e-15,116.973241 2.90103118,119.874272 6.50059898,119.874272 L143.499401,119.874272 C147.098969,119.874272 150,116.973241 150,113.373673 L150,51.6892636 C150,48.1244988 147.098982,45.1886646 143.498832,45.1886646 L143.499401,45.1886646 Z M100.337789,60.2515431 C100.337789,58.0149736 102.15512,56.2321543 104.357177,56.2321543 L109.319598,56.2321543 C111.556167,56.2321543 113.338987,58.0494854 113.338987,60.2515431 L113.338987,65.2139635 C113.338987,67.4505331 111.521656,69.2333523 109.319598,69.2333523 L104.357177,69.2333523 C102.120608,69.2333523 100.337789,67.4160212 100.337789,65.2139635 L100.337789,60.2515431 Z M100.337789,79.5781598 C100.337789,77.3415903 102.15512,75.558771 104.357177,75.558771 L109.319598,75.558771 C111.556167,75.558771 113.338987,77.3761021 113.338987,79.5781598 L113.338987,84.5405803 C113.338987,86.7771498 111.521656,88.559969 109.319598,88.559969 L104.357177,88.559969 C102.120608,88.559969 100.337789,86.742638 100.337789,84.5405803 L100.337789,79.5781598 Z M87.6166169,56.2324456 C89.8531864,56.2324456 91.6360057,58.0497766 91.6360057,60.2518343 L91.6360057,65.2142548 C91.6360057,67.4508243 89.8186746,69.2336435 87.6166169,69.2336435 L82.6541965,69.2336435 C80.4176269,69.2336435 78.6348077,67.4163125 78.6348077,65.2142548 L78.6348077,60.2518343 C78.6348077,58.0152648 80.4521388,56.2324456 82.6541965,56.2324456 L87.6166169,56.2324456 Z M78.5995678,79.5781598 C78.5995678,77.3415903 80.4168988,75.558771 82.6189565,75.558771 L87.581377,75.558771 C89.8179465,75.558771 91.6007658,77.3761021 91.6007658,79.5781598 L91.6007658,84.5405803 C91.6007658,86.7771498 89.7834347,88.559969 87.581377,88.559969 L82.6189565,88.559969 C80.382387,88.559969 78.5995678,86.742638 78.5995678,84.5405803 L78.5995678,79.5781598 Z M56.8614926,60.2515431 C56.8614926,58.0149736 58.6788236,56.2321543 60.8808813,56.2321543 L65.8433018,56.2321543 C68.0798713,56.2321543 69.8626905,58.0494854 69.8626905,60.2515431 L69.8626905,65.2139635 C69.8626905,67.4505331 68.0453595,69.2333523 65.8433018,69.2333523 L60.8808813,69.2333523 C58.6443118,69.2333523 56.8614926,67.4160212 56.8614926,65.2139635 L56.8614926,60.2515431 Z M56.8614926,79.5781598 C56.8614926,77.3415903 58.6788236,75.558771 60.8808813,75.558771 L65.8433018,75.558771 C68.0798713,75.558771 69.8626905,77.3761021 69.8626905,79.5781598 L69.8626905,84.5405803 C69.8626905,86.7771498 68.0453595,88.559969 65.8433018,88.559969 L60.8808813,88.559969 C58.6443118,88.559969 56.8614926,86.742638 56.8614926,84.5405803 L56.8614926,79.5781598 Z M35.1234174,60.2515431 C35.1234174,58.0149736 36.9407484,56.2321543 39.1428061,56.2321543 L44.1052266,56.2321543 C46.3417961,56.2321543 48.1246153,58.0494854 48.1246153,60.2515431 L48.1246153,65.2139635 C48.1246153,67.4505331 46.3072843,69.2333523 44.1052266,69.2333523 L39.1428061,69.2333523 C36.9062366,69.2333523 35.1234174,67.4160212 35.1234174,65.2139635 L35.1234174,60.2515431 Z M35.1234174,79.5781598 C35.1234174,77.3415903 36.9407484,75.558771 39.1428061,75.558771 L44.1052266,75.558771 C46.3417961,75.558771 48.1246153,77.3761021 48.1246153,79.5781598 L48.1246153,84.5405803 C48.1246153,86.7771498 46.3072843,88.559969 44.1052266,88.559969 L39.1428061,88.559969 C36.9062366,88.559969 35.1234174,86.742638 35.1234174,84.5405803 L35.1234174,79.5781598 Z M26.4209063,103.867488 C26.4209063,106.104058 24.6035752,107.886877 22.4015175,107.886877 L17.4044396,107.886308 C15.1678701,107.886308 13.3850509,106.068977 13.3850509,103.866919 L13.3850509,98.904499 C13.3850509,96.6679294 15.2023819,94.8851102 17.4044396,94.8851102 L22.3668601,94.8851102 C24.6034296,94.8851102 26.3862489,96.7024413 26.3862489,98.904499 L26.3862489,103.867502 L26.4209063,103.867488 Z M26.4209063,84.5408715 C26.4209063,86.777441 24.6035752,88.5602603 22.4015175,88.5602603 L17.4044396,88.5602603 C15.1678701,88.5602603 13.3850509,86.7429292 13.3850509,84.5408715 L13.3850509,79.578451 C13.3850509,77.3418815 15.2023819,75.5590623 17.4044396,75.5590623 L22.3668601,75.5590623 C24.6034296,75.5590623 26.3862489,77.3763933 26.3862489,79.578451 L26.3862489,84.5408715 L26.4209063,84.5408715 Z M26.4209063,65.2142548 C26.4209063,67.4508243 24.6035752,69.2336435 22.4015175,69.2336435 L17.4044396,69.2336435 C15.1678701,69.2336435 13.3850509,67.4163125 13.3850509,65.2142548 L13.3850509,60.2518343 C13.3850509,58.0152648 15.2023819,56.2324456 17.4044396,56.2324456 L22.3668601,56.2324456 C24.6034296,56.2324456 26.3862489,58.0497766 26.3862489,60.2518343 L26.3862489,65.2142548 L26.4209063,65.2142548 Z M113.82754,103.867488 C113.82754,106.104058 112.010209,107.886877 109.808151,107.886877 L39.1419324,107.886308 C36.9053629,107.886308 35.1225436,106.068977 35.1225436,103.866919 L35.1225436,98.904499 C35.1225436,96.6679294 36.9398747,94.8851102 39.1419324,94.8851102 L109.773203,94.8851102 C112.009772,94.8851102 113.792591,96.7024413 113.792591,98.904499 L113.792022,103.867502 L113.82754,103.867488 Z M135.111282,103.867488 C135.111282,106.104058 133.293951,107.886877 131.091894,107.886877 L126.129473,107.886877 C123.892904,107.886877 122.110084,106.069546 122.110084,103.867488 L122.110084,98.9050678 C122.110084,96.6684982 123.927415,94.885679 126.129473,94.885679 L131.091894,94.885679 C133.328463,94.885679 135.111282,96.7030101 135.111282,98.9050678 L135.111282,103.867488 Z M135.111282,84.5408715 C135.111282,86.777441 133.293951,88.5602603 131.091894,88.5602603 L126.129473,88.5602603 C123.892904,88.5602603 122.110084,86.7429292 122.110084,84.5408715 L122.110084,79.578451 C122.110084,77.3418815 123.927415,75.5590623 126.129473,75.5590623 L131.091894,75.5590623 C133.328463,75.5590623 135.111282,77.3763933 135.111282,79.578451 L135.111282,84.5408715 Z M135.111282,65.2142548 C135.111282,67.4508243 133.293951,69.2336435 131.091894,69.2336435 L126.129473,69.2336435 C123.892904,69.2336435 122.110084,67.4163125 122.110084,65.2142548 L122.110084,60.2518343 C122.110084,58.0152648 123.927415,56.2324456 126.129473,56.2324456 L131.091894,56.2324456 C133.328463,56.2324456 135.111282,58.0497766 135.111282,60.2518343 L135.111282,65.2142548 Z" id="Shape"></path>
        </g>
    </g>
</svg>