<?xml version="1.0" encoding="UTF-8"?>
<svg width="150px" height="150px" viewBox="0 0 150 150" version="1.1" xmlns="http://www.w3.org/2000/svg" xmlns:xlink="http://www.w3.org/1999/xlink">
    <title>single-story-one</title>
    <g id="single-story-one" stroke="none" stroke-width="1" fill="none" fill-rule="evenodd">
        <g id="noun-height-2395974-95968E" transform="translate(14.000000, 14.285853)" fill-rule="nonzero">
            <path d="M0,95.2855673 L0,91.6915115 C4.834476e-16,88.3866335 2.67252473,85.7040139 5.97737919,85.6915541 L107.638947,85.3082736 C110.952631,85.2957805 113.649032,87.9719252 113.661525,91.2856102 C113.661553,91.2931504 113.661567,91.3006907 113.661567,91.308231 L113.661567,95.2855673 C113.661567,98.5992758 110.975276,101.285567 107.661567,101.285567 L6,101.285567 C2.6862915,101.285567 -2.25872301e-15,98.5992758 0,95.2855673 Z" id="Shape" fill="#F2B380"></path>
            <path d="M3.85798775,7.14284082 C1.88527798,7.14284082 0.286567345,5.54413018 0.286567345,3.57142041 C0.286567345,1.59871063 1.88527798,0 3.85798775,0 L61.0007143,0 C62.9734241,0 64.5721347,1.59871063 64.5721347,3.57142041 C64.5721347,5.54413018 62.9734241,7.14284082 61.0007143,7.14284082 L3.85798775,7.14284082 Z M3.85798775,28.5713633 C1.88527798,28.5713633 0.286567345,26.9726526 0.286567345,24.9999429 C0.286567345,23.0272331 1.88527798,21.4285224 3.85798775,21.4285224 L53.8578735,21.4285224 C55.8305832,21.4285224 57.4292939,23.0272331 57.4292939,24.9999429 C57.4292939,26.9726526 55.8305832,28.5713633 53.8578735,28.5713633 L3.85798775,28.5713633 Z M3.85798775,49.9998857 C1.88527798,49.9998857 0.286567345,48.4011751 0.286567345,46.4284653 C0.286567345,44.4557555 1.88527798,42.8570449 3.85798775,42.8570449 L61.0007143,42.8570449 C62.9734241,42.8570449 64.5721347,44.4557555 64.5721347,46.4284653 C64.5721347,48.4011751 62.9734241,49.9998857 61.0007143,49.9998857 L3.85798775,49.9998857 Z M3.85798775,71.4284082 C1.88527798,71.4284082 0.286567345,69.8296975 0.286567345,67.8569878 C0.286567345,65.884278 1.88527798,64.2855673 3.85798775,64.2855673 L53.8578735,64.2855673 C55.8305832,64.2855673 57.4292939,65.884278 57.4292939,67.8569878 C57.4292939,69.8296975 55.8305832,71.4284082 53.8578735,71.4284082 L3.85798775,71.4284082 Z" id="Shape" fill="#95958E"></path>
        </g>
    </g>
</svg>