<?xml version="1.0" encoding="utf-8"?>
<!-- Generator: Adobe Illustrator 19.0.0, SVG Export Plug-In . SVG Version: 6.00 Build 0)  -->
<svg version="1.1" id="Layer_1" xmlns="http://www.w3.org/2000/svg" xmlns:xlink="http://www.w3.org/1999/xlink" x="0px" y="0px"
	 viewBox="0 0 612 613.6" style="enable-background:new 0 0 612 613.6;" xml:space="preserve">
<style type="text/css">
	.st0{fill:url(#XMLID_73_);}
	.st1{clip-path:url(#XMLID_74_);fill:url(#XMLID_75_);}
	.st2{clip-path:url(#SVGID_2_);fill:url(#XMLID_76_);}
	.st3{clip-path:url(#SVGID_4_);fill:url(#XMLID_77_);}
	.st4{clip-path:url(#SVGID_6_);fill:url(#XMLID_78_);}
	.st5{clip-path:url(#SVGID_8_);fill:url(#XMLID_79_);}
	.st6{opacity:0.15;}
	.st7{fill:#161416;}
	.st8{clip-path:url(#XMLID_80_);fill:url(#XMLID_81_);}
	.st9{clip-path:url(#XMLID_82_);fill:url(#XMLID_83_);}
	.st10{clip-path:url(#XMLID_84_);fill:url(#XMLID_85_);}
	.st11{clip-path:url(#XMLID_86_);fill:url(#XMLID_87_);}
	.st12{clip-path:url(#XMLID_88_);fill:url(#XMLID_89_);}
	.st13{clip-path:url(#SVGID_10_);fill:url(#XMLID_90_);}
	.st14{clip-path:url(#SVGID_12_);fill:url(#XMLID_91_);}
	.st15{clip-path:url(#XMLID_92_);fill:url(#XMLID_93_);}
</style>
<g>
	<linearGradient id="XMLID_73_" gradientUnits="userSpaceOnUse" x1="305" y1="578.8843" x2="305" y2="33.2653">
		<stop  offset="0" style="stop-color:#C35F28"/>
		<stop  offset="1" style="stop-color:#E6A33F"/>
	</linearGradient>
	<circle id="XMLID_45_" class="st0" cx="305" cy="306.1" r="272.8"/>
	<g>
		<defs>
			<polygon id="XMLID_43_" points="306.1,59 360.2,175.5 480.8,131.3 436.7,252 553.2,306.1 436.7,360.2 480.8,480.8 360.2,436.7 
				306.1,553.2 252,436.7 131.3,480.8 175.5,360.2 59,306.1 175.5,252 131.3,131.3 252,175.5 			"/>
		</defs>
		<clipPath id="XMLID_74_">
			<use xlink:href="#XMLID_43_"  style="overflow:visible;"/>
		</clipPath>
		<linearGradient id="XMLID_75_" gradientUnits="userSpaceOnUse" x1="364.7597" y1="418.3314" x2="104.2695" y2="-78.0807">
			<stop  offset="0" style="stop-color:#EEDA5B"/>
			<stop  offset="0.2268" style="stop-color:#F0DE81"/>
			<stop  offset="0.4536" style="stop-color:#F2E19C"/>
			<stop  offset="0.6644" style="stop-color:#F3E3B0"/>
			<stop  offset="0.8528" style="stop-color:#F4E5BC"/>
			<stop  offset="1" style="stop-color:#F4E5C0"/>
		</linearGradient>
		<circle id="XMLID_44_" class="st1" cx="306.1" cy="306.5" r="273.2"/>
	</g>
	<g>
		<defs>
			<path id="SVGID_1_" d="M305,436.1c-71.1,0-128.9-57.8-128.9-128.9S233.9,178.2,305,178.2S433.9,236,433.9,307.1
				S376.1,436.1,305,436.1z M305,199.5c-59.3,0-107.6,48.3-107.6,107.6S245.7,414.8,305,414.8s107.6-48.3,107.6-107.6
				S364.3,199.5,305,199.5z"/>
		</defs>
		<clipPath id="SVGID_2_">
			<use xlink:href="#SVGID_1_"  style="overflow:visible;"/>
		</clipPath>
		<linearGradient id="XMLID_76_" gradientUnits="userSpaceOnUse" x1="305" y1="578.8843" x2="305" y2="33.2653">
			<stop  offset="0" style="stop-color:#C35F28"/>
			<stop  offset="1" style="stop-color:#E6A33F"/>
		</linearGradient>
		<circle id="XMLID_42_" class="st2" cx="305" cy="306.1" r="272.8"/>
	</g>
	<g>
		<defs>
			<path id="SVGID_3_" d="M305,478.8c-94.6,0-171.6-77-171.6-171.6s77-171.6,171.6-171.6s171.6,77,171.6,171.6
				S399.6,478.8,305,478.8z M305,146.3c-88.7,0-160.9,72.2-160.9,160.9c0,88.7,72.2,160.9,160.9,160.9
				c88.7,0,160.9-72.2,160.9-160.9C465.9,218.4,393.7,146.3,305,146.3z"/>
		</defs>
		<clipPath id="SVGID_4_">
			<use xlink:href="#SVGID_3_"  style="overflow:visible;"/>
		</clipPath>
		<linearGradient id="XMLID_77_" gradientUnits="userSpaceOnUse" x1="305" y1="578.8843" x2="305" y2="33.2653">
			<stop  offset="0" style="stop-color:#C35F28"/>
			<stop  offset="1" style="stop-color:#E6A33F"/>
		</linearGradient>
		<circle id="XMLID_39_" class="st3" cx="305" cy="306.1" r="272.8"/>
	</g>
	<g>
		<defs>
			<path id="SVGID_5_" d="M305,510.1c-111.9,0-203-91-203-203s91-203,203-203s203,91,203,203S416.9,510.1,305,510.1z M305,116.9
				c-104.9,0-190.3,85.4-190.3,190.3c0,104.9,85.4,190.3,190.3,190.3c104.9,0,190.3-85.4,190.3-190.3
				C495.3,202.2,409.9,116.9,305,116.9z"/>
		</defs>
		<clipPath id="SVGID_6_">
			<use xlink:href="#SVGID_5_"  style="overflow:visible;"/>
		</clipPath>
		<linearGradient id="XMLID_78_" gradientUnits="userSpaceOnUse" x1="305" y1="578.8843" x2="305" y2="33.2653">
			<stop  offset="0" style="stop-color:#C35F28"/>
			<stop  offset="1" style="stop-color:#E6A33F"/>
		</linearGradient>
		<circle id="XMLID_36_" class="st4" cx="305" cy="306.1" r="272.8"/>
	</g>
	<g>
		<defs>
			<path id="SVGID_7_" d="M305,542.9c-63,0-122.2-24.5-166.7-69.1c-44.5-44.5-69.1-103.7-69.1-166.7s24.5-122.2,69.1-166.7
				C182.8,95.9,242,71.4,305,71.4s122.2,24.5,166.7,69.1c44.5,44.5,69.1,103.7,69.1,166.7s-24.5,122.2-69.1,166.7
				C427.2,518.4,368,542.9,305,542.9z M305,86.1c-121.9,0-221,99.2-221,221c0,121.9,99.2,221,221,221c121.9,0,221-99.2,221-221
				C526,185.3,426.9,86.1,305,86.1z"/>
		</defs>
		<clipPath id="SVGID_8_">
			<use xlink:href="#SVGID_7_"  style="overflow:visible;"/>
		</clipPath>
		<linearGradient id="XMLID_79_" gradientUnits="userSpaceOnUse" x1="305" y1="578.8843" x2="305" y2="33.2653">
			<stop  offset="0" style="stop-color:#C35F28"/>
			<stop  offset="1" style="stop-color:#E6A33F"/>
		</linearGradient>
		<circle id="XMLID_33_" class="st5" cx="305" cy="306.1" r="272.8"/>
	</g>
</g>
<g class="st6">
	<polygon id="XMLID_30_" class="st7" points="219.3,311 210.3,285.5 203.3,285.5 203.3,331.1 210.3,331.1 210.3,305.6 219.3,331.1 
		226.3,331.1 226.3,285.5 219.3,285.5 	"/>
	<polygon id="XMLID_29_" class="st7" points="344.6,285.5 336.5,285.5 336.5,323.7 336.5,331.1 344.6,331.1 353.2,331.1 
		353.2,323.7 344.6,323.7 	"/>
	<polygon id="XMLID_28_" class="st7" points="230.6,285.5 230.6,292.9 230.6,302.5 230.6,310 230.6,323.7 230.6,331.1 238.7,331.1 
		247.3,331.1 247.3,323.7 238.7,323.7 238.7,310 247.3,310 247.3,302.5 238.7,302.5 238.7,292.9 247.3,292.9 247.3,285.5 
		238.7,285.5 	"/>
	<polygon id="XMLID_27_" class="st7" points="279.7,285.5 275.8,307.8 272.2,285.5 268.3,285.5 264.4,285.5 260.6,308.8 
		256.6,285.5 249.5,285.5 256.9,331.1 264.4,331.1 268.3,306.3 272.2,331.1 279.3,331.1 286.8,285.5 	"/>
	<path id="XMLID_26_" class="st7" d="M371.4,321.5c0,1.9-1.6,3.5-3.5,3.5s-3.5-1.6-3.5-3.5v-36h-8.3v36c0,6.5,5.2,11.7,11.7,11.7
		c6.5,0,11.7-5.2,11.7-11.7v-35.9h-8.3V321.5z"/>
	<path class="st7" d="M399.9,315.9l-0.5-0.5c4.3-2.5,7.5-7.1,7.5-14.6c0-4.7-1.4-8.4-4.3-11.1c-4.4-4.2-10.4-4.2-11.4-4.2H384h-0.1
		v45.6h7.4v-13.4h0.1l0.1,0c0.2,0,0.5,0,0.7-0.1l7.2,13.5h9.1L399.9,315.9z M391.4,310.2v-17.3l0,0c0,0,3.8-0.1,6,2.1
		c1.3,1.3,2,3.2,2,5.7C399.5,306.6,396.8,309.8,391.4,310.2z"/>
	<path class="st7" d="M328.5,306.2c1.9-1.9,3.2-4.6,3.2-8.3c0-7.6-5.5-12.5-13.9-12.5h-7.2h-0.1v17.8v7.5v20l0.1,0v0.4h3.4
		c0.5,0,1.4,0.1,2.5,0.1c3.3,0,8.7-0.6,12.6-3.8c2.6-2.2,4.2-5.2,4.4-8.8c0.4-5.6-1.6-9.1-3.4-11
		C329.7,307.1,329.1,306.6,328.5,306.2z M317.9,292.9c6.3,0,6.3,3.8,6.3,5c0,4.3-4.9,5.2-6.3,5.3V292.9z M326.1,318.1
		c-0.1,1.6-0.7,2.7-1.7,3.6c-1.7,1.4-4.3,1.9-6.5,2v-13h1.8c0,0,3.2,0.1,5,2C325.8,313.9,326.3,315.7,326.1,318.1z"/>
	<path id="XMLID_20_" class="st7" d="M297.3,299.6l-0.1-0.1c0,0-2.7-4.3-0.5-6.5c2.7-2.6,6.7-0.3,8.3,0.3v-7.8
		c-1-0.4-8.3-3.4-13.8,2.1c-5.2,5.2-2.8,12.5-0.6,16l6.8,11.5c0,0,3.7,4.7,1.5,7.4c-2.4,2.9-9,1.3-10.6,0.8l-0.3,7.8
		c1.5,0.4,3.6,0.8,5.8,0.8c3.9,0,8.4-1.1,11.2-4.8c4.5-5.9,1.3-13.1-1.5-16.6L297.3,299.6z"/>
</g>
<g>
	<g>
		<defs>
			<polygon id="XMLID_18_" points="217.4,308.4 208.4,282.8 201.4,282.8 201.4,328.5 208.4,328.5 208.4,302.9 217.4,328.5 
				224.4,328.5 224.4,282.8 217.4,282.8 			"/>
		</defs>
		<clipPath id="XMLID_80_">
			<use xlink:href="#XMLID_18_"  style="overflow:visible;"/>
		</clipPath>
		<linearGradient id="XMLID_81_" gradientUnits="userSpaceOnUse" x1="308.3047" y1="337.1574" x2="308.3047" y2="253.6805">
			<stop  offset="0" style="stop-color:#16234B"/>
			<stop  offset="0.638" style="stop-color:#163964"/>
			<stop  offset="1" style="stop-color:#12436F"/>
		</linearGradient>
		<rect id="XMLID_19_" x="178.5" y="253.7" class="st8" width="259.7" height="83.5"/>
	</g>
	<g>
		<defs>
			<polygon id="XMLID_16_" points="342.7,282.8 334.6,282.8 334.6,321 334.6,328.5 342.7,328.5 351.3,328.5 351.3,321 342.7,321 			
				"/>
		</defs>
		<clipPath id="XMLID_82_">
			<use xlink:href="#XMLID_16_"  style="overflow:visible;"/>
		</clipPath>
		<linearGradient id="XMLID_83_" gradientUnits="userSpaceOnUse" x1="308.3047" y1="337.1574" x2="308.3047" y2="253.6805">
			<stop  offset="0" style="stop-color:#16234B"/>
			<stop  offset="0.638" style="stop-color:#163964"/>
			<stop  offset="1" style="stop-color:#12436F"/>
		</linearGradient>
		<rect id="XMLID_17_" x="178.5" y="253.7" class="st9" width="259.7" height="83.5"/>
	</g>
	<g>
		<defs>
			<polygon id="XMLID_14_" points="228.7,282.8 228.7,290.3 228.7,299.9 228.7,307.3 228.7,321 228.7,328.5 236.8,328.5 
				245.4,328.5 245.4,321 236.8,321 236.8,307.3 245.4,307.3 245.4,299.9 236.8,299.9 236.8,290.3 245.4,290.3 245.4,282.8 
				236.8,282.8 			"/>
		</defs>
		<clipPath id="XMLID_84_">
			<use xlink:href="#XMLID_14_"  style="overflow:visible;"/>
		</clipPath>
		<linearGradient id="XMLID_85_" gradientUnits="userSpaceOnUse" x1="308.3047" y1="337.1574" x2="308.3047" y2="253.6805">
			<stop  offset="0" style="stop-color:#16234B"/>
			<stop  offset="0.638" style="stop-color:#163964"/>
			<stop  offset="1" style="stop-color:#12436F"/>
		</linearGradient>
		<rect id="XMLID_15_" x="178.5" y="253.7" class="st10" width="259.7" height="83.5"/>
	</g>
	<g>
		<defs>
			<polygon id="XMLID_12_" points="266.4,303.6 262.5,328.5 255,328.5 247.6,282.8 254.7,282.8 258.7,306.2 262.5,282.8 
				266.4,282.8 270.3,282.8 273.9,305.1 277.8,282.8 284.9,282.8 277.4,328.5 270.3,328.5 			"/>
		</defs>
		<clipPath id="XMLID_86_">
			<use xlink:href="#XMLID_12_"  style="overflow:visible;"/>
		</clipPath>
		<linearGradient id="XMLID_87_" gradientUnits="userSpaceOnUse" x1="308.3047" y1="337.1574" x2="308.3047" y2="253.6805">
			<stop  offset="0" style="stop-color:#16234B"/>
			<stop  offset="0.638" style="stop-color:#163964"/>
			<stop  offset="1" style="stop-color:#12436F"/>
		</linearGradient>
		<rect id="XMLID_13_" x="178.5" y="253.7" class="st11" width="259.7" height="83.5"/>
	</g>
	<g>
		<defs>
			<path id="XMLID_10_" d="M369.5,318.8c0,1.9-1.6,3.5-3.5,3.5s-3.5-1.6-3.5-3.5v-36h-8.3v36c0,6.5,5.2,11.7,11.7,11.7
				c6.5,0,11.7-5.2,11.7-11.7v-35.9h-8.3V318.8z"/>
		</defs>
		<clipPath id="XMLID_88_">
			<use xlink:href="#XMLID_10_"  style="overflow:visible;"/>
		</clipPath>
		<linearGradient id="XMLID_89_" gradientUnits="userSpaceOnUse" x1="308.3047" y1="337.1574" x2="308.3047" y2="253.6805">
			<stop  offset="0" style="stop-color:#16234B"/>
			<stop  offset="0.638" style="stop-color:#163964"/>
			<stop  offset="1" style="stop-color:#12436F"/>
		</linearGradient>
		<rect id="XMLID_11_" x="178.5" y="253.7" class="st12" width="259.7" height="83.5"/>
	</g>
	<g>
		<defs>
			<path id="SVGID_9_" d="M398,313.2l-0.5-0.5c4.3-2.5,7.5-7.1,7.5-14.6c0-4.7-1.4-8.4-4.3-11.1c-4.4-4.2-10.4-4.2-11.4-4.2h-7.3
				H382v45.6h7.4V315h0.1l0.1,0c0.2,0,0.5,0,0.7-0.1l7.2,13.5h9.1L398,313.2z M389.5,307.6v-17.3l0,0c0,0,3.8-0.1,6,2.1
				c1.3,1.3,2,3.2,2,5.7C397.6,303.9,394.9,307.1,389.5,307.6z"/>
		</defs>
		<clipPath id="SVGID_10_">
			<use xlink:href="#SVGID_9_"  style="overflow:visible;"/>
		</clipPath>
		<linearGradient id="XMLID_90_" gradientUnits="userSpaceOnUse" x1="308.3047" y1="337.1574" x2="308.3047" y2="253.6805">
			<stop  offset="0" style="stop-color:#16234B"/>
			<stop  offset="0.638" style="stop-color:#163964"/>
			<stop  offset="1" style="stop-color:#12436F"/>
		</linearGradient>
		<rect id="XMLID_9_" x="178.5" y="253.7" class="st13" width="259.7" height="83.5"/>
	</g>
	<g>
		<defs>
			<path id="SVGID_11_" d="M326.6,303.5c1.9-1.9,3.2-4.6,3.2-8.3c0-7.6-5.5-12.5-13.9-12.5h-7.2h-0.1v17.8v7.5v20l0.1,0v0.4h3.4
				c0.5,0,1.4,0.1,2.5,0.1c3.3,0,8.7-0.6,12.6-3.8c2.6-2.2,4.2-5.2,4.4-8.8c0.4-5.6-1.6-9.1-3.4-11
				C327.8,304.4,327.2,303.9,326.6,303.5z M316,290.3c6.3,0,6.3,3.8,6.3,5c0,4.3-4.9,5.2-6.3,5.3V290.3z M324.2,315.4
				c-0.1,1.6-0.7,2.7-1.7,3.6c-1.7,1.4-4.3,1.9-6.5,2v-13h1.8c0,0,3.2,0.1,5,2C323.9,311.3,324.4,313.1,324.2,315.4z"/>
		</defs>
		<clipPath id="SVGID_12_">
			<use xlink:href="#SVGID_11_"  style="overflow:visible;"/>
		</clipPath>
		<linearGradient id="XMLID_91_" gradientUnits="userSpaceOnUse" x1="308.3047" y1="337.1574" x2="308.3047" y2="253.6805">
			<stop  offset="0" style="stop-color:#16234B"/>
			<stop  offset="0.638" style="stop-color:#163964"/>
			<stop  offset="1" style="stop-color:#12436F"/>
		</linearGradient>
		<rect id="XMLID_6_" x="178.5" y="253.7" class="st14" width="259.7" height="83.5"/>
	</g>
	<g>
		<defs>
			<path id="XMLID_1_" d="M295.4,297l-0.1-0.1c0,0-2.7-4.3-0.5-6.5c2.7-2.6,6.7-0.3,8.3,0.3v-7.8c-1-0.4-8.3-3.4-13.8,2.1
				c-5.2,5.2-2.8,12.5-0.6,16l6.8,11.5c0,0,3.7,4.7,1.5,7.4c-2.4,2.9-9,1.3-10.6,0.8l-0.3,7.8c1.5,0.4,3.6,0.8,5.8,0.8
				c3.9,0,8.4-1.1,11.2-4.8c4.5-5.9,1.3-13.1-1.5-16.6L295.4,297z"/>
		</defs>
		<clipPath id="XMLID_92_">
			<use xlink:href="#XMLID_1_"  style="overflow:visible;"/>
		</clipPath>
		<linearGradient id="XMLID_93_" gradientUnits="userSpaceOnUse" x1="308.3047" y1="337.1574" x2="308.3047" y2="253.6805">
			<stop  offset="0" style="stop-color:#16234B"/>
			<stop  offset="0.638" style="stop-color:#163964"/>
			<stop  offset="1" style="stop-color:#12436F"/>
		</linearGradient>
		<rect id="XMLID_2_" x="178.5" y="253.7" class="st15" width="259.7" height="83.5"/>
	</g>
</g>
</svg>
