<?xml version="1.0" encoding="UTF-8"?>
<svg width="150px" height="150px" viewBox="0 0 150 150" version="1.1" xmlns="http://www.w3.org/2000/svg" xmlns:xlink="http://www.w3.org/1999/xlink">
    <title>content-view-original</title>
    <g id="content-view-original" stroke="none" stroke-width="1" fill="none" fill-rule="evenodd">
        <g id="noun-grid-layout-273569-95968E" transform="translate(0.000000, 18.000000)">
            <path d="M141.09597,99.7906066 C141.09597,103.894939 136.703867,107.232938 131.30343,107.232938 L18.6965702,107.232938 C13.296133,107.232938 8.9040296,103.894939 8.9040296,99.7906066 L8.9040296,14.2104585 C8.9040296,10.1061261 13.296133,6.76684948 18.6965702,6.76684948 L131.30343,6.76684948 C136.703867,6.76684948 141.09597,10.1061261 141.09597,14.2104585 L141.09597,99.7906066 Z" id="Shape" fill="#FFFFFF"></path>
            <path d="M18.6965702,0 C8.3883008,0 0,6.37478908 0,14.2104585 L0,99.7906066 C0,107.625317 8.38788037,114 18.6965702,114 L131.30343,114 C141.611139,114 150,107.625637 150,99.7906066 L150,14.2104585 C150,6.3750021 141.611699,0 131.30343,0 L18.6965702,0 Z M141.09597,99.7906066 C141.09597,103.894939 136.703867,107.232938 131.30343,107.232938 L18.6965702,107.232938 C13.296133,107.232938 8.9040296,103.894939 8.9040296,99.7906066 L8.9040296,14.2104585 C8.9040296,10.1061261 13.296133,6.76684948 18.6965702,6.76684948 L131.30343,6.76684948 C136.703867,6.76684948 141.09597,10.1061261 141.09597,14.2104585 L141.09597,99.7906066 Z M82.2692534,51.9317594 L120.573328,51.9317594 L120.573328,28.7468351 L82.2692534,28.7468351 L82.2692534,51.9317594 Z M28.9543879,51.9317594 L67.2584623,51.9317594 L67.2584623,28.7468351 L28.9543879,28.7468351 L28.9543879,51.9317594 Z M82.2692534,86.769856 L120.573328,86.769856 L120.573328,63.5849318 L82.2692534,63.5849318 L82.2692534,86.769856 Z M28.9543879,86.769856 L67.2584623,86.769856 L67.2584623,63.5849318 L28.9543879,63.5849318 L28.9543879,86.769856 Z" id="Shape" fill="#95958E"></path>
        </g>
    </g>
</svg>