<?xml version="1.0" encoding="UTF-8"?>
<svg width="150px" height="150px" viewBox="0 0 150 150" version="1.1" xmlns="http://www.w3.org/2000/svg" xmlns:xlink="http://www.w3.org/1999/xlink">
    <title>delete</title>
    <g id="delete" stroke="none" stroke-width="1" fill="none" fill-rule="evenodd">
        <g id="noun-delete-3844387-95968E" transform="translate(17.265772, 0.000000)" fill="#95958E" fill-rule="nonzero">
            <path d="M100.967559,47.3431895 L14.0114337,47.3431895 C12.3766586,47.3338549 10.8077446,47.9874097 9.66362746,49.1548762 C8.52509803,50.3336631 7.91500419,51.9250729 7.97281391,53.5630687 L10.3882618,126.751141 C10.6228823,132.999261 13.2703743,138.912599 17.7755068,143.24865 C22.2799951,147.58454 28.2902737,150.004336 34.541936,149.999994 L80.4354467,149.999994 C86.698059,150.003763 92.7171942,147.57504 97.2228098,143.22675 C101.728425,138.878461 104.370442,132.949824 104.589282,126.690594 L107.00473,53.5637128 C107.062601,51.925717 106.452446,50.3342589 105.313916,49.1555203 C104.169719,47.9880538 102.600885,47.3344336 100.96611,47.3431895 L100.967559,47.3431895 Z M48.9742374,121.135225 C48.9742374,123.292703 47.8231315,125.286091 45.9549275,126.364991 C44.086659,127.443763 41.7845761,127.443763 39.9163076,126.364991 C38.0480392,125.28622 36.8969977,123.292864 36.8969977,121.135225 L36.8969977,69.6861836 C36.8969977,67.5287055 38.0481036,65.5353169 39.9163076,64.4564168 C41.7845761,63.3776455 44.086659,63.3776455 45.9549275,64.4564168 C47.8231959,65.535188 48.9742374,67.5285445 48.9742374,69.6861836 L48.9742374,121.135225 Z M78.0803849,121.135225 C78.0803849,123.292703 76.9292791,125.286091 75.061075,126.364991 C73.1928066,127.443763 70.8907237,127.443763 69.0224552,126.364991 C67.1541867,125.28622 66.0031453,123.292864 66.0031453,121.135225 L66.0031453,69.6861836 C66.0031453,67.5287055 67.1542511,65.5353169 69.0224552,64.4564168 C70.8907237,63.3776455 73.1928066,63.3776455 75.061075,64.4564168 C76.9293435,65.535188 78.0803849,67.5285445 78.0803849,69.6861836 L78.0803849,121.135225 Z M108.936927,23.188811 L90.2172056,23.188811 C88.3030437,23.1976174 86.4544208,22.4893294 85.0352647,21.2049231 C83.616189,19.9198242 82.7293171,18.1503476 82.5481585,16.2443982 C82.0833136,11.7714717 79.9716807,7.63058878 76.6233867,4.628187 C73.2750928,1.62578522 68.929863,-0.0234826258 64.432299,0.00025266799 L50.422701,0.00025266799 C45.9251369,-0.0233924491 41.5799071,1.62594625 38.2316132,4.628187 C34.8833193,7.63042775 32.7717347,11.7713106 32.3068415,16.2443982 C32.1256829,18.1503476 31.2387626,19.9197437 29.8197353,21.2049231 C28.4006596,22.4893939 26.5519563,23.1976676 24.6377943,23.188811 L6.03884527,23.188811 C3.88136718,23.188811 1.88797851,24.3399168 0.809078439,26.2081209 C-0.269692813,28.0763893 -0.269692813,30.3784722 0.809078439,32.2467407 C1.88784969,34.1150092 3.88120615,35.2660506 6.03884527,35.2660506 L108.695382,35.2660506 C110.85286,35.2660506 112.846249,34.1149447 113.925149,32.2467407 C115.00392,30.3784722 115.00392,28.0763893 113.925149,26.2081209 C112.846378,24.3398524 110.853021,23.188811 108.695382,23.188811 L108.936927,23.188811 Z M44.4444674,17.5125083 C44.5948032,16.017958 45.2967984,14.6328113 46.4133795,13.6276629 C47.5298961,12.6231103 48.9810006,12.0701982 50.4830872,12.0776741 L64.6134576,12.0776741 C66.1155602,12.0702022 67.5667452,12.6231103 68.6831653,13.6276629 C69.7996819,14.6328435 70.5016755,16.0179902 70.6520774,17.5125083 C70.8684693,19.4693432 71.3773398,21.3828611 72.1617324,23.188811 L42.9348124,23.188811 C43.719205,21.3828611 44.2280754,19.4693432 44.4444674,17.5125083 Z" id="Shape"></path>
        </g>
    </g>
</svg>