<?xml version="1.0" encoding="UTF-8"?>
<svg width="150px" height="150px" viewBox="0 0 150 150" version="1.1" xmlns="http://www.w3.org/2000/svg" xmlns:xlink="http://www.w3.org/1999/xlink">
    <title>dialog-tips</title>
    <g id="dialog-tips" stroke="none" stroke-width="1" fill="none" fill-rule="evenodd">
        <g id="noun-tips-3541168-95968E" transform="translate(32.000000, 11.000000)" fill="#95958E" fill-rule="nonzero">
            <path d="M42.976759,0 C19.2865018,0 0,19.4547421 0,43.3044183 C0,56.1943147 5.68717019,71.6646398 14.615115,83.193902 L14.615115,94.0477459 C14.615115,97.3453549 16.7245381,100 19.3452591,100 L66.645484,100 C69.2657184,100 71.3756281,97.3453549 71.3756281,94.0477459 L71.3751529,83.1848393 C80.3055308,71.6549647 86,56.1877014 86,43.3039284 C86,19.4542522 66.6660544,0 42.9770137,0 L42.976759,0 Z M42.976759,9.52443937 C61.5540373,9.52443937 76.5304548,24.6016379 76.5304548,43.3039284 C76.5304548,53.4430414 72.2931177,66.4126653 65.370463,76.1906162 L20.6103048,76.1906162 C13.6966522,66.4131552 9.45980167,53.4431638 9.45980167,43.3039284 C9.45980167,24.6016379 24.3985075,9.52443937 42.9770023,9.52443937 L42.976759,9.52443937 Z" id="Shape"></path>
            <path d="M22.7665594,105 C21.5029569,104.999548 20.2904326,105.473199 19.3961362,106.317037 C18.502342,107.161303 18,108.306071 18,109.500231 C18,110.693814 18.5024032,111.839148 19.3961362,112.682963 C20.2904081,113.526778 21.5028344,114.000462 22.7665594,114 L63.2334406,114 C64.4970431,114.000452 65.7095674,113.526801 66.6038638,112.682963 C67.497658,111.839148 68,110.693929 68,109.500231 C68,108.306186 67.4975968,107.161315 66.6038638,106.317037 C65.7095919,105.473222 64.4971656,104.999538 63.2334406,105 L22.7665594,105 Z" id="Path"></path>
            <path d="M28.4998351,119.005079 C26.8131333,119.082278 25.298197,120.010013 24.5248269,121.439258 C23.7514447,122.868537 23.8377402,124.581777 24.7510113,125.933971 C25.6647436,127.286048 27.2665581,128.071591 28.9531385,127.994851 L57.2792901,127.994851 L57.2788159,127.994851 C58.9658819,127.994851 60.5240327,127.137989 61.3676871,125.747091 C62.210771,124.356643 62.210771,122.643403 61.3676871,121.252378 C60.5241298,119.86193 58.9660033,119.005079 57.2788159,119.005079 L28.9526644,119.005079 C28.8014014,118.998307 28.6506118,118.998307 28.4993488,119.005079 L28.4998351,119.005079 Z" id="Path"></path>
        </g>
    </g>
</svg>