<?xml version="1.0" encoding="UTF-8"?>
<svg width="150px" height="150px" viewBox="0 0 150 150" version="1.1" xmlns="http://www.w3.org/2000/svg" xmlns:xlink="http://www.w3.org/1999/xlink">
    <title>content-view-story</title>
    <g id="content-view-story" stroke="none" stroke-width="1" fill="none" fill-rule="evenodd">
        <path d="M141.09597,117.790607 C141.09597,121.894939 136.703867,125.232938 131.30343,125.232938 L18.6965702,125.232938 C13.296133,125.232938 8.9040296,121.894939 8.9040296,117.790607 L8.9040296,32.2104585 C8.9040296,28.1061261 13.296133,24.7668495 18.6965702,24.7668495 L131.30343,24.7668495 C136.703867,24.7668495 141.09597,28.1061261 141.09597,32.2104585 L141.09597,117.790607 Z" id="Shape" fill="#FFFFFF"></path>
        <g id="noun-article-layout-273568-95968E" transform="translate(-0.000000, 18.000000)" fill="#95958E">
            <path d="M131.30343,0 L18.6965702,0 C8.38774023,0 0,6.37478908 0,14.2104585 L0,99.7906066 C0,107.625317 8.38788037,114 18.6965702,114 L131.30343,114 C141.61226,114 150,107.625637 150,99.7906066 L150,14.2104585 C150,6.3750021 141.61212,0 131.30343,0 L131.30343,0 Z M141.097092,99.7906066 C141.097092,103.894939 136.703867,107.232938 131.30343,107.232938 L18.6965702,107.232938 C13.2966935,107.232938 8.90346902,103.894939 8.90346902,99.7906066 L8.90346902,14.2104585 C8.90346902,10.1061261 13.2966935,6.76684948 18.6965702,6.76684948 L131.30343,6.76684948 C136.703867,6.76684948 141.097092,10.1061261 141.097092,14.2104585 L141.097092,99.7906066 Z M28.955509,67.9922828 L87.4122467,67.9922828 L87.4122467,61.2260723 L28.955509,61.2260723 L28.955509,67.9922828 Z M28.955509,85.2851177 L109.165351,85.2851177 L109.165351,78.5184812 L28.955509,78.5184812 L28.955509,85.2851177 Z M28.9226622,50.7005129 L121.266145,50.7005129 L121.266145,26.6422131 L28.9226622,26.6422131 L28.9226622,50.7005129 Z" id="Shape"></path>
        </g>
    </g>
</svg>