<?xml version="1.0" encoding="UTF-8"?>
<svg width="128pt" height="128pt" version="1.1" viewBox="0 0 128 128" xmlns="http://www.w3.org/2000/svg">
 <g fill="#95968e">
  <path d="m102.92 68.75c-1.3789 0-2.5-1.1211-2.5-2.5 0-9.9648-1.9414-19.297-5.4688-26.273-3.2031-6.3398-7.4375-9.9766-11.617-9.9766-4.1797 0-8.4102 3.6367-11.617 9.9766-3.5234 6.9766-5.4648 16.309-5.4648 26.273 0 1.3789-1.1211 2.5-2.5 2.5s-2.5-1.1211-2.5-2.5c0-23.129 9.6992-41.25 22.082-41.25 12.383 0 22.082 18.121 22.082 41.25 0.003907 1.3789-1.1172 2.5-2.4961 2.5z"/>
  <path d="m102.92 68.75c-1.3789 0-2.5-1.1211-2.5-2.5 0-13.098-7.6641-23.75-17.082-23.75-9.4219 0-17.086 10.652-17.086 23.75 0 1.3789-1.1211 2.5-2.5 2.5s-2.5-1.1211-2.5-2.5c0-7.5469 2.2148-14.668 6.2305-20.055 4.1836-5.6094 9.8125-8.6953 15.852-8.6953 6.0391 0 11.668 3.0859 15.852 8.6953 4.0195 5.3867 6.2305 12.508 6.2305 20.055 0.003907 1.3789-1.1172 2.5-2.4961 2.5z"/>
  <path d="m102.92 68.75c-1.3789 0-2.5-1.1211-2.5-2.5 0-28.73-9.0039-48.75-17.082-48.75-8.082 0-17.086 20.02-17.086 48.75 0 1.3789-1.1211 2.5-2.5 2.5s-2.5-1.1211-2.5-2.5c0-13.988 2.0938-27.172 5.9023-37.133 4.0938-10.715 9.8398-16.617 16.18-16.617 6.3398 0 12.09 5.9023 16.184 16.617 3.8047 9.957 5.9023 23.145 5.9023 37.133 0 1.3789-1.1211 2.5-2.5 2.5z"/>
  <path d="m102.92 68.75c-1.3789 0-2.5-1.1211-2.5-2.5 0-2.8359-1.6602-5.5625-4.6719-7.6758-3.2852-2.3047-7.6914-3.5742-12.414-3.5742-4.7227 0-9.1289 1.2695-12.41 3.5742-3.0117 2.1133-4.6719 4.8398-4.6719 7.6758 0 1.3789-1.1211 2.5-2.5 2.5s-2.5-1.1211-2.5-2.5c0-4.5117 2.4141-8.6914 6.8008-11.77 4.1133-2.8906 9.543-4.4805 15.281-4.4805 5.7422 0 11.168 1.5898 15.285 4.4805 4.3828 3.0781 6.8008 7.2578 6.8008 11.77 0 1.3789-1.1211 2.5-2.5 2.5z"/>
  <path d="m122.5 107.5c-12.383 0-22.082-18.121-22.082-41.25 0-1.3789 1.1211-2.5 2.5-2.5 1.3789 0 2.5 1.1211 2.5 2.5 0 9.9648 1.9414 19.297 5.4688 26.273 3.2031 6.3398 7.4336 9.9766 11.613 9.9766 1.3789 0 2.5 1.1211 2.5 2.5s-1.1211 2.5-2.5 2.5z"/>
  <path d="m122.5 95c-6.0391 0-11.668-3.0859-15.852-8.6953-4.0195-5.3867-6.2305-12.508-6.2305-20.055 0-1.3789 1.1211-2.5 2.5-2.5 1.3789 0 2.5 1.1211 2.5 2.5 0 13.098 7.6641 23.75 17.082 23.75 1.3789 0 2.5 1.1211 2.5 2.5s-1.1211 2.5-2.5 2.5z"/>
  <path d="m122.5 120c-6.3398 0-12.09-5.9023-16.184-16.617-3.8047-9.957-5.9023-23.145-5.9023-37.133 0-1.3789 1.1211-2.5 2.5-2.5 1.3789 0 2.5 1.1211 2.5 2.5 0 28.73 9.0039 48.75 17.082 48.75 1.3789 0 2.5 1.1211 2.5 2.5 0.003906 1.3789-1.1172 2.5-2.4961 2.5z"/>
  <path d="m122.5 82.5c-5.7422 0-11.168-1.5898-15.285-4.4805-4.3828-3.0781-6.8008-7.2578-6.8008-11.77 0-1.3789 1.1211-2.5 2.5-2.5 1.3789 0 2.5 1.1211 2.5 2.5 0 2.8359 1.6602 5.5625 4.6719 7.6758 3.2852 2.3047 7.6914 3.5742 12.414 3.5742 1.3789 0 2.5 1.1211 2.5 2.5s-1.1211 2.5-2.5 2.5z"/>
  <path d="m72.5 70c-0.65625 0-1.3008-0.26562-1.7656-0.73438-0.46484-0.46484-0.73438-1.1094-0.73438-1.7656s0.26562-1.3008 0.73438-1.7656c0.46484-0.46875 1.1094-0.73438 1.7656-0.73438s1.3008 0.26562 1.7656 0.73438c0.46484 0.46484 0.73438 1.1094 0.73438 1.7656s-0.26562 1.3008-0.73438 1.7656c-0.46484 0.46875-1.1094 0.73438-1.7656 0.73438z"/>
  <path d="m80 70c-0.65625 0-1.3008-0.26562-1.7656-0.73438-0.46484-0.46484-0.73438-1.1094-0.73438-1.7656s0.26562-1.3008 0.73438-1.7656c0.46484-0.46875 1.1094-0.73438 1.7656-0.73438s1.3008 0.26562 1.7656 0.73438c0.46484 0.46484 0.73438 1.1094 0.73438 1.7656s-0.26562 1.3008-0.73438 1.7656c-0.46484 0.46875-1.1094 0.73438-1.7656 0.73438z"/>
  <path d="m87.5 70c-0.65625 0-1.3008-0.26562-1.7656-0.73438-0.46484-0.46484-0.73438-1.1094-0.73438-1.7656s0.26562-1.3008 0.73438-1.7656c0.46484-0.46875 1.1094-0.73438 1.7656-0.73438s1.3008 0.26562 1.7656 0.73438c0.46484 0.46484 0.73438 1.1094 0.73438 1.7656s-0.26562 1.3008-0.73438 1.7656c-0.46484 0.46875-1.1094 0.73438-1.7656 0.73438z"/>
  <path d="m95 70c-0.65625 0-1.3008-0.26562-1.7656-0.73438-0.46484-0.46484-0.73438-1.1094-0.73438-1.7656s0.26562-1.3008 0.73438-1.7656c0.46484-0.46875 1.1094-0.73438 1.7656-0.73438s1.3008 0.26562 1.7656 0.73438c0.46484 0.46484 0.73438 1.1094 0.73438 1.7656s-0.26562 1.3008-0.73438 1.7656c-0.46484 0.46875-1.1094 0.73438-1.7656 0.73438z"/>
  <path d="m110 70c-0.65625 0-1.3008-0.26562-1.7656-0.73438-0.46484-0.46484-0.73438-1.1094-0.73438-1.7656s0.26562-1.3008 0.73438-1.7656c0.46484-0.46875 1.1094-0.73438 1.7656-0.73438s1.3008 0.26562 1.7656 0.73438c0.46484 0.46484 0.73438 1.1094 0.73438 1.7656s-0.26562 1.3008-0.73438 1.7656c-0.46484 0.46875-1.1094 0.73438-1.7656 0.73438z"/>
  <path d="m117.5 70c-0.65625 0-1.3008-0.26562-1.7656-0.73438-0.46484-0.46484-0.73438-1.1094-0.73438-1.7656s0.26562-1.3008 0.73438-1.7656c0.46484-0.46875 1.1094-0.73438 1.7656-0.73438s1.3008 0.26562 1.7656 0.73438c0.46484 0.46484 0.73438 1.1094 0.73438 1.7656s-0.26562 1.3008-0.73438 1.7656c-0.46484 0.46875-1.1094 0.73438-1.7656 0.73438z"/>
  <path d="m44.168 103.75c-12.383 0-22.082-18.121-22.082-41.25 0-1.3789 1.1211-2.5 2.5-2.5 1.3789 0 2.5 1.1211 2.5 2.5 0 9.9648 1.9414 19.297 5.4688 26.273 3.1992 6.3398 7.4336 9.9766 11.613 9.9766 4.1797 0 8.4102-3.6367 11.617-9.9766 3.5234-6.9766 5.4648-16.309 5.4648-26.273 0-1.3789 1.1211-2.5 2.5-2.5s2.5 1.1211 2.5 2.5c0 23.129-9.6992 41.25-22.082 41.25z"/>
  <path d="m44.168 91.25c-6.0391 0-11.668-3.0859-15.852-8.6953-4.0195-5.3867-6.2344-12.508-6.2344-20.055 0-1.3789 1.1211-2.5 2.5-2.5 1.3789 0 2.5 1.1211 2.5 2.5 0 13.098 7.6641 23.75 17.082 23.75 9.4219 0 17.086-10.652 17.086-23.75 0-1.3789 1.1211-2.5 2.5-2.5s2.5 1.1211 2.5 2.5c0 7.5469-2.2148 14.668-6.2305 20.055-4.1836 5.6094-9.8125 8.6953-15.852 8.6953z"/>
  <path d="m44.168 116.25c-6.3398 0-12.09-5.9023-16.184-16.617-3.8047-9.9609-5.9023-23.145-5.9023-37.133 0-1.3789 1.1211-2.5 2.5-2.5 1.3789 0 2.5 1.1211 2.5 2.5 0 28.73 9.0039 48.75 17.082 48.75 8.082 0 17.086-20.02 17.086-48.75 0-1.3789 1.1211-2.5 2.5-2.5s2.5 1.1211 2.5 2.5c0 13.988-2.0938 27.172-5.9023 37.133-4.0938 10.715-9.8398 16.617-16.18 16.617z"/>
  <path d="m44.168 78.75c-5.7422 0-11.168-1.5898-15.285-4.4805-4.3867-3.0781-6.8008-7.2578-6.8008-11.77 0-1.3789 1.1211-2.5 2.5-2.5 1.3789 0 2.5 1.1211 2.5 2.5 0 2.8359 1.6602 5.5625 4.6719 7.6758 3.2852 2.3047 7.6914 3.5742 12.414 3.5742 4.7227 0 9.1289-1.2695 12.41-3.5742 3.0117-2.1133 4.6719-4.8398 4.6719-7.6758 0-1.3789 1.1211-2.5 2.5-2.5s2.5 1.1211 2.5 2.5c0 4.5117-2.4141 8.6914-6.8008 11.77-4.1133 2.8906-9.543 4.4805-15.281 4.4805z"/>
  <path d="m24.582 66.25c-1.3789 0-2.5-1.1211-2.5-2.5 0-9.9648-1.9414-19.297-5.4688-26.273-3.2031-6.3398-7.4336-9.9766-11.613-9.9766-1.3789 0-2.5-1.1211-2.5-2.5s1.1211-2.5 2.5-2.5c12.383 0 22.082 18.121 22.082 41.25 0 1.3789-1.1172 2.5-2.5 2.5z"/>
  <path d="m24.582 66.25c-1.3789 0-2.5-1.1211-2.5-2.5 0-13.098-7.6641-23.75-17.082-23.75-1.3789 0-2.5-1.1211-2.5-2.5s1.1211-2.5 2.5-2.5c6.0391 0 11.668 3.0859 15.852 8.6953 4.0195 5.3867 6.2305 12.508 6.2305 20.055 0 1.3789-1.1172 2.5-2.5 2.5z"/>
  <path d="m24.582 66.25c-1.3789 0-2.5-1.1211-2.5-2.5 0-28.73-9-48.75-17.082-48.75-1.3789 0-2.5-1.1211-2.5-2.5s1.1211-2.5 2.5-2.5c6.3398 0 12.09 5.9023 16.184 16.617 3.8047 9.957 5.9023 23.145 5.9023 37.133-0.003907 1.3789-1.1211 2.5-2.5039 2.5z"/>
  <path d="m24.582 66.25c-1.3789 0-2.5-1.1211-2.5-2.5 0-2.8359-1.6602-5.5625-4.6719-7.6758-3.2812-2.3047-7.6875-3.5742-12.41-3.5742-1.3789 0-2.5-1.1211-2.5-2.5s1.1211-2.5 2.5-2.5c5.7422 0 11.168 1.5898 15.285 4.4805 4.3828 3.0781 6.8008 7.2578 6.8008 11.77-0.003907 1.3789-1.1211 2.5-2.5039 2.5z"/>
  <path d="m55 67.5c-0.65625 0-1.3008-0.26562-1.7656-0.73438-0.46875-0.46484-0.73438-1.1094-0.73438-1.7656s0.26562-1.3008 0.73438-1.7656c0.46484-0.46484 1.1094-0.73438 1.7656-0.73438s1.3008 0.26562 1.7656 0.73438c0.46484 0.46484 0.73438 1.1094 0.73438 1.7656s-0.26562 1.3008-0.73438 1.7656c-0.46484 0.46875-1.1094 0.73438-1.7656 0.73438z"/>
  <path d="m47.5 67.5c-0.65625 0-1.3008-0.26562-1.7656-0.73438-0.46875-0.46484-0.73438-1.1094-0.73438-1.7656s0.26562-1.3008 0.73438-1.7656c0.46484-0.46484 1.1094-0.73438 1.7656-0.73438s1.3008 0.26562 1.7656 0.73438c0.46484 0.46484 0.73438 1.1094 0.73438 1.7656s-0.26562 1.3008-0.73438 1.7656c-0.46484 0.46875-1.1094 0.73438-1.7656 0.73438z"/>
  <path d="m40 67.5c-0.65625 0-1.3008-0.26562-1.7656-0.73438-0.46875-0.46484-0.73438-1.1094-0.73438-1.7656s0.26562-1.3008 0.73438-1.7656c0.46484-0.46484 1.1094-0.73438 1.7656-0.73438s1.3008 0.26562 1.7656 0.73438c0.46484 0.46484 0.73438 1.1094 0.73438 1.7656s-0.26562 1.3008-0.73438 1.7656c-0.46484 0.46875-1.1094 0.73438-1.7656 0.73438z"/>
  <path d="m32.5 67.5c-0.65625 0-1.3008-0.26562-1.7656-0.73438-0.46875-0.46484-0.73438-1.1094-0.73438-1.7656s0.26562-1.3008 0.73438-1.7656c0.46484-0.46484 1.1094-0.73438 1.7656-0.73438s1.3008 0.26562 1.7656 0.73438c0.46484 0.46484 0.73438 1.1094 0.73438 1.7656s-0.26562 1.3008-0.73438 1.7656c-0.46484 0.46875-1.1094 0.73438-1.7656 0.73438z"/>
  <path d="m17.5 67.5c-0.65625 0-1.3008-0.26562-1.7656-0.73438-0.46875-0.46484-0.73438-1.1094-0.73438-1.7656s0.26562-1.3008 0.73438-1.7656c0.46484-0.46484 1.1094-0.73438 1.7656-0.73438s1.3008 0.26562 1.7656 0.73438c0.46484 0.46484 0.73438 1.1094 0.73438 1.7656s-0.26562 1.3008-0.73438 1.7656c-0.46484 0.46875-1.1094 0.73438-1.7656 0.73438z"/>
  <path d="m10 67.5c-0.65625 0-1.3008-0.26562-1.7656-0.73438-0.46875-0.46484-0.73438-1.1094-0.73438-1.7656s0.26562-1.3008 0.73438-1.7656c0.46484-0.46484 1.1094-0.73438 1.7656-0.73438s1.3008 0.26562 1.7656 0.73438c0.46484 0.46484 0.73438 1.1094 0.73438 1.7656s-0.26562 1.3008-0.73438 1.7656c-0.46484 0.46875-1.1094 0.73438-1.7656 0.73438z"/>
 </g>
</svg>
