<svg fill="#333333" xmlns="http://www.w3.org/2000/svg"  viewBox="0 0 24 24" width="100px" height="100px"><path d="M 12.003906 2.9941406 A 1.0001 1.0001 0 0 0 11.552734 3.1054688 L 3.5527344 7.1054688 A 1.0001 1.0001 0 0 0 3 8 L 3 15 A 1.0001 1.0001 0 1 0 5 15 L 5 8.6171875 L 12.447266 4.8945312 A 1.0001 1.0001 0 0 0 12.003906 2.9941406 z M 16.003906 5.9941406 A 1.0001 1.0001 0 0 0 15.552734 6.1054688 L 7.5527344 10.105469 A 1.0001 1.0001 0 0 0 7 11 L 7 18 A 1.0001 1.0001 0 1 0 9 18 L 9 11.617188 L 16.447266 7.8945312 A 1.0001 1.0001 0 0 0 16.003906 5.9941406 z M 19.970703 9 A 1.0001 1.0001 0 0 0 19.552734 9.1054688 L 11.552734 13.105469 A 1.0001 1.0001 0 0 0 11 14 L 11 21 A 1.0001 1.0001 0 0 0 12.447266 21.894531 L 20.447266 17.894531 A 1.0001 1.0001 0 0 0 21 17 L 21 10 A 1.0001 1.0001 0 0 0 19.970703 9 z"/></svg>