<svg xmlns="http://www.w3.org/2000/svg" viewBox="0 0 256 256" fill="currentColor"><path d="M232,104a56.06,56.06,0,0,0-56-56H136a24,24,0,0,1,24-24,8,8,0,0,0,0-16,40,40,0,0,0-40,40H80a56.06,56.06,0,0,0-56,56,16,16,0,0,0,8,13.84V128c0,35.53,33.12,62.12,59.74,83.49C103.66,221.07,120,234.18,120,240a8,8,0,0,0,16,0c0-5.82,16.34-18.93,28.26-28.51C190.88,190.12,224,163.53,224,128V117.84A16,16,0,0,0,232,104Zm-77.75,95c-10.62,8.52-20,16-26.25,23.37-6.25-7.32-15.63-14.85-26.25-23.37C77.8,179.79,48,155.86,48,128v-8H208v8C208,155.86,178.2,179.79,154.25,199Z"/></svg>