<svg xmlns="http://www.w3.org/2000/svg" viewBox="0 0 256 256" fill="currentColor"><path d="M232,128A104,104,0,0,0,54.46,54.46,104,104,0,0,0,128,232h.09A104,104,0,0,0,232,128ZM49.18,88.92l51.21,9.35L46.65,161.53A88.39,88.39,0,0,1,49.18,88.92Zm160.17,5.54a88.41,88.41,0,0,1-2.53,72.62l-51.21-9.35Zm-8.08-15.2L167.55,119,139.63,40.78a87.38,87.38,0,0,1,50.6,25A88.74,88.74,0,0,1,201.27,79.26ZM122.43,40.19l17.51,49L58.3,74.32a89.28,89.28,0,0,1,7.47-8.55A87.37,87.37,0,0,1,122.43,40.19ZM54.73,176.74,88.45,137l27.92,78.18a88,88,0,0,1-61.64-38.48Zm78.84,39.06-17.51-49L139.14,171h0l58.52,10.69a87.5,87.5,0,0,1-64.13,34.12Z"/></svg>