<svg xmlns="http://www.w3.org/2000/svg" viewBox="0 0 256 256" fill="currentColor"><path d="M101.66,133.66l-32,32A8,8,0,0,1,56,160V136H24a8,8,0,0,1,0-16H56V96a8,8,0,0,1,13.66-5.66l32,32A8,8,0,0,1,101.66,133.66Zm20.68-32a8,8,0,0,0,11.32,0l32-32A8,8,0,0,0,160,56H136V24a8,8,0,0,0-16,0V56H96a8,8,0,0,0-5.66,13.66Zm11.32,52.68a8,8,0,0,0-11.32,0l-32,32A8,8,0,0,0,96,200h24v32a8,8,0,0,0,16,0V200h24a8,8,0,0,0,5.66-13.66ZM232,120H200V96a8,8,0,0,0-13.66-5.66l-32,32a8,8,0,0,0,0,11.32l32,32A8,8,0,0,0,200,160V136h32a8,8,0,0,0,0-16Z"/></svg>