<svg xmlns="http://www.w3.org/2000/svg" viewBox="0 0 256 256" fill="currentColor"><path d="M96,136H64v24a8,8,0,0,1-13.66,5.66l-32-32a8,8,0,0,1,0-11.32l32-32A8,8,0,0,1,64,96v24H96a8,8,0,0,1,0,16Zm0-72h24V96a8,8,0,0,0,16,0V64h24a8,8,0,0,0,5.66-13.66l-32-32a8,8,0,0,0-11.32,0l-32,32A8,8,0,0,0,96,64Zm141.66,58.34-32-32A8,8,0,0,0,192,96v24H160a8,8,0,0,0,0,16h32v24a8,8,0,0,0,13.66,5.66l32-32A8,8,0,0,0,237.66,122.34ZM160,192H136V160a8,8,0,0,0-16,0v32H96a8,8,0,0,0-5.66,13.66l32,32a8,8,0,0,0,11.32,0l32-32A8,8,0,0,0,160,192Z"/></svg>