<svg xmlns="http://www.w3.org/2000/svg" viewBox="0 0 256 256" fill="currentColor"><path d="M216,40H40A16,16,0,0,0,24,56V200a16,16,0,0,0,16,16H216a16,16,0,0,0,16-16V56A16,16,0,0,0,216,40ZM72,144a8,8,0,0,1-4.89,7.37A7.86,7.86,0,0,1,64,152H52a8,8,0,0,1,0-16h4V88H52a8,8,0,0,1,0-16H64a8,8,0,0,1,6.91,4L92,112.12,113.09,76A8,8,0,0,1,120,72h12a8,8,0,0,1,0,16h-4v48h4a8,8,0,0,1,0,16H120a7.86,7.86,0,0,1-3.11-.63A8,8,0,0,1,112,144V109.59L98.91,132a8,8,0,0,1-13.82,0L72,109.59Zm128,40H88a8,8,0,0,1,0-16H200a8,8,0,0,1,0,16Zm0-32H160a8,8,0,0,1,0-16h40a8,8,0,0,1,0,16Zm0-32H160a8,8,0,0,1,0-16h40a8,8,0,0,1,0,16Z"/></svg>