<svg xmlns="http://www.w3.org/2000/svg" viewBox="0 0 256 256" fill="currentColor"><path d="M196.12,128c24.65-34.61,37.22-70.38,19.74-87.86S162.61,35.23,128,59.88C93.39,35.23,57.62,22.66,40.14,40.14S35.23,93.39,59.88,128c-24.65,34.61-37.22,70.38-19.74,87.86h0c5.63,5.63,13.15,8.14,21.91,8.14,18.47,0,42.48-11.17,66-27.88C151.47,212.83,175.47,224,194,224c8.76,0,16.29-2.52,21.91-8.14h0C233.34,198.38,220.77,162.61,196.12,128Zm8.43-76.55c7.64,7.64,2.48,32.4-18.52,63.28a300.33,300.33,0,0,0-21.19-23.57A302.47,302.47,0,0,0,141.27,70C172.15,49,196.91,43.81,204.55,51.45Zm-153.1,0c2.2-2.21,5.83-3.35,10.62-3.35C73.89,48.1,92.76,55,114.72,70A304,304,0,0,0,91.16,91.16,300.33,300.33,0,0,0,70,114.73C49,83.85,43.81,59.09,51.45,51.45Zm0,153.1C43.81,196.91,49,172.15,70,141.27a300.33,300.33,0,0,0,21.19,23.57A304.18,304.18,0,0,0,114.73,186C83.85,207,59.09,212.19,51.45,204.55ZM128,140a12,12,0,1,1,12-12A12,12,0,0,1,128,140Zm76.55,64.56c-7.64,7.65-32.4,2.48-63.28-18.52a304.18,304.18,0,0,0,23.57-21.19A300.33,300.33,0,0,0,186,141.27C207,172.15,212.19,196.91,204.55,204.55Z"/></svg>