<svg xmlns="http://www.w3.org/2000/svg" viewBox="0 0 256 256" fill="currentColor"><path d="M128,16a88.1,88.1,0,0,0-88,88c0,23.43,9.4,49.42,25.13,69.5,12.08,15.41,26.5,26,41.91,31.09L96.65,228.85A8,8,0,0,0,104,240h48a8,8,0,0,0,7.35-11.15L149,204.59c15.4-5.07,29.83-15.68,41.91-31.09C206.6,153.42,216,127.43,216,104A88.1,88.1,0,0,0,128,16Zm49.32,87.89A8.52,8.52,0,0,1,176,104a8,8,0,0,1-7.88-6.68,41.29,41.29,0,0,0-33.43-33.43,8,8,0,1,1,2.64-15.78,57.5,57.5,0,0,1,46.57,46.57A8,8,0,0,1,177.32,103.89Z"/></svg>