<svg xmlns="http://www.w3.org/2000/svg" viewBox="0 0 256 256" fill="currentColor"><path d="M224,40H32a8,8,0,0,0-8,8V208a8,8,0,0,0,8,8H224a8,8,0,0,0,8-8V48A8,8,0,0,0,224,40ZM40,64a8,8,0,0,1,8-8H80a8,8,0,0,1,0,16H56V96a8,8,0,0,1-16,0ZM80,200H48a8,8,0,0,1-8-8V160a8,8,0,0,1,16,0v24H80a8,8,0,0,1,0,16Zm24-48a8,8,0,0,1-16,0V104a8,8,0,0,1,16,0Zm32,0a8,8,0,0,1-16,0V104a8,8,0,0,1,16,0Zm24,8a8,8,0,0,1-8-8V104a8,8,0,0,1,16,0v48A8,8,0,0,1,160,160Zm56,32a8,8,0,0,1-8,8H176a8,8,0,0,1,0-16h24V160a8,8,0,0,1,16,0Zm0-96a8,8,0,0,1-16,0V72H176a8,8,0,0,1,0-16h32a8,8,0,0,1,8,8Z"/></svg>