<svg xmlns="http://www.w3.org/2000/svg" viewBox="0 0 256 256" fill="currentColor"><path d="M238,82.73A8,8,0,0,0,232,80H187.63L134,18.73a8,8,0,0,0-12,0L68.37,80H24a8,8,0,0,0-7.93,9.06L31.14,202.12A16.06,16.06,0,0,0,47,216H209a16.06,16.06,0,0,0,15.86-13.88L239.93,89.06A8,8,0,0,0,238,82.73ZM81.6,184a7.32,7.32,0,0,1-.81,0,8,8,0,0,1-8-7.2l-5.6-56a8,8,0,0,1,15.92-1.6l5.6,56A8,8,0,0,1,81.6,184Zm54.4-8a8,8,0,0,1-16,0V120a8,8,0,0,1,16,0ZM89.63,80,128,36.15,166.37,80Zm99.13,40.8-5.6,56a8,8,0,0,1-7.95,7.2,7.32,7.32,0,0,1-.81,0,8,8,0,0,1-7.16-8.76l5.6-56a8,8,0,0,1,15.92,1.6Z"/></svg>