<svg xmlns="http://www.w3.org/2000/svg" viewBox="0 0 256 256" fill="currentColor"><path d="M245.66,42.34l-32-32a8,8,0,0,0-11.32,11.32l1.48,1.47L148.65,64.51l-38.22,7.65a8.05,8.05,0,0,0-4.09,2.18L23,157.66a24,24,0,0,0,0,33.94L64.4,233a24,24,0,0,0,33.94,0l83.32-83.31a8,8,0,0,0,2.18-4.09l7.65-38.22,41.38-55.17,1.47,1.48a8,8,0,0,0,11.32-11.32ZM81.37,224a7.94,7.94,0,0,1-5.65-2.34L34.34,180.28a8,8,0,0,1,0-11.31L40,163.31,92.69,216,87,221.66A8,8,0,0,1,81.37,224ZM177.6,99.2a7.92,7.92,0,0,0-1.44,3.23l-7.53,37.63L160,148.69,107.31,96l8.63-8.63,37.63-7.53a7.92,7.92,0,0,0,3.23-1.44l58.45-43.84,6.19,6.19Z"/></svg>