<svg xmlns="http://www.w3.org/2000/svg" viewBox="0 0 256 256" fill="currentColor"><path d="M221.84,192v0a1.85,1.85,0,0,1-3,.28L83.27,43.19a4,4,0,0,1,.8-6A79.55,79.55,0,0,1,129.17,24C173,24.66,207.8,61.1,208,104.92c.14,34.88,8.31,61.54,13.82,71A15.89,15.89,0,0,1,221.84,192Zm-7.92,18.62a8,8,0,0,1-11.85,10.76L182.62,200H167.16a40,40,0,0,1-78.41,0H47.91a15.78,15.78,0,0,1-13.59-7.59,16.42,16.42,0,0,1-.09-16.68c5.55-9.73,13.7-36.64,13.7-71.73A79.42,79.42,0,0,1,58.79,63.85L42,45.38A8,8,0,1,1,53.84,34.62ZM150.59,200H105.32a24,24,0,0,0,45.27,0Z"/></svg>