<svg xmlns="http://www.w3.org/2000/svg" viewBox="0 0 256 256" fill="currentColor"><path d="M168,224a8,8,0,0,1-8,8H96a8,8,0,0,1,0-16h64A8,8,0,0,1,168,224ZM227.39,60.32a111.36,111.36,0,0,0-39.12-43.08,8,8,0,1,0-8.54,13.53,94.13,94.13,0,0,1,33.46,36.91,8,8,0,0,0,14.2-7.36ZM35.71,72a8,8,0,0,0,7.1-4.32A94.13,94.13,0,0,1,76.27,30.77a8,8,0,1,0-8.54-13.53A111.36,111.36,0,0,0,28.61,60.32,8,8,0,0,0,35.71,72ZM208,112a80,80,0,0,0-160,0c0,26.28-4.78,48.39-13.81,63.94A16,16,0,0,0,48,200H208a16,16,0,0,0,13.79-24.06C212.78,160.38,208,138.27,208,112Z"/></svg>