<svg xmlns="http://www.w3.org/2000/svg" viewBox="0 0 256 256" fill="currentColor"><path d="M54.46,164.71,82.33,126.5a48,48,0,1,1-12.92-9.44L41.54,155.29a8,8,0,1,0,12.92,9.42ZM208,112a47.81,47.81,0,0,0-16.93,3.09L214.91,156A8,8,0,1,1,201.09,164l-23.83-40.86A48,48,0,1,0,208,112ZM165.93,72H192a8,8,0,0,1,8,8,8,8,0,0,0,16,0,24,24,0,0,0-24-24H152a8,8,0,0,0-6.91,12l11.65,20H99.26L82.91,60A8,8,0,0,0,76,56H48a8,8,0,0,0,0,16H71.41L85.12,95.51,69.41,117.06a47.87,47.87,0,0,1,12.92,9.44l11.59-15.9L125.09,164A8,8,0,1,0,138.91,156l-30.32-52h57.48l11.19,19.17a48.11,48.11,0,0,1,13.81-8.08Z"/></svg>