<svg xmlns="http://www.w3.org/2000/svg" viewBox="0 0 256 256" fill="currentColor"><path d="M232,48H168a32,32,0,0,0-32,32v87.73a8.17,8.17,0,0,1-7.47,8.25,8,8,0,0,1-8.53-8V80A32,32,0,0,0,88,48H24a8,8,0,0,0-8,8V200a8,8,0,0,0,8,8H96a24,24,0,0,1,24,23.94,7.9,7.9,0,0,0,5.12,7.55A8,8,0,0,0,136,232a24,24,0,0,1,24-24h72a8,8,0,0,0,8-8V56A8,8,0,0,0,232,48ZM208,168H168.27a8.17,8.17,0,0,1-8.25-7.47,8,8,0,0,1,8-8.53h39.73a8.17,8.17,0,0,1,8.25,7.47A8,8,0,0,1,208,168Zm0-32H168.27a8.17,8.17,0,0,1-8.25-7.47,8,8,0,0,1,8-8.53h39.73a8.17,8.17,0,0,1,8.25,7.47A8,8,0,0,1,208,136Zm0-32H168.27A8.17,8.17,0,0,1,160,96.53,8,8,0,0,1,168,88h39.73A8.17,8.17,0,0,1,216,95.47,8,8,0,0,1,208,104Z"/></svg>