<svg xmlns="http://www.w3.org/2000/svg" viewBox="0 0 256 256" fill="currentColor"><path d="M232,128c0,56.63-47.38,104-104,104a103.67,103.67,0,0,1-31.52-4.89,4,4,0,0,1-1.62-6.65L220.46,94.85a4,4,0,0,1,6.65,1.62A103.69,103.69,0,0,1,232,128ZM215.84,72.39a103.16,103.16,0,0,0-6.06-8.56,4,4,0,0,0-6-.33L63.5,203.82a4,4,0,0,0,.33,6,103.16,103.16,0,0,0,8.56,6.06,4,4,0,0,0,5-.54L215.3,77.39A4,4,0,0,0,215.84,72.39ZM192.17,46.22a103.16,103.16,0,0,0-8.56-6.06,4,4,0,0,0-5,.54L40.7,178.62a4,4,0,0,0-.54,5,103.16,103.16,0,0,0,6.06,8.56,4,4,0,0,0,6,.33L192.5,52.18A4,4,0,0,0,192.17,46.22ZM159.53,28.89A103.67,103.67,0,0,0,128,24C71.38,24,24,71.37,24,128a103.69,103.69,0,0,0,4.89,31.53,4,4,0,0,0,6.65,1.62L161.15,35.54A4,4,0,0,0,159.53,28.89Z"/></svg>