<svg xmlns="http://www.w3.org/2000/svg" viewBox="0 0 256 256" fill="currentColor"><path d="M168,128a40,40,0,1,1-40-40A40,40,0,0,1,168,128Zm40,0a79.74,79.74,0,0,0-20.37-53.33,8,8,0,1,0-11.92,10.67,64,64,0,0,1,0,85.33,8,8,0,0,0,11.92,10.67A79.79,79.79,0,0,0,208,128ZM80.29,85.34A8,8,0,1,0,68.37,74.67a79.94,79.94,0,0,0,0,106.67,8,8,0,0,0,11.92-10.67,63.95,63.95,0,0,1,0-85.33Zm158.28-4A119.48,119.48,0,0,0,213.71,44a8,8,0,1,0-11.42,11.2,103.9,103.9,0,0,1,0,145.56A8,8,0,1,0,213.71,212,120.12,120.12,0,0,0,238.57,81.29ZM32.17,168.48A103.9,103.9,0,0,1,53.71,55.22,8,8,0,1,0,42.29,44a119.87,119.87,0,0,0,0,168,8,8,0,1,0,11.42-11.2A103.61,103.61,0,0,1,32.17,168.48Z"/></svg>