<svg xmlns="http://www.w3.org/2000/svg" viewBox="0 0 256 256" fill="currentColor"><path d="M235.29,216.7C212.86,205.69,200,182.12,200,152V134.69a15.94,15.94,0,0,0-10.09-14.87l-28.65-11.46A8,8,0,0,1,156.79,98l22.32-56.67C184,28.79,178,14.21,165.34,9.51a24,24,0,0,0-30.7,13.71L112.25,80.08a8,8,0,0,1-10.41,4.5L73.11,73.08a15.91,15.91,0,0,0-17.38,3.66C34.68,98.4,24,123.71,24,152a111.53,111.53,0,0,0,31.15,77.53A8.06,8.06,0,0,0,61,232H232a8,8,0,0,0,8-7.51A8.21,8.21,0,0,0,235.29,216.7ZM115.11,216a87.52,87.52,0,0,1-24.26-41.71,8.21,8.21,0,0,0-9.25-6.18A8,8,0,0,0,75.28,178a105.33,105.33,0,0,0,18.36,38H64.44A95.62,95.62,0,0,1,40,152a85.92,85.92,0,0,1,7.73-36.3l137.8,55.13c3,18.06,10.55,33.5,21.89,45.19Z"/></svg>