<svg xmlns="http://www.w3.org/2000/svg" viewBox="0 0 256 256" fill="currentColor"><path d="M239.73,208H224V96a16,16,0,0,0-16-16H164a4,4,0,0,0-4,4V208H144V32.41a16.43,16.43,0,0,0-6.16-13,16,16,0,0,0-18.72-.69L39.12,72A16,16,0,0,0,32,85.34V208H16.27A8.18,8.18,0,0,0,8,215.47,8,8,0,0,0,16,224H240a8,8,0,0,0,8-8.53A8.18,8.18,0,0,0,239.73,208ZM76,184a8,8,0,0,1-8.53,8A8.18,8.18,0,0,1,60,183.72V168.27A8.19,8.19,0,0,1,67.47,160,8,8,0,0,1,76,168Zm0-56a8,8,0,0,1-8.53,8A8.19,8.19,0,0,1,60,127.72V112.27A8.19,8.19,0,0,1,67.47,104,8,8,0,0,1,76,112Zm40,56a8,8,0,0,1-8.53,8,8.18,8.18,0,0,1-7.47-8.26V168.27a8.19,8.19,0,0,1,7.47-8.26,8,8,0,0,1,8.53,8Zm0-56a8,8,0,0,1-8.53,8,8.19,8.19,0,0,1-7.47-8.26V112.27a8.19,8.19,0,0,1,7.47-8.26,8,8,0,0,1,8.53,8Z"/></svg>