<svg xmlns="http://www.w3.org/2000/svg" viewBox="0 0 256 256" fill="currentColor"><path d="M241,69.66,221.66,50.34a8,8,0,0,0-11.32,11.32L229.66,81A8,8,0,0,1,232,86.63V168a8,8,0,0,1-16,0V128a24,24,0,0,0-24-24H176V56a24,24,0,0,0-24-24H72A24,24,0,0,0,48,56V208H32a8,8,0,0,0,0,16H192a8,8,0,0,0,0-16H176V120h16a8,8,0,0,1,8,8v40a24,24,0,0,0,48,0V86.63A23.85,23.85,0,0,0,241,69.66ZM135.43,131l-16,40A8,8,0,0,1,104.57,165l11.61-29H96a8,8,0,0,1-7.43-11l16-40A8,8,0,1,1,119.43,91l-11.61,29H128a8,8,0,0,1,7.43,11Z"/></svg>