<svg xmlns="http://www.w3.org/2000/svg" viewBox="0 0 256 256" fill="currentColor"><path d="M224,128H32a16,16,0,0,0-16,16v32a16,16,0,0,0,16,16H224a16,16,0,0,0,16-16V144A16,16,0,0,0,224,128Zm0,48H96V144H224v32ZM201,60.08c8-14.23,7.42-21.71,6.36-24.91a7.79,7.79,0,0,0-2.64-3.86,8,8,0,1,1,6.5-14.62,22.57,22.57,0,0,1,11.32,13.44c3.36,10.14.81,22.85-7.6,37.79-8,14.23-7.42,21.72-6.36,24.92a7.79,7.79,0,0,0,2.64,3.85,8,8,0,1,1-6.5,14.62,22.53,22.53,0,0,1-11.32-13.44C190.07,87.73,192.62,75,201,60.08Zm-40,0c8-14.23,7.42-21.71,6.36-24.91a7.79,7.79,0,0,0-2.64-3.86,8,8,0,1,1,6.5-14.62,22.57,22.57,0,0,1,11.32,13.44c3.36,10.14.81,22.85-7.6,37.79-8,14.23-7.42,21.72-6.36,24.92a7.79,7.79,0,0,0,2.64,3.85,8,8,0,1,1-6.5,14.62,22.53,22.53,0,0,1-11.32-13.44C150.07,87.73,152.62,75,161,60.08Z"/></svg>