<svg xmlns="http://www.w3.org/2000/svg" viewBox="0 0 256 256" fill="currentColor"><path d="M88,111.31l48,48V220a4,4,0,0,1-4,4H48a16,16,0,0,1-16-16V48A16,16,0,0,1,48,32H68a4,4,0,0,1,4,4V153.38a24,24,0,1,0,16,0ZM80,184a8,8,0,1,0-8-8A8,8,0,0,0,80,184Zm104-80a8,8,0,1,0-8,8A8,8,0,0,0,184,104Zm24-72H156a4,4,0,0,0-4,4V68.69l13.66,13.66a24,24,0,1,1-11.31,11.31l-16-16A8,8,0,0,1,136,72V36a4,4,0,0,0-4-4H92a4,4,0,0,0-4,4V88.69l61.66,61.65A8,8,0,0,1,152,156v64a4,4,0,0,0,4,4h52a16,16,0,0,0,16-16V48A16,16,0,0,0,208,32Z"/></svg>