<svg xmlns="http://www.w3.org/2000/svg" viewBox="0 0 256 256" fill="currentColor"><path d="M128,24A104,104,0,1,0,232,128,104.11,104.11,0,0,0,128,24Zm54.59,45a8,8,0,0,1,11.29.7,88,88,0,0,1,17.6,30.47,8,8,0,0,1-15.18,5.08,71.87,71.87,0,0,0-14.4-25A8,8,0,0,1,182.59,69ZM73.41,187.05a8,8,0,0,1-11.29-.7,88,88,0,0,1-17.6-30.47A8,8,0,1,1,59.7,150.8a71.87,71.87,0,0,0,14.4,24.95A8,8,0,0,1,73.41,187.05Zm.69-106.8a71.87,71.87,0,0,0-14.4,25,8,8,0,1,1-15.18-5.08,88,88,0,0,1,17.6-30.47,8,8,0,1,1,12,10.6Zm71.49,134a87.8,87.8,0,0,1-35.18,0,8,8,0,0,1,3.18-15.68,72.08,72.08,0,0,0,28.82,0,8,8,0,0,1,3.18,15.68Zm6.25-163A8,8,0,0,1,144,57.61a7.89,7.89,0,0,1-1.6-.16,72.08,72.08,0,0,0-28.82,0,8,8,0,1,1-3.18-15.68,87.92,87.92,0,0,1,35.18,0A8,8,0,0,1,151.84,51.2Zm59.64,104.68a88,88,0,0,1-17.6,30.47,8,8,0,1,1-12-10.6,71.87,71.87,0,0,0,14.4-24.95,8,8,0,0,1,15.18,5.08Z"/></svg>