<svg xmlns="http://www.w3.org/2000/svg" viewBox="0 0 256 256" fill="currentColor"><path d="M247.93,124.52C246.11,77.54,207.07,40,160.06,40A88.1,88.1,0,0,0,81.29,88.67h0A87.48,87.48,0,0,0,72,127.73,8.18,8.18,0,0,1,64.57,136,8,8,0,0,1,56,128a103.66,103.66,0,0,1,5.34-32.92,4,4,0,0,0-4.75-5.18A64.09,64.09,0,0,0,8,152c0,35.19,29.75,64,65,64H160A88.09,88.09,0,0,0,247.93,124.52Zm-50.27,25.14-32,32a8,8,0,0,1-11.32,0l-32-32a8,8,0,0,1,11.32-11.32L152,156.69V96a8,8,0,0,1,16,0v60.69l18.34-18.35a8,8,0,0,1,11.32,11.32Z"/></svg>