<svg xmlns="http://www.w3.org/2000/svg" viewBox="0 0 256 256" fill="currentColor"><path d="M88,196a12,12,0,1,1-12-12A12,12,0,0,1,88,196Zm28,4a12,12,0,1,0,12,12A12,12,0,0,0,116,200Zm48-16a12,12,0,1,0,12,12A12,12,0,0,0,164,184ZM68,224a12,12,0,1,0,12,12A12,12,0,0,0,68,224Zm88,0a12,12,0,1,0,12,12A12,12,0,0,0,156,224ZM231.87,87.55a76,76,0,0,0-151.78.73A8.18,8.18,0,0,1,72,96l-.6,0A8.14,8.14,0,0,1,64,87.39a92.48,92.48,0,0,1,2.33-16.51,4,4,0,0,0-5-4.78A52.09,52.09,0,0,0,24,116.36C24.2,145.07,48.12,168,76.84,168H156A76.08,76.08,0,0,0,231.87,87.55Z"/></svg>