<svg xmlns="http://www.w3.org/2000/svg" viewBox="0 0 256 256" fill="currentColor"><path d="M240,92.23v71.54a4,4,0,0,1-4.41,4,40,40,0,0,1,0-79.52A4,4,0,0,1,240,92.23ZM20.41,167.76a40,40,0,0,0,0-79.52,4,4,0,0,0-4.41,4v71.54A4,4,0,0,0,20.41,167.76ZM116,48H32A16,16,0,0,0,16,64v4.13a4,4,0,0,0,3.8,4,56,56,0,0,1,0,111.74,4,4,0,0,0-3.8,4V192a16,16,0,0,0,16,16h84a4,4,0,0,0,4-4V52A4,4,0,0,0,116,48Zm108,0H140a4,4,0,0,0-4,4V204a4,4,0,0,0,4,4h84a16,16,0,0,0,16-16v-4.13a4,4,0,0,0-3.8-4,56,56,0,0,1,0-111.74,4,4,0,0,0,3.8-4V64A16,16,0,0,0,224,48Z"/></svg>