<svg xmlns="http://www.w3.org/2000/svg" viewBox="0 0 256 256" fill="currentColor"><path d="M104,192a8,8,0,0,1-8,8H80a8,8,0,0,1,0-16H96A8,8,0,0,1,104,192Zm72-8H160a8,8,0,0,0,0,16h16a8,8,0,0,0,0-16Zm68.39-61.88A16,16,0,0,1,232,128H200v32a40,40,0,0,1-24,72H80a40,40,0,0,1-24-72V128H24A16,16,0,0,1,8.31,109,56.13,56.13,0,0,1,63.22,64h1.64A55.83,55.83,0,0,1,48,24a8,8,0,0,1,16,0,40,40,0,0,0,40,40h48a40,40,0,0,0,40-40,8,8,0,0,1,16,0,55.83,55.83,0,0,1-16.86,40h1.64a56.13,56.13,0,0,1,54.91,45A15.82,15.82,0,0,1,244.39,122.12ZM144,124a12,12,0,1,0,12-12A12,12,0,0,0,144,124Zm-56,0a12,12,0,1,0,12-12A12,12,0,0,0,88,124ZM56,112v-8a39.81,39.81,0,0,1,8-24h-.8A40.09,40.09,0,0,0,24,112Zm144,80a24,24,0,0,0-24-24H80a24,24,0,0,0,0,48h96A24,24,0,0,0,200,192Zm32-80a40.08,40.08,0,0,0-39.2-32H192a39.81,39.81,0,0,1,8,24v8Z"/></svg>