<svg xmlns="http://www.w3.org/2000/svg" viewBox="0 0 256 256" fill="currentColor"><path d="M104,104h48v48H104Zm136,48a8,8,0,0,1-8,8H216v40a16,16,0,0,1-16,16H160v16a8,8,0,0,1-16,0V216H112v16a8,8,0,0,1-16,0V216H56a16,16,0,0,1-16-16V160H24a8,8,0,0,1,0-16H40V112H24a8,8,0,0,1,0-16H40V56A16,16,0,0,1,56,40H96V24a8,8,0,0,1,16,0V40h32V24a8,8,0,0,1,16,0V40h40a16,16,0,0,1,16,16V96h16a8,8,0,0,1,0,16H216v32h16A8,8,0,0,1,240,152ZM168,96a8,8,0,0,0-8-8H96a8,8,0,0,0-8,8v64a8,8,0,0,0,8,8h64a8,8,0,0,0,8-8Z"/></svg>