<svg xmlns="http://www.w3.org/2000/svg" viewBox="0 0 256 256" fill="currentColor"><path d="M127.73,208H112V164a4,4,0,0,0-4-4H44a4,4,0,0,0-4,4v44H24.27A8.17,8.17,0,0,0,16,215.47,8,8,0,0,0,24,224H128a8,8,0,0,0,8-8.53A8.17,8.17,0,0,0,127.73,208Z"/><path d="M239.73,80H108.94L87.16,36.42A8,8,0,0,0,80,32H48a8,8,0,0,0-8,8V80H24.27A8.17,8.17,0,0,0,16,87.47,8,8,0,0,0,24,96H40v44a4,4,0,0,0,4,4h64a4,4,0,0,0,4-4V96h96v88H192v-7.73a8.18,8.18,0,0,0-7.47-8.25,8,8,0,0,0-8.53,8v8a16,16,0,0,0,16,16h16a16,16,0,0,0,16-16V96h16a8,8,0,0,0,8-8.53A8.17,8.17,0,0,0,239.73,80ZM56,80V48H75.06l16,32Z"/></svg>