<svg xmlns="http://www.w3.org/2000/svg" viewBox="0 0 256 256" fill="currentColor"><path d="M82.34,69.66a8,8,0,0,1,0-11.32l40-40a8,8,0,0,1,11.32,0l40,40a8,8,0,0,1,0,11.32l-40,40a8,8,0,0,1-11.32,0Zm51.32,76.68a8,8,0,0,0-11.32,0l-40,40a8,8,0,0,0,0,11.32l40,40a8,8,0,0,0,11.32,0l40-40a8,8,0,0,0,0-11.32Zm104-24-40-40a8,8,0,0,0-11.32,0l-40,40a8,8,0,0,0,0,11.32l40,40a8,8,0,0,0,11.32,0l40-40A8,8,0,0,0,237.66,122.34Zm-128,0-40-40a8,8,0,0,0-11.32,0l-40,40a8,8,0,0,0,0,11.32l40,40a8,8,0,0,0,11.32,0l40-40A8,8,0,0,0,109.66,122.34Z"/></svg>