<svg xmlns="http://www.w3.org/2000/svg" viewBox="0 0 256 256" fill="currentColor"><path d="M239.71,125l-16.42-88a16,16,0,0,0-19.61-12.58l-.31.09L150.85,40h-45.7L52.63,24.56l-.31-.09A16,16,0,0,0,32.71,37.05L16.29,125a15.77,15.77,0,0,0,9.12,17.52A16.26,16.26,0,0,0,32.12,144,15.48,15.48,0,0,0,40,141.84V184a40,40,0,0,0,40,40h96a40,40,0,0,0,40-40V141.85a15.5,15.5,0,0,0,7.87,2.16,16.31,16.31,0,0,0,6.72-1.47A15.77,15.77,0,0,0,239.71,125ZM176,208H136V195.31l13.66-13.65a8,8,0,0,0-11.32-11.32L128,180.69l-10.34-10.35a8,8,0,0,0-11.32,11.32L120,195.31V208H80a24,24,0,0,1-24-24V123.11L107.93,56h40.14L200,123.11V184A24,24,0,0,1,176,208Zm-72-68a12,12,0,1,1-12-12A12,12,0,0,1,104,140Zm72,0a12,12,0,1,1-12-12A12,12,0,0,1,176,140Z"/></svg>