<svg xmlns="http://www.w3.org/2000/svg" viewBox="0 0 256 256" fill="currentColor"><path d="M200,24H56A16,16,0,0,0,40,40V80a4,4,0,0,0,4,4H212a4,4,0,0,0,4-4V40A16,16,0,0,0,200,24ZM136,64H120a8,8,0,0,1,0-16h16a8,8,0,0,1,0,16Zm76,36H44a4,4,0,0,0-4,4v48a4,4,0,0,0,4,4H212a4,4,0,0,0,4-4V104A4,4,0,0,0,212,100Zm-76,36H120.27a8.18,8.18,0,0,1-8.25-7.47,8,8,0,0,1,8-8.53h15.73a8.18,8.18,0,0,1,8.25,7.47A8,8,0,0,1,136,136Zm76,36H44a4,4,0,0,0-4,4v40a16,16,0,0,0,16,16H200a16,16,0,0,0,16-16V176A4,4,0,0,0,212,172Zm-76,36H120a8,8,0,0,1,0-16h16a8,8,0,0,1,0,16Z"/></svg>