<svg xmlns="http://www.w3.org/2000/svg" viewBox="0 0 256 256" fill="currentColor"><path d="M93.27,36.86a4,4,0,0,1,.82-7.19,103.94,103.94,0,0,1,88.66,9.95,4,4,0,0,1,1,5.87,153.32,153.32,0,0,1-41.89,37A169.43,169.43,0,0,0,93.27,36.86ZM127.58,90a153,153,0,0,0-56-46.91,3.94,3.94,0,0,0-4,.33,104.41,104.41,0,0,0-38.34,52,4,4,0,0,0,3,5.16A152.34,152.34,0,0,0,64,104,151,151,0,0,0,127.58,90Zm103.8,26.69A103.81,103.81,0,0,0,202.19,55.2a4,4,0,0,0-6,.34,169.15,169.15,0,0,1-45.69,40.4,167.73,167.73,0,0,1,13.55,29.9A167.64,167.64,0,0,1,208,120,169.35,169.35,0,0,1,227,121.07,4,4,0,0,0,231.38,116.72Zm-62.91,24.5a167.7,167.7,0,0,1,4.45,38.47,168,168,0,0,1-4.11,36.85A4,4,0,0,0,174.5,221a104.25,104.25,0,0,0,56.57-79.25,4,4,0,0,0-3.49-4.49,152.44,152.44,0,0,0-59.11,4Zm-19.64-10.45a151.76,151.76,0,0,0-12.39-27.21A167,167,0,0,1,64,120a168.4,168.4,0,0,1-34.88-3.65,4,4,0,0,0-4.81,3.56q-.31,4-.32,8.09a103.72,103.72,0,0,0,33,75.91,4,4,0,0,0,6.15-.92A169,169,0,0,1,148.83,130.77ZM75.69,213.25a4,4,0,0,0,1.52,5.48,103.88,103.88,0,0,0,68.85,11.69,3.93,3.93,0,0,0,3.06-2.65,152.6,152.6,0,0,0,7.8-48.08,151.3,151.3,0,0,0-3.74-33.46A152.94,152.94,0,0,0,75.69,213.25Z"/></svg>