<svg xmlns="http://www.w3.org/2000/svg" viewBox="0 0 256 256" fill="currentColor"><path d="M230.94,164A8,8,0,1,1,217.05,172l-19-33.2A123.23,123.23,0,0,1,162,155.46l5.87,35.22a8,8,0,0,1-6.58,9.21A8.4,8.4,0,0,1,160,200a8,8,0,0,1-7.88-6.69l-5.77-34.58a133.06,133.06,0,0,1-36.68,0l-5.77,34.58A8,8,0,0,1,96,200a8.4,8.4,0,0,1-1.32-.11,8,8,0,0,1-6.58-9.21L94,155.46a123.23,123.23,0,0,1-36.06-16.69L39,172A8,8,0,1,1,25.06,164l20-35a152.8,152.8,0,0,1-19.3-20,8,8,0,0,1,0-10.06C44.56,75.72,77.55,48,128,48s83.44,27.72,102.22,51a8,8,0,0,1,0,10.06,152.8,152.8,0,0,1-19.3,20Z"/></svg>