<svg xmlns="http://www.w3.org/2000/svg" viewBox="0 0 256 256" fill="currentColor"><path d="M231.94,124.55c-1.77-54.49-46-98.72-100.49-100.49A104.09,104.09,0,0,0,24.06,131.45c1.77,54.49,46,98.72,100.49,100.49A104.09,104.09,0,0,0,231.94,124.55Zm-33.56,16.92L174.93,174.3a8.52,8.52,0,0,1-13.86,0L128,128,94.93,174.3a8.52,8.52,0,0,1-13.86,0L57.62,141.47A8.52,8.52,0,0,1,64.55,128H128L97.62,85.47A8.52,8.52,0,0,1,104.55,72h46.9a8.52,8.52,0,0,1,6.93,13.47L128,128h63.45A8.52,8.52,0,0,1,198.38,141.47Z"/></svg>