<svg xmlns="http://www.w3.org/2000/svg" viewBox="0 0 256 256" fill="currentColor"><path d="M44,128H212a4,4,0,0,0,4-4V88a8,8,0,0,0-2.34-5.66l-56-56A8,8,0,0,0,152,24H56A16,16,0,0,0,40,40v84A4,4,0,0,0,44,128ZM152,44l44,44H152ZM68,160v48a8,8,0,0,1-16,0V192H32v16a8,8,0,0,1-16,0V160a8,8,0,0,1,16,0v16H52V160a8,8,0,0,1,16,0Zm56,0a8,8,0,0,1-8,8h-8v40a8,8,0,0,1-16,0V168H84a8,8,0,0,1,0-16h32A8,8,0,0,1,124,160Zm72,0v48a8,8,0,0,1-16,0V184l-9.6,12.8a8,8,0,0,1-12.8,0L148,184v24a8,8,0,0,1-16,0V160a8,8,0,0,1,14.4-4.8L164,178.67l17.6-23.47A8,8,0,0,1,196,160Zm56,48a8,8,0,0,1-8,8H216a8,8,0,0,1-8-8V160a8,8,0,0,1,16,0v40h20A8,8,0,0,1,252,208Z"/></svg>