<svg xmlns="http://www.w3.org/2000/svg" viewBox="0 0 256 256" fill="currentColor"><path d="M213.66,82.34l-56-56A8,8,0,0,0,152,24H56A16,16,0,0,0,40,40v76a4,4,0,0,0,4,4H164a4,4,0,0,1,4,4V228a4,4,0,0,0,4,4h28a16,16,0,0,0,16-16V88A8,8,0,0,0,213.66,82.34ZM152,88V44l44,44Zm-4.19,108.31a20.82,20.82,0,0,1-9.19,15.23C133.43,215,127,216,121.13,216a61.34,61.34,0,0,1-15.19-2,8,8,0,0,1,4.31-15.41c4.38,1.2,15,2.7,19.55-.36.88-.59,1.83-1.52,2.14-3.93.34-2.67-.72-4.1-12.78-7.59-9.35-2.7-25-7.23-23-23.11a20.58,20.58,0,0,1,9-14.95c11.85-8,30.72-3.31,32.84-2.76a8,8,0,0,1-4.07,15.48c-4.49-1.17-15.23-2.56-19.83.56a4.57,4.57,0,0,0-2,3.67c-.11.9-.13,1.09,1.12,1.9,2.31,1.49,6.45,2.68,10.45,3.84C133.49,174.17,150,179,147.81,196.31ZM80,152v37.41c0,14.22-11.18,26.26-25.41,26.58A26,26,0,0,1,28,190.37,8.17,8.17,0,0,1,35.31,182,8,8,0,0,1,44,190.22a8.89,8.89,0,0,0,4,8c7.85,4.82,16-.75,16-8.2V152.27A8.17,8.17,0,0,1,71.47,144,8,8,0,0,1,80,152Z"/></svg>