<svg xmlns="http://www.w3.org/2000/svg" viewBox="0 0 256 256" fill="currentColor"><path d="M213.66,82.34l-56-56A8,8,0,0,0,152,24H56A16,16,0,0,0,40,40v76a4,4,0,0,0,4,4H196a4,4,0,0,1,4,4V224a8,8,0,0,0,9.19,7.91,8.15,8.15,0,0,0,6.81-8.16V88A8,8,0,0,0,213.66,82.34ZM152,88V44l44,44Zm-8,56H128a8,8,0,0,0-8,8v56a8,8,0,0,0,8,8h15.32c19.66,0,36.21-15.48,36.67-35.13A36,36,0,0,0,144,144Zm-.49,56H136V160h8a20,20,0,0,1,20,20.77C163.58,191.59,154.34,200,143.51,200ZM104,152v55.73A8.17,8.17,0,0,1,96.53,216,8,8,0,0,1,88,208V177.38l-13.32,19a8.3,8.3,0,0,1-4.2,3.2,8,8,0,0,1-9-3L48,177.38v30.35A8.17,8.17,0,0,1,40.53,216,8,8,0,0,1,32,208V152.31a8.27,8.27,0,0,1,4.56-7.53,8,8,0,0,1,10,2.63L68,178.05l21.27-30.39a8.28,8.28,0,0,1,8.06-3.55A8,8,0,0,1,104,152Z"/></svg>