<svg xmlns="http://www.w3.org/2000/svg" viewBox="0 0 256 256" fill="currentColor"><path d="M80,224a8,8,0,0,1-8,8H56a16,16,0,0,1-16-16V184a8,8,0,0,1,16,0v32H72A8,8,0,0,1,80,224ZM213.66,82.34l-56-56A8,8,0,0,0,152,24H120a8,8,0,0,0,0,16h24V88a8,8,0,0,0,8,8h48v40a8,8,0,0,0,16,0V88A8,8,0,0,0,213.66,82.34ZM80,24H56A16,16,0,0,0,40,40V64a8,8,0,0,0,16,0V40H80a8,8,0,0,0,0-16ZM208,168a8,8,0,0,0-8,8v40h-8a8,8,0,0,0,0,16h8a16,16,0,0,0,16-16V176A8,8,0,0,0,208,168ZM48,152a8,8,0,0,0,8-8V104a8,8,0,0,0-16,0v40A8,8,0,0,0,48,152Zm104,64H112a8,8,0,0,0,0,16h40a8,8,0,0,0,0-16Z"/></svg>