<svg xmlns="http://www.w3.org/2000/svg" viewBox="0 0 256 256" fill="currentColor"><path d="M48,180c0,11,7.18,20,16,20a14.07,14.07,0,0,0,10.07-4.51,8.19,8.19,0,0,1,10.88-.9,8,8,0,0,1,.83,11.81A30.06,30.06,0,0,1,64,216c-17.65,0-32-16.15-32-36s14.35-36,32-36a30,30,0,0,1,21.39,9.19,8.26,8.26,0,0,1,.73,11.09,8,8,0,0,1-11.9.38A14.24,14.24,0,0,0,64,160C55.18,160,48,169,48,180ZM216,88V216a16,16,0,0,1-16,16H116a4,4,0,0,1-4-4V124a4,4,0,0,0-4-4H44a4,4,0,0,1-4-4V40A16,16,0,0,1,56,24h96a8,8,0,0,1,5.66,2.34l56,56A8,8,0,0,1,216,88Zm-20,0L152,44V88Z"/></svg>