<svg xmlns="http://www.w3.org/2000/svg" viewBox="0 0 256 256" fill="currentColor"><path d="M213.66,82.34l-56-56A8,8,0,0,0,152,24H56A16,16,0,0,0,40,40v76a4,4,0,0,0,4,4H164a4,4,0,0,1,4,4V228a4,4,0,0,0,4,4h28a16,16,0,0,0,16-16V88A8,8,0,0,0,213.66,82.34ZM152,88V44l44,44Zm-4.19,108.31a20.82,20.82,0,0,1-9.19,15.23C133.43,215,127,216,121.13,216A61.14,61.14,0,0,1,106,214a8,8,0,1,1,4.3-15.41c4.38,1.2,15,2.7,19.55-.36.88-.59,1.83-1.52,2.14-3.93.35-2.67-.71-4.1-12.78-7.59-9.35-2.7-25-7.23-23-23.11a20.56,20.56,0,0,1,9-14.95c11.84-8,30.71-3.31,32.83-2.76a8,8,0,0,1-4.07,15.48c-4.49-1.17-15.23-2.56-19.83.56a4.54,4.54,0,0,0-2,3.67c-.12.9-.14,1.09,1.11,1.9,2.31,1.49,6.45,2.68,10.45,3.84C133.49,174.17,150.05,179,147.81,196.31ZM88,152.53A8.17,8.17,0,0,1,79.73,160H68v47.73A8.17,8.17,0,0,1,60.53,216,8,8,0,0,1,52,208V160H40.27A8.17,8.17,0,0,1,32,152.53,8,8,0,0,1,40,144H80A8,8,0,0,1,88,152.53Z"/></svg>