<svg xmlns="http://www.w3.org/2000/svg" viewBox="0 0 256 256" fill="currentColor"><path d="M168,76a12,12,0,1,1-12-12A12,12,0,0,1,168,76Zm48.72,67.64c-19.37,34.9-55.44,53.76-107.24,56.1l-22,51.41A8,8,0,0,1,80.1,256l-.51,0a8,8,0,0,1-7.19-5.78L57.6,198.39,5.8,183.56a8,8,0,0,1-1-15.05l51.41-22c2.35-51.78,21.21-87.84,56.09-107.22,24.75-13.74,52.74-15.84,71.88-15.18,18.64.64,36,4.27,38.86,6a8,8,0,0,1,2.83,2.83c1.69,2.85,5.33,20.21,6,38.85C232.55,90.89,230.46,118.89,216.72,143.64Zm-4.3-100.07c-14.15-3-64.1-11-100.3,14.75a81.21,81.21,0,0,0-16,15.07,36,36,0,0,0,39.35,38.44,8,8,0,0,1,8.73,8.73,36,36,0,0,0,38.47,39.34,80.81,80.81,0,0,0,15-16C223.42,107.73,215.42,57.74,212.42,43.57Z"/></svg>