<svg xmlns="http://www.w3.org/2000/svg" viewBox="0 0 256 256" fill="currentColor"><path d="M210.35,129.36c-.81-.47-1.7-.92-2.62-1.36.92-.44,1.81-.89,2.62-1.36a40,40,0,1,0-40-69.28c-.81.47-1.65,1-2.48,1.59.08-1,.13-2,.13-3a40,40,0,0,0-80,0c0,.94,0,1.94.13,3-.83-.57-1.67-1.12-2.48-1.59a40,40,0,1,0-40,69.28c.81.47,1.7.92,2.62,1.36-.92.44-1.81.89-2.62,1.36a40,40,0,1,0,40,69.28c.81-.47,1.65-1,2.48-1.59-.08,1-.13,2-.13,2.95a40,40,0,0,0,80,0c0-.94-.05-1.94-.13-2.95.83.57,1.67,1.12,2.48,1.59A39.79,39.79,0,0,0,190.29,204a40.43,40.43,0,0,0,10.42-1.38,40,40,0,0,0,9.64-73.28ZM128,156a28,28,0,1,1,28-28A28,28,0,0,1,128,156Z"/></svg>