<svg xmlns="http://www.w3.org/2000/svg" viewBox="0 0 256 256" fill="currentColor"><path d="M208,48a87.48,87.48,0,0,0-35.36,7.43c-15.1-25.37-39.92-38-41.06-38.59a8,8,0,0,0-7.16,0c-1.14.58-26,13.22-41.06,38.59A87.48,87.48,0,0,0,48,48a8,8,0,0,0-8,8V96a88.11,88.11,0,0,0,80,87.63v35.43L83.58,200.84a8,8,0,1,0-7.16,14.32l48,24a8,8,0,0,0,7.16,0l48-24a8,8,0,0,0-7.16-14.32L136,219.06V183.63A88.11,88.11,0,0,0,216,96V56A8,8,0,0,0,208,48ZM56,96V64.44A72.1,72.1,0,0,1,120,136v31.56A72.1,72.1,0,0,1,56,96Zm144,0a72.1,72.1,0,0,1-64,71.56V136a72.1,72.1,0,0,1,64-71.56Z"/></svg>