<svg xmlns="http://www.w3.org/2000/svg" viewBox="0 0 256 256" fill="currentColor"><path d="M24,80V64A16,16,0,0,1,40,48H93.33a16.12,16.12,0,0,1,9.6,3.2L132.8,73.6A8,8,0,0,1,128,88H32A8,8,0,0,1,24,80ZM88,200H40v-8a8,8,0,0,0-16,0v8.62A15.4,15.4,0,0,0,39.38,216H88a8,8,0,0,0,0-16Zm72,0H128a8,8,0,0,0,0,16h32a8,8,0,0,0,0-16Zm64-56a8,8,0,0,0-8,8v48H200a8,8,0,0,0,0,16h16.89A15.13,15.13,0,0,0,232,200.89V152A8,8,0,0,0,224,144Zm-8-72H168a8,8,0,0,0,0,16h48v24a8,8,0,0,0,16,0V88A16,16,0,0,0,216,72ZM32,160a8,8,0,0,0,8-8V120a8,8,0,0,0-16,0v32A8,8,0,0,0,32,160Z"/></svg>