<svg xmlns="http://www.w3.org/2000/svg" viewBox="0 0 256 256" fill="currentColor"><path d="M237.09,167.78l-22.51,18.59,6.85,27.71a8,8,0,0,1-11.82,8.81L184,207.82l-25.61,15.07a8,8,0,0,1-11.82-8.81l6.85-27.71-22.51-18.59a8,8,0,0,1,4.47-14.14l29.84-2.31,11.43-26.5a8,8,0,0,1,14.7,0l11.43,26.5,29.84,2.31a8,8,0,0,1,4.47,14.14ZM128.56,208a8,8,0,0,1-8,8H39.38A15.4,15.4,0,0,1,24,200.62V56A16,16,0,0,1,40,40H92.69A15.86,15.86,0,0,1,104,44.69L131.31,72H216a16,16,0,0,1,16,16v32a8,8,0,0,1-16,0V88H40V200h80.56A8,8,0,0,1,128.56,208ZM40,72h68.69l-16-16H40Z"/></svg>