<svg xmlns="http://www.w3.org/2000/svg" viewBox="0 0 256 256" fill="currentColor"><path d="M216.06,192v12A36,36,0,0,1,144,204V192a8,8,0,0,1,8-8h56A8,8,0,0,1,216.06,192ZM104,160h-56a8,8,0,0,0-8,8v12A36,36,0,0,0,112,180V168A8,8,0,0,0,104,160ZM76,16C64.36,16,53.07,26.31,44.2,45c-13.93,29.38-18.56,73,.29,96a8,8,0,0,0,6.2,2.93h50.55a8,8,0,0,0,6.2-2.93c18.85-23,14.22-66.65.29-96C98.85,26.31,87.57,16,76,16Zm78.8,152h50.55a8,8,0,0,0,6.2-2.93c18.85-23,14.22-66.65.29-96C202.93,50.31,191.64,40,180,40s-22.89,10.31-31.77,29c-13.93,29.38-18.56,73,.29,96A8,8,0,0,0,154.76,168Z"/></svg>