<svg xmlns="http://www.w3.org/2000/svg" viewBox="0 0 256 256" fill="currentColor"><path d="M247.44,173.75a.68.68,0,0,0,0-.14L231.05,89.44c0-.06,0-.12,0-.18A60.08,60.08,0,0,0,172,40H83.89a59.88,59.88,0,0,0-59,49.52L8.58,173.61a.68.68,0,0,0,0,.14,36,36,0,0,0,60.9,31.71l.35-.37L109.52,160h37l39.71,45.09c.11.13.23.25.35.37A36.08,36.08,0,0,0,212,216a36,36,0,0,0,35.43-42.25ZM104,112H96v8a8,8,0,0,1-16,0v-8H72a8,8,0,0,1,0-16h8V88a8,8,0,0,1,16,0v8h8a8,8,0,0,1,0,16Zm40-8a8,8,0,0,1,8-8h24a8,8,0,0,1,0,16H152A8,8,0,0,1,144,104Zm84.37,87.47a19.84,19.84,0,0,1-12.9,8.23A20.09,20.09,0,0,1,198,194.31L167.8,160H172a60,60,0,0,0,51-28.38l8.74,45A19.82,19.82,0,0,1,228.37,191.47Z"/></svg>