<svg xmlns="http://www.w3.org/2000/svg" viewBox="0 0 256 256" fill="currentColor"><path d="M240,152v24a16,16,0,0,1-16,16H115.93a4,4,0,0,1-3.24-6.35L174.27,101a8.21,8.21,0,0,0-1.37-11.3,8,8,0,0,0-11.37,1.61l-72,99.06A4,4,0,0,1,86.25,192H32a16,16,0,0,1-16-16V153.13c0-1.79,0-3.57.13-5.33a4,4,0,0,1,4-3.8H48a8,8,0,0,0,8-8.53A8.17,8.17,0,0,0,47.73,128H23.92a4,4,0,0,1-3.87-5c12-43.84,49.66-77.13,95.52-82.28a4,4,0,0,1,4.43,4V72a8,8,0,0,0,8.53,8A8.17,8.17,0,0,0,136,71.73V44.67a4,4,0,0,1,4.43-4A112.18,112.18,0,0,1,236.23,123a4,4,0,0,1-3.88,5H208.27a8.17,8.17,0,0,0-8.25,7.47,8,8,0,0,0,8,8.53h27.92a4,4,0,0,1,4,3.86C240,149.23,240,150.61,240,152Z"/></svg>