<svg xmlns="http://www.w3.org/2000/svg" viewBox="0 0 256 256" fill="currentColor"><path d="M243.32,116.68l-104-104a16,16,0,0,0-22.64,0l-104,104a16,16,0,0,0,0,22.64l104,104a16,16,0,0,0,22.64,0l104-104A16,16,0,0,0,243.32,116.68ZM56,136a8,8,0,0,1-16,0V120a8,8,0,0,1,16,0Zm40,40a8,8,0,0,1-16,0V160a8,8,0,0,1,16,0Zm0-48a8,8,0,0,1-16,0V80a8,8,0,0,1,16,0Zm40,88a8,8,0,0,1-16,0V200a8,8,0,0,1,16,0Zm0-48a8,8,0,0,1-16,0V88a8,8,0,0,1,16,0Zm0-112a8,8,0,0,1-16,0V40a8,8,0,0,1,16,0Zm40,120a8,8,0,0,1-16,0V128a8,8,0,0,1,16,0Zm0-80a8,8,0,0,1-16,0V80a8,8,0,0,1,16,0Zm40,40a8,8,0,0,1-16,0V120a8,8,0,0,1,16,0Z"/></svg>