<svg xmlns="http://www.w3.org/2000/svg" viewBox="0 0 256 256" fill="currentColor"><path d="M84,52V92H28a4,4,0,0,1-4-4V64A16,16,0,0,1,40,48H80A4,4,0,0,1,84,52Zm16,152a4,4,0,0,0,4,4h48a4,4,0,0,0,4-4V164H100ZM24,168v24a16,16,0,0,0,16,16H80a4,4,0,0,0,4-4V164H28A4,4,0,0,0,24,168Zm0-56v32a4,4,0,0,0,4,4H84V108H28A4,4,0,0,0,24,112ZM152,48H104a4,4,0,0,0-4,4V92h56V52A4,4,0,0,0,152,48Zm76,60H172v40h56a4,4,0,0,0,4-4V112A4,4,0,0,0,228,108ZM100,148h56V108H100ZM216,48H176a4,4,0,0,0-4,4V92h56a4,4,0,0,0,4-4V64A16,16,0,0,0,216,48Zm12,116H172v40a4,4,0,0,0,4,4h40a16,16,0,0,0,16-16V168A4,4,0,0,0,228,164Z"/></svg>