<svg xmlns="http://www.w3.org/2000/svg" viewBox="0 0 256 256" fill="currentColor"><path d="M254.3,107.91,228.78,56.85a16,16,0,0,0-21.47-7.15L182.44,62.13,130.05,48.27a8.14,8.14,0,0,0-4.1,0L73.56,62.13,48.69,49.7a16,16,0,0,0-21.47,7.15L1.7,107.9a16,16,0,0,0,7.15,21.47l27,13.51,55.49,39.63a8.06,8.06,0,0,0,2.71,1.25l64,16a8,8,0,0,0,7.6-2.1l40-40,15.08-15.08,26.42-13.21a16,16,0,0,0,7.15-21.46Zm-54.89,33.37L165,113.72a8,8,0,0,0-10.68.61C136.51,132.27,116.66,130,104,122L147.24,80h31.81l27.21,54.41Zm-41.87,41.86L99.42,168.61l-49.2-35.14,28-56L128,64.28l9.8,2.59-45,43.68-.08.09a16,16,0,0,0,2.72,24.81c20.56,13.13,45.37,11,64.91-5L188,152.66Zm-25.72,34.8a8,8,0,0,1-7.75,6.06,8.13,8.13,0,0,1-1.95-.24L80.41,213.33a7.89,7.89,0,0,1-2.71-1.25L51.35,193.26a8,8,0,0,1,9.3-13l25.11,17.94L126,208.24A8,8,0,0,1,131.82,217.94Z"/></svg>