<svg xmlns="http://www.w3.org/2000/svg" viewBox="0 0 256 256" fill="currentColor"><path d="M230.33,141.06a24.34,24.34,0,0,0-18.61-4.77C230.5,117.33,240,98.48,240,80c0-26.47-21.29-48-47.46-48A47.58,47.58,0,0,0,156,48.75,47.58,47.58,0,0,0,119.46,32C93.29,32,72,53.53,72,80c0,11,3.24,21.69,10.06,33a31.87,31.87,0,0,0-14.75,8.4L44.69,144H16A16,16,0,0,0,0,160v40a16,16,0,0,0,16,16H120a7.93,7.93,0,0,0,1.94-.24l64-16a6.94,6.94,0,0,0,1.19-.4L226,182.82l.44-.2a24.6,24.6,0,0,0,3.93-41.56Zm-10.9,27.15-38,16.18L119,200H56V155.31l22.63-22.62A15.86,15.86,0,0,1,89.94,128H140a12,12,0,0,1,0,24H112a8,8,0,0,0,0,16h32a8.32,8.32,0,0,0,1.79-.2l67-15.41.31-.08a8.6,8.6,0,0,1,6.3,15.9Z"/></svg>