<svg xmlns="http://www.w3.org/2000/svg" viewBox="0 0 256 256" fill="currentColor"><path d="M235.32,180l-36.24-36.25L162.62,23.46A21.76,21.76,0,0,0,128,12.93,21.76,21.76,0,0,0,93.38,23.46L56.92,143.76,20.68,180a16,16,0,0,0,0,22.62l32.69,32.69a16,16,0,0,0,22.63,0L124.28,187a40.68,40.68,0,0,0,3.72-4.29,40.68,40.68,0,0,0,3.72,4.29L180,235.32a16,16,0,0,0,22.63,0l32.69-32.69A16,16,0,0,0,235.32,180ZM120,158.75a23.85,23.85,0,0,1-7,17L88.68,200,56,167.32l13.65-13.66a8,8,0,0,0,2-3.34l37-122.22A5.78,5.78,0,0,1,120,29.78Zm47.44,41.38L143,175.72a23.85,23.85,0,0,1-7-17v-129a5.78,5.78,0,0,1,11.31-1.68l37,122.22a8,8,0,0,0,2,3.34l14.49,14.49Z"/></svg>