<svg xmlns="http://www.w3.org/2000/svg" viewBox="0 0 256 256" fill="currentColor"><path d="M128,56H112V16a8,8,0,0,1,16,0Zm64,67.62V72a16,16,0,0,0-16-16H128v60.69l18.34-18.35a8,8,0,0,1,11.32,11.32l-32,32a8,8,0,0,1-11.32,0l-32-32A8,8,0,0,1,93.66,98.34L112,116.69V56H64A16,16,0,0,0,48,72V200a8,8,0,0,0,8,8h74.7c.32.67.67,1.34,1.05,2l.24.38,22.26,34a8,8,0,0,0,13.39-8.76l-22.13-33.79A12,12,0,0,1,166.4,190c.07.13.15.26.23.38l10.68,16.31A8,8,0,0,0,192,202.31V144a74.84,74.84,0,0,1,24,54.69V240a8,8,0,0,0,16,0V198.65A90.89,90.89,0,0,0,192,123.62Z"/></svg>