<svg xmlns="http://www.w3.org/2000/svg" viewBox="0 0 256 256" fill="currentColor"><path d="M216,64v90.93c0,46.2-36.85,84.55-83,85.06A83.71,83.71,0,0,1,72.6,215.4C50.79,192.33,26.15,136,26.15,136a16,16,0,0,1,6.53-22.23c7.66-4,17.1-.84,21.4,6.62l21,36.44a6.09,6.09,0,0,0,6,3.09l.12,0A8.19,8.19,0,0,0,88,151.74V48a16,16,0,0,1,16.77-16c8.61.4,15.23,7.82,15.23,16.43V112a8,8,0,0,0,8.53,8,8.17,8.17,0,0,0,7.47-8.25V32a16,16,0,0,1,16.77-16c8.61.4,15.23,7.82,15.23,16.43V120a8,8,0,0,0,8.53,8,8.17,8.17,0,0,0,7.47-8.25V64.45c0-8.61,6.62-16,15.23-16.43A16,16,0,0,1,216,64Z"/></svg>