<svg xmlns="http://www.w3.org/2000/svg" viewBox="0 0 256 256" fill="currentColor"><path d="M112,120a16,16,0,1,1-16-16A16,16,0,0,1,112,120ZM232,56V200a16,16,0,0,1-16,16H40a16,16,0,0,1-16-16V56A16,16,0,0,1,40,40H216A16,16,0,0,1,232,56ZM135.75,166a39.76,39.76,0,0,0-17.19-23.34,32,32,0,1,0-45.12,0A39.84,39.84,0,0,0,56.25,166a8,8,0,0,0,15.5,4c2.64-10.25,13.06-18,24.25-18s21.62,7.73,24.25,18a8,8,0,1,0,15.5-4ZM200,144a8,8,0,0,0-8-8H152a8,8,0,0,0,0,16h40A8,8,0,0,0,200,144Zm0-32a8,8,0,0,0-8-8H152a8,8,0,0,0,0,16h40A8,8,0,0,0,200,112Z"/></svg>