<svg xmlns="http://www.w3.org/2000/svg" viewBox="0 0 256 256" fill="currentColor"><path d="M160,56v96a8,8,0,0,1-8,8H112a8,8,0,0,1-8-8V56a8,8,0,0,1,8-8h40A8,8,0,0,1,160,56Zm64-8H184a8,8,0,0,0-8,8v52a4,4,0,0,0,4,4h48a4,4,0,0,0,4-4V56A8,8,0,0,0,224,48Zm4,80H180a4,4,0,0,0-4,4v44a16,16,0,0,0,16,16h24a16,16,0,0,0,16-16V132A4,4,0,0,0,228,128ZM80,48H40a8,8,0,0,0-8,8v52a4,4,0,0,0,4,4H84a4,4,0,0,0,4-4V56A8,8,0,0,0,80,48Zm4,80H36a4,4,0,0,0-4,4v76a16,16,0,0,0,16,16H72a16,16,0,0,0,16-16V132A4,4,0,0,0,84,128Z"/></svg>