<svg xmlns="http://www.w3.org/2000/svg" viewBox="0 0 256 256" fill="currentColor"><path d="M208,32H48A16,16,0,0,0,32,48V208a16,16,0,0,0,16,16H208a16,16,0,0,0,16-16V48A16,16,0,0,0,208,32ZM115.7,192.49a43.31,43.31,0,0,1-55-66.43l25.37-25.37a43.35,43.35,0,0,1,61.25,0,42.9,42.9,0,0,1,9.95,15.43,8,8,0,1,1-15,5.6A27.33,27.33,0,0,0,97.37,112L72,137.37a27.32,27.32,0,0,0,34.68,41.91,8,8,0,1,1,9,13.21Zm79.61-62.55-25.37,25.37A43,43,0,0,1,139.32,168h0a43.35,43.35,0,0,1-40.53-28.12,8,8,0,1,1,15-5.6A27.35,27.35,0,0,0,139.28,152h0a27.14,27.14,0,0,0,19.32-8L184,118.63a27.32,27.32,0,0,0-34.68-41.91,8,8,0,1,1-9-13.21,43.32,43.32,0,0,1,55,66.43Z"/></svg>