<svg xmlns="http://www.w3.org/2000/svg" viewBox="0 0 256 256" fill="currentColor"><path d="M208,32H48A16,16,0,0,0,32,48V208a16,16,0,0,0,16,16H208a16,16,0,0,0,16-16V48A16,16,0,0,0,208,32ZM144.56,173.66l-21.45,21.45a44,44,0,0,1-62.22-62.22l21.45-21.46a8,8,0,0,1,11.32,11.31L72.2,144.2a28,28,0,0,0,39.6,39.6l21.45-21.46a8,8,0,0,1,11.31,11.32Zm-34.9-16a8,8,0,0,1-11.32-11.32l48-48a8,8,0,0,1,11.32,11.32Zm85.45-34.55-21.45,21.45a8,8,0,0,1-11.32-11.31L183.8,111.8a28,28,0,0,0-39.6-39.6L122.74,93.66a8,8,0,0,1-11.31-11.32l21.46-21.45a44,44,0,0,1,62.22,62.22Z"/></svg>