<svg xmlns="http://www.w3.org/2000/svg" viewBox="0 0 256 256" fill="currentColor"><path d="M217,34.8a15.94,15.94,0,0,0-14.82-1.71C188.15,38.55,159.82,47.71,128,47.71S67.84,38.55,53.79,33.09A16,16,0,0,0,32,48v55.77c0,35.84,9.65,69.65,27.18,95.18,18.16,26.46,42.6,41,68.82,41s50.66-14.57,68.82-41C214.35,173.44,224,139.63,224,103.79V48A16,16,0,0,0,217,34.8ZM78,133.33A8,8,0,1,1,66,122.66C71.75,116.28,82.18,112,92,112s20.25,4.28,26,10.66A8,8,0,1,1,106,133.33c-2.68-3-8.85-5.33-14-5.33S80.64,130.34,78,133.33Zm90.49,47.86a52.9,52.9,0,0,1-80.9,0A8,8,0,1,1,99.72,170.8a36.89,36.89,0,0,0,56.56,0,8,8,0,0,1,12.17,10.39ZM189.34,134a8,8,0,0,1-11.3-.63c-2.68-3-8.85-5.33-14-5.33s-11.36,2.34-14,5.33A8,8,0,1,1,138,122.66c5.71-6.38,16.14-10.66,26-10.66s20.25,4.28,26,10.66A8,8,0,0,1,189.34,134Z"/></svg>