<svg xmlns="http://www.w3.org/2000/svg" viewBox="0 0 256 256" fill="currentColor"><path d="M200,24H72A16,16,0,0,0,56,40V64H40A16,16,0,0,0,24,80v96a16,16,0,0,0,16,16H56v24a16,16,0,0,0,16,16H200a16,16,0,0,0,16-16V40A16,16,0,0,0,200,24ZM72,160a8,8,0,0,1-6.15-13.12L81.59,128,65.85,109.12a8,8,0,0,1,12.3-10.24L92,115.5l13.85-16.62a8,8,0,1,1,12.3,10.24L102.41,128l15.74,18.88a8,8,0,0,1-12.3,10.24L92,140.5,78.15,157.12A8,8,0,0,1,72,160Zm56,56H72V192h56Zm0-152H72V40h56Zm72,152H144V192a16,16,0,0,0,16-16v-8h40Zm0-64H160V104h40Zm0-64H160V80a16,16,0,0,0-16-16V40h56Z"/></svg>