<svg xmlns="http://www.w3.org/2000/svg" viewBox="0 0 256 256" fill="currentColor"><path d="M115.06,46.36a4,4,0,0,0-6.11.54A71.54,71.54,0,0,0,96,88a73.29,73.29,0,0,0,.63,9.42L27.12,192.22A15.93,15.93,0,0,0,28.71,213L43,227.29a15.93,15.93,0,0,0,20.78,1.59l94.81-69.53A73.29,73.29,0,0,0,168,160a71.54,71.54,0,0,0,41.09-12.93,4,4,0,0,0,.54-6.11Zm2.61,103.28-16,16a8,8,0,1,1-11.31-11.31l16-16a8,8,0,0,1,11.31,11.31Zm109.4-20.56a4,4,0,0,1-6.12.54L126.38,35.05a4,4,0,0,1,.54-6.12A71.93,71.93,0,0,1,227.07,129.08Z"/></svg>