<svg xmlns="http://www.w3.org/2000/svg" viewBox="0 0 256 256" fill="currentColor"><path d="M213.38,229.92a8,8,0,0,1-11.3-.54l-30.92-34A78.83,78.83,0,0,1,136,207.59V240a8,8,0,0,1-16,0V207.6A80.11,80.11,0,0,1,48,128a8,8,0,0,1,16,0,64.07,64.07,0,0,0,64,64,63.41,63.41,0,0,0,32.21-8.68l-11.1-12.2A48,48,0,0,1,80,128V95.09L42.08,53.38A8,8,0,0,1,53.92,42.62l160,176A8,8,0,0,1,213.38,229.92Zm-24.19-63.13a7.88,7.88,0,0,0,3.51.82,8,8,0,0,0,7.19-4.49A79.16,79.16,0,0,0,208,128a8,8,0,0,0-16,0,63.32,63.32,0,0,1-6.48,28.09A8,8,0,0,0,189.19,166.79Zm-27.33-29.22A8,8,0,0,0,175.74,133a49.49,49.49,0,0,0,.26-5V64A48,48,0,0,0,84,44.87a8,8,0,0,0,1.41,8.57Z"/></svg>