<svg xmlns="http://www.w3.org/2000/svg" viewBox="0 0 256 256" fill="currentColor"><path d="M200,24H72A16,16,0,0,0,56,40V64H40A16,16,0,0,0,24,80v96a16,16,0,0,0,16,16H56v24a16,16,0,0,0,16,16H200a16,16,0,0,0,16-16V40A16,16,0,0,0,200,24ZM68.24,153.94l-12-48a8,8,0,1,1,15.52-3.88l6.76,27,6.32-12.66a8,8,0,0,1,14.32,0l6.32,12.66,6.76-27a8,8,0,0,1,15.52,3.88l-12,48a8,8,0,0,1-6.89,6,8.46,8.46,0,0,1-.87.05,8,8,0,0,1-7.16-4.42L92,137.89l-8.84,17.69a8,8,0,0,1-14.92-1.64ZM200,216H72V192h72a16,16,0,0,0,16-16v-8h40Zm0-64H160V104h40Zm0-64H160V80a16,16,0,0,0-16-16H72V40H200Z"/></svg>