<svg xmlns="http://www.w3.org/2000/svg" viewBox="0 0 256 256" fill="currentColor"><path d="M244.24,60a8,8,0,0,0-7.75-.4c-42.93,21-73.59,11.16-106,.78C96.4,49.53,61.2,38.28,12.49,62.06A8,8,0,0,0,8,69.24V189.17a8,8,0,0,0,11.51,7.19c42.93-21,73.59-11.16,106.05-.78,19.24,6.15,38.84,12.42,61,12.42,17.09,0,35.73-3.72,56.91-14.06a8,8,0,0,0,4.49-7.18V66.83A8,8,0,0,0,244.24,60ZM48,152a8,8,0,0,1-16,0V88a8,8,0,0,1,16,0Zm80,8a32,32,0,1,1,32-32A32,32,0,0,1,128,160Zm96,8a8,8,0,0,1-16,0V104a8,8,0,0,1,16,0Z"/></svg>