<svg xmlns="http://www.w3.org/2000/svg" viewBox="0 0 256 256" fill="currentColor"><path d="M248,128a8,8,0,0,1-8,8H223.33A48.08,48.08,0,0,1,176,176H136v24h24a32,32,0,0,1,32,32,8,8,0,0,1-16,0,16,16,0,0,0-16-16H136v16a8,8,0,0,1-16,0V216H96a16,16,0,0,0-16,16,8,8,0,0,1-16,0,32,32,0,0,1,32-32h24V176H80a48.08,48.08,0,0,1-47.33-40H16a8,8,0,0,1,0-16H40a8,8,0,0,1,8,8,32,32,0,0,0,32,32h96a32,32,0,0,0,32-32,8,8,0,0,1,8-8h24A8,8,0,0,1,248,128ZM80,144h96a16,16,0,0,0,15.84-18.26l-13.72-96A16.08,16.08,0,0,0,162.28,16H93.72A16.08,16.08,0,0,0,77.88,29.74l-13.72,96A16,16,0,0,0,80,144Z"/></svg>