<svg xmlns="http://www.w3.org/2000/svg" viewBox="0 0 256 256" fill="currentColor"><path d="M230.64,25.36a32,32,0,0,0-45.26,0q-.21.21-.42.45L131.55,88.22,121,77.64a24,24,0,0,0-33.95,0l-76.69,76.7a8,8,0,0,0,0,11.31l80,80a8,8,0,0,0,11.31,0L178.36,169a24,24,0,0,0,0-33.95l-10.58-10.57L230.19,71c.15-.14.31-.28.45-.43A32,32,0,0,0,230.64,25.36ZM96,228.69,79.32,212l22.34-22.35a8,8,0,0,0-11.31-11.31L68,200.68,55.32,188l22.34-22.35a8,8,0,0,0-11.31-11.31L44,176.68,27.31,160l50.35-50.34,68.69,68.69Z"/></svg>