<svg xmlns="http://www.w3.org/2000/svg" viewBox="0 0 256 256" fill="currentColor"><path d="M53.44,43.5,54.12,38A16,16,0,0,1,70,24H186a16,16,0,0,1,15.88,14l.68,5.49a4,4,0,0,1-4,4.5H57.41A4,4,0,0,1,53.44,43.5ZM169,64a32.06,32.06,0,0,0,31,24h3.59a4,4,0,0,0,4-4.5l-2-16a4,4,0,0,0-4-3.5ZM52.41,88H56A32.06,32.06,0,0,0,87,64H54.41a4,4,0,0,0-4,3.5l-2,16A4,4,0,0,0,52.41,88ZM223.88,214,210.56,107.5a4,4,0,0,0-4-3.5H200a48.07,48.07,0,0,1-47.32-40H136v39.73a8.18,8.18,0,0,1-7.47,8.25,8,8,0,0,1-8.53-8V64H103.32A48.07,48.07,0,0,1,56,104H49.41a4,4,0,0,0-4,3.5L32.12,214a16,16,0,0,0,6.71,15.09A16.56,16.56,0,0,0,48.39,232h40.3a16,16,0,0,0,15.51-12.06l23.8-92,23.79,91.94A16,16,0,0,0,167.31,232h40.3a16.54,16.54,0,0,0,9.56-2.89A16,16,0,0,0,223.88,214Z"/></svg>