<svg xmlns="http://www.w3.org/2000/svg" viewBox="0 0 256 256" fill="currentColor"><path d="M224,48H32A16,16,0,0,0,16,64V192a16,16,0,0,0,16,16H224a16,16,0,0,0,16-16V64A16,16,0,0,0,224,48Zm-19.42,94.71a8,8,0,1,1-13,9.41L184,141.61l-7.63,10.51a8,8,0,1,1-13-9.41l7.64-10.5-12.36-4a8,8,0,1,1,5-15.21L176,117V104a8,8,0,0,1,16,0v13l12.35-4a8,8,0,0,1,5,15.21l-12.36,4Zm-72,0a8,8,0,1,1-13,9.41L112,141.61l-7.63,10.51a8,8,0,1,1-13-9.41l7.64-10.5-12.36-4a8,8,0,1,1,5-15.21L104,117V104a8,8,0,0,1,16,0v13l12.35-4a8,8,0,1,1,5,15.21l-12.36,4ZM64,88v80a8,8,0,0,1-16,0V88a8,8,0,0,1,16,0Z"/></svg>