<svg xmlns="http://www.w3.org/2000/svg" viewBox="0 0 256 256" fill="currentColor"><path d="M136,52a28,28,0,1,1,28,28A28,28,0,0,1,136,52ZM240,176a40,40,0,1,1-40-40A40,40,0,0,1,240,176Zm-16,0a24,24,0,1,0-24,24A24,24,0,0,0,224,176Zm-24-64a8,8,0,0,0-8-8H155.31L125.66,74.34a8,8,0,0,0-11.32,0l-32,32a8,8,0,0,0,0,11.32L120,155.31V200a8,8,0,0,0,16,0V152a8,8,0,0,0-2.34-5.66L99.31,112,120,91.31l26.34,26.35A8,8,0,0,0,152,120h40A8,8,0,0,0,200,112ZM96,176a40,40,0,1,1-40-40A40,40,0,0,1,96,176Zm-16,0a24,24,0,1,0-24,24A24,24,0,0,0,80,176Z"/></svg>