<svg xmlns="http://www.w3.org/2000/svg" viewBox="0 0 256 256" fill="currentColor"><path d="M235.34,139.28l-19.56,19.55A4,4,0,0,1,213,160H171.32l-32-32,32-32H213a4,4,0,0,1,2.82,1.17l19.56,19.55A16,16,0,0,1,235.34,139.28ZM67.05,80H88a8,8,0,0,1,5.65,2.34L128,116.68l34.35-34.34A8,8,0,0,1,168,80H189a4,4,0,0,0,2.83-6.83l-52.5-52.51a16,16,0,0,0-22.56,0L64.22,73.17A4,4,0,0,0,67.05,80ZM189,176H168a8,8,0,0,1-5.65-2.34L128,139.31,93.65,173.66A8,8,0,0,1,88,176h-21a4,4,0,0,0-2.83,6.83l52.5,52.51a16,16,0,0,0,22.56,0l52.5-52.51A4,4,0,0,0,189,176Zm-72.26-48-32-32H43a4,4,0,0,0-2.82,1.17L20.66,116.72a16,16,0,0,0,0,22.56l19.56,19.55A4,4,0,0,0,43,160H84.68Z"/></svg>