<svg xmlns="http://www.w3.org/2000/svg" viewBox="0 0 256 256" fill="currentColor"><path d="M227.81,52.19a28,28,0,0,0-39.6,0h0a28.14,28.14,0,0,0-4,5L148,47.33A28,28,0,0,0,100.2,28.19h0A28,28,0,0,0,94.7,60L54.58,96.1a28,28,0,0,0-34.39,4.1h0a28,28,0,0,0,36.7,42.12l76.75,56.28a28,28,0,1,0,46.17-10.39,27.66,27.66,0,0,0-3.33-2.84L206.63,100q.69,0,1.38,0a28,28,0,0,0,19.8-47.79ZM161.39,180.05a28,28,0,0,0-18.29,5.64L66.36,129.41A28.15,28.15,0,0,0,65.29,108l40.12-36.11a28,28,0,0,0,38.37-9.12L180,72.66a27.88,27.88,0,0,0,8.17,19.13,28.61,28.61,0,0,0,3.32,2.85Z"/></svg>