<svg xmlns="http://www.w3.org/2000/svg" viewBox="0 0 256 256" fill="currentColor"><path d="M229.52,74.21a8,8,0,0,0-7.13-2A44,44,0,0,0,168,41.67a44,44,0,0,0-80,0,44,44,0,0,0-54.4,30.51,8,8,0,0,0-9.4,9.65L54.76,211.67A16,16,0,0,0,70.34,224H185.66a16,16,0,0,0,15.58-12.33L231.79,81.83A8,8,0,0,0,229.52,74.21ZM70.34,208,42.91,91.44l37.85,10.81L94.86,208ZM122.06,73.76,87.57,87.56,49,76.54a28,28,0,0,1,40.1-17.28,8,8,0,0,0,11.56-5.34,28,28,0,0,1,54.66,0,8,8,0,0,0,11.56,5.34A28,28,0,0,1,207,76.54l-38.56,11-34.49-13.8A16,16,0,0,0,122.06,73.76ZM185.66,208H161.14l14.1-105.75,37.85-10.81Z"/></svg>