<svg xmlns="http://www.w3.org/2000/svg" viewBox="0 0 256 256" fill="currentColor"><path d="M120,56v48a16,16,0,0,1-16,16H56a16,16,0,0,1-16-16V56A16,16,0,0,1,56,40h48A16,16,0,0,1,120,56Zm-16,80H56a16,16,0,0,0-16,16v48a16,16,0,0,0,16,16h48a16,16,0,0,0,16-16V152A16,16,0,0,0,104,136Zm96-96H152a16,16,0,0,0-16,16v48a16,16,0,0,0,16,16h48a16,16,0,0,0,16-16V56A16,16,0,0,0,200,40ZM144,184a8,8,0,0,0,8-8V144a8,8,0,0,0-16,0v32A8,8,0,0,0,144,184Zm64-32H184v-8a8,8,0,0,0-16,0v56H144a8,8,0,0,0,0,16h32a8,8,0,0,0,8-8V168h24a8,8,0,0,0,0-16Zm0,32a8,8,0,0,0-8,8v16a8,8,0,0,0,16,0V192A8,8,0,0,0,208,184Z"/></svg>