<svg xmlns="http://www.w3.org/2000/svg" viewBox="0 0 256 256" fill="currentColor"><path d="M210.78,39.25l-130.25-23A16,16,0,0,0,62,29.23l-29.75,169a16,16,0,0,0,13,18.53l130.25,23a16,16,0,0,0,18.54-13l29.75-169A16,16,0,0,0,210.78,39.25ZM135.5,131.56a8,8,0,0,1-7.87,6.61,8.27,8.27,0,0,1-1.4-.12l-41.5-7.33A8,8,0,0,1,87.52,115L129,122.29A8,8,0,0,1,135.5,131.56Zm47-24.18a8,8,0,0,1-7.86,6.61,7.55,7.55,0,0,1-1.41-.13l-83-14.65a8,8,0,0,1,2.79-15.76l83,14.66A8,8,0,0,1,182.53,107.38Zm5.55-31.52a8,8,0,0,1-7.87,6.61,8.36,8.36,0,0,1-1.4-.12l-83-14.66a8,8,0,1,1,2.78-15.75l83,14.65A8,8,0,0,1,188.08,75.86Z"/></svg>