<svg xmlns="http://www.w3.org/2000/svg" viewBox="0 0 256 256" fill="currentColor"><path d="M216,40H40A16,16,0,0,0,24,56V200a16,16,0,0,0,16,16H216a16,16,0,0,0,16-16V56A16,16,0,0,0,216,40ZM80,192H64a16,16,0,0,1-16-16V144a8,8,0,0,1,16,0v32H80a8,8,0,0,1,0,16ZM80,80H64v32a8,8,0,0,1-16,0V80A16,16,0,0,1,64,64H80a8,8,0,0,1,0,16Zm64,112H112a8,8,0,0,1,0-16h32a8,8,0,0,1,0,16Zm0-112H112a8,8,0,0,1,0-16h32a8,8,0,0,1,0,16Zm64,96a16,16,0,0,1-16,16H176a8,8,0,0,1,0-16h16V144a8,8,0,0,1,16,0Zm0-64a8,8,0,0,1-16,0V80H176a8,8,0,0,1,0-16h16a16,16,0,0,1,16,16Z"/></svg>