<svg xmlns="http://www.w3.org/2000/svg" viewBox="0 0 256 256" fill="currentColor"><path d="M96,208a8,8,0,0,1-8,8H40a24,24,0,0,1-20.77-36l28-48.3-13.82-8A8,8,0,0,1,35.33,109l32.77-8.77a8,8,0,0,1,9.8,5.66l8.79,32.77a8,8,0,0,1-11.73,9l-13.88-8L33.11,188A8,8,0,0,0,40,200H88A8,8,0,0,1,96,208ZM128,32a7.85,7.85,0,0,1,6.92,4l28,48.3-13.82,8A8,8,0,0,0,151,106.92l32.78,8.79a8.23,8.23,0,0,0,2.07.27,8,8,0,0,0,7.72-5.93l8.79-32.79a8,8,0,0,0-11.72-9l-13.89,8L148.77,28a24,24,0,0,0-41.54,0L84.07,68a8,8,0,0,0,13.85,8l23.16-40A7.85,7.85,0,0,1,128,32ZM236.73,180l-23.14-40a8,8,0,0,0-13.84,8l23.14,40A8,8,0,0,1,216,200H160V184a8,8,0,0,0-13.66-5.66l-24,24a8,8,0,0,0,0,11.32l24,24A8,8,0,0,0,160,232V216h56a24,24,0,0,0,20.77-36Z"/></svg>