<svg xmlns="http://www.w3.org/2000/svg" viewBox="0 0 256 256" fill="currentColor"><path d="M152,224a8,8,0,0,1-8,8H112a8,8,0,0,1,0-16h32A8,8,0,0,1,152,224Zm71.62-68.17-12.36,55.63a16,16,0,0,1-25.51,9.11L158.51,200h-61L70.25,220.57a16,16,0,0,1-25.51-9.11L32.38,155.83a16.09,16.09,0,0,1,3.32-13.71l28.56-34.26a123.07,123.07,0,0,1,8.57-36.67c12.9-32.34,36-52.63,45.37-59.85a16,16,0,0,1,19.6,0c9.34,7.22,32.47,27.51,45.37,59.85a123.07,123.07,0,0,1,8.57,36.67l28.56,34.26A16.09,16.09,0,0,1,223.62,155.83Zm-139.23,34Q68.28,160.5,64.83,132.16L48,152.36,60.36,208l.18-.13ZM140,100a12,12,0,1,0-12,12A12,12,0,0,0,140,100Zm68,52.36-16.83-20.2q-3.42,28.28-19.56,57.69l23.85,18,.18.13Z"/></svg>