<svg xmlns="http://www.w3.org/2000/svg" viewBox="0 0 256 256" fill="currentColor"><path d="M239.43,133l-32-80A8,8,0,0,0,200,48a8.27,8.27,0,0,0-1.73.21L136,62V40a8,8,0,0,0-16,0V65.58L54.27,80.21A8,8,0,0,0,48.57,85l-32,80a7.92,7.92,0,0,0-.57,3c0,23.31,24.54,32,40,32s40-8.69,40-32a7.92,7.92,0,0,0-.57-3L66.92,93.77,120,82V208H104a8,8,0,0,0,0,16h48a8,8,0,0,0,0-16H136V78.42L187,67.1,160.57,133a7.92,7.92,0,0,0-.57,3c0,23.31,24.54,32,40,32s40-8.69,40-32A7.92,7.92,0,0,0,239.43,133Zm-160,35H32.62L56,109.54Zm97.24-32L200,77.54,223.38,136Z"/></svg>