<svg xmlns="http://www.w3.org/2000/svg" viewBox="0 0 256 256" fill="currentColor"><path d="M208,32H48A16,16,0,0,0,32,48V208a16,16,0,0,0,16,16H208a16,16,0,0,0,16-16V48A16,16,0,0,0,208,32ZM193.66,169.66l-8,8a9,9,0,0,0,0,12.68l4,4a8,8,0,0,1-11.32,11.32l-4-4a25,25,0,0,1,0-35.32l8-8a9,9,0,0,0,0-12.68,9,9,0,0,0-12.68,0l-48,48a25,25,0,0,1-35.32-35.32l72-72a9,9,0,0,0,0-12.68,9,9,0,0,0-12.68,0l-48,48A25,25,0,0,1,62.34,86.34l28-28a8,8,0,0,1,11.32,11.32l-28,28a9,9,0,0,0,0,12.68,9,9,0,0,0,12.68,0l48-48a25,25,0,0,1,35.32,35.32l-72,72a9,9,0,0,0,0,12.68,9,9,0,0,0,12.68,0l48-48a25,25,0,0,1,35.32,35.32Z"/></svg>