<svg xmlns="http://www.w3.org/2000/svg" viewBox="0 0 256 256" fill="currentColor"><path d="M220.8,169.6A8,8,0,0,0,216,168h-8V64a32,32,0,0,0-32-32H40A32,32,0,0,0,8,64C8,77.61,18.05,85.54,19.2,86.4h0A7.89,7.89,0,0,0,24,88a8,8,0,0,0,4.87-14.33h0C28.83,73.62,24,69.74,24,64a16,16,0,0,1,32,0V192a32,32,0,0,0,32,32H200a32,32,0,0,0,32-32C232,178.39,222,170.46,220.8,169.6ZM104,96h64a8,8,0,0,1,0,16H104a8,8,0,0,1,0-16Zm-8,40a8,8,0,0,1,8-8h64a8,8,0,0,1,0,16H104A8,8,0,0,1,96,136Zm104,72H107.71A31.82,31.82,0,0,0,112,192a26.92,26.92,0,0,0-1.21-8h102a12.58,12.58,0,0,1,3.23,8A16,16,0,0,1,200,208Z"/></svg>