<svg xmlns="http://www.w3.org/2000/svg" viewBox="0 0 256 256" fill="currentColor"><path d="M152,216a8,8,0,0,1-8,8H112a8,8,0,0,1,0-16h32A8,8,0,0,1,152,216ZM40,152a8,8,0,0,0,8-8V112a8,8,0,0,0-16,0v32A8,8,0,0,0,40,152Zm32,56H48V184a8,8,0,0,0-16,0v24a16,16,0,0,0,16,16H72a8,8,0,0,0,0-16ZM224,48a16,16,0,0,0-16-16H48a15.87,15.87,0,0,0-10.66,4.11,7.67,7.67,0,0,0-1.23,1.23A15.87,15.87,0,0,0,32,48V72a8,8,0,0,0,16,0V59.31L196.69,208H184a8,8,0,0,0,0,16h24a15.91,15.91,0,0,0,10.66-4.1,7.35,7.35,0,0,0,.65-.59,6,6,0,0,0,.58-.65A15.87,15.87,0,0,0,224,208Z"/></svg>