<svg xmlns="http://www.w3.org/2000/svg" viewBox="0 0 256 256" fill="currentColor"><path d="M235.24,84.38l-28.06,23.68,8.56,35.39a13.34,13.34,0,0,1-5.09,13.91,13.54,13.54,0,0,1-15,.69L164,139l-31.65,19.06a13.51,13.51,0,0,1-15-.69,13.32,13.32,0,0,1-5.1-13.91l8.56-35.39L92.76,84.38a13.39,13.39,0,0,1,7.66-23.58l36.94-2.92,14.21-33.66a13.51,13.51,0,0,1,24.86,0l14.21,33.66,36.94,2.92a13.39,13.39,0,0,1,7.66,23.58ZM88.11,111.89a8,8,0,0,0-11.32,0L18.34,170.34a8,8,0,0,0,11.32,11.32l58.45-58.45A8,8,0,0,0,88.11,111.89Zm-.5,61.19L34.34,226.34a8,8,0,0,0,11.32,11.32l53.26-53.27a8,8,0,0,0-11.31-11.31Zm73-1-54.29,54.28a8,8,0,0,0,11.32,11.32l54.28-54.28a8,8,0,0,0-11.31-11.32Z"/></svg>