<svg xmlns="http://www.w3.org/2000/svg" viewBox="0 0 256 256" fill="currentColor"><path d="M221.13,128A32,32,0,0,0,184,76.31V56a32,32,0,0,0-56-21.13A32,32,0,0,0,76.31,72H56a32,32,0,0,0-21.13,56A32,32,0,0,0,72,179.69V200a32,32,0,0,0,56,21.13A32,32,0,0,0,179.69,184H200a32,32,0,0,0,21.13-56ZM88,56a16,16,0,0,1,32,0V72H104A16,16,0,0,1,88,56ZM40,104A16,16,0,0,1,56,88h48a16,16,0,0,1,16,16v16H56A16,16,0,0,1,40,104Zm128,96a16,16,0,0,1-32,0V184h16A16,16,0,0,1,168,200Zm32-32H152a16,16,0,0,1-16-16V136h64a16,16,0,0,1,0,32Z"/></svg>