<svg xmlns="http://www.w3.org/2000/svg" viewBox="0 0 256 256" fill="currentColor"><path d="M245.66,146.34a8,8,0,0,1-11.32,11.32L216,139.31l-18.34,18.35a8,8,0,0,1-11.32-11.32L204.69,128l-18.35-18.34a8,8,0,0,1,11.32-11.32L216,116.69l18.34-18.35a8,8,0,0,1,11.32,11.32L227.31,128ZM60,80H32A16,16,0,0,0,16,96v64a16,16,0,0,0,16,16H60a4,4,0,0,0,4-4V84A4,4,0,0,0,60,80Zm97.15-54.15a8,8,0,0,0-10-.16l-65.57,51A4,4,0,0,0,80,79.84v96.32a4,4,0,0,0,1.55,3.15l65.57,51a8,8,0,0,0,9,.56,8.29,8.29,0,0,0,3.91-7.18V32.25A8.27,8.27,0,0,0,157.12,25.85Z"/></svg>