<svg xmlns="http://www.w3.org/2000/svg" viewBox="0 0 256 256" fill="currentColor"><path d="M128,24A104,104,0,1,0,232,128,104.11,104.11,0,0,0,128,24Zm33.94,58.75,17-17a8,8,0,0,1,11.32,11.32l-17,17a8,8,0,0,1-11.31-11.31ZM48,136a8,8,0,0,1,0-16H72a8,8,0,0,1,0,16Zm46.06,37.25-17,17a8,8,0,0,1-11.32-11.32l17-17a8,8,0,0,1,11.31,11.31Zm0-79.19a8,8,0,0,1-11.31,0l-17-17A8,8,0,0,1,77.09,65.77l17,17A8,8,0,0,1,94.06,94.06ZM136,208a8,8,0,0,1-16,0V184a8,8,0,0,1,16,0Zm0-136a8,8,0,0,1-16,0V48a8,8,0,0,1,16,0Zm54.23,118.23a8,8,0,0,1-11.32,0l-17-17a8,8,0,0,1,11.31-11.31l17,17A8,8,0,0,1,190.23,190.23ZM208,136H184a8,8,0,0,1,0-16h24a8,8,0,0,1,0,16Z"/></svg>