<svg xmlns="http://www.w3.org/2000/svg" viewBox="0 0 256 256" fill="currentColor"><path d="M128,24A104,104,0,1,0,232,128,104.11,104.11,0,0,0,128,24Zm31.07,145.74a8,8,0,0,1-10.81,3.33,42.79,42.79,0,0,0-40.52,0,8,8,0,0,1-7.48-14.14,59.33,59.33,0,0,1,55.48,0A8,8,0,0,1,159.07,169.74Zm16-28a8,8,0,0,1-10.82,3.3,77.07,77.07,0,0,0-72.48,0,8,8,0,0,1-7.52-14.12,93,93,0,0,1,87.52,0A8,8,0,0,1,175.06,141.76Zm16-28a8,8,0,0,1-10.83,3.29,110.62,110.62,0,0,0-104.46,0,8,8,0,0,1-7.54-14.12,126.67,126.67,0,0,1,119.54,0A8,8,0,0,1,191.06,113.76Z"/></svg>