<svg xmlns="http://www.w3.org/2000/svg" viewBox="0 0 256 256" fill="currentColor"><path d="M208,32H48A16,16,0,0,0,32,48V208a16,16,0,0,0,16,16H208a16,16,0,0,0,16-16V48A16,16,0,0,0,208,32ZM134.86,46.86a8,8,0,0,1,11.32,0l45.25,45.26a8,8,0,0,1-11.31,11.31L134.86,58.18A8,8,0,0,1,134.86,46.86ZM100.18,98.77a8,8,0,0,1,10.45-4.33l59.13,24.49a8,8,0,0,1-3.06,15.4,7.89,7.89,0,0,1-3.06-.62l-59.13-24.49A8,8,0,0,1,100.18,98.77ZM96,152h64a8,8,0,0,1,0,16H96a8,8,0,0,1,0-16Zm104,40a8,8,0,0,1-8,8H64a8,8,0,0,1-8-8V144a8,8,0,0,1,16,0v40H184V144a8,8,0,0,1,16,0Z"/></svg>