<svg xmlns="http://www.w3.org/2000/svg" viewBox="0 0 256 256" fill="currentColor"><path d="M24,80a8,8,0,0,1,4-6.91l96-56a8,8,0,0,1,8.06,0l96,56a8,8,0,0,1,0,13.82l-96,56a8,8,0,0,1-8.06,0l-96-56A8,8,0,0,1,24,80Zm196,41.09-92,53.65L36,121.09A8,8,0,0,0,28,134.91l96,56a8,8,0,0,0,8.06,0l96-56A8,8,0,1,0,220,121.09ZM232,192H216V176a8,8,0,0,0-16,0v16H184a8,8,0,0,0,0,16h16v16a8,8,0,0,0,16,0V208h16a8,8,0,0,0,0-16Zm-92,23.76-12,7L36,169.09A8,8,0,0,0,28,182.91l96,56a8,8,0,0,0,8.06,0l16-9.33A8,8,0,1,0,140,215.76Z"/></svg>