<svg xmlns="http://www.w3.org/2000/svg" viewBox="0 0 256 256" fill="currentColor"><path d="M231.92,132.11c-2.09,54-45.83,97.72-99.81,99.81A104.06,104.06,0,0,1,25.6,109.76a4,4,0,0,1,6.77-2.08l43,43a28,28,0,0,0,42.42,34.92l61.1-49.84a36,36,0,1,0-50.71-50.65l-43,52.74L35,87.67a4,4,0,0,1-.76-4.6,104,104,0,0,1,197.7,49ZM121.58,118.55,90.77,156.33A11.83,11.83,0,0,0,88,163.19,12.19,12.19,0,0,0,99.85,176a11.84,11.84,0,0,0,7.78-2.74l0,0,37.78-30.81A36.18,36.18,0,0,1,121.58,118.55ZM175.9,110A20,20,0,1,0,158,127.9,20,20,0,0,0,175.9,110Z"/></svg>