<svg xmlns="http://www.w3.org/2000/svg" viewBox="0 0 256 256" fill="currentColor"><path d="M226.53,56.41l-96-32a8,8,0,0,0-5.06,0l-96,32A8,8,0,0,0,24,64v80a8,8,0,0,0,16,0V75.1L73.59,86.29a64,64,0,0,0,20.65,88.05c-18,7.06-33.56,19.83-44.94,37.29a8,8,0,1,0,13.4,8.74C77.77,197.25,101.57,184,128,184s50.23,13.25,65.3,36.37a8,8,0,0,0,13.4-8.74c-11.38-17.46-27-30.23-44.94-37.29a64,64,0,0,0,20.65-88l44.12-14.7a8,8,0,0,0,0-15.18ZM176,120A48,48,0,1,1,89.35,91.55l36.12,12a8,8,0,0,0,5.06,0l36.12-12A47.89,47.89,0,0,1,176,120Z"/></svg>