<svg xmlns="http://www.w3.org/2000/svg" viewBox="0 0 256 256" fill="currentColor"><path d="M184,128a32,32,0,0,1-32,32h-8V96h8A32,32,0,0,1,184,128Zm48-72V200a16,16,0,0,1-16,16H40a16,16,0,0,1-16-16V56A16,16,0,0,1,40,40H216A16,16,0,0,1,232,56ZM112,144a32,32,0,0,0-18.31-28.92L110.4,92.8A8,8,0,0,0,104,80H64a8,8,0,0,0,0,16H88L73.6,115.2A8,8,0,0,0,80,128a16,16,0,1,1-10.66,27.93,8,8,0,1,0-10.68,11.92A32,32,0,0,0,112,144Zm88-16a48.05,48.05,0,0,0-48-48H136a8,8,0,0,0-8,8v80a8,8,0,0,0,8,8h16A48.05,48.05,0,0,0,200,128Z"/></svg>