<svg xmlns="http://www.w3.org/2000/svg" viewBox="0 0 256 256" fill="currentColor"><path d="M184,120a8,8,0,0,1-8,8H160a8,8,0,0,1,0-16h16A8,8,0,0,1,184,120Zm56,0v88a16,16,0,0,1-16,16H112a16,16,0,0,1-16-16V186.35C87.37,200.37,76.18,208,64,208c-13.87,0-26.46-9.89-35.44-27.85C20.46,164,16,142.59,16,120s4.46-43.95,12.56-60.15C37.54,41.89,50.13,32,64,32H192c13.87,0,26.46,9.89,35.44,27.85C235.54,76.05,240,97.41,240,120ZM76,120a12,12,0,1,0-12,12A12,12,0,0,0,76,120Zm148,8H208a8,8,0,0,1,0-16h15.79C221.84,73.9,206.16,48,192,48H92.12a73.6,73.6,0,0,1,7.32,11.85c7.14,14.28,11.44,32.56,12.37,52.15H128a8,8,0,0,1,0,16H112v80H224Z"/></svg>