<svg xmlns="http://www.w3.org/2000/svg" viewBox="0 0 256 256" fill="currentColor"><path d="M224,64H176V56a24,24,0,0,0-24-24H104A24,24,0,0,0,80,56v8H32A16,16,0,0,0,16,80v28a4,4,0,0,0,4,4H64V96.27A8.17,8.17,0,0,1,71.47,88,8,8,0,0,1,80,96v16h96V96.27A8.17,8.17,0,0,1,183.47,88,8,8,0,0,1,192,96v16h44a4,4,0,0,0,4-4V80A16,16,0,0,0,224,64Zm-64,0H96V56a8,8,0,0,1,8-8h48a8,8,0,0,1,8,8Zm80,68v60a16,16,0,0,1-16,16H32a16,16,0,0,1-16-16V132a4,4,0,0,1,4-4H64v16a8,8,0,0,0,8.53,8A8.17,8.17,0,0,0,80,143.73V128h96v16a8,8,0,0,0,8.53,8,8.17,8.17,0,0,0,7.47-8.25V128h44A4,4,0,0,1,240,132Z"/></svg>