<svg xmlns="http://www.w3.org/2000/svg" viewBox="0 0 256 256" fill="currentColor"><path d="M80,172a12,12,0,1,1-12-12A12,12,0,0,1,80,172Zm40,0a52,52,0,1,1-52-52A52.06,52.06,0,0,1,120,172Zm-24,0a28,28,0,1,0-28,28A28,28,0,0,0,96,172Zm152,16a36,36,0,0,1-71.77,4H144a8,8,0,0,1-8-8V172a68.07,68.07,0,0,0-68-68H40a8,8,0,0,1,0-16h8V56H40a8,8,0,0,1,0-16H160a8,8,0,0,1,0,16h-8V97.88l24,6.5V72a8,8,0,0,1,16,0v36.71l36.39,9.86.21.06A15.89,15.89,0,0,1,240,134v31.46A35.8,35.8,0,0,1,248,188Zm-20,0a16,16,0,1,0-16,16A16,16,0,0,0,228,188Z"/></svg>