<svg xmlns="http://www.w3.org/2000/svg" viewBox="0 0 256 256" fill="currentColor"><path d="M240,124v68a16,16,0,0,1-16,16H32a16,16,0,0,1-16-16V124a4,4,0,0,1,4-4H56v64a8,8,0,0,0,8.53,8A8.17,8.17,0,0,0,72,183.73V120h40v20a4,4,0,0,0,4,4h24a4,4,0,0,0,4-4V120h40v64a8,8,0,0,0,8.53,8,8.17,8.17,0,0,0,7.47-8.25V120h36A4,4,0,0,1,240,124ZM184,40H72A56,56,0,0,0,16,96v4a4,4,0,0,0,4,4H56V64.27A8.17,8.17,0,0,1,63.47,56,8,8,0,0,1,72,64v40h40V92a4,4,0,0,1,4-4h24a4,4,0,0,1,4,4v12h40V64.27A8.17,8.17,0,0,1,191.47,56,8,8,0,0,1,200,64v40h36a4,4,0,0,0,4-4V96A56,56,0,0,0,184,40Z"/></svg>