<svg xmlns="http://www.w3.org/2000/svg" viewBox="0 0 256 256" fill="currentColor"><path d="M128,187.85a72.44,72.44,0,0,0,8,4.62V232a8,8,0,0,1-16,0V192.47A72.44,72.44,0,0,0,128,187.85ZM198.1,62.59a76,76,0,0,0-140.2,0A71.71,71.71,0,0,0,16,127.8C15.9,166,48,199,86.14,200A72.22,72.22,0,0,0,120,192.47V156.94L76.42,135.16a8,8,0,1,1,7.16-14.32L120,139.06V88a8,8,0,0,1,16,0v27.06l36.42-18.22a8,8,0,1,1,7.16,14.32L136,132.94v59.53A72.17,72.17,0,0,0,168,200l1.82,0C208,199,240.11,166,240,127.8A71.71,71.71,0,0,0,198.1,62.59Z"/></svg>