<svg xmlns="http://www.w3.org/2000/svg" viewBox="0 0 256 256" fill="currentColor"><path d="M230.4,219.19A8,8,0,0,1,224,232H32a8,8,0,0,1-6.4-12.8A67.88,67.88,0,0,1,53,197.51a40,40,0,1,1,53.93,0,67.42,67.42,0,0,1,21,14.29,67.42,67.42,0,0,1,21-14.29,40,40,0,1,1,53.93,0A67.85,67.85,0,0,1,230.4,219.19ZM27.2,126.4a8,8,0,0,0,11.2-1.6,52,52,0,0,1,83.2,0,8,8,0,0,0,12.8,0,52,52,0,0,1,83.2,0,8,8,0,0,0,12.8-9.61A67.85,67.85,0,0,0,203,93.51a40,40,0,1,0-53.93,0,67.42,67.42,0,0,0-21,14.29,67.42,67.42,0,0,0-21-14.29,40,40,0,1,0-53.93,0A67.88,67.88,0,0,0,25.6,115.2,8,8,0,0,0,27.2,126.4Z"/></svg>