<svg xmlns="http://www.w3.org/2000/svg" viewBox="0 0 256 256" fill="currentColor"><path d="M96.26,37A8,8,0,0,1,102,27.29a104.11,104.11,0,0,1,52,0,8,8,0,0,1-2,15.75,8.15,8.15,0,0,1-2-.26,88,88,0,0,0-44,0A8,8,0,0,1,96.26,37ZM33.35,110a8,8,0,0,0,9.85-5.57,88,88,0,0,1,22-38.09A8,8,0,0,0,53.79,55.14a104.05,104.05,0,0,0-26,45A8,8,0,0,0,33.35,110Zm179.44-5.56a8,8,0,0,0,15.42-4.28,104,104,0,0,0-26-45,8,8,0,1,0-11.41,11.22A88,88,0,0,1,212.79,104.45ZM222.66,146a8,8,0,0,0-9.85,5.58,87.61,87.61,0,0,1-19,34.83A79.75,79.75,0,0,0,172,165.11a4,4,0,0,0-4.83.31,59.81,59.81,0,0,1-78.27,0,4,4,0,0,0-4.84-.31,79.52,79.52,0,0,0-22,21.12,87.7,87.7,0,0,1-18.83-34.67,8,8,0,0,0-15.42,4.28,104.07,104.07,0,0,0,200.46,0A8,8,0,0,0,222.66,146ZM128,164a44,44,0,1,0-44-44A44.05,44.05,0,0,0,128,164Z"/></svg>