<svg xmlns="http://www.w3.org/2000/svg" viewBox="0 0 256 256" fill="currentColor"><path d="M228.25,63.07l-4.66-2.69a23.6,23.6,0,0,0,0-8.76l4.66-2.69a8,8,0,0,0-8-13.86l-4.67,2.7A23.92,23.92,0,0,0,208,33.38V28a8,8,0,0,0-16,0v5.38a23.92,23.92,0,0,0-7.58,4.39l-4.67-2.7a8,8,0,1,0-8,13.86l4.66,2.69a23.6,23.6,0,0,0,0,8.76l-4.66,2.69a8,8,0,0,0,4,14.93,7.92,7.92,0,0,0,4-1.07l4.67-2.7A23.92,23.92,0,0,0,192,78.62V84a8,8,0,0,0,16,0V78.62a23.92,23.92,0,0,0,7.58-4.39l4.67,2.7a7.92,7.92,0,0,0,4,1.07,8,8,0,0,0,4-14.93ZM200,64a8,8,0,1,1,8-8A8,8,0,0,1,200,64ZM128,76a44,44,0,1,1-44,44A44,44,0,0,1,128,76Zm102.56,34.68a103.92,103.92,0,1,1-85.24-85.24,8,8,0,0,1-2.64,15.78A88.07,88.07,0,0,0,40,128a87.62,87.62,0,0,0,22.24,58.41A79.71,79.71,0,0,1,84,165.1a4,4,0,0,1,4.83.32,59.81,59.81,0,0,0,78.27,0,4,4,0,0,1,4.84-.32,79.86,79.86,0,0,1,21.79,21.31A87.62,87.62,0,0,0,216,128a88.85,88.85,0,0,0-1.22-14.68,8,8,0,1,1,15.78-2.64Z"/></svg>