<?xml version="1.0" encoding="UTF-8"?>
<svg width="128pt" height="128pt" version="1.1" viewBox="0 0 128 128" xmlns="http://www.w3.org/2000/svg">
 <g fill="#95968e">
  <path d="m61.566 22.398h-9.5977v-9.5977h-11.516v9.5977h-9.5977v11.516h9.5977v9.5977h11.516v-9.5977h9.5977z"/>
  <path d="m97.145 22.398h-9.5977v-9.5977h-11.516v9.5977h-9.5977v11.516h9.5977v9.5977h11.516v-9.5977h9.5977z"/>
  <path d="m61.566 58.242h-9.5977v-9.5977h-11.516v9.5977h-9.5977v11.516h9.5977v9.5977h11.516v-9.5977h9.5977z"/>
  <path d="m97.145 58.242h-9.5977v-9.5977h-11.516v9.5977h-9.5977v11.516h9.5977v9.5977h11.516v-9.5977h9.5977z"/>
  <path d="m61.566 94.086h-9.5977v-9.5977h-11.516v9.5977h-9.5977v11.516h9.5977v9.5977h11.516v-9.5977h9.5977z"/>
  <path d="m97.145 94.086h-9.5977v-9.5977h-11.516v9.5977h-9.5977v11.516h9.5977v9.5977h11.516v-9.5977h9.5977z"/>
 </g>
</svg>
