<?xml version="1.0" encoding="UTF-8"?>
<svg width="150px" height="150px" viewBox="0 0 150 150" version="1.1" xmlns="http://www.w3.org/2000/svg" xmlns:xlink="http://www.w3.org/1999/xlink">
    <title>menu-theme</title>
    <g id="menu-theme" stroke="none" stroke-width="1" fill="none" fill-rule="evenodd">
        <g id="noun-dark-2960721-95968E" transform="translate(26.000000, 26.000000)" fill="#95958E" fill-rule="nonzero">
            <path d="M47.6729439,0.017943221 C34.8946386,0.363318375 22.7561406,5.68436485 13.8501005,14.8449973 C4.94391876,24.0054883 -0.0262718975,36.2799294 0.00010444795,49.0500675 C0.00010444795,57.6424309 2.26375155,66.0839916 6.56425444,73.5251045 C10.8646157,80.9665003 17.0502705,87.1461607 24.499538,91.4417765 C31.9486638,95.7382412 40.3984269,98 48.9999991,98 C57.6012881,98 66.0516177,95.7382412 73.5004603,91.4417765 C80.9495861,87.1458778 87.1350993,80.9660759 91.4357438,73.5251045 C95.7361051,66.0832842 97.9998949,57.6427139 97.9998949,49.0500675 C98.0180439,40.2962913 95.6858325,31.6978449 91.2465489,24.1506324 C86.8072653,16.6037029 80.423069,10.3837247 72.7589747,6.13917812 C65.0948804,1.89463151 56.4324146,-0.219012371 47.6722359,0.017943221 L47.6729439,0.017943221 Z M49.0000133,4.55263665 L49.0000133,93.5474983 C37.2549162,93.4436085 26.02614,88.7095017 17.7573583,80.3757382 C9.48843496,72.0425405 4.84961868,60.7841084 4.84961868,49.0509163 C4.84961868,37.3170168 9.48857658,26.0584432 17.7573583,17.7246797 C26.0257152,9.39091617 37.254633,4.65732151 49.0000133,4.55263665 L49.0000133,4.55263665 Z" id="Shape"></path>
        </g>
    </g>
</svg>